<svg width="70" height="92" viewBox="0 0 70 92" fill="none" xmlns="http://www.w3.org/2000/svg">
<path d="M45.0701 19.7902C47.1101 15.2802 54.07 12.3802 58.58 14.4002C59.35 14.7402 60.0601 15.1902 60.7501 15.6702C62.7301 17.0702 64.4501 18.8202 65.8201 20.8202C66.4701 21.7702 67.0501 22.7902 67.3801 23.8902C68.3201 26.9702 65.43 32.4902 62.83 34.3902" fill="#D42028"/>
<path d="M25.41 19.74C23.69 15.1 16.96 11.71 12.31 13.41C11.52 13.7 10.78 14.09 10.06 14.52C7.98996 15.77 6.13998 17.4 4.63998 19.3C3.91998 20.2 3.27996 21.17 2.86996 22.25C1.71996 25.26 4.20998 30.97 6.66998 33.04" fill="#D42028"/>
<path d="M54.67 76.6499C55.8 78.2499 56.92 79.8499 58.05 81.4499C58.8 82.5099 59.59 83.7099 59.42 84.9999C59.25 86.2899 56.5 87.9099 55.67 86.8999C53.87 84.7099 52.26 82.3799 50.85 79.9199" stroke="#034865" stroke-width="2" stroke-linecap="round" stroke-linejoin="round"/>
<path d="M19.9299 79.5103C18.9599 81.2103 17.9799 82.9103 17.0099 84.6003C16.3599 85.7303 15.6899 87.0002 15.9799 88.2702C16.2699 89.5402 19.1599 90.8902 19.8899 89.8102C21.4799 87.4702 22.8599 84.9902 24.0399 82.4102" stroke="#034865" stroke-width="2" stroke-linecap="round" stroke-linejoin="round"/>
<path d="M40.59 17.7503C31.53 16.2403 21.83 18.6703 14.69 23.9903C-0.810001 35.5403 -3.99999 58.3303 6.67001 73.3703C15.16 85.3403 35.76 89.0503 49.69 82.9003C61.94 77.4903 68.96 64.6903 69.01 52.2703C69.07 36.6403 57.43 20.5703 40.59 17.7603V17.7503ZM46.72 76.6503C35.56 81.5803 19.07 78.6003 12.26 69.0203C3.71001 56.9803 6.26999 38.7203 18.68 29.4703C24.4 25.2103 32.16 23.2703 39.42 24.4803C52.91 26.7303 62.23 39.6003 62.18 52.1203C62.14 62.0603 56.52 72.3203 46.71 76.6503H46.72Z" fill="#F04951"/>
<path d="M35.4 77.3899V71.6699" stroke="#034865" stroke-width="2" stroke-linecap="round" stroke-linejoin="round"/>
<path d="M35.37 31.5899C35.28 30.0199 35.19 28.4499 35.1 26.8799" stroke="#034865" stroke-width="2" stroke-linecap="round" stroke-linejoin="round"/>
<path d="M8.75 49.7603L13.25 50.0202" stroke="#034865" stroke-width="2" stroke-linecap="round" stroke-linejoin="round"/>
<path d="M54.83 51.9502H60.4" stroke="#034865" stroke-width="2" stroke-linecap="round" stroke-linejoin="round"/>
<path d="M42.61 31.1599C43.11 30.2999 43.61 29.4498 44.11 28.5898" stroke="#034865" stroke-width="2" stroke-linecap="round" stroke-linejoin="round"/>
<path d="M47.9902 34.8403C48.7602 34.4303 49.4703 33.9003 50.1003 33.2803" stroke="#034865" stroke-width="2" stroke-linecap="round" stroke-linejoin="round"/>
<path d="M53.11 40.1501C54.03 39.5701 54.96 38.9902 55.88 38.4102" stroke="#034865" stroke-width="2" stroke-linecap="round" stroke-linejoin="round"/>
<path d="M56.33 46.1299C56.83 46.0599 57.33 45.9899 57.83 45.9199" stroke="#034865" stroke-width="2" stroke-linecap="round" stroke-linejoin="round"/>
<path d="M11.09 43.6201C11.81 44.0401 12.53 44.4701 13.24 44.8901" stroke="#034865" stroke-width="2" stroke-linecap="round" stroke-linejoin="round"/>
<path d="M13.0701 38.3999C14.2701 39.1399 15.4701 39.8799 16.6601 40.6199" stroke="#034865" stroke-width="2" stroke-linecap="round" stroke-linejoin="round"/>
<path d="M17.5601 33.29C18.2001 34.15 18.8501 35 19.4901 35.86" stroke="#034865" stroke-width="2" stroke-linecap="round" stroke-linejoin="round"/>
<path d="M22.48 29.8701C22.92 30.5801 23.36 31.2901 23.8 31.9901" stroke="#034865" stroke-width="2" stroke-linecap="round" stroke-linejoin="round"/>
<path d="M27.63 27.9399C28.05 29.1599 28.47 30.3799 28.88 31.5899" stroke="#034865" stroke-width="2" stroke-linecap="round" stroke-linejoin="round"/>
<path d="M9.62 55.8699C10.62 55.7099 11.61 55.5499 12.61 55.3799" stroke="#034865" stroke-width="2" stroke-linecap="round" stroke-linejoin="round"/>
<path d="M11.75 61.3801C12.46 61.0201 13.18 60.6601 13.89 60.3101" stroke="#034865" stroke-width="2" stroke-linecap="round" stroke-linejoin="round"/>
<path d="M14.7402 66.0902C15.4602 65.4502 16.1802 64.8202 16.9002 64.1802" stroke="#034865" stroke-width="2" stroke-linecap="round" stroke-linejoin="round"/>
<path d="M20.16 72.4799L22.15 69.8999" stroke="#034865" stroke-width="2" stroke-linecap="round" stroke-linejoin="round"/>
<path d="M27.66 74.7001C28.16 73.8401 28.65 72.9801 29.15 72.1201" stroke="#034865" stroke-width="2" stroke-linecap="round" stroke-linejoin="round"/>
<path d="M41.55 71.4502C41.99 72.3002 42.43 73.1602 42.86 74.0102" stroke="#034865" stroke-width="2" stroke-linecap="round" stroke-linejoin="round"/>
<path d="M47.54 67.6001C48.31 68.4701 49.08 69.3401 49.85 70.2101" stroke="#034865" stroke-width="2" stroke-linecap="round" stroke-linejoin="round"/>
<path d="M51.45 63.6699C52.74 64.5699 54.1599 65.2799 55.6599 65.7499" stroke="#034865" stroke-width="2" stroke-linecap="round" stroke-linejoin="round"/>
<path d="M54.4 58.1602C55.65 58.2802 56.88 58.5702 58.04 59.0302" stroke="#034865" stroke-width="2" stroke-linecap="round" stroke-linejoin="round"/>
<path d="M33.3799 50.2399C33.2699 46.7799 33.3799 42.2999 33.5699 39.7299C33.6099 39.1099 33.7099 38.4999 33.8999 37.9499C34.3599 36.6299 36.2399 36.7299 36.6299 38.0699C36.7899 38.6199 36.9199 39.1899 36.9799 39.7399C37.2299 41.9699 37.2599 46.4299 37.2199 50.1799" stroke="#034865" stroke-width="2" stroke-linecap="round" stroke-linejoin="round"/>
<path d="M32.59 54.6899C30.47 58.0299 26.61 61.8699 25.23 65.5999C24.88 66.5399 26.44 67.5299 27.34 67.0799C28.25 66.6199 35.1 58.7799 36.55 56.2499" stroke="#034865" stroke-width="2" stroke-linecap="round" stroke-linejoin="round"/>
<path d="M22.27 43.3599C25.28 46.1899 28.4 48.8899 31.62 51.4599" stroke="#D42028" stroke-width="2" stroke-linecap="round" stroke-linejoin="round"/>
<path d="M34.78 56.3203C36.03 56.4703 37.41 56.1703 38.23 55.2203C40.39 52.7203 37.27 49.2503 34.44 50.0203C31.39 50.8503 31.56 55.9503 34.78 56.3303V56.3203Z" stroke="#034865" stroke-width="2" stroke-linecap="round" stroke-linejoin="round"/>
<path d="M55.6899 75.67C59.0299 72.46 61.68 68.53 63.39 64.23" stroke="#D42028" stroke-width="2" stroke-linecap="round" stroke-linejoin="round"/>
<path d="M64.2598 60.52C64.9198 59.29 65.3197 57.92 65.4297 56.52" stroke="#D42028" stroke-width="2" stroke-linecap="round" stroke-linejoin="round"/>
<path d="M6.87007 67.9302C3.23007 61.2102 2.41009 53.0102 4.64009 45.7002" stroke="#D42028" stroke-width="2" stroke-linecap="round" stroke-linejoin="round"/>
<path d="M5.41003 43.39C6.02003 41.61 6.77003 39.88 7.66003 38.23" stroke="#D42028" stroke-width="2" stroke-linecap="round" stroke-linejoin="round"/>
<path d="M46.86 23.29C51.96 25.25 56.37 28.95 59.17 33.63" stroke="#D42028" stroke-width="2" stroke-linecap="round" stroke-linejoin="round"/>
<path d="M36.2598 17.0901V13.3701" stroke="#034865" stroke-width="2" stroke-linecap="round" stroke-linejoin="round"/>
<path d="M39.19 13.31C37.22 13.61 35.2 13.63 33.22 13.36C32.63 13.28 31.99 13.1301 31.66 12.6401C31.32 12.1301 31.37 11.15 31.78 10.68C32.19 10.21 32.77 9.95005 33.37 9.78005C35.33 9.22005 37.45 9.58005 39.38 10.2501C39.72 10.3701 40.06 10.5 40.3 10.77C40.63 11.14 40.67 11.7101 40.49 12.1701C40.31 12.6301 39.69 13.23 39.2 13.31H39.19Z" stroke="#034865" stroke-width="2" stroke-linecap="round" stroke-linejoin="round"/>
<path d="M5.70001 17.9202C4.81001 17.1602 3.83 16.2001 3.94 15.0301C4.04 13.9501 5.18001 13.1501 6.26001 13.2501C7.34001 13.3501 8.25001 14.2302 8.57001 15.2602" stroke="#034865" stroke-width="2" stroke-linecap="round" stroke-linejoin="round"/>
<path d="M61.33 15.97C61.58 15.23 62.41 14.77 63.2 14.84C63.98 14.9 64.68 15.42 65.11 16.08C65.8 17.15 65.72 18.77 64.68 19.51" stroke="#034865" stroke-width="2" stroke-linecap="round" stroke-linejoin="round"/>
<path d="M9.07007 15.3501C11.8201 12.6301 14.1401 9.63006 15.9601 6.44006C16.5801 5.34006 16.9901 3.48007 18.1501 2.66007C19.4001 1.78007 22.0201 1.85006 23.5701 1.69006C33.0201 0.690064 42.6601 0.880051 52.0301 2.27005C52.7101 2.37005 53.4001 2.48005 54.0401 2.71005C55.3401 3.18005 56.3301 4.17005 56.6301 5.30005C57.3201 7.85005 58.5301 10.2801 59.4201 12.7801C59.8401 13.9501 60.2901 15.1601 61.2901 16.0601" stroke="#034865" stroke-width="2" stroke-linecap="round" stroke-linejoin="round"/>
</svg>
