<svg width="323" height="323" viewBox="0 0 323 323" fill="none" xmlns="http://www.w3.org/2000/svg">
<circle cx="161" cy="161" r="20" fill="#12326D"/>
<path d="M146.646 160.646C146.451 160.842 146.451 161.158 146.646 161.354L149.828 164.536C150.024 164.731 150.34 164.731 150.536 164.536C150.731 164.34 150.731 164.024 150.536 163.828L147.707 161L150.536 158.172C150.731 157.976 150.731 157.66 150.536 157.464C150.34 157.269 150.024 157.269 149.828 157.464L146.646 160.646ZM175 161V160.5H147V161V161.5H175V161Z" fill="white"/>
<circle cx="161.415" cy="161.415" r="161.415" fill="url(#paint0_radial_557_1963)" fill-opacity="0.15"/>
<path d="M171.982 113.752C164.787 112.156 157.324 112.21 150.153 113.91C142.982 115.609 136.288 118.91 130.574 123.566C124.861 128.221 120.275 134.109 117.161 140.789C114.048 147.468 112.486 154.767 112.595 162.136C112.704 169.505 114.479 176.754 117.789 183.339C121.098 189.924 125.855 195.674 131.704 200.159C137.552 204.643 144.34 207.746 151.558 209.233C158.777 210.721 166.238 210.554 173.383 208.747" stroke="#9EB2C8"/>
<path opacity="0.6" d="M170.239 91.8305C160.363 90.5784 150.335 91.4427 140.819 94.3658C131.303 97.289 122.519 102.204 115.049 108.784C107.58 115.365 101.597 123.46 97.4973 132.531C93.3979 141.602 91.2763 151.442 91.2734 161.397C91.2706 171.351 93.3866 181.192 97.4809 190.266C101.575 199.339 107.554 207.438 115.019 214.022C122.485 220.607 131.267 225.527 140.781 228.455C150.295 231.384 160.323 232.254 170.199 231.007" stroke="#9EB2C8"/>
<path opacity="0.3" d="M169.469 68.84C156.613 67.7214 143.665 69.2929 131.45 73.4543C119.234 77.6158 108.019 84.2758 98.5199 93.0103C89.0203 101.745 81.4441 112.362 76.274 124.186C71.1038 136.01 68.4531 148.781 68.4906 161.685C68.5282 174.59 71.2532 187.346 76.492 199.139C81.7309 210.933 89.3687 221.506 98.919 230.185C108.469 238.864 119.722 245.459 131.962 249.549C144.201 253.639 157.158 255.135 170.008 253.942" stroke="#9EB2C8"/>
<defs>
<radialGradient id="paint0_radial_557_1963" cx="0" cy="0" r="1" gradientUnits="userSpaceOnUse" gradientTransform="translate(159.521 157.627) scale(163.309)">
<stop stop-color="#072445"/>
<stop offset="1" stop-color="white" stop-opacity="0"/>
</radialGradient>
</defs>
</svg>
