<svg width="65" height="73" viewBox="0 0 65 73" fill="none" xmlns="http://www.w3.org/2000/svg">
<path d="M20.4901 51.8103C17.5301 46.2703 17.0201 39.7603 17.2301 33.4803C17.5501 23.7403 19.4801 14.0503 22.8901 4.92027C23.4501 3.41027 25.5001 1.58026 26.7301 1.25026C29.7001 1.09026 30.6201 2.86024 31.8901 5.55024C33.1601 8.24024 33.2201 11.3303 32.9801 14.2903C31.9801 26.7703 26.2201 40.6602 20.4901 51.8002V51.8103Z" fill="#857BBA"/>
<path d="M31.5702 7.52C31.6402 7.34 31.8302 7.71 31.6402 7.74C31.4502 7.76 31.3402 7.54 31.2802 7.36C30.3402 4.46 28.7302 2.55003 25.6602 1.64003C27.7102 0.330029 32.0902 -0.119975 34.3802 0.730025C37.6802 1.95003 39.8202 3.60002 40.8602 6.97002" fill="#A89ECD"/>
<path d="M9.47013 6.6398C2.10013 16.8098 -0.759876 31.2498 0.290124 43.7698C0.610124 47.5198 1.35013 51.3298 3.28013 54.5598C5.20013 57.7998 8.46014 60.4098 12.2101 60.7998C13.4101 58.4498 14.6201 55.8698 16.4001 53.9198C12.4301 53.0098 10.1701 52.0398 9.20013 48.9698C7.14013 42.4698 8.10014 32.4498 9.46014 25.7598C10.1001 22.6198 10.6401 19.3198 12.3801 16.6298C13.9601 14.1798 16.0401 11.1398 18.9401 10.2798L14.6401 5.27979L9.48013 6.61978L9.47013 6.6398Z" fill="#857BBA"/>
<path d="M54.4701 55.6999C53.7301 51.2399 52.9901 46.7799 52.2501 42.3199C51.2301 36.1899 50.2001 29.9999 47.9301 24.2199C45.6601 18.4299 52.1101 13.0199 47.5501 8.78989C41.6301 3.29989 34.5901 4.53987 27.9101 6.04987C22.2201 7.32987 16.9501 11.4299 14.3701 16.6599C11.7801 21.8899 12.1501 27.3399 11.9401 33.1699C11.8101 36.6899 10.5601 40.8399 10.3501 44.4699C10.0201 50.2099 10.0301 55.9799 11.7901 61.3999C15.7601 73.5899 34.4301 73.1399 43.4701 72.3899C47.1501 72.0799 49.5601 70.2699 52.6201 68.1899C55.9401 65.9299 55.1301 59.6599 54.4801 55.6999H54.4701Z" fill="#A89ECD"/>
<path d="M61.06 58.8297C60.32 54.3697 60.86 30.3397 59.77 24.2197C58.53 17.2897 55.81 12.8897 50.57 9.54973C47.91 7.84973 42.86 6.81975 39.7 6.90975C33.87 7.06975 28.8 11.4298 26.21 16.6598C23.62 21.8898 23.1 27.8697 22.88 33.6897C22.54 42.7598 19.63 52.9898 23.63 61.3898C31.63 78.1898 53.33 72.2998 56.38 70.2298C59.7 67.9698 61.72 62.7897 61.06 58.8297Z" fill="#857BBA"/>
<path d="M37.1999 71.25C31.6599 70.59 25.7599 67.61 23.6299 61.07C20.7499 52.22 22.5399 42.44 22.8799 33.37C23.0999 27.54 23.6299 21.56 26.2099 16.34C27.9399 12.84 30.7799 9.73002 34.2199 8.01002C37.2799 6.48002 40.9099 6.07001 44.0999 7.31001" stroke="#23275B" stroke-width="1.4" stroke-linecap="round" stroke-linejoin="round"/>
<path d="M10.4901 52.7202C14.4301 53.3202 18.4501 53.4202 22.4201 53.0202" stroke="#23275B" stroke-width="1.4" stroke-linecap="round" stroke-linejoin="round"/>
<path d="M32.1402 7.31982C28.8902 8.26982 26.3602 10.9198 24.7902 13.9198C23.2202 16.9198 22.4902 20.2698 21.7802 23.5798C21.2302 26.1298 20.6802 28.6798 20.1302 31.2298C18.5702 38.4398 19.7402 45.8098 19.5602 53.1798" stroke="#23275B" stroke-width="1.4" stroke-linecap="round" stroke-linejoin="round"/>
<path d="M10.5001 54.8101C14.4201 55.0301 18.3501 55.2401 22.2701 55.4601" stroke="#23275B" stroke-width="1.4" stroke-linecap="round" stroke-linejoin="round"/>
<path d="M59.4301 58.2399C59.8601 51.9499 60.1201 46.1399 59.9101 39.8699C59.8301 37.5899 58.4301 35.7699 56.6501 35.6499C49.6601 35.1899 42.6001 35.2899 35.6301 36.0499C34.4101 36.1799 33.4601 37.4699 33.4201 39.0299C33.2301 45.4899 32.8801 54.7099 32.7101 59.4899C32.6501 61.2099 33.6901 62.6599 35.0401 62.7299C44.1901 63.2599 49.2301 63.3499 56.4401 62.2099C58.0501 61.9599 59.3001 60.2999 59.4401 58.2399H59.4301Z" fill="#7360AA"/>
<path d="M63.1501 58.2399C63.5801 51.9499 63.8401 46.1399 63.6301 39.8699C63.5501 37.5899 62.1501 35.7699 60.3701 35.6499C53.3801 35.1899 46.3201 35.2899 39.3501 36.0499C38.1301 36.1799 37.1801 37.4699 37.1401 39.0299C36.9501 45.4899 36.6001 54.7099 36.4301 59.4899C36.3701 61.2099 37.4101 62.6599 38.7601 62.7299C47.9101 63.2599 52.9501 63.3499 60.1601 62.2099C61.7701 61.9599 63.0201 60.2999 63.1601 58.2399H63.1501Z" fill="#A89ECD"/>
<path d="M48.5702 21.47C45.9602 21.85 43.2902 21.87 40.6702 21.55C40.6002 20.47 40.6702 19.07 40.8502 18C43.3302 18.16 45.6502 18.14 48.1302 18.33C48.2002 19.19 48.5002 20.61 48.5702 21.47Z" stroke="#23275B" stroke-width="1.4" stroke-linecap="round" stroke-linejoin="round"/>
<path d="M33.0901 48.9502C34.2101 49.1202 35.3401 49.1902 36.4701 49.1502" stroke="#23275B" stroke-width="1.4" stroke-linecap="round" stroke-linejoin="round"/>
<path d="M34.96 48.6602C34.99 46.2802 35.0099 43.9002 35.0399 41.5202C35.0599 39.6202 35.1999 37.4702 36.6499 36.2402" stroke="#23275B" stroke-width="1.4" stroke-linecap="round" stroke-linejoin="round"/>
<path d="M37.6101 42.6399C44.4701 43.1199 51.3701 43.1299 58.2301 42.6799C59.9701 42.5699 61.7101 42.4199 63.4401 42.5499" stroke="#23275B" stroke-width="1.4" stroke-linecap="round" stroke-linejoin="round"/>
<path d="M37.6104 44.2498C44.4704 44.7298 51.3703 44.7398 58.2303 44.2898C59.9703 44.1798 61.7104 44.0298 63.4404 44.1598" stroke="#23275B" stroke-width="1.4" stroke-linecap="round" stroke-linejoin="round"/>
<path d="M33.1901 40.4199C32.7801 46.2999 32.5801 52.1999 32.5801 58.0899C32.5801 59.6499 32.8101 61.5499 34.2401 62.1599C37.6801 63.6199 41.5301 62.7899 45.2601 62.8899C50.4101 63.0299 55.5701 62.7599 60.6801 62.0799" stroke="#23275B" stroke-width="1.4" stroke-linecap="round" stroke-linejoin="round"/>
<path d="M18.6602 13.08C18.2902 10.57 17.0202 8.41006 15.4402 7.29006C13.6102 6.00006 11.1402 5.68006 9.04016 7.29006C11.3602 3.65006 13.7602 1.51006 18.0802 1.48006C21.1502 1.46006 25.1902 5.04006 26.4902 7.82006" fill="#A89ECD"/>
<path d="M39.4601 44.4102C39.4401 45.8402 39.5401 47.2802 39.7501 48.7002C39.7901 48.9402 40.0001 49.0401 40.2401 48.9901C40.4801 48.9401 40.6701 48.7302 40.7501 48.5002C40.8401 48.2702 40.8401 48.0201 40.8501 47.7701C40.8701 46.6801 40.8901 45.5801 40.9101 44.4901" stroke="#23275B" stroke-width="1.4" stroke-linecap="round" stroke-linejoin="round"/>
<path d="M18.4202 55.1201C18.4902 55.9601 18.5502 56.8001 18.6202 57.6501C18.6502 58.0001 18.6802 58.3601 18.8402 58.6701C19.0002 58.9801 19.3302 59.2401 19.6802 59.2001C19.9902 59.1701 20.2402 58.9201 20.3602 58.6401C20.4802 58.3601 20.5002 58.0401 20.5102 57.7301C20.5302 56.8801 20.5002 56.0401 20.4102 55.2001" stroke="#23275B" stroke-width="1.4" stroke-linecap="round" stroke-linejoin="round"/>
<path d="M17.5801 11.9599C20.2101 9.4799 23.3701 7.57992 26.7901 6.41992" stroke="#23275B" stroke-width="1.4" stroke-linecap="round" stroke-linejoin="round"/>
<path d="M29.2802 5.67995C31.3702 5.01995 33.5602 4.71996 35.7502 4.77996" stroke="#23275B" stroke-width="1.4" stroke-linecap="round" stroke-linejoin="round"/>
<path d="M10.6402 57.0901C7.68017 54.3201 5.91018 50.4501 5.07018 46.4801C4.23018 42.5101 4.27018 38.4101 4.49018 34.3601C4.92018 26.2301 6.22018 17.7301 11.1002 11.2201C12.6802 9.12014 15.3902 8.49015 17.5902 9.92015" stroke="#23275B" stroke-width="1.4" stroke-linecap="round" stroke-linejoin="round"/>
<path d="M4.81012 50.3099C3.70012 48.1099 3.12013 45.6499 3.13013 43.1899" stroke="#23275B" stroke-width="1.4" stroke-linecap="round" stroke-linejoin="round"/>
</svg>
