<svg width="43" height="44" viewBox="0 0 43 44" fill="none" xmlns="http://www.w3.org/2000/svg">
<path d="M40.9649 27.7017C41.6265 25.748 41.8702 23.6192 41.7484 21.5604C41.4872 17.1397 39.4909 13.1388 36.4733 9.98357C33.595 6.97416 29.7881 4.77543 25.7665 3.74313C22.0583 2.79249 18.06 2.77499 14.3634 3.87144C12.605 4.3905 10.8583 5.277 9.35524 6.33262C8.31068 7.06164 7.39958 7.90148 6.57554 8.83463C6.1287 9.19622 5.68766 9.57531 5.27564 9.97774C3.52889 11.6632 2.26381 13.7687 1.73572 16.154C1.23665 18.4111 1.27147 20.7964 1.48038 23.0768C1.6951 25.398 2.14194 27.7076 2.83251 29.9296C3.56371 32.28 4.61988 34.4204 6.38984 36.1526C7.20228 36.9516 8.10757 37.6456 9.00705 38.3455C9.98779 39.1095 10.9859 39.8443 12.1407 40.3226C14.375 41.2499 16.7891 41.6873 19.1858 41.8973C21.4258 42.0897 23.7006 41.9556 25.8826 41.3782C30.2523 40.2234 34.1405 37.249 37.1697 33.9305C38.8352 32.105 40.1583 30.0463 40.9533 27.7017H40.9649Z" fill="#F37321"/>
<path d="M42.996 20.762C42.938 18.4058 42.3461 16.0554 41.4524 13.88C39.7637 9.78 36.8795 6.15238 33.1945 3.68537C31.3607 2.46061 29.3528 1.54496 27.2173 1.0084C25.9348 0.687629 24.6291 0.495168 23.3176 0.413518C22.0467 0.331867 20.6481 0.238551 19.3888 0.471839C18.7563 0.588482 18.1238 0.681798 17.4854 0.786777C16.8819 0.885924 16.3306 1.10171 15.7561 1.31751C14.6477 1.59745 13.5567 1.96488 12.5179 2.43728C8.14817 4.41439 4.97385 7.96036 2.89052 12.247C0.743362 16.6853 -0.643589 21.6718 0.302323 26.6C1.11476 30.8575 3.35477 34.7942 6.5523 37.6987C13.6263 44.1257 25.5924 45.4963 33.3396 39.4483C36.9143 36.6605 39.3749 32.5955 41.1506 28.4721C42.2126 26.0051 43.0657 23.4798 42.996 20.7678V20.762ZM38.5856 11.4597C39.8101 13.5942 40.8024 16.0788 41.197 18.6099C40.7676 18.7907 40.3672 19.0357 39.9204 19.2048C39.2936 19.4439 38.6785 19.7939 38.075 20.0913C36.8099 20.7212 35.568 21.3977 34.2971 22.0159C31.8134 23.2232 29.2368 24.238 26.5963 25.0428C23.9327 25.8535 21.1878 26.4309 18.4255 26.81C18.0483 26.8625 17.6711 26.9033 17.2881 26.9499C16.7774 24.6054 17.2765 22.0626 18.2863 19.9163C19.7893 16.7145 22.4065 14.5799 25.1572 12.5153C27.9079 10.4507 30.9893 7.9312 32.1732 4.56603C34.8194 6.29236 37.0246 8.73021 38.5856 11.448V11.4597ZM14.8682 2.81638C18.6983 1.52746 22.981 1.43998 26.8807 2.30898C28.4534 2.65891 29.9448 3.25962 31.3375 4.05863C30.3916 5.47002 29.4283 6.84058 28.1458 7.98369C26.8111 9.17346 25.3197 10.1941 23.8921 11.273C20.9209 13.5243 18.1992 15.933 16.6033 19.3914C15.5007 21.7826 15.0365 24.5588 15.553 27.1541C14.1486 27.294 12.7326 27.399 11.3225 27.434C10.6029 25.0662 10.127 22.6225 10.2489 20.1321C10.3824 17.321 11.0729 14.5682 11.7287 11.8446C12.1175 10.2407 12.5411 8.65439 13.0576 7.08553C13.5451 5.60999 14.2183 4.2161 14.8682 2.81054V2.81638ZM10.6319 4.89846C11.5314 4.28609 12.4889 3.77285 13.4813 3.34127C12.0885 5.40586 11.4037 8.00702 10.8002 10.3632C10.069 13.2268 9.28558 16.1312 9.01284 19.0882C8.75169 21.8876 9.1231 24.7104 9.8775 27.4457C8.87936 27.434 7.88122 27.3815 6.88308 27.3115C6.77282 26.67 6.62774 26.0401 6.42463 25.4277C5.95458 23.9872 5.26401 22.6225 4.45737 21.3511C3.96991 20.587 3.44182 19.8522 2.91954 19.1115C2.72223 18.8315 2.50171 18.4466 2.24057 18.1142C2.39145 17.5251 2.55394 16.9361 2.75125 16.3529C4.25426 11.8738 6.66256 7.61043 10.6261 4.9043L10.6319 4.89846ZM1.97943 19.2398C2.37404 19.8988 2.78607 20.5404 3.18068 21.1994C3.98732 22.5525 4.66628 23.9347 5.00867 25.4802C5.13634 26.046 5.22339 26.6117 5.29302 27.1774C4.17882 27.0608 3.06462 26.8916 1.95041 26.7866C1.41072 24.2846 1.46875 21.7535 1.97363 19.2398H1.97943ZM2.68741 29.242C2.49591 28.7404 2.33342 28.2389 2.19415 27.7315C3.23291 28.0464 4.3181 28.2622 5.40909 28.4197C5.48453 30.0527 5.29883 31.6682 4.83458 33.2837C3.9583 32.0356 3.23871 30.6767 2.68741 29.242ZM10.4636 38.5443C8.82133 37.5704 7.35314 36.3281 6.10546 34.8992C6.25634 34.8059 6.38401 34.6484 6.45365 34.421C7.00495 32.578 7.21967 30.5776 7.05718 28.6179C7.75936 28.6879 8.44993 28.7463 9.1289 28.7987C9.52351 28.8279 9.91813 28.8512 10.3127 28.8746C11.0265 31.0675 11.9666 33.1845 12.9996 35.1792C13.6844 36.5031 14.4504 37.7861 15.257 39.0342C15.6748 39.6816 16.1159 40.3173 16.5685 40.9413C14.4156 40.4514 12.3322 39.6583 10.4636 38.5443ZM30.0608 39.5766C28.1226 40.7372 25.8071 41.2738 23.5845 41.4488C21.9712 41.5771 20.3174 41.5362 18.6751 41.3204C18.5822 40.9122 18.2224 40.5914 17.9555 40.2532C17.5376 39.7224 17.1372 39.18 16.7484 38.6318C16.0056 37.582 15.3208 36.4856 14.6941 35.36C13.5509 33.3129 12.5934 31.1666 11.8216 28.9504C13.2375 29.0029 14.6535 29.0029 16.0637 28.9271C16.6672 30.3968 17.6711 31.6449 18.9014 32.648C20.2709 33.7678 21.9248 34.7709 23.5787 35.4066C25.4415 36.1181 27.4436 36.7305 29.4341 36.9113C30.4728 37.0046 31.5058 37.0921 32.5504 37.0921C32.7767 37.0921 33.003 37.0921 33.2351 37.0921C32.2602 38.0311 31.2098 38.9001 30.0666 39.5825L30.0608 39.5766ZM34.6395 35.6282C34.4944 35.7915 34.3377 35.949 34.1869 36.1065C33.7168 36.1123 33.2467 36.1415 32.7709 36.1298C31.8946 36.1065 31.0067 36.0365 30.1479 35.8907C28.4766 35.5991 26.8111 35.1092 25.2558 34.4268C22.5632 33.2487 19.3076 31.5224 17.9032 28.7754C23.5845 28.1572 29.1845 26.5709 34.3493 24.1213C35.8001 23.4331 37.2219 22.6866 38.5508 21.7885C39.195 21.3511 39.8797 20.8728 40.4484 20.3363C40.7154 20.0855 41.0404 19.8347 41.3073 19.5489C41.4582 21.1469 41.3595 22.7508 40.9069 24.2788C39.694 28.373 37.4714 32.4439 34.6395 35.6282Z" fill="#0E1930"/>
</svg>
