<svg width="279" height="238" viewBox="0 0 279 238" fill="none" xmlns="http://www.w3.org/2000/svg">
<g style="mix-blend-mode:multiply">
<path d="M241.087 220.529C224.596 249.769 185.2 256.85 151.657 253.723C99.9613 248.925 49.9993 227.268 11.2724 192.852C4.19168 186.561 -3.06961 176.946 1.3558 168.589C4.95033 161.814 14.5417 160.574 21.803 163.108C29.0643 165.642 35.0251 170.872 41.8529 174.43C54.3705 180.936 69.9046 181.332 82.7474 175.491C61.5415 151.588 40.3537 127.685 19.1478 103.782C16.0229 100.259 12.7896 96.5391 11.6336 91.9562C8.05715 77.7583 27.5109 67.0828 41.4736 71.6837C55.4362 76.2846 64.5941 89.1167 74.7816 99.6843C84.9691 110.234 99.871 119.561 113.635 114.421C98.7692 88.9908 87.8772 61.2599 81.4649 32.5224C79.189 22.3502 78.3039 9.80568 86.5948 3.46152C93.0794 -1.49879 102.779 -0.0430455 109.48 4.62971C116.182 9.30246 120.553 16.5093 124.744 23.5004C139.429 48.0504 154.132 72.6003 168.817 97.1682C169.106 72.8339 169.395 48.5176 169.684 24.1834C169.756 18.7558 170.027 12.7531 173.785 8.81721C181.064 1.17906 193.907 7.25364 201.8 14.2448C256.693 62.9672 279.037 150.042 244.754 214.796L241.087 220.493V220.529Z" fill="#F0F5F9"/>
</g>
<g style="mix-blend-mode:multiply">
<path d="M262.582 190.388C279.652 182.911 282.469 161.884 275.389 146.572C267.549 129.642 250.354 123.855 234.585 134.836C220.983 144.307 215.655 163.196 225.553 177.232C227.269 179.676 229.31 181.671 231.532 183.289C239.534 191.34 251.492 195.258 262.582 190.406V190.388Z" fill="#F0F5F9"/>
</g>
<g style="mix-blend-mode:multiply">
<path d="M196.578 114.224C194.338 116.075 192.026 117.423 189.714 118.681C187.384 119.921 185.036 121.018 182.634 122.006C180.231 122.995 177.793 123.875 175.282 124.63C172.753 125.367 170.152 126.032 167.244 126.301L164.39 121.305C160.218 111.187 158.483 104.789 156.767 98.0852C155.322 91.8848 154.817 87.0323 154.781 82.8988C154.726 78.7472 155.359 75.6919 156.352 73.3556C157.345 71.0192 158.791 69.5634 160.561 68.8446C162.331 68.1616 164.39 68.1976 166.774 69.1681L167.659 69.5455L168.599 70.0487C169.195 70.3362 169.881 70.8395 170.513 71.2528C171.182 71.756 171.832 72.2413 172.536 72.8703L174.668 74.8652C177.576 77.8306 180.647 81.6227 184.043 87.0144C187.565 92.9092 190.888 98.6603 195.097 108.671L196.614 114.224H196.578Z" fill="#F0F5F9"/>
</g>
<g style="mix-blend-mode:multiply">
<path d="M141.288 124.774C139.789 127.703 138.001 130.237 136.14 132.681C134.262 135.108 132.311 137.408 130.252 139.637C128.192 141.865 126.061 144.004 123.785 146.071C121.491 148.12 119.107 150.114 116.289 151.84L111.665 148.389C103.916 140.589 99.8517 135.287 95.6611 129.734C91.9221 124.522 89.5559 120.209 87.8941 116.363C86.2142 112.499 85.582 109.39 85.582 106.784C85.582 104.178 86.3407 102.183 87.6954 100.727C89.0682 99.2893 91.019 98.3907 93.6562 98.193L94.6496 98.1211L95.7334 98.157C96.4198 98.157 97.2687 98.2828 98.0274 98.3727C98.8583 98.5165 99.6892 98.6423 100.61 98.8939L103.446 99.7206C107.438 101.069 111.954 103.045 117.499 106.298C123.388 109.947 129.041 113.523 137.441 120.496L141.288 124.792V124.774Z" fill="#F0F5F9"/>
</g>
<g style="mix-blend-mode:multiply">
<path d="M113.402 175.94C113.962 179.067 114.052 182.015 114.106 184.944C114.106 187.855 114.016 190.731 113.835 193.607C113.637 196.482 113.348 199.34 112.932 202.215C112.499 205.109 111.993 208.02 110.999 211.039L105.237 211.471C94.2371 210.734 87.6983 209.35 80.8705 207.787C74.6207 206.205 69.9966 204.336 66.2395 202.359C62.4644 200.382 59.9717 198.261 58.328 196.123C56.6662 193.984 55.9979 191.809 56.1604 189.689C56.3411 187.586 57.3164 185.519 59.2853 183.632L60.0259 182.931L60.911 182.248C61.4529 181.781 62.2115 181.35 62.8798 180.918C63.6385 180.487 64.3791 180.074 65.2641 179.678L68.0278 178.528C72.0377 177.072 76.8605 175.85 83.2548 175.131C90.1729 174.502 96.8562 174.017 107.766 174.754L113.42 175.958L113.402 175.94Z" fill="#F0F5F9"/>
</g>
</svg>
