<svg width="205" height="213" viewBox="0 0 205 213" fill="none" xmlns="http://www.w3.org/2000/svg">
<g opacity="0.5" clip-path="url(#clip0_1025_61794)">
<g style="mix-blend-mode:multiply">
<path d="M0.389679 192.602C-0.177856 176.109 -0.10318 159.601 0.59877 143.108C18.2372 140.621 36.1893 140.546 53.8576 142.793C54.0517 129.491 54.2459 116.188 54.44 102.871C68.6732 101.897 82.9214 101.328 97.1844 101.178C97.4533 85.8983 100.799 70.4537 103.472 54.9792C117.705 53.3014 132.103 53.0617 146.396 54.2002C147.8 36.4037 147.426 18.3675 147.919 0.40625C162.272 1.24514 176.625 1.91925 190.992 2.47352C190.066 66.7536 189.155 131.034 188.229 195.314C125.606 195.943 62.968 195.029 0.389679 192.602Z" fill="#F0F5F9"/>
</g>
<g style="mix-blend-mode:multiply">
<path d="M40.9932 205.172L86.4857 212.407L87.7253 176.365L123.152 181.923L124.585 146.03L159.832 152.007L161.923 116.279L196.857 123.11L201.023 77.3008L183.176 75.668L180.816 101.659L145.226 94.7078L143.105 130.945L107.499 124.908L106.051 161.055L70.5051 155.468L69.2655 191.465L43.801 187.42L40.9932 205.172Z" fill="#F0F5F9"/>
</g>
</g>
<defs>
<clipPath id="clip0_1025_61794">
<rect width="205" height="212" fill="white" transform="matrix(-1 0 0 1 205 0.40625)"/>
</clipPath>
</defs>
</svg>
