<svg width="279" height="238" viewBox="0 0 279 238" fill="none" xmlns="http://www.w3.org/2000/svg">
<g opacity="0.5" clip-path="url(#clip0_1025_68381)">
<g style="mix-blend-mode:multiply">
<path d="M241.083 220.53C224.592 249.77 185.196 256.851 151.654 253.724C99.9574 248.926 49.9954 227.269 11.2684 192.853C4.18778 186.562 -3.07352 176.947 1.3519 168.59C4.94642 161.815 14.5378 160.575 21.7991 163.109C29.0604 165.643 35.0212 170.873 41.849 174.431C54.3666 180.937 69.9007 181.333 82.7435 175.492C61.5376 151.589 40.3498 127.686 19.1439 103.783C16.019 100.26 12.7857 96.5401 11.6297 91.9572C8.05324 77.7592 27.507 67.0838 41.4697 71.6847C55.4323 76.2855 64.5902 89.1176 74.7777 99.6852C84.9652 110.235 99.8671 119.562 113.631 114.422C98.7653 88.9918 87.8733 61.2608 81.461 32.5234C79.1851 22.3512 78.3 9.80665 86.5909 3.4625C93.0754 -1.49781 102.775 -0.042069 109.477 4.63068C116.178 9.30343 120.549 16.5103 124.74 23.5014C139.425 48.0513 154.128 72.6012 168.813 97.1691C169.102 72.8349 169.391 48.5186 169.68 24.1844C169.753 18.7568 170.024 12.7541 173.781 8.81819C181.06 1.18004 193.903 7.25461 201.796 14.2458C256.689 62.9682 279.033 150.043 244.75 214.797L241.083 220.494V220.53Z" fill="#F0F5F9"/>
</g>
<g style="mix-blend-mode:multiply">
<path d="M262.578 190.391C279.648 182.914 282.466 161.887 275.385 146.574C267.546 129.645 250.35 123.858 234.581 134.839C220.979 144.31 215.651 163.199 225.549 177.235C227.265 179.679 229.306 181.674 231.528 183.292C239.53 191.343 251.488 195.261 262.578 190.408V190.391Z" fill="#F0F5F9"/>
</g>
<g style="mix-blend-mode:multiply">
<path d="M196.574 114.225C194.334 116.076 192.022 117.424 189.71 118.682C187.38 119.922 185.032 121.019 182.63 122.007C180.227 122.996 177.789 123.876 175.278 124.631C172.749 125.368 170.148 126.033 167.24 126.302L164.386 121.306C160.214 111.188 158.48 104.79 156.764 98.0862C155.319 91.8858 154.813 87.0333 154.777 82.8997C154.722 78.7482 155.355 75.6929 156.348 73.3565C157.342 71.0202 158.787 69.5644 160.557 68.8455C162.327 68.1626 164.386 68.1985 166.77 69.169L167.656 69.5464L168.595 70.0497C169.191 70.3372 169.877 70.8404 170.509 71.2538C171.178 71.757 171.828 72.2423 172.533 72.8713L174.664 74.8662C177.572 77.8316 180.643 81.6237 184.039 87.0153C187.561 92.9102 190.884 98.6613 195.093 108.672L196.61 114.225H196.574Z" fill="#F0F5F9"/>
</g>
<g style="mix-blend-mode:multiply">
<path d="M141.284 124.775C139.785 127.704 137.997 130.238 136.136 132.682C134.258 135.109 132.307 137.409 130.248 139.638C128.189 141.866 126.057 144.005 123.781 146.072C121.487 148.121 119.103 150.115 116.285 151.841L111.661 148.39C103.912 140.59 99.8478 135.288 95.6572 129.735C91.9182 124.523 89.552 120.21 87.8902 116.364C86.2103 112.5 85.5781 109.391 85.5781 106.785C85.5781 104.179 86.3368 102.184 87.6915 100.728C89.0643 99.2903 91.0151 98.3917 93.6522 98.194L94.6457 98.1221L95.7295 98.158C96.4159 98.158 97.2648 98.2838 98.0235 98.3737C98.8544 98.5175 99.6853 98.6433 100.606 98.8949L103.442 99.7216C107.434 101.069 111.95 103.046 117.495 106.299C123.384 109.948 129.038 113.524 137.437 120.497L141.284 124.793V124.775Z" fill="#F0F5F9"/>
</g>
<g style="mix-blend-mode:multiply">
<path d="M113.398 175.941C113.958 179.068 114.048 182.015 114.102 184.945C114.102 187.856 114.012 190.732 113.831 193.608C113.633 196.483 113.344 199.341 112.928 202.216C112.495 205.11 111.989 208.021 110.996 211.04L105.233 211.472C94.2332 210.735 87.6944 209.351 80.8666 207.788C74.6168 206.206 69.9927 204.337 66.2356 202.36C62.4605 200.383 59.9678 198.262 58.3241 196.124C56.6623 193.985 55.994 191.81 56.1565 189.69C56.3371 187.587 57.3125 185.52 59.2814 183.633L60.022 182.932L60.9071 182.249C61.449 181.782 62.2076 181.351 62.8759 180.919C63.6346 180.488 64.3752 180.075 65.2602 179.679L68.0239 178.529C72.0338 177.073 76.8566 175.851 83.2509 175.132C90.169 174.503 96.8523 174.018 107.762 174.755L113.416 175.959L113.398 175.941Z" fill="#F0F5F9"/>
</g>
</g>
<defs>
<clipPath id="clip0_1025_68381">
<rect width="279" height="237" fill="white" transform="translate(0 0.407227)"/>
</clipPath>
</defs>
</svg>
