<svg width="52" height="38" viewBox="0 0 52 38" fill="none" xmlns="http://www.w3.org/2000/svg">
<path opacity="0.2" d="M10.7302 38C7.75873 38 5.22751 36.9582 3.13651 34.8745C1.0455 32.6811 0 29.9942 0 26.8139C0 20.8918 1.76085 15.5729 5.28254 10.8572C8.91429 6.03175 12.9862 2.46753 17.4984 0.1645L18.1587 0C18.3788 0 18.5989 0.10967 18.819 0.32901C19.0392 0.548343 19.1492 0.822513 19.1492 1.15152C19.1492 1.48052 19.0392 1.75469 18.819 1.97403C16.5079 4.05772 14.6921 6.14142 13.3714 8.22511C12.1608 10.1991 11.5556 12.0087 11.5556 13.6537C11.5556 15.6277 12.491 17.0534 14.3619 17.9307C16.4529 19.0274 18.1037 20.2886 19.3143 21.7143C20.5249 23.14 21.1302 25.0592 21.1302 27.4719C21.1302 30.3232 20.0847 32.7908 17.9937 34.8745C16.0127 36.9582 13.5915 38 10.7302 38ZM41.6 38C38.6286 38 36.0974 36.9582 34.0063 34.8745C31.9153 32.6811 30.8698 29.9942 30.8698 26.8139C30.8698 20.8918 32.6307 15.5729 36.1524 10.8572C39.7841 6.03175 43.8561 2.46753 48.3683 0.1645L49.0286 0C49.2487 0 49.4688 0.10967 49.6889 0.32901C49.909 0.548343 50.0191 0.76768 50.0191 0.98702C50.0191 1.42569 49.909 1.75469 49.6889 1.97403C47.3778 3.94806 45.6169 5.97692 44.4063 8.06061C43.1958 10.0346 42.5905 11.899 42.5905 13.6537C42.5905 15.6277 43.4709 17.0534 45.2317 17.9307C47.4328 19.0274 49.0836 20.2886 50.1841 21.7143C51.3947 23.14 52 25.0592 52 27.4719C52 30.3232 50.9545 32.7908 48.8635 34.8745C46.8825 36.9582 44.4614 38 41.6 38Z" fill="white"/>
</svg>
