<svg width="33" height="72" viewBox="0 0 33 72" fill="none" xmlns="http://www.w3.org/2000/svg">
<path d="M24.619 0.817303C18.2287 19.4655 9.69067 35.7884 4.85279 56.2958C8.31065 57.5951 12.1433 58.711 12.1433 58.711C18.2363 40.8179 25.7398 21.7841 32.5021 4.12888L24.619 0.817303Z" fill="#857BBA"/>
<path d="M8.722 57.2986C15.3804 39.3154 22.0418 21.3227 28.7033 3.32999" stroke="#23275B" stroke-width="1.4" stroke-linecap="round" stroke-linejoin="round"/>
<path d="M8.04189 66.0233C6.92051 67.3103 5.80864 68.6004 4.68726 69.8873C4.61486 68.0348 4.46233 66.4296 4.40252 64.5706" fill="#857BBA"/>
<path d="M12.0028 58.9808C10.516 61.2006 9.23027 63.2542 7.78492 65.5084L4.79113 64.4962C4.59383 61.6991 4.76912 59.212 4.78366 56.41" stroke="#23275B" stroke-linecap="round" stroke-linejoin="round"/>
</svg>
