<svg width="69" height="61" viewBox="0 0 69 61" fill="none" xmlns="http://www.w3.org/2000/svg">
<g clip-path="url(#clip0_1025_84659)">
<path d="M45.4833 25.5871C45.3715 25.7988 45.2471 26.0243 45.1263 26.2682C45.4413 26.383 45.28 26.8935 44.9112 26.8155L44.887 26.8087C44.5945 27.5688 44.4562 28.3984 44.8881 29.0848C45.4966 30.0381 47.337 30.9044 48.4003 30.214C49.1137 27.9917 49.8409 25.782 50.5865 23.5688C48.8473 22.0969 46.3528 23.9821 45.4753 25.5848L45.4833 25.5871Z" fill="#F05354"/>
<path d="M17.7157 28.5379C19.0376 28.9019 20.3537 29.2556 21.6756 29.6196L23.8125 30.2047C24.3113 30.3453 24.3852 30.453 24.7861 30.1404C25.0518 29.9374 25.216 29.6015 25.3308 29.2864C25.4678 29.0471 25.5163 28.7828 25.482 28.5039C25.3417 28.4469 25.1991 28.3981 25.0508 28.3389C24.816 28.1858 24.4551 28.1101 24.1941 28.0192C23.5479 27.7849 22.9017 27.5506 22.2487 27.3404C20.9852 26.9234 19.7103 26.5466 18.4241 26.21L18.381 26.3629C18.4904 26.4372 18.5413 26.5645 18.4683 26.7002C18.4661 26.7083 18.4638 26.7163 18.4593 26.7324C18.9616 26.8914 19.4618 27.0585 19.9435 27.229C20.3149 27.3598 20.1561 27.9231 19.7847 27.7923C19.265 27.6023 18.7304 27.4343 18.1798 27.2616C17.9848 27.6757 17.8382 28.1034 17.7272 28.5586L17.7157 28.5379Z" fill="#F05354"/>
<path d="M42.2489 41.9C41.7007 41.7802 41.0291 41.5127 40.4675 41.502C38.7782 41.4861 38.3089 43.8901 38.0755 45.1185C38.0485 45.276 37.927 45.3372 37.7995 45.3274C37.4629 46.2748 37.1205 47.2119 36.7517 48.1503C36.5343 48.7057 36.3066 49.2669 36.0731 49.8178C35.9159 50.1904 35.5731 50.667 35.5412 51.0576C35.432 52.3384 37.0705 52.2879 38.0806 52.4945C39.1046 52.7137 40.1331 52.9168 41.1616 53.1199C42.1924 53.3149 43.2231 53.51 44.2607 53.6809C45.072 53.8228 45.9864 54.2456 46.6028 53.5073C46.9264 53.1295 47.0881 52.4021 47.2841 51.9535C48.0802 50.0846 48.8143 48.1896 49.492 46.2786C47.826 46.0261 46.1072 46.1148 44.4425 46.5661C44.0478 46.672 43.4829 46.3651 43.6145 45.8984C43.9537 44.7259 44.2953 43.5453 44.6506 42.3773C44.6013 42.3982 44.5405 42.3984 44.4738 42.3883L42.2511 41.8919L42.2489 41.9Z" fill="#F8D350"/>
<path d="M31.3873 38.0296C31.5556 37.5558 31.7916 37.0578 31.8875 36.5636C31.9283 36.4188 31.9772 36.2762 32.0238 36.1417C32.1574 35.6061 31.9705 35.3449 31.4687 35.3685C30.6659 35.0119 29.6607 34.9109 28.8123 34.6543C27.9939 34.4149 27.1845 34.1433 26.3773 33.8636C26.3683 33.8958 26.3592 33.928 26.3501 33.9602C26.3274 34.0406 26.2851 34.0982 26.2232 34.1329L24.8344 36.6251C24.6221 37.0082 24.4076 37.3994 24.1873 37.7803C24.0332 38.0496 23.5621 38.6116 23.5483 38.9378C23.5121 39.7441 25.5714 40.481 27.3434 40.8503C27.4302 40.0496 27.5089 39.2466 27.5957 38.4459C27.6392 38.076 28.2456 38.0819 28.2101 38.4541C28.1223 39.2893 28.0345 40.1244 27.9467 40.9596C28.7097 41.0878 29.3472 41.1373 29.6433 41.0731C30.6129 40.8687 31.1029 38.7919 31.3793 38.0273L31.3873 38.0296Z" fill="#3167B2"/>
<path d="M23.5153 23.4067C25.0049 23.792 26.4923 24.1852 27.9899 24.5727C31.1301 25.3886 34.2623 26.2021 37.4025 27.0179C37.4829 27.0406 37.5405 27.0829 37.5855 27.139C38.0007 26.0053 38.4158 24.8716 38.831 23.7378C32.7827 21.468 26.5955 19.5673 20.3201 18.0413C20.3248 18.086 20.3112 18.1343 20.2896 18.1803C19.7205 19.3054 19.1675 20.4351 18.6225 21.567C18.6386 21.5715 18.6605 21.5863 18.6743 21.5989C20.1042 22.6274 21.8406 22.9693 23.5233 23.409L23.5153 23.4067ZM34.9923 23.1507C35.3477 22.999 36.2875 23.1163 35.9761 23.6973L36.0002 23.7041C36.1223 23.4866 36.5496 23.5115 36.5748 23.8226C36.6122 24.337 36.305 24.841 35.775 24.9956C35.284 25.1352 34.7342 24.8672 34.5018 24.4282C34.2486 23.9399 34.4866 23.3729 34.99 23.1587L34.9923 23.1507ZM32.1149 22.296C32.5725 22.121 33.1783 22.2831 33.429 22.7186C33.429 22.7186 33.4348 22.7289 33.4405 22.7392C33.4544 22.7518 33.4579 22.7702 33.4694 22.7908C33.6847 23.2597 33.457 23.8209 33.0157 24.0613C32.5045 24.3341 31.8995 24.0767 31.6486 23.5804C31.4034 23.0943 31.5874 22.5034 32.1207 22.3063L32.1149 22.296Z" fill="#3167B2"/>
<path d="M51.0891 25.9163C50.5698 27.481 50.0608 29.04 49.5575 30.6093C48.0012 35.4517 46.5151 40.3225 45.0933 45.2115C49.0996 44.4648 53.3397 45.5386 56.485 48.1539C56.9475 47.0682 57.4019 45.9803 57.8402 44.8878C57.3358 43.8422 56.2287 43.1479 55.0091 43.1602C54.8082 43.1644 54.8129 42.8704 55.0058 42.864C56.2517 42.8504 57.3863 43.509 57.987 44.5209C58.4822 43.2882 58.9614 42.0508 59.4244 40.809C59.3487 40.8311 59.2624 40.7981 59.2346 40.712C58.9116 39.6394 57.9511 38.8562 56.792 38.7466C56.5979 38.7266 56.5923 38.4383 56.7887 38.4503C58.0592 38.5653 59.1358 39.3987 59.5063 40.5802C60.0331 39.1739 60.538 37.7527 61.0245 36.3351C60.2301 35.4249 59.0549 34.972 57.8265 35.0773C57.6313 35.0918 57.628 34.7955 57.8231 34.7811C59.086 34.6767 60.2773 35.1342 61.1291 36.0258C61.5178 34.8933 61.8883 33.7643 62.2448 32.6227C62.2448 32.6227 62.2391 32.6124 62.2333 32.6021C61.7989 31.5242 60.5692 30.9256 59.4229 31.2018C59.2348 31.2529 59.1522 30.9604 59.3484 30.9115C60.5417 30.6225 61.7908 31.1831 62.3789 32.2089C62.422 32.056 62.4732 31.9054 62.5243 31.7548C62.7241 31.1075 62.9137 30.4661 63.1135 29.8188C62.3711 28.6627 61.2167 27.9203 59.8321 27.6863C59.6321 27.656 59.7219 27.3686 59.9115 27.4047C61.2719 27.6319 62.4389 28.3605 63.2201 29.4407C63.8296 27.3715 64.3907 25.2887 64.9277 23.1991C65.0954 22.5427 65.2573 21.8761 65.4169 21.2176C65.3767 21.2062 65.3364 21.1949 65.3053 21.1513C64.4908 20.0965 63.2795 19.4945 61.9358 19.4544C61.7635 19.4492 61.7224 19.1944 61.8957 19.1651C61.9324 19.1581 61.9691 19.1511 62.0059 19.1441C62.0506 19.1393 62.0909 19.1507 62.1208 19.1678C63.467 19.2607 64.6474 19.8801 65.495 20.9095C65.6705 20.1946 65.8277 19.4832 65.9871 18.7638C66.0526 18.4696 66.2348 18.0085 66.2199 17.6916C66.1924 17.0497 65.73 16.8412 65.2627 16.527C64.9622 16.3294 64.6389 16.1514 64.303 15.9872C64.178 16.0301 64.0299 16.0318 63.8677 15.96C62.1185 15.2323 60.2954 14.7357 58.4103 14.5517C57.6659 14.4808 56.8791 14.4066 56.126 14.4897C55.0148 14.6107 54.7407 15.3673 54.4258 16.2687C54.2484 16.7746 54.063 17.2782 53.8937 17.7864C53.1557 19.8801 52.4316 21.9865 51.7235 24.0974C51.5189 24.6998 51.3201 25.3126 51.1155 25.9151L51.0891 25.9163ZM61.0057 22.7534C62.3391 22.7993 63.5446 23.3911 64.3556 24.4275C64.4709 24.5729 64.2557 24.7816 64.1427 24.6281C63.3767 23.6477 62.2758 23.0855 61.017 23.052C60.8184 23.0481 60.815 22.7518 61.0137 22.7557L61.0057 22.7534Z" fill="#F8AFB0"/>
<path d="M45.115 30.1572C43.8577 29.1947 43.8831 27.9337 44.3243 26.6769C43.237 26.4051 42.1725 26.1137 41.126 26.6525C40.3431 27.0572 39.6264 27.689 38.892 28.1682C38.4451 28.4591 37.9902 28.7478 37.5376 29.0284C35.5957 34.2833 33.6401 39.5255 31.6602 44.761C31.6204 44.8714 31.4496 44.9535 31.3289 44.9195C30.0681 44.6161 28.8073 44.3128 27.551 43.9933C27.405 44.9424 27.3581 45.9715 27.9668 46.3081C28.5156 46.6105 29.391 46.7097 30.0025 46.8821L35.8926 48.5426C35.8926 48.5426 35.9167 48.5495 35.9248 48.5517C36.3915 47.3891 36.8364 46.2116 37.2468 45.0331C37.2912 44.9066 37.3943 44.8488 37.5022 44.8358C37.7278 43.666 38.2289 41.4881 39.4317 40.9499C39.9396 40.7196 40.5501 40.9265 41.0741 41.0395C42.2613 41.296 43.4439 41.5686 44.6288 41.8332C44.6932 41.8513 44.7472 41.8752 44.7864 41.921C45.8715 38.2574 46.9967 34.6051 48.1725 30.9584C47.1583 31.2283 45.9579 30.803 45.115 30.1572Z" fill="#FDE1E1"/>
<path d="M50.1035 46.3896C49.6122 47.7624 49.0968 49.1285 48.5492 50.4855C48.0915 51.6159 47.7125 52.8988 47.0707 53.9427C46.6996 54.5503 46.2243 54.5726 45.5269 54.4889C44.0978 54.3205 42.6509 53.9995 41.2328 53.73C39.724 53.4436 38.222 53.133 36.7246 52.8064C36.0856 52.6697 35.0643 52.5642 34.8103 51.8324C34.5399 51.0352 35.3774 49.8208 35.7033 49.0962L28.2603 46.9977C27.8821 46.8911 27.3261 46.8299 27.0413 46.5151C26.5364 45.9645 26.8627 44.6841 27.0194 43.851C21.6437 42.4917 16.3089 40.9877 11.0149 39.3388C10.8057 39.2798 10.7132 39.1148 10.786 38.9181C12.2652 34.6881 13.9192 30.5161 15.7193 26.4112C15.2478 26.2349 14.7993 26.039 14.3656 25.8211C13.2566 25.2566 13.9806 24.4444 14.4233 23.6138C16.2599 20.1186 17.9746 16.563 19.5571 12.9527C19.614 12.8124 19.7594 12.6971 19.9342 12.7551C20.2435 12.8596 20.555 12.9561 20.8723 13.063C21.246 13.1857 21.0872 13.7489 20.7135 13.6262C20.4824 13.5524 20.2514 13.4786 20.0283 13.407C18.8491 16.0799 17.6101 18.7186 16.2906 21.3346C15.9177 22.072 15.547 22.8014 15.158 23.5343C14.9948 23.8357 14.724 24.211 14.6332 24.5329C14.5625 24.6606 14.4894 24.7964 14.4187 24.9241C14.6345 25.2368 14.9166 25.4379 15.2626 25.5355C15.4926 25.6438 15.7227 25.7521 15.9653 25.8465C17.1526 23.1759 18.4019 20.5314 19.7295 17.9177C19.7705 17.8337 19.8347 17.791 19.9104 17.7689C19.8592 17.5807 19.9859 17.3472 20.2376 17.4095C26.7267 18.9784 33.1047 20.9416 39.3452 23.3003C39.5096 23.364 39.5528 23.5499 39.4958 23.6902C38.959 25.1631 38.4163 26.6258 37.8794 28.0987C38.5016 27.7095 39.11 27.3078 39.7207 26.898C40.3771 26.4489 41.0946 25.7218 41.9429 25.6396C42.7465 25.5621 43.7065 25.8849 44.5537 26.1151C45.211 24.6153 46.2746 23.0303 48.0256 22.6119C48.994 22.3811 49.9901 22.5143 50.7842 23.0248C51.3582 21.3278 51.9403 19.6331 52.5326 17.9326C42.6573 15.1571 32.7819 12.3816 22.8986 9.60389L19.3501 8.60346C18.996 8.50364 18.238 8.14226 17.873 8.2044C17.4059 8.28987 17.1914 9.01983 17.0227 9.37182C16.0421 11.3711 15.0799 13.3669 14.1234 15.373C12.247 19.3173 10.4086 23.281 8.61038 27.2561C6.84869 31.1632 5.12269 35.0978 3.44724 39.038C3.20921 39.605 2.96541 40.1616 2.72739 40.7286C2.46771 41.3416 2.1098 41.7792 2.44265 42.3856C2.89107 43.1982 4.42444 43.6131 5.27553 43.9834C7.29399 44.8651 9.35 45.6446 11.4151 46.3918C19.8859 49.4662 28.5841 51.9185 37.2253 54.4502C41.1728 55.6066 45.4729 56.7755 49.4608 55.3548C52.444 54.2936 54.7962 52.0817 56.0313 49.3029C54.3414 47.8102 52.28 46.8034 50.1103 46.3654L50.1035 46.3896ZM24.0082 13.9558L25.7462 14.4458C26.1244 14.5524 25.9656 15.1156 25.5874 15.009L23.8494 14.519C23.4712 14.4124 23.63 13.8491 24.0082 13.9558Z" fill="#FDE1E1"/>
<path d="M67.3219 16.7078C66.7746 15.5373 64.7215 14.9324 63.655 14.3711C63.4215 14.2445 63.2011 14.2866 63.0534 14.41C61.7484 13.9552 60.4071 13.6292 59.0331 13.4502C57.7153 13.2872 55.9666 13.02 54.7492 13.6409C53.3897 14.3347 53.1287 16.2155 52.6784 17.5044C52.0133 19.4015 51.3642 21.3032 50.7174 23.1968C48.1829 30.708 45.8208 38.2851 43.6219 45.8996C43.4904 46.3663 44.0553 46.6732 44.4522 46.5593C48.6306 45.4181 53.2076 46.6217 56.3484 49.5918C56.6307 49.8538 57.1516 49.7314 57.2952 49.4071C59.9607 43.2184 62.2674 36.8851 64.2005 30.4291C65.1539 27.2322 66.013 24 66.7814 20.7508C67.0416 19.6429 67.8725 17.8359 67.3345 16.694L67.3219 16.7078ZM65.9683 18.767C65.6382 20.2461 65.2816 21.7265 64.9112 23.1942C64.1886 26.0654 63.3856 28.9138 62.5181 31.7441C60.8001 37.314 58.7729 42.7793 56.4869 48.1455C53.3415 45.5302 49.1015 44.4564 45.0951 45.2031C46.9719 38.7313 48.967 32.3015 51.099 25.9102C52.1729 22.6864 53.271 19.4695 54.4093 16.2638C54.7323 15.3647 55.0064 14.6081 56.1176 14.4871C56.8625 14.4018 57.6494 14.476 58.4019 14.5491C60.2847 14.7412 62.11 15.2298 63.8592 15.9575C64.0134 16.027 64.1615 16.0253 64.2946 15.9846C64.6305 16.1488 64.9538 16.3268 65.2542 16.5245C65.7215 16.8386 66.1839 17.0472 66.2114 17.689C66.2263 18.0059 66.0442 18.467 65.9786 18.7612L65.9683 18.767Z" fill="#303030"/>
<path d="M56.4337 48.2699C55.3588 51.5281 52.8129 54.1806 49.4627 55.3728C45.4771 56.7855 41.1747 55.6246 37.2294 54.4602C28.5803 51.9262 19.89 49.4761 11.4193 46.4018C9.35417 45.6545 7.29012 44.8728 5.2797 43.9933C4.43666 43.6253 2.89523 43.2081 2.44682 42.3955C2.11397 41.7892 2.47188 41.3516 2.73156 40.7386C2.96958 40.1716 3.20534 39.6127 3.45141 39.048C5.12913 35.0997 6.85286 31.1732 8.61455 27.266C10.4047 23.2887 12.2431 19.325 14.1276 15.383C15.084 13.3769 16.0486 11.373 17.0269 9.38178C17.1933 9.03783 17.4181 8.30209 17.8772 8.21436C18.2341 8.14995 18.9899 8.51937 19.3439 8.61919L22.8924 9.61962C32.9873 12.4483 43.0799 15.285 53.1805 18.124C53.9449 18.3395 54.1338 17.1767 53.3774 16.9635C43.4377 14.1699 33.506 11.3785 23.5641 8.59293C22.3008 8.23677 21.0375 7.8806 19.7822 7.52671C19.0419 7.318 17.9699 6.80728 17.19 7.10859C16.5375 7.35892 16.284 8.10395 16.0138 8.66185C15.4414 9.82945 14.8667 11.0051 14.3024 12.175C12.1989 16.5243 10.1598 20.8918 8.16436 25.289C6.16897 29.6862 4.2299 34.0992 2.33457 38.542C1.80263 39.7818 0.218795 42.0106 1.44176 43.3108C1.96277 43.866 2.80786 44.165 3.48997 44.4876C4.62641 45.0165 5.77419 45.5051 6.93909 45.9638C16.1584 49.6488 25.7738 52.2989 35.291 55.1124C39.8294 56.4527 44.7444 58.0903 49.4224 56.6557C53.2653 55.472 56.3566 52.4869 57.5621 48.7965C57.7962 48.0894 56.6839 47.5673 56.4475 48.2825L56.4337 48.2699Z" fill="#303030"/>
<path d="M39.3335 23.3059C33.0908 20.9552 26.7151 18.984 20.2259 17.4151C19.9742 17.3528 19.8476 17.5864 19.8988 17.7745C19.823 17.7966 19.7589 17.8393 19.7178 17.9233C16.2793 24.7279 13.2952 31.7388 10.7744 38.9238C10.7016 39.1204 10.7963 39.2774 11.0032 39.3444C17.7124 41.427 24.4851 43.2843 31.3213 44.9164C31.442 44.9504 31.6047 44.866 31.6445 44.7556C34.298 37.747 36.9112 30.7271 39.4842 23.6958C39.5331 23.5533 39.5003 23.3616 39.3335 23.3059ZM31.5124 43.4067C31.3849 43.7356 31.361 44.1284 30.9583 44.232C30.7334 44.2903 29.7963 43.9479 29.5607 43.8901C28.7067 43.6841 27.855 43.4701 27.0033 43.256C25.2195 42.8052 23.4482 42.3406 21.6757 41.8495C18.2469 40.9176 14.8362 39.9213 11.4414 38.8686C13.9407 31.7905 16.8851 24.89 20.2722 18.1751C20.2962 18.1211 20.2995 18.0786 20.3027 18.0361C26.5862 19.5644 32.7653 21.4628 38.8137 23.7326C36.4148 30.3005 33.9756 36.857 31.4963 43.4022L31.5124 43.4067Z" fill="#303030"/>
<path d="M37.3932 27.0149C34.253 26.1991 31.1208 25.3855 27.9806 24.5697C26.491 24.1844 25.0014 23.7992 23.506 23.4037C21.8313 22.9663 20.0868 22.6221 18.657 21.5936C18.3392 21.365 17.9446 21.8097 18.2704 22.0405C20.6754 23.7696 24.1242 24.1686 26.9402 24.9017C30.3965 25.798 33.8425 26.7 37.2987 27.5963C37.6769 27.7029 37.7736 27.1135 37.3932 27.0149Z" fill="#303030"/>
<path d="M33.4708 22.7819C33.4708 22.7819 33.4535 22.751 33.4419 22.7303C33.4419 22.7303 33.4361 22.72 33.4304 22.7097C33.1774 22.2822 32.5716 22.1201 32.114 22.2951C31.5807 22.4922 31.3968 23.0831 31.6419 23.5692C31.8929 24.0656 32.4978 24.323 33.009 24.0502C33.4503 23.8098 33.686 23.2508 33.4628 22.7796L33.4708 22.7819ZM32.1911 23.3158C31.962 22.8343 32.647 22.6539 32.9123 23.0066C33.0838 23.4459 32.4375 23.8282 32.1911 23.3158Z" fill="#303030"/>
<path d="M36.5744 23.8222C36.5432 23.4399 35.937 23.4949 35.9602 23.8749C35.9879 24.2388 35.6079 24.6008 35.2373 24.3747C35.0958 24.2913 34.9711 24.1172 35.0107 23.946C35.0379 23.8494 35.1157 23.7584 35.2085 23.7064C35.2601 23.6775 35.3072 23.6647 35.3622 23.6542C35.3703 23.6565 35.3783 23.6588 35.3864 23.661C35.4223 23.7493 35.4891 23.8203 35.6098 23.8543C35.6179 23.8566 35.634 23.8611 35.642 23.8634C35.7788 23.902 35.9094 23.8085 35.9653 23.7026C36.2745 23.1297 35.337 23.0043 34.9815 23.156C34.4782 23.3702 34.2401 23.9372 34.4933 24.4255C34.7234 24.8726 35.2733 25.1405 35.7666 24.9929C36.2966 24.8384 36.6014 24.3423 36.5583 23.8177L36.5744 23.8222Z" fill="#303030"/>
<path d="M24.0054 27.3312C22.1048 26.6477 20.1769 26.0608 18.2287 25.5462C18.0597 25.4986 17.9074 25.6381 17.8746 25.7852C17.8159 26.0552 17.7513 26.315 17.6926 26.5851C17.6721 26.6575 17.6827 26.7126 17.7116 26.7642C17.391 27.3774 17.1796 28.004 17.0454 28.6957C17.0161 28.8612 17.144 28.9928 17.2969 29.0359C19.5062 29.6414 21.7144 30.2814 23.9431 30.8489C24.2972 30.9487 24.7538 31.1469 25.109 30.9344C25.549 30.6676 26.0453 29.4003 26.1562 28.9452C26.4439 27.8016 24.8908 27.6416 24.0077 27.3232L24.0054 27.3312ZM25.3203 29.2915C25.2135 29.6088 25.0515 29.9367 24.7755 30.1455C24.3747 30.4581 24.3031 30.3423 23.8042 30.2017L21.6673 29.6166C20.3535 29.2549 19.0293 28.8989 17.7155 28.5372C17.867 27.8764 18.1038 27.283 18.4543 26.6869C18.5376 26.5454 18.4844 26.4261 18.375 26.3519L18.4181 26.199C19.694 26.5413 20.9689 26.9181 22.2346 27.3271C22.8854 27.5453 23.5339 27.7716 24.1801 28.0059C24.4388 28.1049 24.8077 28.1828 25.0367 28.3255C25.177 28.3825 25.3173 28.4394 25.4679 28.4905C25.508 28.7798 25.4538 29.0338 25.3168 29.2731L25.3203 29.2915Z" fill="#303030"/>
<path d="M34.0326 29.6284C32.0487 29.0864 30.0601 28.5605 28.0819 28.0289C27.7199 27.9268 27.6149 28.4531 27.9415 28.5886C27.4549 29.3287 27.136 30.0901 26.9438 30.9566C26.9065 31.1198 27.0402 31.2617 27.1954 31.2968C29.2423 31.7696 31.2846 32.2586 33.3361 32.7153C34.6439 33.0059 34.6577 32.3409 35.0761 31.1647C35.4367 30.1632 35.0327 29.9016 34.0326 29.6284ZM34.1575 31.8351C33.837 32.4483 33.6741 32.1939 32.9547 32.0345C32.326 31.8921 31.6997 31.7415 31.063 31.5968C29.9125 31.3332 28.754 31.0674 27.6059 30.7958C27.7871 30.0912 28.0652 29.4747 28.481 28.8623C28.5085 28.8267 28.5176 28.7945 28.5266 28.7623C29.5692 29.0388 30.6014 29.3212 31.6439 29.5977C32.2152 29.7588 32.939 29.8412 33.4773 30.0885C34.0401 30.1256 34.3628 30.4598 34.4432 31.0992C34.3464 31.3498 34.252 31.5925 34.1552 31.8432L34.1575 31.8351Z" fill="#303030"/>
<path d="M23.7854 32.8895C21.4224 32.3362 19.1939 31.4908 17.0677 30.3441C16.7203 30.1593 16.4073 30.6531 16.7525 30.8459C18.9225 32.0223 21.2131 32.8939 23.6243 33.4608C24.007 33.5514 24.1658 32.9881 23.7831 32.8976L23.7854 32.8895Z" fill="#303030"/>
<path d="M21.9759 35.6106L18.2132 34.1068C17.3231 33.7517 16.5329 33.3812 15.5701 33.5614C15.1845 33.6351 15.3461 34.2018 15.7294 34.1362C16.776 33.9362 17.9981 34.6542 18.9342 35.031C19.8944 35.4147 20.8546 35.7983 21.8068 36.1797C22.1737 36.3265 22.3325 35.7633 21.9656 35.6164L21.9759 35.6106Z" fill="#303030"/>
<path d="M20.6996 38.0735C19.908 37.9545 19.1949 37.6493 18.5491 37.1979C18.2314 36.9693 17.9162 37.4711 18.2339 37.6997C18.981 38.223 19.7974 38.5314 20.7063 38.666C21.0981 38.7243 21.0914 38.1318 20.6996 38.0735Z" fill="#303030"/>
<path d="M32.4431 35.0258C32.1334 34.7995 31.5419 34.7717 31.1856 34.68C30.5936 34.5305 30.004 34.3729 29.4166 34.2073C28.2418 33.8761 27.0829 33.4886 25.933 33.0688C25.5617 32.9381 25.4029 33.5013 25.7742 33.6321C25.7823 33.6344 25.7903 33.6366 25.7984 33.6389C25.2346 34.6526 24.6709 35.6663 24.1071 36.6799C23.6461 37.5141 22.9338 38.4077 22.7235 39.3387C22.6963 39.4352 22.7151 39.5534 22.8003 39.6209C24.1468 40.791 26.6117 41.26 28.3247 41.4998C28.9509 41.5895 29.9107 41.8514 30.4756 41.4808C31.061 41.0986 31.272 40.0115 31.5065 39.4262C31.9106 38.3935 32.3008 37.3483 32.6163 36.2907C32.7592 35.7838 32.9496 35.3858 32.4454 35.0178L32.4431 35.0258ZM31.3879 38.029C31.1138 38.7856 30.6238 40.8624 29.6519 41.0748C28.6272 41.2897 23.5051 40.2018 23.5592 38.9315C23.573 38.6053 24.0522 38.0455 24.2063 37.7763C24.4186 37.3931 24.6331 37.0019 24.8534 36.6211C25.3144 35.7869 25.7812 34.963 26.2422 34.1288C26.3041 34.0942 26.3464 34.0366 26.3691 33.9561C26.3782 33.924 26.3872 33.8918 26.3963 33.8596C27.2034 34.1393 28.0128 34.4109 28.8313 34.6503C29.6739 34.8966 30.6849 35.0079 31.4796 35.3622C31.9814 35.3386 32.1683 35.5998 32.0347 36.1354C31.9939 36.2803 31.9473 36.4148 31.8984 36.5573C31.8025 37.0515 31.5665 37.5496 31.396 38.0313L31.3879 38.029Z" fill="#303030"/>
<path d="M45.0712 26.2522C44.1219 26.0454 42.9155 25.5489 41.9329 25.6454C41.0845 25.7276 40.3648 26.4628 39.7106 26.9037C37.7229 28.2543 35.6613 29.4971 33.5352 30.661C33.1971 30.8436 33.5021 31.3639 33.8402 31.1813C35.556 30.2405 37.2452 29.2401 38.8836 28.1733C39.6284 27.6884 40.3347 27.0623 41.1176 26.6577C42.3476 26.0229 43.6 26.541 44.9021 26.8213C45.287 26.9037 45.4458 26.3405 45.0609 26.258L45.0712 26.2522Z" fill="#303030"/>
<path d="M35.8936 48.5414C34.6062 48.1784 33.3268 47.8177 32.0393 47.4547C31.3634 47.2642 30.6795 47.0714 30.0036 46.8808C29.384 46.7061 28.5166 46.6093 27.9678 46.3069C27.0059 45.7751 27.6881 43.5093 27.7871 42.573C27.9315 41.1979 28.0737 39.8309 28.2182 38.4558C28.2537 38.0836 27.6415 38.0673 27.6038 38.4476C27.426 40.126 27.2481 41.8043 27.0702 43.4827C26.9913 44.2248 26.4367 45.8839 27.0281 46.5283C27.3151 46.8351 27.8792 46.8986 28.2493 47.0029C29.0781 47.2366 29.9069 47.4703 30.7437 47.7062C32.4013 48.1735 34.0669 48.6431 35.7245 49.1104C36.1027 49.217 36.2615 48.6538 35.8833 48.5472L35.8936 48.5414Z" fill="#303030"/>
<path d="M49.5281 46.1752C48.831 48.1241 48.0856 50.0594 47.2803 51.9605C47.0924 52.4113 46.9227 53.1365 46.6071 53.5166C45.9827 54.2526 45.0785 53.8239 44.257 53.6879C43.2217 53.5089 42.1886 53.3219 41.1601 53.1188C40.1294 52.9237 39.1031 52.7126 38.0689 52.4992C37.061 52.2845 35.4225 52.335 35.5397 51.0565C35.5716 50.6659 35.9145 50.1893 36.0716 49.8167C36.3051 49.2658 36.5328 48.7046 36.7502 48.1492C37.1304 47.1706 37.4944 46.1875 37.8423 45.1998C37.9686 44.8445 37.3731 44.6766 37.2469 45.0319C36.7727 46.3749 36.2744 47.711 35.7382 49.0278C35.4409 49.7431 34.5347 51.0164 34.8144 51.8422C35.0604 52.5717 36.092 52.6714 36.7287 52.8162C38.2261 53.1428 39.7281 53.4534 41.237 53.7398C42.655 54.0093 44.0996 54.3384 45.5311 54.4987C46.2284 54.5824 46.706 54.5521 47.0748 53.9525C47.7166 52.9087 48.0956 51.6257 48.5533 50.4953C49.1055 49.1222 49.6254 47.7401 50.1213 46.3511C50.2475 45.9958 49.6601 45.8302 49.5258 46.1832L49.5281 46.1752Z" fill="#303030"/>
<path d="M44.6299 41.8317C43.445 41.5671 42.2602 41.3026 41.0672 41.0357C40.5512 40.925 39.9407 40.7181 39.4328 40.9484C38.1888 41.5097 37.7019 43.822 37.4796 44.9493C37.4097 45.3205 37.9971 45.4861 38.0751 45.1172C38.3165 43.891 38.7778 41.4847 40.4751 41.5029C41.0287 41.5113 41.7083 41.7811 42.2565 41.9009L44.4792 42.3972C44.8642 42.4797 45.023 41.9165 44.638 41.834L44.6299 41.8317Z" fill="#303030"/>
<path d="M51.6598 23.8888C50.853 22.7145 49.4011 22.2878 48.0219 22.6199C46.2606 23.0441 45.1948 24.6372 44.5329 26.153C43.9121 27.5849 43.6772 29.0648 45.1131 30.1645C46.1782 30.9773 47.8254 31.4504 48.9306 30.5807C49.2318 30.3442 48.7962 29.9174 48.503 30.1561C47.4643 30.9751 45.509 30.0851 44.8934 29.095C44.2075 28.0157 44.9547 26.5673 45.4806 25.595C46.4505 23.8186 49.4128 21.6918 51.1279 24.1731C51.3495 24.4962 51.8814 24.2118 51.6598 23.8888Z" fill="#303030"/>
<path d="M19.9229 27.214C18.4017 26.6635 16.7144 26.2399 15.2605 25.5433C14.9145 25.4458 14.6324 25.2447 14.4166 24.9319C14.4896 24.7961 14.5604 24.6684 14.6334 24.5327C14.7241 24.2108 15.0007 23.8458 15.1581 23.534C15.5391 22.7989 15.9178 22.0718 16.2908 21.3344C17.608 18.7265 18.8493 16.0797 20.0204 13.4045C20.2515 13.4783 20.4746 13.5499 20.7034 13.6318C21.077 13.7545 21.2358 13.1913 20.8622 13.0685C20.5529 12.964 20.2413 12.8675 19.924 12.7606C19.747 12.7107 19.6119 12.8203 19.5469 12.9583C17.9645 16.5686 16.2498 20.1242 14.4131 23.6193C13.9808 24.4442 13.2464 25.2621 14.3554 25.8267C16.012 26.6672 18.0141 27.1448 19.7641 27.7772C20.1355 27.908 20.2943 27.3447 19.9229 27.214Z" fill="#303030"/>
<path d="M25.7463 14.445L24.0082 13.955C23.6301 13.8483 23.4713 14.4116 23.8494 14.5182L25.5875 15.0082C25.9657 15.1149 26.1245 14.5516 25.7463 14.445Z" fill="#303030"/>
<path d="M65.5535 21.0122C64.7136 19.9242 63.4918 19.267 62.1031 19.1708C62.0731 19.1537 62.0329 19.1424 61.9904 19.1391L61.8802 19.1601C61.7069 19.1895 61.748 19.4442 61.9203 19.4494C63.264 19.4895 64.4754 20.0916 65.2898 21.1464C65.4029 21.2998 65.6768 21.1599 65.5557 21.0042L65.5535 21.0122Z" fill="#303030"/>
<path d="M64.3555 24.4271C63.5446 23.3906 62.339 22.7988 61.0056 22.753C60.8069 22.7491 60.8103 23.0453 61.0089 23.0492C62.2654 23.0908 63.3744 23.6553 64.1346 24.6253C64.2557 24.7811 64.4709 24.5725 64.3555 24.4271Z" fill="#303030"/>
<path d="M63.3858 29.7135C62.6052 28.4772 61.3621 27.649 59.8925 27.4084C59.7006 27.3803 59.6131 27.6597 59.8131 27.69C61.208 27.9182 62.3739 28.6813 63.1199 29.8557C63.2204 30.023 63.4863 29.8808 63.3858 29.7135Z" fill="#303030"/>
<path d="M62.5263 32.5195C62.0294 31.2936 60.6569 30.5853 59.3351 30.8988C59.1492 30.942 59.2237 31.2322 59.4199 31.1833C60.5661 30.9071 61.7959 31.5057 62.2303 32.5837C62.3021 32.7603 62.6004 32.688 62.5286 32.5114L62.5263 32.5195Z" fill="#303030"/>
<path d="M61.4445 36.3843C60.5874 35.2653 59.2485 34.6533 57.8227 34.7812C57.6276 34.7957 57.6309 35.0919 57.8261 35.0775C59.1417 34.9707 60.386 35.4865 61.1867 36.5287C61.2997 36.6822 61.5737 36.5423 61.4526 36.3865L61.4445 36.3843Z" fill="#303030"/>
<path d="M59.5239 40.6376C59.1602 39.4319 58.0743 38.5699 56.7796 38.4481C56.5855 38.4281 56.5888 38.7244 56.783 38.7443C57.9421 38.854 58.9048 39.6292 59.2256 40.7098C59.279 40.8899 59.5751 40.8257 59.5239 40.6376Z" fill="#303030"/>
<path d="M58.333 45.3568C57.9547 43.8951 56.5557 42.8493 54.9974 42.8616C54.7965 42.8658 54.8021 43.154 55.0008 43.1579C56.4293 43.1437 57.6912 44.0901 58.0347 45.4291C58.0859 45.6172 58.3761 45.5427 58.333 45.3568Z" fill="#303030"/>
</g>
<defs>
<clipPath id="clip0_1025_84659">
<rect width="57.7939" height="46.9591" fill="white" transform="translate(12.7422) rotate(15.7448)"/>
</clipPath>
</defs>
</svg>
