<svg width="88" height="88" viewBox="0 0 88 88" fill="none" xmlns="http://www.w3.org/2000/svg">
<rect x="0.5" y="0.5" width="87" height="87" rx="43.5" stroke="#072445" stroke-opacity="0.4" stroke-dasharray="5 5"/>
<path d="M48.1423 59.4094H26.2241C25.7671 59.4089 25.3289 59.2272 25.0057 58.904C24.6824 58.5808 24.5006 58.1427 24.5 57.6856V37.0163H48.14C48.3371 37.0136 48.5251 36.9333 48.6635 36.793C48.8019 36.6526 48.8795 36.4634 48.8795 36.2663C48.8795 36.0692 48.8019 35.8801 48.6635 35.7397C48.5251 35.5994 48.3371 35.5191 48.14 35.5163H24.5V31.9919C24.5005 31.5348 24.6823 31.0966 25.0056 30.7734C25.3288 30.4501 25.767 30.2683 26.2241 30.2678H29.1132V31.5682C29.1139 32.2184 29.3726 32.8417 29.8324 33.3014C30.2921 33.7611 30.9155 34.0197 31.5657 34.0204H32.3373C32.5362 34.0204 32.7269 33.9414 32.8676 33.8007C33.0083 33.66 33.0873 33.4693 33.0873 33.2704C33.0873 33.0715 33.0083 32.8807 32.8676 32.74C32.7269 32.5994 32.5362 32.5204 32.3373 32.5204H31.5657C31.3132 32.5201 31.0711 32.4198 30.8925 32.2413C30.714 32.0628 30.6135 31.8207 30.6132 31.5682V27.5736C30.6135 27.3211 30.7139 27.079 30.8925 26.9004C31.0711 26.7219 31.3132 26.6214 31.5657 26.6211H32.3373C32.5898 26.6214 32.8318 26.7219 33.0103 26.9005C33.1888 27.079 33.2892 27.3211 33.2894 27.5736V28.7678H32.345C32.148 28.7707 31.9601 28.851 31.8218 28.9914C31.6836 29.1317 31.6061 29.3208 31.6061 29.5178C31.6061 29.7148 31.6836 29.9039 31.8218 30.0443C31.9601 30.1846 32.1481 30.2649 32.345 30.2678H41.0747V31.5682C41.0755 32.2184 41.3342 32.8417 41.7939 33.3014C42.2537 33.7611 42.8771 34.0197 43.5272 34.0204H44.2988C44.4959 34.0176 44.684 33.9373 44.8224 33.797C44.9607 33.6566 45.0383 33.4675 45.0383 33.2704C45.0383 33.0733 44.9607 32.8841 44.8224 32.7437C44.684 32.6034 44.4959 32.5232 44.2988 32.5204H43.5272C43.2747 32.5201 43.0326 32.4198 42.8541 32.2413C42.6755 32.0628 42.575 31.8207 42.5747 31.5682V27.5736C42.575 27.3211 42.6755 27.079 42.854 26.9004C43.0326 26.7219 43.2747 26.6214 43.5272 26.6211H44.2988C44.5514 26.6214 44.7934 26.7219 44.972 26.9004C45.1506 27.079 45.251 27.3211 45.2513 27.5736V28.7678H44.3973C44.2003 28.7706 44.0122 28.8508 43.8738 28.9912C43.7355 29.1315 43.6579 29.3207 43.6579 29.5178C43.6579 29.7149 43.7355 29.9041 43.8738 30.0444C44.0122 30.1848 44.2003 30.265 44.3973 30.2678H53.0363V31.5682C53.037 32.2184 53.2957 32.8417 53.7555 33.3014C54.2152 33.7611 54.8386 34.0197 55.4888 34.0204H56.2604C56.4593 34.0204 56.65 33.9414 56.7907 33.8007C56.9313 33.66 57.0104 33.4693 57.0104 33.2704C57.0104 33.0715 56.9313 32.8807 56.7907 32.74C56.65 32.5994 56.4593 32.5204 56.2604 32.5204H55.4888C55.2363 32.5201 54.9942 32.4198 54.8156 32.2413C54.6371 32.0628 54.5366 31.8207 54.5363 31.5682V27.5736C54.5366 27.3211 54.637 27.079 54.8156 26.9004C54.9942 26.7219 55.2362 26.6214 55.4888 26.6211H56.2604C56.5129 26.6214 56.755 26.7219 56.9336 26.9004C57.1121 27.079 57.2126 27.3211 57.2129 27.5736V28.7678H56.3816C56.1845 28.7706 55.9964 28.8508 55.8581 28.9912C55.7197 29.1315 55.6421 29.3207 55.6421 29.5178C55.6421 29.7149 55.7197 29.9041 55.8581 30.0444C55.9964 30.1848 56.1845 30.265 56.3816 30.2678H61.6019C62.059 30.2683 62.4972 30.4501 62.8205 30.7734C63.1437 31.0966 63.3255 31.5348 63.326 31.9919V35.5163H51.14C50.9429 35.5191 50.7549 35.5994 50.6165 35.7397C50.4781 35.8801 50.4005 36.0692 50.4005 36.2663C50.4005 36.4634 50.4781 36.6526 50.6165 36.793C50.7549 36.9333 50.9429 37.0136 51.14 37.0163H63.326V46.4803C63.326 46.6792 63.405 46.87 63.5457 47.0107C63.6863 47.1513 63.8771 47.2303 64.076 47.2303C64.2749 47.2303 64.4657 47.1513 64.6063 47.0107C64.747 46.87 64.826 46.6792 64.826 46.4803C64.8268 43.4828 64.8254 34.8474 64.826 31.9919C64.8251 31.1371 64.4851 30.3176 63.8807 29.7131C63.2762 29.1087 62.4567 28.7687 61.6019 28.7678H58.7129V27.5736C58.7122 26.9234 58.4536 26.3 57.9938 25.8402C57.534 25.3804 56.9106 25.1218 56.2604 25.1211H55.4888C54.8385 25.1218 54.2152 25.3804 53.7554 25.8402C53.2956 26.3 53.037 26.9234 53.0363 27.5736V28.7678H46.7513V27.5736C46.7506 26.9234 46.492 26.3 46.0322 25.8402C45.5725 25.3804 44.9491 25.1218 44.2988 25.1211H43.5272C42.877 25.1218 42.2536 25.3804 41.7938 25.8402C41.334 26.3 41.0754 26.9234 41.0747 27.5736V28.7678H34.7894V27.5736C34.7887 26.9234 34.5302 26.3001 34.0705 25.8403C33.6108 25.3805 32.9875 25.1219 32.3373 25.1211H31.5657C30.9154 25.1218 30.2921 25.3804 29.8323 25.8402C29.3725 26.3 29.1139 26.9234 29.1132 27.5736V28.7678H26.2242C25.3694 28.7687 24.5498 29.1087 23.9453 29.7131C23.3409 30.3176 23.0009 31.1371 23 31.9919V57.6856C23.001 58.5404 23.341 59.3599 23.9454 59.9642C24.5499 60.5686 25.3694 60.9085 26.2241 60.9094H48.1423C48.3388 60.9058 48.526 60.8252 48.6637 60.6849C48.8014 60.5446 48.8785 60.3559 48.8785 60.1594C48.8785 59.9629 48.8014 59.7742 48.6637 59.6339C48.526 59.4936 48.3388 59.413 48.1423 59.4094Z" fill="#B81E29"/>
<path d="M56.812 46.5039C54.6414 46.5064 52.5605 47.3697 51.0256 48.9046C49.4908 50.4394 48.6275 52.5203 48.625 54.6909C49.0746 65.5528 64.5515 65.5493 64.9994 54.6909C64.9969 52.5202 64.1334 50.4392 62.5985 48.9044C61.0636 47.3696 58.9826 46.5063 56.812 46.5039ZM56.812 61.3783C55.0391 61.3763 53.3393 60.671 52.0857 59.4173C50.8321 58.1636 50.1269 56.4639 50.125 54.6909C50.4921 45.8195 63.1335 45.8224 63.4994 54.691C63.4973 56.464 62.7921 58.1637 61.5384 59.4174C60.2847 60.6711 58.585 61.3763 56.812 61.3783Z" fill="#B81E29"/>
<path d="M59.6875 52.093L56.3253 55.717L54.3346 53.8838C54.1882 53.7491 53.9943 53.678 53.7956 53.6862C53.5968 53.6945 53.4095 53.7813 53.2748 53.9277C53.14 54.0741 53.069 54.268 53.0772 54.4667C53.0855 54.6655 53.1723 54.8528 53.3187 54.9875L55.8591 57.3269C56.0051 57.4612 56.1983 57.5323 56.3966 57.5244C56.5948 57.5166 56.7818 57.4306 56.9168 57.2852L60.7869 53.1133C60.9178 52.9668 60.986 52.7747 60.9768 52.5785C60.9676 52.3822 60.8818 52.1974 60.7378 52.0637C60.5938 51.9301 60.403 51.8583 60.2066 51.8637C60.0102 51.8692 59.8238 51.9515 59.6875 52.093ZM34.0381 39.25H28.2578C28.0589 39.25 27.8681 39.329 27.7275 39.4697C27.5868 39.6103 27.5078 39.8011 27.5078 40C27.5078 40.1989 27.5868 40.3897 27.7275 40.5303C27.8681 40.671 28.0589 40.75 28.2578 40.75H34.0381C34.235 40.7471 34.423 40.6668 34.5612 40.5264C34.6995 40.3861 34.777 40.197 34.777 40C34.777 39.803 34.6995 39.6139 34.5612 39.4736C34.423 39.3332 34.235 39.2529 34.0381 39.25ZM34.0381 42.3144H28.2578C28.0589 42.3144 27.8681 42.3935 27.7275 42.5341C27.5868 42.6748 27.5078 42.8655 27.5078 43.0644C27.5078 43.2634 27.5868 43.4541 27.7275 43.5948C27.8681 43.7354 28.0589 43.8144 28.2578 43.8144H34.0381C34.235 43.8115 34.423 43.7312 34.5612 43.5909C34.6995 43.4506 34.777 43.2615 34.777 43.0644C34.777 42.8674 34.6995 42.6783 34.5612 42.538C34.423 42.3977 34.235 42.3174 34.0381 42.3144Z" fill="#B81E29"/>
</svg>
