<svg width="83" height="50" viewBox="0 0 83 50" fill="none" xmlns="http://www.w3.org/2000/svg">
<g clip-path="url(#clip0_1025_61661)">
<path d="M23.378 45.5675C28.0358 43.3204 32.8969 39.2126 39.6587 39.0409C46.7544 38.8548 51.2018 42.3615 51.2018 42.3615C51.746 42.2112 56.5852 37.1301 63.3689 34.2103C68.7305 31.8988 75.7173 31.4622 79.8891 32.2494C80.3171 32.3282 81.1732 32.0562 81.507 32.3282C81.8262 32.593 82.7476 34.5323 82.7476 34.5323C70.5879 32.3926 59.8936 37.3949 51.6734 44.5513C48.0531 42.9554 43.2791 40.7656 39.3395 41.2093C37.4967 41.4168 28.5147 45.4745 22.5291 49.3175C16.9716 39.0695 8.38139 26.188 0.886719 13.7787C2.09109 13.2849 1.67754 12.5407 2.88191 12.0469C10.8627 24.6279 16.4855 34.7113 23.378 45.5604V45.5675Z" fill="#FF464B"/>
<path d="M81.6368 32.5002C71.6319 29.931 58.1516 34.8046 51.2011 42.3546C46.7609 38.8193 40.398 37.7816 35.0364 39.7139C30.8646 41.2167 27.3023 43.6427 23.4208 45.7897C16.434 34.5326 9.70109 23.6119 2.70703 12.3549C7.25607 6.11447 16.4775 4.5329 23.6747 6.20751C28.2963 7.28097 32.5624 9.4923 36.618 11.9255C37.2493 10.3296 41.6967 4.23949 51.4913 2.27148C55.7791 1.41271 60.3137 -0.0686729 64.3694 1.55583C71.3924 11.2957 75.4046 22.2522 81.6368 32.5002Z" stroke="#1A245C" stroke-width="1.4" stroke-linecap="round" stroke-linejoin="round"/>
<path d="M79.5409 29.002C69.5359 26.4328 56.9916 30.6766 50.041 38.2338C45.6008 34.6985 38.3021 34.2834 32.9404 36.2156C28.7687 37.7185 25.2063 40.1445 21.332 42.2914" stroke="#1A245C" stroke-width="1.4" stroke-linecap="round" stroke-linejoin="round"/>
<path d="M36.6953 11.9883C41.433 22.0502 45.5685 27.897 50.3134 37.9589" stroke="#1A245C" stroke-width="1.4" stroke-linecap="round" stroke-linejoin="round"/>
<path d="M2.32888 12.4453C1.63963 12.6385 1.00117 13.0178 0.507812 13.5259C3.66384 18.8002 6.91419 24.0387 10.2734 29.1913" stroke="#1A245C" stroke-width="1.4" stroke-linecap="round" stroke-linejoin="round"/>
<path d="M14.3086 35.6055C15.4985 37.3731 16.594 39.2051 17.5735 41.0944" stroke="#1A245C" stroke-width="1.4" stroke-linecap="round" stroke-linejoin="round"/>
<path d="M81.0844 31.3047C81.643 32.5427 81.9405 33.3657 82.4991 34.6038C80.0251 34.2174 77.5148 34.0742 75.0117 34.1673" stroke="#1A245C" stroke-width="1.4" stroke-linecap="round" stroke-linejoin="round"/>
<path d="M42.0586 13.7209C45.5266 10.5506 49.9305 8.38939 54.5884 7.56641" stroke="#1A245C" stroke-width="1.4" stroke-linecap="round" stroke-linejoin="round"/>
<path d="M57.6562 6.80698C58.6285 6.74973 59.6007 6.59944 60.5511 6.36328" stroke="#1A245C" stroke-width="1.4" stroke-linecap="round" stroke-linejoin="round"/>
<path d="M44.7812 17.8354C50.6217 13.5129 57.7972 10.9653 65.0959 10.6289" stroke="#1A245C" stroke-width="1.4" stroke-linecap="round" stroke-linejoin="round"/>
<path d="M58.7617 16.4334C60.8657 15.5388 63.1657 15.0951 65.4583 15.1309" stroke="#1A245C" stroke-width="1.4" stroke-linecap="round" stroke-linejoin="round"/>
<path d="M49.9102 26.1436C51.8618 24.8412 53.9803 23.7892 56.2077 23.0234" stroke="#1A245C" stroke-width="1.4" stroke-linecap="round" stroke-linejoin="round"/>
<path d="M60.5664 21.4289C62.9389 20.1408 65.6451 19.4394 68.3585 19.418" stroke="#1A245C" stroke-width="1.4" stroke-linecap="round" stroke-linejoin="round"/>
<path d="M53.0195 30.7674C53.5492 30.3953 54.0861 30.0232 54.6302 29.6653C60.2095 25.9798 66.7465 23.7184 73.4358 23.1602" stroke="#1A245C" stroke-width="1.4" stroke-linecap="round" stroke-linejoin="round"/>
<path d="M9.04688 14.2668C16.44 10.2091 26.0604 10.4524 33.2359 14.8751" stroke="#1A245C" stroke-width="1.4" stroke-linecap="round" stroke-linejoin="round"/>
<path d="M20.4727 17.3221C24.6589 16.678 29.0121 17.0787 33.0025 18.4957" stroke="#1A245C" stroke-width="1.4" stroke-linecap="round" stroke-linejoin="round"/>
<path d="M17.1602 25.9361C24.2195 23.3813 31.9536 22.6942 39.3612 23.9538" stroke="#1A245C" stroke-width="1.4" stroke-linecap="round" stroke-linejoin="round"/>
<path d="M27.9102 32.5054C29.7385 31.6538 31.7046 31.1099 33.7144 30.9023" stroke="#1A245C" stroke-width="1.4" stroke-linecap="round" stroke-linejoin="round"/>
</g>
<defs>
<clipPath id="clip0_1025_61661">
<rect width="83" height="49" fill="white" transform="translate(0 0.324219)"/>
</clipPath>
</defs>
</svg>
