<svg width="51" height="41" viewBox="0 0 51 41" fill="none" xmlns="http://www.w3.org/2000/svg">
<g clip-path="url(#clip0_1025_84788)">
<path d="M32.0876 9.78132C32.1375 9.68977 32.2302 9.61935 32.3656 9.6123C35.786 9.37991 38.7575 11.3377 41.0449 13.5419C43.3751 15.7884 45.2135 18.5841 45.9475 21.6616C47.1233 26.5701 45.0853 32.056 40.3751 34.6968C35.4724 37.4433 28.8667 36.3517 24.7694 32.8095C20.4154 29.0489 18.52 22.556 20.7219 17.3236C20.9 16.894 21.1138 16.4785 21.3561 16.0701C20.3442 15.4996 19.3323 14.9222 18.3276 14.3447C17.5152 15.732 16.938 17.2602 16.6458 18.894C15.4558 25.6546 18.6625 33.1193 24.7551 36.9715C30.6411 40.6827 39.1779 40.8799 44.5722 36.2461C49.7456 31.8095 50.8644 24.7743 48.3917 18.7884C47.052 15.5489 44.8074 12.6616 42.128 10.2813C39.7765 8.19681 36.8905 6.37287 33.6411 6.1123C33.5342 6.2109 33.3846 6.28132 33.1922 6.28132C27.2634 6.26019 21.6411 9.19681 18.6625 13.8095C19.6672 14.387 20.6862 14.9644 21.6981 15.5348C23.9143 12.2179 27.9333 10.0841 32.1019 9.77428L32.0876 9.78132Z" fill="#E6E6E5"/>
<path d="M26.7851 33.5209C31.196 36.3026 37.5737 36.4576 41.6568 33.035C45.5761 29.7463 46.5024 24.4576 44.7067 19.9505C43.7234 17.4998 42.063 15.3167 40.0606 13.5069C38.2222 11.8449 35.9775 10.4153 33.4122 10.2393C33.3623 10.3167 33.2768 10.366 33.1485 10.366C28.759 10.366 24.5547 12.4928 22.2744 15.8801C23.4502 16.5562 24.6331 17.2252 25.8017 17.9153C27.2554 15.8871 29.7566 14.6055 32.3576 14.3871C32.4146 14.3167 32.4929 14.2745 32.607 14.2674C36.9395 14.035 40.6735 18.6266 41.4716 22.2393C42.177 25.4294 40.7875 28.9576 37.7162 30.6266C34.5167 32.366 30.2483 31.6266 27.6046 29.3167C24.8112 26.8731 23.5998 22.6829 25.0179 19.3026C25.139 19.0069 25.2887 18.7252 25.4526 18.4505C24.2839 17.7674 23.1081 17.0914 21.9324 16.4224C21.3409 17.4153 20.9134 18.5069 20.6853 19.6829C19.6877 24.8449 22.1034 30.5843 26.7709 33.528L26.7851 33.5209Z" fill="#F05354"/>
<path d="M29.0951 29.6189C31.8742 31.3865 35.9003 31.4781 38.487 29.3302C40.9954 27.2527 41.5797 23.8443 40.3968 20.9851C39.3065 18.3443 36.5702 15.1612 33.3279 14.8936C33.278 14.9358 33.2068 14.964 33.1212 14.964C30.4134 14.9781 27.8623 16.2316 26.4015 18.2527C27.9906 19.1964 29.5654 20.1682 31.1046 21.1823C31.3184 20.9076 31.5963 20.7175 31.9526 20.6682C31.974 20.64 32.0025 20.6048 32.0381 20.5837C33.2495 19.7668 34.8956 20.9429 35.373 22.0133C35.9288 23.2668 35.2733 24.8513 33.8837 25.3372C32.5868 25.7879 31.0191 25.1048 30.6414 23.8372C30.4775 23.295 30.5132 22.4217 30.7911 21.7316C29.2448 20.7105 27.6557 19.7386 26.0524 18.7809C25.6319 19.4921 25.3398 20.2738 25.2115 21.1189C24.7198 24.3231 26.2163 27.7879 29.1022 29.6119L29.0951 29.6189Z" fill="#F2F2F2"/>
<path d="M33.9696 24.6121C34.7392 24.1544 35.0813 23.2178 34.8176 22.4149C34.5753 21.6896 33.5136 20.6966 32.6228 21.0065C32.5943 21.1755 32.4376 21.3304 32.2095 21.2882C31.9815 21.2459 31.8034 21.3656 31.6608 21.5558C32.1953 21.9149 32.7155 22.2741 33.2357 22.6332C33.5777 22.8727 33.2357 23.4149 32.9007 23.1685C32.4019 22.8163 31.896 22.4713 31.3829 22.1262C31.2832 22.4361 31.2333 22.753 31.219 22.9149C31.1834 23.4361 31.2974 23.9642 31.7036 24.3445C32.2879 24.9009 33.2642 25.0276 33.9696 24.6051V24.6121Z" fill="#F05354"/>
<path d="M32.0883 9.78209C32.1382 9.69054 32.2308 9.62012 32.3662 9.61308C35.7866 9.38068 38.7581 11.3384 41.0455 13.5427C43.3757 15.7891 45.2142 18.5849 45.9482 21.6624C47.1239 26.5708 45.0859 32.0638 40.3686 34.6976C35.466 37.4441 28.8674 36.3525 24.7629 32.8103C20.409 29.0497 18.5206 22.5567 20.7225 17.3243C20.9007 16.8948 21.1144 16.4793 21.3496 16.0779C20.3377 15.5004 19.333 14.93 18.3211 14.3525C17.5087 15.7398 16.9244 17.268 16.6394 18.9018C15.4493 25.6624 18.6631 33.1272 24.7558 36.9722C30.6346 40.6835 39.1786 40.8807 44.5729 36.2469C49.7463 31.8032 50.865 24.768 48.3923 18.7891C47.0527 15.5497 44.808 12.6624 42.1287 10.2891C39.7771 8.20462 36.8983 6.38068 33.6417 6.12012C33.5349 6.21871 33.3852 6.28913 33.1928 6.28913C27.2569 6.26801 21.6417 9.20463 18.656 13.8173C19.6679 14.3948 20.6797 14.9722 21.6916 15.5497C23.9078 12.2258 27.9268 10.099 32.0954 9.78913L32.0883 9.78209Z" fill="#303030"/>
<path d="M21.7774 36.3386C27.4139 41.2118 36.528 42.6695 43.2049 38.7752C49.5398 35.078 52.1907 27.6202 50.5161 20.9653C49.4899 16.9019 47.0529 13.2118 43.9745 10.2329C40.8819 7.23996 36.7845 4.51461 32.1313 4.85968C31.9175 4.87377 31.7607 4.96531 31.6538 5.09208C25.9317 5.53574 20.4519 8.5287 17.4804 13.1343C17.8724 13.3597 18.2643 13.585 18.6562 13.8104C21.642 9.19771 27.2572 6.26109 33.193 6.28222C33.3926 6.28222 33.5422 6.21884 33.642 6.1132C36.8985 6.37377 39.7774 8.19067 42.1289 10.2822C44.8082 12.6625 47.0529 15.5428 48.3926 18.7822C50.8652 24.7681 49.7465 31.8033 44.5731 36.24C39.1788 40.8667 30.642 40.6766 24.756 36.9653C18.6633 33.1202 15.4496 25.6484 16.6396 18.8949C16.9246 17.2611 17.5089 15.7329 18.3213 14.3456C17.9294 14.1202 17.5375 13.8949 17.1455 13.6695C16.7964 14.2681 16.4828 14.8878 16.2192 15.5357C13.3474 22.585 15.927 31.2893 21.7702 36.3386H21.7774Z" fill="#303030"/>
<path d="M24.7693 32.8096C28.8667 36.3519 35.4724 37.4434 40.375 34.697C45.0852 32.0561 47.1303 26.5702 45.9546 21.6617C45.2135 18.5843 43.3821 15.7885 41.052 13.542C38.7645 11.3448 35.793 9.3871 32.3726 9.61245C32.2372 9.61949 32.1446 9.68992 32.0947 9.78146C27.9332 10.0913 23.9142 12.2181 21.6909 15.542C21.8904 15.6547 22.09 15.7674 22.2895 15.8801C24.5698 12.4927 28.774 10.3589 33.1636 10.366C33.2847 10.366 33.3702 10.3167 33.4273 10.2392C35.9926 10.4153 38.2372 11.8519 40.0757 13.5068C42.0781 15.3096 43.7384 17.4998 44.7218 19.9505C46.5246 24.4646 45.5983 29.7463 41.6719 33.042C37.5959 36.4646 31.2111 36.3096 26.8002 33.5279C22.1327 30.5843 19.717 24.8448 20.7147 19.6829C20.9427 18.5139 21.3702 17.4223 21.9617 16.4223C21.7622 16.3096 21.5626 16.197 21.3631 16.0843C21.128 16.4857 20.9142 16.9012 20.736 17.3308C18.5341 22.5632 20.4225 29.0491 24.7764 32.8167L24.7693 32.8096Z" fill="#303030"/>
<path d="M27.6123 29.3103C30.256 31.6202 34.5245 32.3596 37.724 30.6202C40.7881 28.9511 42.1848 25.423 41.4793 22.2399C40.6812 18.6272 36.9473 14.0427 32.6147 14.2751C32.5007 14.2751 32.4223 14.3314 32.3653 14.3948C29.7644 14.6202 27.2703 15.8948 25.8095 17.923C26.0019 18.0357 26.2014 18.1554 26.3938 18.2681C27.8546 16.2469 30.4128 14.9934 33.1207 14.9793C33.2062 14.9793 33.2774 14.9511 33.3273 14.9089C36.5696 15.1765 39.3059 18.3596 40.3962 20.9934C41.5791 23.8526 40.9876 27.261 38.4865 29.3385C35.9069 31.4793 31.8736 31.3878 29.0945 29.6272C26.2157 27.8033 24.7121 24.3314 25.2038 21.1342C25.3321 20.2892 25.6242 19.5075 26.0446 18.7962C25.8522 18.6835 25.6527 18.5638 25.4603 18.4511C25.2964 18.7258 25.1468 19.0075 25.0256 19.3033C23.6076 22.6835 24.819 26.8737 27.6123 29.3173V29.3103Z" fill="#303030"/>
<path d="M5.82186 5.83806C5.7506 5.64792 5.67935 5.45778 5.61521 5.26764C4.90975 4.69722 4.21854 4.11271 3.54158 3.50708C3.23516 3.22539 2.75773 3.66905 3.07127 3.95074C3.79811 4.59863 4.5392 5.22539 5.29455 5.83806C5.47269 5.83806 5.64372 5.83806 5.82186 5.83806Z" fill="#303030"/>
<path d="M13.6675 11.3312C13.5962 11.134 13.525 10.9368 13.4466 10.7326C12.4561 10.1199 11.4798 9.50022 10.525 8.85938C10.5392 8.90163 10.5535 8.94388 10.5748 8.99318C10.6461 9.19036 10.4537 9.38754 10.2542 9.38754C10.2257 9.38754 10.2043 9.38754 10.1758 9.38754C11.1734 10.0495 12.1853 10.6974 13.2114 11.3312C13.3611 11.3312 13.5178 11.3312 13.6675 11.3312Z" fill="#303030"/>
<path d="M21.3498 16.0702C21.5493 16.1829 21.7489 16.2955 21.9484 16.4082C23.1242 17.0772 24.2999 17.7533 25.4615 18.4364C25.6539 18.5491 25.8534 18.6688 26.0458 18.7815C27.6491 19.7322 29.2382 20.711 30.7845 21.7322C30.87 21.5279 30.9698 21.3378 31.098 21.1758C29.5588 20.1617 27.984 19.1969 26.3949 18.2462C26.2025 18.1336 26.003 18.0139 25.8106 17.9012C24.642 17.211 23.4662 16.542 22.2833 15.866C22.0838 15.7533 21.8843 15.6406 21.6847 15.5279C20.6729 14.9505 19.661 14.38 18.6491 13.7955C18.2572 13.5702 17.8653 13.3448 17.4733 13.1195C16.4258 12.5138 15.3854 11.9012 14.3522 11.2744C14.3878 11.366 14.4163 11.4505 14.452 11.542C14.5161 11.711 14.3807 11.88 14.2168 11.9223C15.1859 12.5068 16.1622 13.0843 17.1455 13.6547C17.5375 13.88 17.9294 14.1054 18.3213 14.3308C19.3261 14.9082 20.3379 15.4857 21.3498 16.0561V16.0702Z" fill="#303030"/>
<path d="M9.79139 8.76791C9.72725 8.59185 9.66312 8.40875 9.59186 8.2327C8.57286 7.53551 7.57523 6.81016 6.59899 6.05664C6.59899 6.05664 6.59899 6.06368 6.59899 6.07072C6.67025 6.26791 6.47785 6.46509 6.27832 6.46509C6.21419 6.46509 6.15006 6.46509 6.08592 6.46509C7.11205 7.26087 8.16668 8.02847 9.24269 8.76791C9.42084 8.76791 9.59899 8.76791 9.78426 8.76791H9.79139Z" fill="#303030"/>
<path d="M33.2277 22.6409C32.7075 22.2747 32.1874 21.9156 31.6529 21.5635C31.5318 21.7254 31.4463 21.9297 31.375 22.1409C31.8809 22.486 32.3869 22.8311 32.8857 23.1832C33.2277 23.4226 33.5626 22.8804 33.2206 22.6409H33.2277Z" fill="#303030"/>
<path d="M6.60612 6.06355C6.60612 6.06355 6.60612 6.05651 6.60612 6.04947C5.8864 4.12693 5.23795 2.18327 4.675 0.218482C4.56099 -0.168842 3.91966 -0.00686981 4.03367 0.387496C4.5111 2.02834 5.03842 3.6551 5.62274 5.26778C5.694 5.45792 5.75814 5.64806 5.82939 5.8382C5.65125 5.8382 5.48023 5.8382 5.30208 5.8382C3.656 5.81003 2.03129 5.61285 0.420843 5.25369C0.00754101 5.16214 -0.170606 5.76074 0.242695 5.85229C2.17381 6.28186 4.11918 6.48609 6.10018 6.46496C6.16431 6.46496 6.22844 6.46496 6.29258 6.46496C6.4921 6.46496 6.6845 6.26778 6.61324 6.07059L6.60612 6.06355Z" fill="#303030"/>
<path d="M30.642 23.8448C31.0196 25.1194 32.5873 25.7955 33.8843 25.3448C35.2738 24.8589 35.9294 23.2814 35.3664 22.0208C34.889 20.9434 33.2429 19.7743 32.0386 20.5912C32.003 20.6194 31.9745 20.6476 31.9531 20.6758C31.5968 20.725 31.3189 20.9152 31.1052 21.1898C30.9769 21.3518 30.8771 21.5419 30.7916 21.7462C30.5137 22.4363 30.4852 23.3025 30.642 23.8518V23.8448ZM31.661 21.556C31.8035 21.3659 31.9816 21.2462 32.2097 21.2884C32.4377 21.3307 32.5873 21.1687 32.623 21.0067C33.5137 20.6898 34.5826 21.6828 34.8177 22.4152C35.0814 23.225 34.7394 24.1546 33.9698 24.6124C33.2643 25.0349 32.2809 24.9081 31.6966 24.3518C31.2904 23.9715 31.1764 23.4434 31.212 22.9222C31.2263 22.7673 31.2762 22.4504 31.3759 22.1335C31.4472 21.9222 31.5327 21.711 31.6538 21.556H31.661Z" fill="#303030"/>
<path d="M10.5749 8.99324C10.5606 8.95099 10.5464 8.90873 10.525 8.85944C9.81952 6.97916 9.19244 5.0707 8.63662 3.14817C8.52261 2.76085 7.88128 2.92282 7.99529 3.31718C8.47273 4.97211 9.00717 6.60592 9.59862 8.23268C9.66275 8.40873 9.72689 8.59183 9.79814 8.76789C9.62 8.76789 9.44185 8.76789 9.25658 8.76789C7.61762 8.73268 5.99292 8.54254 4.38959 8.18338C3.97629 8.09183 3.79814 8.69042 4.21145 8.78197C6.17819 9.22563 8.16632 9.42282 10.1829 9.38761C10.2114 9.38761 10.2328 9.38761 10.2613 9.38761C10.4609 9.38761 10.6533 9.19042 10.582 8.99324H10.5749Z" fill="#303030"/>
<path d="M14.4517 11.5567C14.4161 11.4652 14.3876 11.3807 14.352 11.2891C13.6679 9.45108 13.0551 7.59193 12.5135 5.71165C12.3995 5.32432 11.7581 5.48629 11.8722 5.88066C12.3425 7.51446 12.8698 9.13418 13.4541 10.7398C13.5254 10.937 13.5966 11.1342 13.675 11.3384C13.5254 11.3384 13.3686 11.3384 13.2189 11.3384C11.5444 11.3102 9.89828 11.1201 8.26645 10.7539C7.85315 10.6624 7.67501 11.2609 8.08831 11.3525C10.0836 11.7962 12.0859 12.0004 14.1382 11.9581C14.1667 11.9581 14.1952 11.9581 14.2237 11.944C14.3947 11.8947 14.523 11.7328 14.4589 11.5638L14.4517 11.5567Z" fill="#303030"/>
</g>
<defs>
<clipPath id="clip0_1025_84788">
<rect width="51" height="41" fill="white"/>
</clipPath>
</defs>
</svg>
