<svg width="18" height="18" viewBox="0 0 18 18" fill="none" xmlns="http://www.w3.org/2000/svg">
<g clip-path="url(#clip0_1025_84847)">
<path fill-rule="evenodd" clip-rule="evenodd" d="M12.375 2.8125L9 3.37487V15.7499H12.375V2.8125Z" fill="#B81E29"/>
<path fill-rule="evenodd" clip-rule="evenodd" d="M2.8123 15.1875H6.75C7.0605 15.1875 7.3124 15.4396 7.3124 15.75C7.3124 16.0604 7.0605 16.3125 6.75 16.3125H2.2499C1.93909 16.3125 1.6875 16.0606 1.6875 15.75V5.62496C1.6875 5.3501 1.88632 5.11544 2.15755 5.07013L8.90756 3.94515C9.07048 3.91797 9.23738 3.96397 9.36348 4.07085C9.48959 4.17772 9.56231 4.33455 9.56231 4.49998V15.75C9.56231 16.0604 9.31041 16.3125 8.99991 16.3125C8.68941 16.3125 8.43751 16.0604 8.43751 15.75V5.164L2.8123 6.10148V15.1875Z" fill="#072445"/>
<path fill-rule="evenodd" clip-rule="evenodd" d="M7.3125 12.9375C7.3125 12.6267 7.06078 12.375 6.75 12.375H4.5C4.18922 12.375 3.9375 12.6267 3.9375 12.9375V15.75C3.9375 16.0608 4.18922 16.3125 4.5 16.3125H6.75C7.06078 16.3125 7.3125 16.0608 7.3125 15.75V12.9375ZM5.0625 13.5V15.1875H6.1875V13.5H5.0625Z" fill="#072445"/>
<path fill-rule="evenodd" clip-rule="evenodd" d="M14.0625 12.9375C14.0625 12.6267 13.8108 12.375 13.5 12.375H11.25C10.9392 12.375 10.6875 12.6267 10.6875 12.9375V15.75C10.6875 16.0608 10.9392 16.3125 11.25 16.3125H13.5C13.8108 16.3125 14.0625 16.0608 14.0625 15.75V12.9375ZM11.8125 13.5V15.1875H12.9375V13.5H11.8125Z" fill="#072445"/>
<path fill-rule="evenodd" clip-rule="evenodd" d="M9.56242 15.1876H13.5001C13.8106 15.1876 14.0625 15.4397 14.0625 15.75C14.0625 16.0603 13.8106 16.3124 13.5001 16.3124H9.00002C8.68922 16.3124 8.43762 16.0606 8.43762 15.75V3.37506C8.43762 3.10005 8.63644 2.86541 8.90767 2.82026L15.6577 1.6951C15.8206 1.66807 15.9875 1.71386 16.1136 1.821C16.2397 1.92783 16.3124 2.08457 16.3124 2.24989V15.75C16.3124 16.0603 16.0605 16.3124 15.75 16.3124C15.4395 16.3124 15.1876 16.0603 15.1876 15.75V2.91405L9.56242 3.85164V15.1876Z" fill="#072445"/>
<path fill-rule="evenodd" clip-rule="evenodd" d="M5.0625 9.84375C5.0625 9.6885 4.9365 9.5625 4.78125 9.5625H4.21875C4.0635 9.5625 3.9375 9.6885 3.9375 9.84375V10.4062C3.9375 10.5615 4.0635 10.6875 4.21875 10.6875H4.78125C4.9365 10.6875 5.0625 10.5615 5.0625 10.4062V9.84375Z" fill="#072445"/>
<path fill-rule="evenodd" clip-rule="evenodd" d="M7.3125 9.84375C7.3125 9.6885 7.1865 9.5625 7.03125 9.5625H6.46875C6.3135 9.5625 6.1875 9.6885 6.1875 9.84375V10.4062C6.1875 10.5615 6.3135 10.6875 6.46875 10.6875H7.03125C7.1865 10.6875 7.3125 10.5615 7.3125 10.4062V9.84375Z" fill="#072445"/>
<path fill-rule="evenodd" clip-rule="evenodd" d="M7.3125 7.59375C7.3125 7.4385 7.1865 7.3125 7.03125 7.3125H6.46875C6.3135 7.3125 6.1875 7.4385 6.1875 7.59375V8.15625C6.1875 8.3115 6.3135 8.4375 6.46875 8.4375H7.03125C7.1865 8.4375 7.3125 8.3115 7.3125 8.15625V7.59375Z" fill="#072445"/>
<path fill-rule="evenodd" clip-rule="evenodd" d="M5.0625 7.59375C5.0625 7.4385 4.9365 7.3125 4.78125 7.3125H4.21875C4.0635 7.3125 3.9375 7.4385 3.9375 7.59375V8.15625C3.9375 8.3115 4.0635 8.4375 4.21875 8.4375H4.78125C4.9365 8.4375 5.0625 8.3115 5.0625 8.15625V7.59375Z" fill="#072445"/>
<path fill-rule="evenodd" clip-rule="evenodd" d="M11.8125 9.84375C11.8125 9.6885 11.6865 9.5625 11.5312 9.5625H10.9688C10.8135 9.5625 10.6875 9.6885 10.6875 9.84375V10.4062C10.6875 10.5615 10.8135 10.6875 10.9688 10.6875H11.5312C11.6865 10.6875 11.8125 10.5615 11.8125 10.4062V9.84375Z" fill="#072445"/>
<path fill-rule="evenodd" clip-rule="evenodd" d="M14.0625 9.84375C14.0625 9.6885 13.9365 9.5625 13.7812 9.5625H13.2188C13.0635 9.5625 12.9375 9.6885 12.9375 9.84375V10.4062C12.9375 10.5615 13.0635 10.6875 13.2188 10.6875H13.7812C13.9365 10.6875 14.0625 10.5615 14.0625 10.4062V9.84375Z" fill="#072445"/>
<path fill-rule="evenodd" clip-rule="evenodd" d="M14.0625 7.59375C14.0625 7.4385 13.9365 7.3125 13.7812 7.3125H13.2188C13.0635 7.3125 12.9375 7.4385 12.9375 7.59375V8.15625C12.9375 8.3115 13.0635 8.4375 13.2188 8.4375H13.7812C13.9365 8.4375 14.0625 8.3115 14.0625 8.15625V7.59375Z" fill="#072445"/>
<path fill-rule="evenodd" clip-rule="evenodd" d="M11.8125 7.59375C11.8125 7.4385 11.6865 7.3125 11.5312 7.3125H10.9688C10.8135 7.3125 10.6875 7.4385 10.6875 7.59375V8.15625C10.6875 8.3115 10.8135 8.4375 10.9688 8.4375H11.5312C11.6865 8.4375 11.8125 8.3115 11.8125 8.15625V7.59375Z" fill="#072445"/>
<path fill-rule="evenodd" clip-rule="evenodd" d="M11.8125 5.34375C11.8125 5.1885 11.6865 5.0625 11.5312 5.0625H10.9688C10.8135 5.0625 10.6875 5.1885 10.6875 5.34375V5.90625C10.6875 6.0615 10.8135 6.1875 10.9688 6.1875H11.5312C11.6865 6.1875 11.8125 6.0615 11.8125 5.90625V5.34375Z" fill="#072445"/>
<path fill-rule="evenodd" clip-rule="evenodd" d="M14.0625 5.34375C14.0625 5.1885 13.9365 5.0625 13.7812 5.0625H13.2188C13.0635 5.0625 12.9375 5.1885 12.9375 5.34375V5.90625C12.9375 6.0615 13.0635 6.1875 13.2188 6.1875H13.7812C13.9365 6.1875 14.0625 6.0615 14.0625 5.90625V5.34375Z" fill="#072445"/>
</g>
<defs>
<clipPath id="clip0_1025_84847">
<rect width="18" height="18" fill="white"/>
</clipPath>
</defs>
</svg>
