<svg width="111" height="83" viewBox="0 0 111 83" fill="none" xmlns="http://www.w3.org/2000/svg">
<path d="M100.11 62.4915C100.049 59.399 100.29 56.979 100.68 54.4048C101.101 51.6207 99.3027 48.9774 96.5529 48.3685C91.7046 47.3106 89.5284 46.9847 84.2089 45.9344C81.8248 45.4641 80.1784 43.2614 80.4167 40.851C81.0162 34.7948 81.3402 29.6061 81.6908 23.5811C81.85 20.9077 79.9106 18.5669 77.2591 18.2266C57.8169 15.6898 38.5039 11.5756 19.0653 7.7475C16.1779 7.1816 13.4122 9.1839 13.0246 12.1029C11.2189 25.7152 9.82626 39.3757 8.83996 53.0721C11.6366 53.6635 14.4389 54.2356 17.2535 54.801C17.763 50.9694 19.7494 47.2899 23.0003 45.2319C26.6473 42.9255 31.8771 43.074 34.989 46.0715C36.8321 47.8525 37.7976 50.3868 38.1146 52.929C38.363 54.8882 38.2486 56.8764 38.0478 58.8393C50.4792 61.1531 62.967 63.2751 75.4592 65.169C75.9473 61.623 78.3454 58.3873 81.3559 56.3318C82.6962 55.4223 84.2386 54.6764 85.8538 54.7127C88.7833 54.7802 91.0767 57.3708 92.1754 60.0902C93.1391 62.4885 93.4596 65.1255 93.1351 67.6878C93.9681 67.7967 92.3353 67.5364 93.1683 67.6454C94.4912 67.8251 95.9078 67.9699 97.088 67.3574C98.271 66.7353 101.013 63.465 100.11 62.4915Z" fill="#FFC40C"/>
<path d="M78.1338 26.8939C77.9643 31.982 76.3722 38.9351 75.9871 44.012C73.1156 43.7114 68.0167 43.5075 65.1997 42.8789C65.4168 37.2732 66.4679 30.4949 67.7376 25.0314C70.3545 25.2053 75.6029 26.2138 78.1338 26.8939Z" fill="white"/>
<path d="M16.3157 15.8408C26.3904 17.1296 36.7259 19.4121 46.7529 21.0412C53.1384 22.0812 57.5395 22.8516 61.6102 23.9314C60.9842 30.0424 60.0204 36.346 59.0541 42.4093C56.434 41.7134 54.0604 41.7047 51.388 41.2228C38.8861 38.9716 26.3869 36.7109 13.885 34.4597C14.6947 28.0066 15.1301 22.2253 16.3157 15.8408Z" fill="white"/>
<path d="M78.4619 27.1263C78.2924 32.2145 76.7003 39.1675 76.3153 44.2445C73.4437 43.9438 68.3448 43.7399 65.5279 43.1113C65.745 37.5056 66.796 30.7273 68.0657 25.2638C70.6827 25.4376 75.931 26.4462 78.4619 27.1263Z" stroke="#23275B" stroke-width="1.4" stroke-linecap="round" stroke-linejoin="round"/>
<path d="M16.4641 16.0401C26.5389 17.3289 36.8744 19.6113 46.9013 21.2404C53.2868 22.2804 57.688 23.0508 61.7587 24.1306C61.1327 30.2416 60.1688 36.5453 59.2026 42.6085C56.5825 41.9126 54.2089 41.904 51.5365 41.422C39.0345 39.1709 26.5354 36.9101 14.0334 34.6589C14.8431 28.2059 15.2785 22.4246 16.4641 16.0401Z" stroke="#23275B" stroke-width="1.4" stroke-linecap="round" stroke-linejoin="round"/>
<path d="M44.2061 39.8753C45.056 33.7466 45.9156 27.6208 46.7656 21.4922" stroke="#23275B" stroke-width="1.4" stroke-linecap="round" stroke-linejoin="round"/>
<path d="M28.232 36.8137C29.5584 30.9083 30.7889 24.9747 31.9082 19.0293" stroke="#23275B" stroke-width="1.4" stroke-linecap="round" stroke-linejoin="round"/>
<path d="M20.3989 52.1071C19.5269 55.5405 21.1529 59.4463 24.1964 61.2565C27.2399 63.0666 31.445 62.6227 34.0473 60.2181C36.6497 57.8135 37.4128 53.65 35.8516 50.4822C35.4928 49.7516 35.0154 49.0697 34.4316 48.5023C32.9854 47.1087 30.9196 46.513 28.9162 46.4149C25.5849 46.2607 21.2636 48.7341 20.3989 52.1071Z" stroke="#23275B" stroke-width="1.4" stroke-linecap="round" stroke-linejoin="round"/>
<path d="M88.5868 60.4234C86.7488 58.696 83.8074 58.5624 81.4791 59.5362C80.6001 59.9036 80.3381 60.6188 79.833 61.3459C79.2167 62.2385 78.8985 63.3228 78.7412 64.3918C78.6215 65.1904 78.5853 66.0239 78.7816 66.811C79.3288 69.0663 81.6401 70.4949 83.9129 70.9534C89.8742 72.1607 92.6191 64.1912 88.5868 60.4234Z" stroke="#23275B" stroke-width="1.4" stroke-linecap="round" stroke-linejoin="round"/>
<path d="M28.9401 52.4049C26.8596 50.9711 25.0196 53.1929 26.0762 55.2746C27.6882 58.4468 31.7505 54.3342 28.9401 52.4049Z" stroke="#23275B" stroke-width="1.4" stroke-linecap="round" stroke-linejoin="round"/>
<path d="M84.3042 63.1166C83.2671 63.3125 82.6461 64.6831 83.2194 65.5705C83.7928 66.4578 85.3481 66.4139 85.8328 65.4723C86.3147 64.5403 85.368 63.2203 84.3309 63.4163" stroke="#23275B" stroke-width="1.4" stroke-linecap="round" stroke-linejoin="round"/>
<path d="M100.121 51.1243C101.24 51.3589 102.145 52.3956 102.215 53.5417C102.285 54.6878 101.513 55.8266 100.426 56.1952" stroke="#23275B" stroke-width="1.4" stroke-linecap="round" stroke-linejoin="round"/>
<path d="M20.0059 24.6777C20.7716 25.5486 21.5278 26.4166 22.2936 27.2875" stroke="#23275B" stroke-width="1.4" stroke-linecap="round" stroke-linejoin="round"/>
<path d="M21.666 22.9961C22.3567 23.8032 23.057 24.6131 23.7477 25.4203" stroke="#23275B" stroke-width="1.4" stroke-linecap="round" stroke-linejoin="round"/>
<path d="M34.4609 27.0957L39.0184 31.3823" stroke="#23275B" stroke-width="1.4" stroke-linecap="round" stroke-linejoin="round"/>
<path d="M35.5 24.6172C36.8819 26.1586 38.4533 27.516 40.1843 28.6492" stroke="#23275B" stroke-width="1.4" stroke-linecap="round" stroke-linejoin="round"/>
<path d="M50.4414 32.5137C51.3422 33.5283 52.3162 34.4707 53.3568 35.3284" stroke="#23275B" stroke-width="1.4" stroke-linecap="round" stroke-linejoin="round"/>
<path d="M50.3906 28.7793C51.8375 30.4545 53.4282 31.9947 55.1436 33.3943" stroke="#23275B" stroke-width="1.4" stroke-linecap="round" stroke-linejoin="round"/>
<path d="M69.457 33.5195C70.1381 34.3238 70.9422 35.0288 71.8268 35.601" stroke="#23275B" stroke-width="1.4" stroke-linecap="round" stroke-linejoin="round"/>
<path d="M69.9453 31.4316L73.2773 34.3895" stroke="#23275B" stroke-width="1.4" stroke-linecap="round" stroke-linejoin="round"/>
<path d="M64.8691 16.9453C64.8835 18.2105 65.206 18.6387 65.0555 19.8972C63.4397 34.0342 61.8307 48.1836 60.2149 62.3206C60.1986 62.4826 60.1256 62.1276 60.2002 62.2642" stroke="#23275B" stroke-width="1.4" stroke-linecap="round" stroke-linejoin="round"/>
<path d="M15.2207 9.20352C37.1832 14.1265 59.2064 18.8067 81.274 23.2291" stroke="#23275B" stroke-width="1.4" stroke-linecap="round" stroke-linejoin="round"/>
<path d="M9.33327 50.0792C12.1317 50.8066 14.9329 51.5243 17.7314 52.2517" stroke="#23275B" stroke-width="1.4" stroke-linecap="round" stroke-linejoin="round"/>
<path d="M38.5178 55.9229C42.6058 55.9135 46.6453 56.7445 50.6464 57.5642C59.0504 59.2903 67.4544 61.0163 75.846 62.7492" stroke="#23275B" stroke-width="1.4" stroke-linecap="round" stroke-linejoin="round"/>
<path d="M93.6881 64.5246C95.3 64.8204 96.9558 64.9311 98.598 64.8398" stroke="#23275B" stroke-width="1.4" stroke-linecap="round" stroke-linejoin="round"/>
</svg>
