<svg width="85" height="68" viewBox="0 0 85 68" fill="none" xmlns="http://www.w3.org/2000/svg">
<path d="M78.6496 25.9759C77.1744 24.1456 76.192 22.5789 75.2267 20.8501C74.1818 18.981 71.8836 18.2276 69.9665 19.1389C66.5937 20.7552 65.1491 21.5702 61.4999 23.4099C59.8646 24.2347 57.8617 23.6754 56.8821 22.1158C54.4212 18.1969 52.2002 14.9274 49.606 11.1428C48.457 9.46191 46.2159 8.95574 44.4822 9.98284C31.7502 17.4894 18.3613 23.9876 5.0309 30.7163C3.05202 31.7174 2.34013 34.2058 3.46763 36.1404C8.72651 45.1617 14.2533 54.0201 20.0382 62.7113C21.975 61.7676 23.9061 60.8099 25.8415 59.8422C24.362 57.3024 23.8306 54.1678 24.805 51.4206C25.899 48.3401 29.0755 46 32.3188 46.3562C34.2423 46.5706 35.9948 47.6456 37.3657 49.0264C38.4246 50.0887 39.2815 51.337 40.0752 52.6102C48.5378 48.2263 56.9447 43.7009 65.2481 39.0365C63.8887 36.6782 63.8085 33.6192 64.6411 30.9851C65.0145 29.8159 65.5839 28.651 66.5605 27.9225C68.3325 26.6023 70.9002 27.0941 72.818 28.2184C74.5062 29.2124 75.9232 30.6486 76.9222 32.3396C77.4678 32.0181 76.3766 32.6202 76.9222 32.2987C77.7919 31.7922 78.7009 31.2212 79.1172 30.3047C79.5308 29.3813 79.6386 26.1419 78.6496 25.9759Z" fill="#FFC40C"/>
<path d="M49.0334 14.7864C51.2995 17.9236 53.5877 22.8427 55.7205 26.0734C53.8745 27.2266 50.75 29.4726 48.7839 30.4033C46.3054 26.9328 43.777 22.3701 41.99 18.4961C43.6257 17.385 47.2133 15.5532 49.0334 14.7864Z" fill="white"/>
<path d="M7.16194 36.859C13.7475 32.9537 20.9502 29.5246 27.6657 25.8461C31.9435 23.505 34.9169 21.9236 37.8378 20.6818C40.3084 24.6459 42.6679 28.8829 44.9141 32.9764C43.0337 33.7752 41.6193 34.8726 39.8073 35.8243C31.3319 40.2786 22.8537 44.7258 14.3783 49.1801C11.8577 44.9249 9.42726 41.2475 7.16194 36.859Z" fill="white"/>
<path d="M49.3381 14.7727C51.6042 17.91 53.8924 22.8291 56.0252 26.0598C54.1792 27.2129 51.0547 29.4589 49.0886 30.3896C46.6101 26.9191 44.0816 22.3564 42.2947 18.4824C43.9304 17.3713 47.518 15.5395 49.3381 14.7727Z" stroke="#23275B" stroke-linecap="round" stroke-linejoin="round"/>
<path d="M7.34163 36.9098C13.9272 33.0045 21.1299 29.5754 27.8454 25.8969C32.1232 23.5558 35.0966 21.9744 38.0175 20.7326C40.4881 24.6967 42.8476 28.9336 45.0938 33.0272C43.2134 33.826 41.799 34.9233 39.987 35.875C31.5116 40.3293 23.0334 44.7766 14.558 49.2309C12.0374 44.9757 9.60696 41.2983 7.34163 36.9098Z" stroke="#23275B" stroke-linecap="round" stroke-linejoin="round"/>
<path d="M34.913 38.3505C32.5672 34.2717 30.2285 30.1901 27.8828 26.1113" stroke="#23275B" stroke-linecap="round" stroke-linejoin="round"/>
<path d="M23.9984 43.9313C22.0396 39.7653 20.0106 35.627 17.9102 31.5332" stroke="#23275B" stroke-width="1.4" stroke-linecap="round" stroke-linejoin="round"/>
<path d="M26.4586 56.7629C27.5375 59.2318 30.3205 60.8243 32.9708 60.4986C35.6211 60.1729 37.9132 57.9527 38.3409 55.2984C38.7686 52.6442 37.2854 49.7869 34.8842 48.608C34.3312 48.3355 33.7304 48.1473 33.1195 48.0775C31.6121 47.9116 30.1075 48.513 28.8715 49.3847C26.8204 50.8395 25.4034 54.3336 26.4586 56.7629Z" stroke="#23275B" stroke-width="1.4" stroke-linecap="round" stroke-linejoin="round"/>
<path d="M70.8415 30.0857C68.9459 29.9011 67.1361 31.1872 66.2056 32.8541C65.8542 33.4833 66.0313 34.0348 66.0694 34.7066C66.1184 35.5294 66.4337 36.329 66.8374 37.0446C67.1378 37.5803 67.504 38.0982 67.9868 38.4801C69.3609 39.5816 71.3987 39.3667 72.9625 38.5865C77.066 36.5431 74.9899 30.4774 70.8415 30.0857Z" stroke="#23275B" stroke-width="1.4" stroke-linecap="round" stroke-linejoin="round"/>
<path d="M31.671 52.9731C29.7679 53.0777 29.7081 55.268 31.3042 56.0285C33.7376 57.1865 34.2383 52.8274 31.671 52.9731Z" stroke="#23275B" stroke-width="1.4" stroke-linecap="round" stroke-linejoin="round"/>
<path d="M69.5489 33.6943C69.0238 34.2939 69.2924 35.4062 70.0458 35.6733C70.7992 35.9403 71.7029 35.1915 71.5529 34.4003C71.4057 33.6162 70.2293 33.2625 69.7042 33.862" stroke="#23275B" stroke-width="1.4" stroke-linecap="round" stroke-linejoin="round"/>
<path d="M73.3693 19.138C74.1434 18.7592 75.1632 18.9621 75.738 19.6184C76.3127 20.2748 76.3838 21.3178 75.909 22.0447" stroke="#23275B" stroke-width="1.4" stroke-linecap="round" stroke-linejoin="round"/>
<path d="M13.4648 40.4551C14.3249 40.6228 15.178 40.7934 16.0381 40.9611" stroke="#23275B" stroke-width="1.4" stroke-linecap="round" stroke-linejoin="round"/>
<path d="M13.6719 38.6738C14.4577 38.8382 15.2505 38.9997 16.0363 39.164" stroke="#23275B" stroke-width="1.4" stroke-linecap="round" stroke-linejoin="round"/>
<path d="M23.1797 35.1953L27.8815 35.655" stroke="#23275B" stroke-width="1.4" stroke-linecap="round" stroke-linejoin="round"/>
<path d="M22.6445 33.2227C24.1826 33.5073 25.7477 33.5933 27.3033 33.4704" stroke="#23275B" stroke-width="1.4" stroke-linecap="round" stroke-linejoin="round"/>
<path d="M35.1953 31.0293C36.2025 31.2208 37.2196 31.3348 38.2368 31.367" stroke="#23275B" stroke-width="1.4" stroke-linecap="round" stroke-linejoin="round"/>
<path d="M33.4258 28.8066C35.0647 29.1415 36.7263 29.3284 38.3965 29.3729" stroke="#23275B" stroke-width="1.4" stroke-linecap="round" stroke-linejoin="round"/>
<path d="M46.9609 22.7988C47.7397 22.9659 48.5454 23.0162 49.3372 22.9492" stroke="#23275B" stroke-width="1.4" stroke-linecap="round" stroke-linejoin="round"/>
<path d="M46.2773 21.3184L49.633 21.5485" stroke="#23275B" stroke-width="1.4" stroke-linecap="round" stroke-linejoin="round"/>
<path d="M36.5234 14.9688C37.1205 15.7226 37.5113 15.8302 38.0073 16.6566C43.6231 25.905 49.2487 35.1578 54.8645 44.4063C54.9302 44.5112 54.7217 44.3318 54.8296 44.3792" stroke="#23275B" stroke-width="1.4" stroke-linecap="round" stroke-linejoin="round"/>
<path d="M3.42254 33.3772C18.7618 26.1343 34.0243 18.7173 49.1933 11.1246" stroke="#23275B" stroke-width="1.4" stroke-linecap="round" stroke-linejoin="round"/>
<path d="M18.9375 60.6844C20.9386 59.8217 22.9369 58.9519 24.9379 58.0892" stroke="#23275B" stroke-width="1.4" stroke-linecap="round" stroke-linejoin="round"/>
<path d="M38.9995 50.6399C41.4242 48.7353 44.2108 47.3584 46.9694 45.9925C52.7657 43.1262 58.5619 40.2599 64.354 37.4034" stroke="#23275B" stroke-width="1.4" stroke-linecap="round" stroke-linejoin="round"/>
<path d="M75.7779 30.1822C76.8733 29.6112 77.9086 28.9086 78.8418 28.0909" stroke="#23275B" stroke-width="1.4" stroke-linecap="round" stroke-linejoin="round"/>
</svg>
