<svg width="54" height="71" viewBox="0 0 54 71" fill="none" xmlns="http://www.w3.org/2000/svg">
<path d="M46.4004 19.9335C46.8256 17.0716 47.266 13.1758 46.4981 10.3903C45.375 9.94649 38.8909 9.47766 34.9706 9.27367C25.5314 8.78606 16.7757 8.88664 7.33659 8.39903C6.98331 11.0456 6.79572 13.7254 6.78708 16.4009" fill="#F0494F"/>
<path d="M9.67969 17.2246C20.134 17.7207 29.0186 18.2234 40.1366 18.9332C41.2037 18.9981 42.2807 19.0707 43.3676 19.151" stroke="#23275B" stroke-width="1.4" stroke-linecap="round" stroke-linejoin="round"/>
<path d="M6.08619 53.4453C6.20294 40.6598 7.2206 21.184 7.33734 8.39852" stroke="#23275B" stroke-linecap="round" stroke-linejoin="round"/>
<path d="M47.0553 10.6163C46.6901 24.725 47.104 41.3485 45.6375 55.4055C34.3577 55.3441 23.9707 54.9563 13.0873 53.607" stroke="#23275B" stroke-linecap="round" stroke-linejoin="round"/>
<path d="M14.3016 9.06794L13.0928 53.5889" stroke="#23275B" stroke-linecap="round" stroke-linejoin="round"/>
<path d="M9.49696 53.6858C9.61278 49.4892 9.4452 50.5242 9.56102 46.3276" stroke="#23275B" stroke-linecap="round" stroke-linejoin="round"/>
<path d="M9.20132 40.5841C9.26624 39.4452 9.32123 38.2986 9.38615 37.1597" stroke="#23275B" stroke-width="1.4" stroke-linecap="round" stroke-linejoin="round"/>
<path d="M28.4504 44.2888C28.2267 44.2769 28.0466 44.1993 27.91 44.0558C27.7738 43.9044 27.7112 43.7248 27.7223 43.5171L28.0428 37.4776L28.1966 37.7502L27.2875 38.3508C27.1709 38.4328 27.0288 38.4693 26.861 38.4604C26.6693 38.4502 26.5054 38.3694 26.3692 38.218C26.233 38.0665 26.1703 37.891 26.1809 37.6912C26.1944 37.4356 26.3293 37.2345 26.5854 37.0878L28.372 36.029C28.4549 35.9774 28.5449 35.9421 28.642 35.9232C28.7471 35.9047 28.8436 35.8978 28.9315 35.9025C29.1632 35.9148 29.3431 35.9965 29.4713 36.1475C29.5999 36.2905 29.6587 36.4658 29.6477 36.6735L29.2801 43.5998C29.269 43.8075 29.1838 43.9792 29.0244 44.115C28.8734 44.2431 28.6821 44.3011 28.4504 44.2888Z" fill="#23275B"/>
<path d="M10.7209 6.88264C11.2631 5.75628 11.6819 5.51578 12.787 4.94769C15.1342 3.75861 18.314 4.64695 19.7042 6.87944C21.0944 9.11194 20.501 12.3537 18.4009 13.9429" stroke="#23275B" stroke-width="1.4" stroke-linecap="round" stroke-linejoin="round"/>
<path d="M21.276 3.70454C24.0007 2.88139 27.2862 4.11557 28.6664 6.48394C30.0466 8.8523 29.3714 12.0863 27.1497 13.7803" stroke="#23275B" stroke-width="1.4" stroke-linecap="round" stroke-linejoin="round"/>
<path d="M31.5586 4.07031C34.2573 4.04914 36.3495 5.57516 37.0678 8.17832C37.7861 10.7815 37.0365 13.1991 34.7123 14.5738" stroke="#23275B" stroke-width="1.4" stroke-linecap="round" stroke-linejoin="round"/>
<path d="M38.7617 4.61133C41.057 4.9544 43.1115 6.68254 43.766 8.91669C44.4194 11.142 43.621 13.7451 41.7784 15.1677" stroke="#23275B" stroke-width="1.4" stroke-linecap="round" stroke-linejoin="round"/>
</svg>
