<svg width="31" height="41" viewBox="0 0 31 41" fill="none" xmlns="http://www.w3.org/2000/svg">
<path d="M28.8642 12.9849C29.3534 11.2539 29.9325 8.88701 29.6682 7.11181C28.9992 6.75235 24.9736 5.96706 22.5335 5.54123C16.6581 4.51814 11.1651 3.90981 5.2898 2.88672C4.8625 4.49048 4.5364 6.12743 4.32275 7.77544" fill="#F0494F"/>
<path d="M6.07129 8.50391C12.582 9.60995 18.1087 10.5999 25.0186 11.8884C25.682 12.0101 26.351 12.1373 27.0257 12.27" stroke="#12326D" stroke-width="1.4" stroke-linecap="round" stroke-linejoin="round"/>
<path d="M1 30.5489C2.06824 22.6794 4.2216 10.7562 5.28984 2.88672" stroke="#12326D" stroke-width="1.4" stroke-linecap="round" stroke-linejoin="round"/>
<path d="M29.9998 7.29297C28.673 15.9588 27.6385 26.234 25.6257 34.7837C18.564 33.8823 12.0871 32.8481 5.37402 31.1835" stroke="#12326D" stroke-width="1.4" stroke-linecap="round" stroke-linejoin="round"/>
<path d="M9.60226 3.83203L5.37988 31.1735" stroke="#12326D" stroke-width="1.4" stroke-linecap="round" stroke-linejoin="round"/>
<path d="M3.11963 30.9589C3.51881 28.3819 3.33328 29.0068 3.73246 26.4297" stroke="#12326D" stroke-width="1.4" stroke-linecap="round" stroke-linejoin="round"/>
<path d="M3.95166 22.8616C4.08097 22.1648 4.20466 21.4624 4.33397 20.7656" stroke="#12326D" stroke-width="1.4" stroke-linecap="round" stroke-linejoin="round"/>
<path d="M15.9502 31.2737C15.7296 31.235 15.5605 31.1362 15.443 30.9775C15.3268 30.8109 15.2874 30.6253 15.3245 30.4207L16.4043 24.4698L16.5227 24.7586L15.5442 25.2448C15.4181 25.312 15.2724 25.3311 15.1069 25.302C14.9178 25.2688 14.7652 25.1689 14.6491 25.0023C14.533 24.8357 14.4928 24.6541 14.5285 24.4573C14.5742 24.2054 14.7334 24.0222 15.0063 23.9076L16.9139 23.0729C17.0027 23.0317 17.0965 23.0075 17.1954 23.0005C17.3021 22.9949 17.3988 22.9997 17.4855 23.0149C17.714 23.055 17.8823 23.1577 17.9906 23.3229C18.1002 23.4802 18.1365 23.6612 18.0994 23.8659L16.861 30.6904C16.8239 30.8951 16.7176 31.0551 16.5422 31.1705C16.376 31.2794 16.1787 31.3138 15.9502 31.2737Z" fill="#12326D"/>
<path d="M7.52734 2.21099C7.95464 1.55843 8.23576 1.4423 8.97229 1.17685C10.5353 0.623822 12.4581 1.41465 13.1553 2.89675C13.8525 4.37885 13.2284 6.33102 11.7891 7.14949" stroke="#12326D" stroke-width="1.4" stroke-linecap="round" stroke-linejoin="round"/>
<path d="M14.3867 1.06002C16.1578 0.761392 18.12 1.77343 18.8003 3.33848C19.4806 4.90354 18.8059 6.84464 17.2822 7.71842" stroke="#12326D" stroke-width="1.4" stroke-linecap="round" stroke-linejoin="round"/>
<path d="M20.8018 2.07422C22.4941 2.26778 23.686 3.36829 23.9334 5.02736C24.1808 6.68643 23.523 8.11876 21.96 8.78791" stroke="#12326D" stroke-width="1.4" stroke-linecap="round" stroke-linejoin="round"/>
<path d="M25.2715 2.95703C26.6827 3.34415 27.8353 4.56632 28.0714 5.99312C28.3076 7.41439 27.6048 8.95732 26.3397 9.69284" stroke="#12326D" stroke-width="1.4" stroke-linecap="round" stroke-linejoin="round"/>
</svg>
