<svg width="47" height="60" viewBox="0 0 47 60" fill="none" xmlns="http://www.w3.org/2000/svg">
<path d="M44.63 52.93C46.68 50.58 46.62 47.04 44.58 44.68C37.39 36.35 27.59 29.11 25.29 18.59C23.98 12.62 23.76 7.59004 22.84 1.54004C18.85 1.95004 14.69 2.30004 10.69 2.05004C10.84 8.71004 13 13.95 11.78 20.5C9.75 31.46 6.21999 42.15 1.32999 52.17C0.129986 54.64 1.60999 57.6 4.32999 58C10.06 58.85 15.74 59 21.71 58.84C24 58.78 26.28 58.65 28.56 58.47C32.42 58.16 36.47 58.06 40.04 56.47C41.59 55.78 43.28 54.48 44.64 52.92L44.63 52.93Z" stroke="#23275B" stroke-width="1.4" stroke-linecap="round" stroke-linejoin="round"/>
<path d="M10.0701 2.48992C12.0401 4.94992 15.3201 6.29992 18.4501 5.94992C18.9301 5.89992 19.41 5.79992 19.86 5.60992C20.57 5.29992 21.1601 4.74992 21.6701 4.15992C22.2801 3.46992 22.8201 2.71992 23.2801 1.91992" stroke="#23275B" stroke-width="1.4" stroke-linecap="round" stroke-linejoin="round"/>
<path d="M15.22 27.5399C14.82 31.9099 13.61 36.2099 11.67 40.1599C9.95004 43.6699 7.64002 46.9599 6.78002 50.7699C6.62002 51.4999 6.52003 52.2899 6.85003 52.9599C7.48003 54.2399 9.23003 54.3499 10.66 54.2799C16.45 53.9999 22.24 53.7099 28.03 53.4299C32.09 53.2299 36.47 52.9199 39.61 50.3399C40.98 49.2099 40.07 47.0299 39.16 45.4999C38.25 43.9699 36.86 42.8099 35.57 41.5799C31.49 37.6899 26.95 32.7199 25 27.4299C24.62 26.3899 24.17 27.1499 23.13 26.8099C22.55 26.6199 21.93 26.7399 21.33 26.8399C18.85 27.2299 17.67 28.0999 15.22 27.5599V27.5399Z" fill="#008C87"/>
<path d="M32.8701 48.26C32.0801 48.32 31.2801 47.81 31.0001 47.07C30.7301 46.33 31.0001 45.42 31.6401 44.95C32.2501 44.51 32.7001 44.14 33.3601 44.49C34.0201 44.85 34.4201 45.59 34.4901 46.34C34.5401 46.79 34.4801 47.27 34.2401 47.66C34.0001 48.05 33.3101 48.22 32.8601 48.26H32.8701Z" stroke="#23275B" stroke-width="1.4" stroke-linecap="round" stroke-linejoin="round"/>
<path d="M26.2501 42.2299C25.6601 42.4099 24.9601 42.3999 24.5001 41.9999C24.0301 41.5999 23.99 40.7299 24.52 40.4199C24.45 40.0599 24.78 39.7199 25.15 39.6699C25.51 39.6199 25.8801 39.7899 26.1701 40.0099C26.5701 40.3199 26.9101 40.7599 26.9201 41.2699C26.9301 41.7799 26.7301 42.0899 26.2501 42.2299Z" stroke="#23275B" stroke-width="1.4" stroke-linecap="round" stroke-linejoin="round"/>
<path d="M16.89 48.8398C15.89 49.1298 14.7 48.5298 14.35 47.5398C14 46.5498 14.54 45.3398 15.5 44.9398C15.89 44.7798 15.94 44.3498 16.36 44.3898C17.38 44.4898 18.26 45.3898 18.33 46.4098C18.4 47.4298 17.87 48.5498 16.89 48.8398Z" stroke="#23275B" stroke-width="1.4" stroke-linecap="round" stroke-linejoin="round"/>
<path d="M18.39 32.1398C18.03 32.6498 18.2 33.4798 18.76 33.7598C19.32 34.0498 20.1199 33.6698 20.2099 33.0398C20.2999 32.4198 19.6 31.8098 19.01 32.0398" stroke="#23275B" stroke-width="1.4" stroke-linecap="round" stroke-linejoin="round"/>
</svg>
