<svg width="69" height="81" viewBox="0 0 69 81" fill="none" xmlns="http://www.w3.org/2000/svg">
<path d="M37.3897 18.9634C38.0373 15.197 42.6742 11.6773 46.4367 12.31C47.0781 12.4144 47.6961 12.6126 48.305 12.8372C50.0566 13.4984 51.6819 14.4717 53.0943 15.6998C53.7647 16.2833 54.3963 16.9327 54.8567 17.6905C56.1577 19.8092 55.0712 24.4955 53.4978 26.4205" fill="#D42028"/>
<path d="M22.6913 22.7485C20.5042 19.6158 14.8166 18.3909 11.6726 20.565C11.1387 20.9352 10.6615 21.3705 10.2071 21.8317C8.90339 23.1681 7.83791 24.7456 7.08642 26.4568C6.72337 27.2693 6.43369 28.1185 6.33726 29.0051C6.06304 31.4777 9.03347 35.2603 11.2739 36.3288" fill="#D42028"/>
<path d="M55.616 59.5837C56.7714 60.5595 57.9192 61.5374 59.0746 62.5133C59.841 63.1595 60.6646 63.9026 60.7883 64.8995C60.912 65.8965 59.1721 67.6415 58.3556 67.0481C56.5849 65.7616 54.929 64.3336 53.3973 62.7695" stroke="#034865" stroke-width="2" stroke-linecap="round" stroke-linejoin="round"/>
<path d="M30.2143 68.4726C29.82 69.9314 29.4182 71.3921 29.0219 72.8434C28.7558 73.8141 28.5021 74.8933 28.9656 75.7859C29.4292 76.6784 31.851 77.1254 32.1865 76.1766C32.9197 74.1191 33.4688 71.9978 33.849 69.8406" stroke="#034865" stroke-width="2" stroke-linecap="round" stroke-linejoin="round"/>
<path d="M33.6455 18.3107C26.5823 18.9435 19.8068 22.6446 15.5058 28.0075C6.1692 39.6505 8.21542 57.2993 19.1115 66.4633C27.7819 73.757 43.8953 72.5251 53.1085 65.2221C61.2101 58.7987 63.9675 47.87 61.5907 38.58C58.5975 26.8896 46.7765 17.1446 33.6474 18.3182L33.6455 18.3107ZM49.6744 61.1294C42.2939 66.9823 29.3933 67.9609 22.4428 62.1264C13.7139 54.792 12.0775 40.6505 19.5523 31.3267C22.9983 27.0318 28.4195 24.0738 34.0794 23.5668C44.5965 22.6259 54.062 30.4308 56.4582 39.7955C58.3604 47.2305 56.1554 55.9892 49.667 61.1314L49.6744 61.1294Z" fill="#F04951"/>
<path d="M41.3618 63.8834L40.25 59.6094" stroke="#034865" stroke-width="2" stroke-linecap="round" stroke-linejoin="round"/>
<path d="M32.4375 29.6661C32.0651 28.5104 31.6927 27.3548 31.3203 26.1992" stroke="#034865" stroke-width="2" stroke-linecap="round" stroke-linejoin="round"/>
<path d="M16.0781 48.418L19.4911 47.7375" stroke="#034865" stroke-width="2" stroke-linecap="round" stroke-linejoin="round"/>
<path d="M50.9336 41.0977L55.0955 40.015" stroke="#034865" stroke-width="2" stroke-linecap="round" stroke-linejoin="round"/>
<path d="M37.7652 27.9379C37.9716 27.1981 38.18 26.4658 38.3864 25.726" stroke="#034865" stroke-width="2" stroke-linecap="round" stroke-linejoin="round"/>
<path d="M42.4985 29.6422C42.9942 29.1862 43.4217 28.6522 43.7719 28.0664" stroke="#034865" stroke-width="2" stroke-linecap="round" stroke-linejoin="round"/>
<path d="M47.3577 32.6146C47.9324 32.0024 48.5146 31.3882 49.0893 30.776" stroke="#034865" stroke-width="2" stroke-linecap="round" stroke-linejoin="round"/>
<path d="M50.9236 36.4557C51.2836 36.3062 51.6436 36.1568 52.0036 36.0073" stroke="#034865" stroke-width="2" stroke-linecap="round" stroke-linejoin="round"/>
<path d="M16.6328 43.375C17.2524 43.5489 17.874 43.7302 18.4862 43.9061" stroke="#034865" stroke-width="2" stroke-linecap="round" stroke-linejoin="round"/>
<path d="M17.0977 39.0898C18.1381 39.4095 19.1786 39.7292 20.2116 40.0508" stroke="#034865" stroke-width="2" stroke-linecap="round" stroke-linejoin="round"/>
<path d="M19.4609 34.3984C20.1063 34.9166 20.7572 35.4254 21.4026 35.9436" stroke="#034865" stroke-width="2" stroke-linecap="round" stroke-linejoin="round"/>
<path d="M22.4727 30.8867C22.9394 31.3317 23.4062 31.7767 23.871 32.2142" stroke="#034865" stroke-width="2" stroke-linecap="round" stroke-linejoin="round"/>
<path d="M25.9453 28.4434C26.4963 29.2733 27.0472 30.1033 27.5888 30.9277" stroke="#034865" stroke-width="2" stroke-linecap="round" stroke-linejoin="round"/>
<path d="M17.9156 52.8134C18.6317 52.4995 19.3403 52.1875 20.0544 51.8661" stroke="#034865" stroke-width="2" stroke-linecap="round" stroke-linejoin="round"/>
<path d="M20.5791 56.5163C21.0396 56.1093 21.5076 55.7004 21.9701 55.3008" stroke="#034865" stroke-width="2" stroke-linecap="round" stroke-linejoin="round"/>
<path d="M23.7267 59.4545C24.1403 58.8363 24.5558 58.2257 24.9694 57.6075" stroke="#034865" stroke-width="2" stroke-linecap="round" stroke-linejoin="round"/>
<path d="M29.021 63.1758L30.0065 60.8612" stroke="#034865" stroke-width="2" stroke-linecap="round" stroke-linejoin="round"/>
<path d="M35.0562 63.377C35.2626 62.6372 35.4616 61.8994 35.668 61.1596" stroke="#034865" stroke-width="2" stroke-linecap="round" stroke-linejoin="round"/>
<path d="M44.8008 58.248C45.2948 58.7976 45.7907 59.3547 46.2772 59.9063" stroke="#034865" stroke-width="2" stroke-linecap="round" stroke-linejoin="round"/>
<path d="M48.5312 54.207C49.2757 54.7074 50.0201 55.2078 50.7646 55.7082" stroke="#034865" stroke-width="2" stroke-linecap="round" stroke-linejoin="round"/>
<path d="M50.6875 50.5117C51.8263 50.9335 53.0254 51.188 54.2375 51.2476" stroke="#034865" stroke-width="2" stroke-linecap="round" stroke-linejoin="round"/>
<path d="M51.8203 45.8203C52.7776 45.667 53.7531 45.6446 54.7092 45.7629" stroke="#034865" stroke-width="2" stroke-linecap="round" stroke-linejoin="round"/>
<path d="M34.5768 43.9877C33.822 41.4238 33.0334 38.0549 32.6759 36.0977C32.5852 35.6266 32.5414 35.1514 32.5764 34.7035C32.6636 33.6278 34.0878 33.3371 34.6396 34.2625C34.8661 34.6424 35.074 35.043 35.2258 35.4423C35.846 37.06 36.7353 40.3867 37.4343 43.1965" stroke="#034865" stroke-width="2" stroke-linecap="round" stroke-linejoin="round"/>
<path d="M34.8495 47.4678C33.9146 50.3756 31.7768 53.9951 31.4707 57.0504C31.3919 57.8208 32.7499 58.2573 33.335 57.7461C33.9255 57.2255 37.5199 50.036 38.1116 47.8638" stroke="#034865" stroke-width="2" stroke-linecap="round" stroke-linejoin="round"/>
<path d="M24.9375 41.0078C27.7367 42.5373 30.5927 43.9483 33.4983 45.2428" stroke="#D42028" stroke-width="2" stroke-linecap="round" stroke-linejoin="round"/>
<path d="M36.8044 48.2591C37.7676 48.1282 38.7404 47.6358 39.1685 46.7665C40.2965 44.4787 37.2907 42.4923 35.3258 43.6178C33.2082 44.8308 34.3265 48.6085 36.8064 48.2665L36.8044 48.2591Z" stroke="#034865" stroke-width="2" stroke-linecap="round" stroke-linejoin="round"/>
<path d="M56.1885 58.6535C58.0602 55.6057 59.2764 52.1541 59.7183 48.6088" stroke="#D42028" stroke-width="2" stroke-linecap="round" stroke-linejoin="round"/>
<path d="M59.6486 45.6665C59.9027 44.6192 59.9352 43.5178 59.7453 42.4503" stroke="#D42028" stroke-width="2" stroke-linecap="round" stroke-linejoin="round"/>
<path d="M18.2063 62.3588C14.1803 58.0451 11.9738 52.0775 12.2192 46.182" stroke="#D42028" stroke-width="2" stroke-linecap="round" stroke-linejoin="round"/>
<path d="M12.3428 44.3067C12.4526 42.8582 12.6768 41.4197 13.021 40.0138" stroke="#D42028" stroke-width="2" stroke-linecap="round" stroke-linejoin="round"/>
<path d="M39.4102 21.2305C43.6019 21.7037 47.6162 23.6111 50.6181 26.5638" stroke="#D42028" stroke-width="2" stroke-linecap="round" stroke-linejoin="round"/>
<path d="M30.2817 18.6585L29.5586 15.8789" stroke="#034865" stroke-width="2" stroke-linecap="round" stroke-linejoin="round"/>
<path d="M31.7374 15.2643C30.3237 15.8714 28.8182 16.279 27.2863 16.4621C26.8299 16.517 26.3225 16.5294 25.9807 16.2274C25.6275 15.9124 25.4744 15.1704 25.6894 14.7395C25.9044 14.3086 26.2872 14.0016 26.7025 13.758C28.0582 12.9586 29.7122 12.8155 31.2846 12.941C31.5619 12.9646 31.8413 12.9956 32.0731 13.1507C32.3916 13.363 32.5322 13.7812 32.4872 14.1599C32.4421 14.5386 32.0954 15.1074 31.7449 15.2624L31.7374 15.2643Z" stroke="#034865" stroke-width="2" stroke-linecap="round" stroke-linejoin="round"/>
<path d="M7.6097 25.2184C6.79697 24.8235 5.8781 24.2967 5.73287 23.4011C5.59767 22.5747 6.29399 21.7553 7.1204 21.6201C7.94682 21.4849 8.79782 21.9656 9.23713 22.673" stroke="#034865" stroke-width="2" stroke-linecap="round" stroke-linejoin="round"/>
<path d="M48.7991 12.9492C48.8421 12.3477 49.3729 11.8426 49.9768 11.7414C50.5713 11.6346 51.1953 11.8871 51.6449 12.2966C52.3685 12.962 52.6236 14.1881 51.9904 14.9431" stroke="#034865" stroke-width="2" stroke-linecap="round" stroke-linejoin="round"/>
<path d="M9.62908 22.644C11.1552 20.077 12.3056 17.3845 13.0454 14.6472C13.2949 13.7047 13.2397 12.2352 13.9471 11.397C14.71 10.4965 16.6813 10.0396 17.8084 9.61875C24.675 7.03471 31.915 5.3029 39.1865 4.52023C39.714 4.46278 40.251 4.41085 40.7739 4.45831C41.8366 4.55681 42.7688 5.1041 43.2126 5.89013C44.2238 7.66138 45.6002 9.24189 46.7512 10.9369C47.2924 11.7295 47.8639 12.5461 48.786 13.0243" stroke="#034865" stroke-width="2" stroke-linecap="round" stroke-linejoin="round"/>
</svg>
