<svg width="42" height="41" viewBox="0 0 42 41" fill="none" xmlns="http://www.w3.org/2000/svg">
<path d="M31.0314 34.8943C29.5721 35.9296 27.9507 36.7326 26.2509 37.2661C13.2639 41.3336 -0.743068 29.3794 3.91719 15.6293C7.30646 5.62962 20.0895 0.199281 29.4937 4.93762C30.9739 5.68245 32.3233 6.68082 33.5054 7.85352C35.5818 9.92424 37.1352 12.5496 37.9564 15.3651C40.0799 22.6126 37.1248 30.568 31.0366 34.8943H31.0314Z" fill="white"/>
<path d="M35.1991 35.8979C36.7787 34.5351 38.1281 32.9239 39.1899 31.1438C43.6095 23.7008 42.8041 13.8596 36.8571 7.15094C34.5505 4.54671 31.5483 2.48128 28.2532 1.25047C26.3807 0.553187 24.4193 0.12531 22.437 0.0249443C9.86843 -0.61423 -1.2513 11.1339 0.113822 23.3469C1.98629 40.1397 23.1745 46.299 35.1991 35.9032V35.8979ZM31.1613 34.8943C29.702 35.9296 28.0806 36.7326 26.3807 37.2661C13.3937 41.3336 -0.613205 29.3794 4.04705 15.6292C7.43633 5.6296 20.2194 0.199264 29.6236 4.93761C31.1037 5.68243 32.4532 6.68081 33.6352 7.85351C35.7117 9.92422 37.2651 12.5496 38.0863 15.3651C40.2098 22.6126 37.2546 30.568 31.1665 34.8943H31.1613Z" fill="#F58A8A"/>
<path d="M21.5048 7.62113C21.4839 6.44843 21.4682 5.27573 21.4473 4.10303" stroke="#23275B" stroke-width="1.03793" stroke-linecap="round" stroke-linejoin="round"/>
<path d="M28.8711 8.15462L30.0793 6.38501" stroke="#23275B" stroke-width="1.03793" stroke-linecap="round" stroke-linejoin="round"/>
<path d="M32.3418 13.2522C32.9694 12.7768 33.686 12.4229 34.4392 12.2063" stroke="#23275B" stroke-width="1.03793" stroke-linecap="round" stroke-linejoin="round"/>
<path d="M31.6543 19.945C33.2809 19.908 34.9128 19.9819 36.5342 20.1563" stroke="#23275B" stroke-width="1.03793" stroke-linecap="round" stroke-linejoin="round"/>
<path d="M31.8613 25.3754C32.4367 26.0251 33.012 26.6801 33.5873 27.3299" stroke="#23275B" stroke-width="1.03793" stroke-linecap="round" stroke-linejoin="round"/>
<path d="M26.9727 30.6737C27.5375 31.6193 28.1076 32.5701 28.6725 33.5157" stroke="#23275B" stroke-width="1.03793" stroke-linecap="round" stroke-linejoin="round"/>
<path d="M21.9766 37.2079C22.0759 35.2112 22.1805 33.2144 22.2799 31.2177" stroke="#23275B" stroke-width="1.03793" stroke-linecap="round" stroke-linejoin="round"/>
<path d="M13.4102 34.9788C14.2575 34.1336 15.1048 33.2832 15.9521 32.438" stroke="#23275B" stroke-width="1.03793" stroke-linecap="round" stroke-linejoin="round"/>
<path d="M7.44727 29.5273C8.22136 28.9409 9.10529 28.4972 10.0311 28.2225" stroke="#23275B" stroke-width="1.03793" stroke-linecap="round" stroke-linejoin="round"/>
<path d="M3.93164 20.9803L8.81156 21.1969" stroke="#23275B" stroke-width="1.03793" stroke-linecap="round" stroke-linejoin="round"/>
<path d="M8.48828 10.9437C9.06362 11.5248 9.76971 11.9738 10.5386 12.2485" stroke="#23275B" stroke-width="1.03793" stroke-linecap="round" stroke-linejoin="round"/>
<path d="M14.3613 6.41138C14.8896 7.28826 15.4231 8.16514 15.9513 9.04203" stroke="#23275B" stroke-width="1.03793" stroke-linecap="round" stroke-linejoin="round"/>
<path d="M17.1855 29.8126C18.8122 27.2717 20.8102 22.6919 21.6732 19.7971C21.8667 19.1368 21.4117 14.6467 21.4117 11.2131" stroke="#23275B" stroke-width="1.03793" stroke-linecap="round" stroke-linejoin="round"/>
<path d="M20.4023 12.2538C20.6116 11.8101 20.9202 11.4139 21.2915 11.0917C21.7099 11.546 22.1179 11.8576 22.5415 12.3172" stroke="#23275B" stroke-width="1.03793" stroke-linecap="round" stroke-linejoin="round"/>
<path d="M16.6875 28.8459C16.7764 29.3002 16.8653 29.7545 16.9543 30.2035C17.4878 30.0662 17.9951 29.8126 18.424 29.4587" stroke="#23275B" stroke-width="1.03793" stroke-linecap="round" stroke-linejoin="round"/>
<path d="M13.6191 13.7329C15.8839 16.0413 18.3055 18.186 20.8737 20.1458" stroke="#F0494F" stroke-width="1.03793" stroke-linecap="round" stroke-linejoin="round"/>
<path d="M21.6727 20.9064C21.2386 21.0966 20.6842 20.8906 20.4697 20.468C20.2553 20.0454 20.4279 19.4696 20.8306 19.2266C21.1078 18.6191 21.7198 18.6825 22.1591 19.1843C22.5985 19.6862 22.2794 20.6423 21.6727 20.9064Z" fill="#23275B"/>
<path d="M39.8535 13.96C40.7688 16.5167 41.2029 19.253 41.1193 21.9734" stroke="#23275B" stroke-width="1.03793" stroke-linecap="round" stroke-linejoin="round"/>
<path d="M1.42694 24.1921C0.647617 21.329 0.830685 18.2124 1.93952 15.4602" stroke="#23275B" stroke-width="1.03793" stroke-linecap="round" stroke-linejoin="round"/>
<path d="M2.33789 17.832C2.48434 16.2473 3.0126 14.6943 3.85469 13.3525" stroke="#23275B" stroke-width="1.03793" stroke-linecap="round" stroke-linejoin="round"/>
</svg>
