<svg width="1009" height="666" viewBox="0 0 1009 666" fill="none" xmlns="http://www.w3.org/2000/svg">
<path d="M68.9899 -9.98604L62.2061 -6.01358C-87.1944 81.4736 -179 241.622 -179 414.754V423.733C-179 701.68 46.3203 927 324.267 927H3435.2C3707.37 927 3928 706.367 3928 434.201C3928 250.473 3825.79 82.0009 3662.84 -2.86913L3627.2 -21.4301C3469.58 -103.528 3282.3 -105.782 3122.74 -27.5017L3024.99 20.4567C2879.53 91.8179 2707.52 82.8845 2570.24 -3.16051C2424.03 -94.8015 2239.26 -98.5685 2089.43 -12.9627L2071.47 -2.69926C1921.26 83.1283 1737.47 85.6736 1584.94 4.0387L1541.41 -19.2581C1387.08 -101.855 1201.12 -99.2802 1049.14 -12.4407L1031.75 -2.50349C882.853 82.5705 699.636 80.6567 552.553 -7.50894C403.919 -96.6043 218.529 -97.5541 68.9899 -9.98604Z" fill="url(#paint0_linear_4481_67838)"/>
<defs>
<linearGradient id="paint0_linear_4481_67838" x1="1874.5" y1="-152" x2="1874.5" y2="927" gradientUnits="userSpaceOnUse">
<stop stop-color="white"/>
<stop offset="1" stop-color="white"/>
</linearGradient>
</defs>
</svg>
