<svg width="89" height="88" viewBox="0 0 89 88" fill="none" xmlns="http://www.w3.org/2000/svg">
<rect x="1.16797" y="0.5" width="87" height="87" rx="43.5" stroke="#072445" stroke-opacity="0.4" stroke-dasharray="5 5"/>
<path d="M33.0451 35C33.6992 35.0006 34.3466 34.8688 34.9484 34.6126C35.0104 33.8554 35.2009 33.1142 35.5118 32.4209C34.9443 33.0279 34.1726 33.4038 33.3448 33.4764C32.5171 33.5491 31.6916 33.3133 31.0271 32.8145C30.3626 32.3156 29.9058 31.5888 29.7444 30.7737C29.5831 29.9586 29.7286 29.1126 30.153 28.3982C30.5774 27.6838 31.2508 27.1514 32.0439 26.9033C32.8369 26.6551 33.6936 26.7087 34.4496 27.0538C35.2055 27.3988 35.8073 28.011 36.1393 28.7727C36.4714 29.5344 36.5104 30.3919 36.2487 31.1806C36.7029 30.5867 37.2618 30.0809 37.898 29.6881C37.813 28.7466 37.4561 27.8502 36.8707 27.1079C36.2852 26.3657 35.4966 25.8097 34.6008 25.5078C33.705 25.2058 32.7407 25.1708 31.8254 25.4072C30.9101 25.6435 30.0833 26.141 29.4457 26.8389C28.8081 27.5368 28.3872 28.4051 28.2343 29.338C28.0814 30.2708 28.2031 31.228 28.5846 32.093C28.9661 32.9579 29.5908 33.6932 30.3828 34.2094C31.1748 34.7255 32.0998 35.0002 33.0451 35ZM53.0916 31.1806C52.8269 30.3866 52.8651 29.5229 53.1987 28.7554C53.5324 27.9879 54.1379 27.3709 54.899 27.0228C55.66 26.6748 56.5229 26.6204 57.3217 26.87C58.1204 27.1197 58.7987 27.6558 59.2261 28.3753C59.6535 29.0948 59.7999 29.9468 59.6371 30.7677C59.4743 31.5886 59.0138 32.3203 58.3442 32.8222C57.6745 33.3241 56.843 33.5608 56.0094 33.4867C55.1758 33.4126 54.399 33.033 53.8284 32.4209C54.1393 33.1142 54.3298 33.8554 54.3918 34.6126C55.339 35.015 56.3892 35.1073 57.392 34.8764C58.3949 34.6454 59.2989 34.1031 59.9747 33.327C60.6505 32.5508 61.0634 31.5808 61.1543 30.5557C61.2451 29.5306 61.0092 28.5031 60.4805 27.6202C59.9517 26.7374 59.1571 26.0445 58.2105 25.6408C57.2639 25.2371 56.2138 25.1433 55.2106 25.3728C54.2074 25.6023 53.3026 26.1434 52.6257 26.9186C51.9488 27.6937 51.5345 28.6632 51.4422 29.6881C52.0784 30.0809 52.6374 30.5867 53.0916 31.1806ZM54.4201 35.4788V36.9788H59.6251C60.0832 36.9678 60.5388 37.051 60.9634 37.2235C61.3881 37.3959 61.7727 37.6538 62.0934 37.9812C62.4142 38.3086 62.6642 38.6984 62.8279 39.1265C62.9916 39.5545 63.0655 40.0117 63.0451 40.4695V48.2697C63.0292 48.4719 62.9342 48.6598 62.7807 48.7925C62.6272 48.9252 62.4276 48.9921 62.2252 48.9786H61.1701V42.125C61.1701 41.9261 61.0911 41.7353 60.9504 41.5947C60.8098 41.454 60.619 41.375 60.4201 41.375C60.2212 41.375 60.0304 41.454 59.8898 41.5947C59.7491 41.7353 59.6701 41.9261 59.6701 42.125V64.1434C59.6701 64.2105 59.6423 64.2478 59.6591 64.25L55.3407 64.2552C54.929 64.7861 54.4785 65.2857 53.9929 65.75H59.6632C60.0757 65.7359 60.4659 65.559 60.7484 65.2579C61.0308 64.9568 61.1824 64.5561 61.1701 64.1434V50.4786H62.2252C62.8254 50.4923 63.4067 50.2675 63.8415 49.8534C64.2763 49.4394 64.5294 48.8699 64.5451 48.2697V40.4695C64.5646 39.8148 64.4512 39.163 64.2117 38.5533C63.9723 37.9437 63.6118 37.3889 63.1519 36.9225C62.6921 36.456 62.1425 36.0876 61.5363 35.8395C60.9302 35.5914 60.28 35.4687 59.6251 35.4788H54.4201ZM27.1151 50.4786H28.1701V64.1434C28.1578 64.5561 28.3095 64.9568 28.5919 65.2579C28.8743 65.559 29.2645 65.7359 29.6771 65.75H35.3473C35.0433 65.4592 34.7581 65.1499 34.4822 64.8322C34.2844 64.8917 34.0793 64.9233 33.8728 64.926C33.5746 64.9259 33.2794 64.8666 33.0044 64.7514C32.7293 64.6362 32.48 64.4674 32.2708 64.255L29.7093 64.2581C29.6954 64.2426 29.6847 64.2244 29.678 64.2047C29.6713 64.1851 29.6686 64.1642 29.6701 64.1434V42.125C29.6701 41.9261 29.5911 41.7353 29.4504 41.5947C29.3098 41.454 29.119 41.375 28.9201 41.375C28.7212 41.375 28.5304 41.454 28.3898 41.5947C28.2491 41.7353 28.1701 41.9261 28.1701 42.125V48.9786H27.1151C26.9126 48.9921 26.713 48.9252 26.5595 48.7925C26.406 48.6598 26.311 48.4719 26.2951 48.2697V40.4695C26.2747 40.0117 26.3486 39.5545 26.5123 39.1265C26.6761 38.6984 26.926 38.3086 27.2468 37.9812C27.5675 37.6538 27.9522 37.3959 28.3768 37.2235C28.8014 37.051 29.257 36.9678 29.7152 36.9788H34.9201V35.4788H29.7152C29.0602 35.4687 28.4101 35.5914 27.8039 35.8395C27.1977 36.0876 26.6481 36.456 26.1883 36.9225C25.7285 37.3889 25.3679 37.9437 25.1285 38.5533C24.889 39.163 24.7756 39.8148 24.7951 40.4695V48.2697C24.8109 48.8699 25.0639 49.4394 25.4987 49.8534C25.9336 50.2675 26.5148 50.4923 27.1151 50.4786ZM44.6701 29.75C45.6343 29.75 46.5768 29.4641 47.3785 28.9284C48.1802 28.3927 48.8051 27.6314 49.174 26.7406C49.543 25.8498 49.6395 24.8696 49.4514 23.9239C49.2633 22.9783 48.799 22.1096 48.1173 21.4279C47.4355 20.7461 46.5668 20.2818 45.6212 20.0937C44.6755 19.9056 43.6953 20.0021 42.8045 20.3711C41.9137 20.7401 41.1524 21.3649 40.6167 22.1666C40.081 22.9683 39.7951 23.9108 39.7951 24.875C39.7966 26.1675 40.3107 27.4066 41.2246 28.3205C42.1385 29.2345 43.3776 29.7485 44.6701 29.75ZM44.6701 21.5C45.3376 21.5 45.9901 21.6979 46.5452 22.0688C47.1002 22.4396 47.5328 22.9667 47.7882 23.5834C48.0437 24.2001 48.1105 24.8787 47.9803 25.5334C47.85 26.1881 47.5286 26.7895 47.0566 27.2615C46.5846 27.7335 45.9832 28.0549 45.3285 28.1852C44.6739 28.3154 43.9953 28.2485 43.3786 27.9931C42.7619 27.7376 42.2348 27.3051 41.8639 26.7501C41.4931 26.195 41.2951 25.5425 41.2951 24.875C41.2961 23.9802 41.652 23.1223 42.2847 22.4896C42.9175 21.8569 43.7753 21.501 44.6701 21.5ZM48.0451 36.875V42.9272C48.5543 43.06 49.0551 43.2227 49.5451 43.4145V36.875C49.5451 36.6761 49.4661 36.4853 49.3254 36.3447C49.1848 36.204 48.994 36.125 48.7951 36.125C48.5962 36.125 48.4054 36.204 48.2648 36.3447C48.1241 36.4853 48.0451 36.6761 48.0451 36.875ZM41.2951 36.875C41.2951 36.6761 41.2161 36.4853 41.0754 36.3447C40.9348 36.204 40.744 36.125 40.5451 36.125C40.3462 36.125 40.1554 36.204 40.0148 36.3447C39.8741 36.4853 39.7951 36.6761 39.7951 36.875V43.4145C40.2851 43.2227 40.786 43.06 41.2951 42.9272V36.875Z" fill="#B81E29"/>
<path d="M50.598 43.727H50.2845C50.9057 44.0121 51.5042 44.3441 52.0751 44.72C52.3356 44.519 52.547 44.2612 52.693 43.9663C52.8391 43.6714 52.916 43.3471 52.918 43.018V35.2179C52.9375 34.5632 52.824 33.9113 52.5846 33.3017C52.3451 32.692 51.9846 32.1372 51.5248 31.6708C51.065 31.2043 50.5154 30.8359 49.9092 30.5878C49.303 30.3397 48.6528 30.217 47.9979 30.2271H41.338C40.6831 30.217 40.0329 30.3397 39.4268 30.5878C38.8206 30.8359 38.271 31.2043 37.8112 31.6708C37.3513 32.1372 36.9908 32.692 36.7513 33.3017C36.5119 33.9113 36.3985 34.5632 36.418 35.2179V43.018C36.4199 43.3471 36.4969 43.6714 36.6429 43.9663C36.789 44.2612 37.0003 44.519 37.2609 44.72C37.8317 44.3441 38.4303 44.0121 39.0514 43.727H38.7379C38.5355 43.7404 38.3359 43.6735 38.1824 43.5408C38.0289 43.4081 37.9339 43.2202 37.918 43.018V35.2179C37.8975 34.76 37.9715 34.3029 38.1352 33.8748C38.2989 33.4467 38.5489 33.0569 38.8696 32.7295C39.1904 32.4021 39.575 32.1442 39.9997 31.9718C40.4243 31.7994 40.8798 31.7161 41.338 31.7271H47.9979C48.4561 31.7161 48.9117 31.7994 49.3363 31.9718C49.7609 32.1442 50.1456 32.4021 50.4663 32.7295C50.787 33.0569 51.037 33.4467 51.2007 33.8748C51.3645 34.3029 51.4384 34.76 51.418 35.2179V43.018C51.402 43.2202 51.307 43.4081 51.1535 43.5408C51.0001 43.6735 50.8005 43.7404 50.598 43.727ZM38.4127 46.6156C38.4618 46.701 38.5272 46.7759 38.6052 46.836C38.6833 46.8961 38.7724 46.9402 38.8675 46.9659C38.9626 46.9915 39.0618 46.9982 39.1594 46.9855C39.2571 46.9727 39.3513 46.9409 39.4366 46.8918C39.8339 46.6633 40.2457 46.4611 40.6693 46.2864C40.7605 46.249 40.8434 46.1939 40.9134 46.1244C40.9833 46.0549 41.0388 45.9723 41.0768 45.8813C41.1147 45.7904 41.1344 45.6928 41.1346 45.5942C41.1348 45.4956 41.1156 45.398 41.0781 45.3068C41.0406 45.2157 40.9854 45.1328 40.9158 45.063C40.8462 44.9931 40.7636 44.9377 40.6726 44.8999C40.5815 44.862 40.4839 44.8425 40.3854 44.8423C40.2868 44.8422 40.1891 44.8616 40.098 44.8992C39.6138 45.0993 39.1431 45.3306 38.6888 45.5917C38.6035 45.6408 38.5286 45.7062 38.4685 45.7842C38.4084 45.8623 38.3643 45.9514 38.3386 46.0465C38.313 46.1415 38.3063 46.2408 38.319 46.3384C38.3318 46.4361 38.3636 46.5303 38.4127 46.6156ZM35.1652 48.6701C35.1048 48.748 35.0604 48.8371 35.0346 48.9322C35.0087 49.0273 35.0018 49.1266 35.0143 49.2243C35.0268 49.3221 35.0585 49.4165 35.1075 49.502C35.1565 49.5875 35.2219 49.6625 35.3 49.7227C35.378 49.7829 35.4671 49.8272 35.5623 49.8529C35.6574 49.8787 35.7567 49.8854 35.8545 49.8727C35.9522 49.8601 36.0465 49.8282 36.132 49.7791C36.2174 49.73 36.2923 49.6645 36.3524 49.5863C36.6326 49.2238 36.9359 48.8798 37.2606 48.5565C37.3304 48.4871 37.3858 48.4045 37.4237 48.3136C37.4616 48.2227 37.4812 48.1252 37.4814 48.0267C37.4816 47.9282 37.4624 47.8307 37.4249 47.7396C37.3874 47.6486 37.3323 47.5658 37.2628 47.496C37.1933 47.4262 37.1108 47.3708 37.0199 47.3329C36.929 47.2951 36.8315 47.2755 36.733 47.2753C36.6345 47.275 36.537 47.2942 36.4459 47.3317C36.3548 47.3692 36.272 47.4243 36.2023 47.4938C35.8315 47.863 35.485 48.2559 35.1652 48.6701ZM32.668 55.9983C32.6679 56.51 32.7003 57.0212 32.765 57.5287C32.7881 57.7094 32.8763 57.8756 33.0129 57.9961C33.1496 58.1166 33.3255 58.1832 33.5077 58.1835C33.5399 58.1836 33.5721 58.1815 33.604 58.1773C33.7017 58.1648 33.796 58.1332 33.8815 58.0843C33.9669 58.0354 34.0419 57.9701 34.1022 57.8922C34.1624 57.8143 34.2067 57.7253 34.2325 57.6302C34.2583 57.5352 34.2651 57.436 34.2526 57.3383C34.1962 56.8939 34.1679 56.4463 34.168 55.9983V55.9654C34.1676 55.8677 34.1479 55.7712 34.1099 55.6812C34.0719 55.5913 34.0163 55.5098 33.9465 55.4416C33.8768 55.3733 33.7941 55.3196 33.7033 55.2836C33.6126 55.2476 33.5156 55.23 33.418 55.2318C33.2174 55.2356 33.0263 55.3181 32.886 55.4615C32.7457 55.6049 32.6674 55.7977 32.668 55.9983ZM34.5719 50.9724C34.481 50.9343 34.3835 50.9146 34.285 50.9142C34.1865 50.9139 34.0888 50.933 33.9977 50.9704C33.9065 51.0079 33.8237 51.063 33.7539 51.1325C33.6841 51.202 33.6287 51.2847 33.5908 51.3756C33.389 51.859 33.2192 52.355 33.0825 52.8606C33.0568 52.9557 33.0501 53.0549 33.0628 53.1526C33.0755 53.2503 33.1072 53.3445 33.1563 53.4299C33.2054 53.5153 33.2708 53.5901 33.3488 53.6503C33.4268 53.7104 33.5159 53.7545 33.611 53.7802C33.706 53.8059 33.8052 53.8126 33.9029 53.7999C34.0006 53.7873 34.0948 53.7555 34.1802 53.7064C34.2656 53.6574 34.3405 53.592 34.4006 53.5139C34.4607 53.4359 34.5048 53.3468 34.5305 53.2518C34.6502 52.8098 34.7987 52.3761 34.9751 51.9536C35.0131 51.8627 35.0327 51.7652 35.033 51.6667C35.0333 51.5682 35.0141 51.4706 34.9767 51.3795C34.9393 51.2884 34.8842 51.2055 34.8148 51.1357C34.7453 51.0659 34.6628 51.0104 34.5719 50.9724Z" fill="#B81E29"/>
<path d="M33.758 63.4176C33.8554 63.432 33.9547 63.4271 34.0503 63.403C34.1458 63.379 34.2357 63.3364 34.3147 63.2776C34.3938 63.2189 34.4604 63.1451 34.5109 63.0605C34.5614 62.9759 34.5948 62.8823 34.6091 62.7848L34.6571 62.4586C35.9105 64.4259 37.7102 65.9853 39.836 66.9459C39.895 66.9985 39.962 67.0413 40.0345 67.0728C40.5175 67.2748 41.0131 67.4451 41.5183 67.5825C41.5825 67.6002 41.6488 67.6092 41.7154 67.6093L41.7209 67.6084C42.6542 67.8542 43.6142 67.9842 44.5793 67.9955C44.5943 67.9964 44.6086 68 44.6238 68H44.6674C44.6734 68 44.6795 67.9994 44.6855 67.9994C44.6909 67.9994 44.6961 68 44.7015 68C44.9471 68 45.1903 67.9901 45.4322 67.9753C45.4544 67.9739 45.4762 67.9717 45.4983 67.9702C45.7316 67.9546 45.963 67.9321 46.1924 67.9028C46.2056 67.9011 46.2191 67.9006 46.2322 67.8989C46.2363 67.8984 46.2399 67.8968 46.2439 67.8962C47.2661 67.7632 48.2664 67.4963 49.2189 67.1024C49.2322 67.0978 49.2458 67.0958 49.259 67.0903C49.2816 67.0809 49.3036 67.0693 49.3263 67.0597C49.4432 67.01 49.5578 66.9558 49.6728 66.9024C49.9037 66.7962 50.1308 66.6828 50.3542 66.5622C50.3658 66.5559 50.3777 66.5498 50.3893 66.5435C50.4813 66.4935 50.5759 66.4475 50.6663 66.3953C50.6968 66.3764 50.7259 66.3555 50.7534 66.3324C51.5697 65.8457 52.3252 65.2638 53.0041 64.5989C53.0569 64.5681 53.1056 64.531 53.1492 64.4884C53.5196 64.1186 53.8655 63.7249 54.1845 63.3099C54.226 63.2543 54.2594 63.1932 54.2839 63.1283C54.8137 62.4078 55.2615 61.6304 55.6189 60.8105C55.6752 60.7489 55.7206 60.6782 55.7533 60.6014C55.9545 60.1177 56.1233 59.6211 56.2587 59.115C56.2809 59.0296 56.2877 58.9409 56.2787 58.8531C56.4839 58.0071 56.5967 57.1414 56.6152 56.2711C56.6492 56.1847 56.6669 56.0928 56.6674 56C56.6674 55.4808 56.6342 54.9622 56.5678 54.4473C56.5558 54.3607 56.5286 54.277 56.4875 54.1999C56.3568 53.334 56.1313 52.4851 55.8152 51.6685C55.8119 51.583 55.794 51.4988 55.7621 51.4194C55.562 50.9353 55.3303 50.4648 55.0685 50.011C55.0299 49.9462 54.9816 49.8877 54.9253 49.8375C54.4592 49.0581 53.9065 48.3338 53.2778 47.6784C53.2465 47.623 53.2082 47.5719 53.1639 47.5263C52.7944 47.1557 52.4013 46.8097 51.9869 46.4902C51.9473 46.4599 51.9049 46.4336 51.8602 46.4116C51.0722 45.8135 50.2127 45.3159 49.3017 44.9304C49.2939 44.9269 49.2874 44.9218 49.2795 44.9185C49.2265 44.8964 49.1711 44.8786 49.1176 44.8573C48.9552 44.7918 48.7911 44.7297 48.6254 44.6711C48.5721 44.6525 48.5191 44.6344 48.4655 44.6166C48.2524 44.545 48.0369 44.4791 47.8189 44.4191C47.8107 44.4168 47.8027 44.4138 47.7945 44.4116L47.7907 44.411C46.7836 44.1382 45.7449 44 44.7015 44C44.6956 44 44.6902 44.0016 44.6845 44.0017C44.6787 44.0016 44.6732 44 44.6674 44C44.1519 44.0001 43.637 44.0329 43.1257 44.0983C42.9367 44.1226 42.7641 44.2179 42.6428 44.3649C42.5216 44.5119 42.4608 44.6995 42.4728 44.8896C42.4848 45.0797 42.5688 45.2582 42.7076 45.3887C42.8464 45.5192 43.0296 45.592 43.2202 45.5923C43.2525 45.5924 43.2848 45.5903 43.3168 45.5861C43.7647 45.5288 44.2158 45.5 44.6674 45.5H44.6894L44.6954 45.4994L44.7015 45.5C45.6217 45.5001 46.5377 45.6233 47.4253 45.8663C47.6153 45.9181 47.804 45.9768 47.9912 46.0393C48.0373 46.0548 48.0834 46.0703 48.1292 46.0864C48.2787 46.1387 48.4261 46.1955 48.5723 46.2542C50.4737 47.03 52.1067 48.3451 53.27 50.0374C54.4334 51.7297 55.0763 53.7253 55.1196 55.7785C55.163 57.8316 54.6048 59.8526 53.5138 61.5924C52.4229 63.3323 50.8469 64.7151 48.9799 65.5704C48.9009 65.606 48.8228 65.6441 48.7433 65.6777C47.8721 66.0475 46.9541 66.2951 46.0152 66.4136C45.8073 66.4403 45.5973 66.4606 45.3864 66.4748C45.3714 66.4758 45.3567 66.4773 45.3417 66.4783C45.1234 66.4921 44.9043 66.499 44.6855 66.4994C42.9146 66.4899 41.1752 66.0302 39.6308 65.1635C38.0864 64.2969 36.7878 63.0517 35.8571 61.5451L36.3119 61.6678C36.407 61.6935 36.5062 61.7002 36.6039 61.6876C36.7015 61.6749 36.7958 61.6431 36.8812 61.5941C36.9665 61.545 37.0414 61.4796 37.1015 61.4016C37.1617 61.3236 37.2058 61.2345 37.2315 61.1394C37.2572 61.0443 37.2639 60.9451 37.2512 60.8475C37.2386 60.7498 37.2068 60.6556 37.1577 60.5702C37.1087 60.4848 37.0432 60.4099 36.9652 60.3498C36.8872 60.2897 36.7981 60.2455 36.7031 60.2198L34.7141 59.683C34.5615 59.5624 34.3675 59.5069 34.1742 59.5287C33.9809 59.5504 33.804 59.6476 33.6821 59.7992C33.6702 59.8111 33.6586 59.8229 33.6475 59.8357C33.6283 59.8582 33.6104 59.8819 33.5941 59.9066C33.5826 59.9234 33.5716 59.9402 33.5616 59.958C33.5487 59.9814 33.5371 60.0055 33.5268 60.0301C33.5172 60.0524 33.5083 60.0748 33.5009 60.0983C33.4975 60.1089 33.4921 60.1182 33.4892 60.129C33.4852 60.1439 33.4849 60.1586 33.4819 60.1735C33.4789 60.1877 33.4734 60.2008 33.4712 60.2154L33.1252 62.5665C33.1108 62.664 33.1158 62.7633 33.1399 62.8588C33.1639 62.9543 33.2065 63.0441 33.2653 63.1231C33.3241 63.2022 33.3978 63.2688 33.4823 63.3194C33.5669 63.3699 33.6605 63.4033 33.758 63.4176Z" fill="#B81E29"/>
<path d="M43.1386 53.2837C43.365 53.0808 43.5434 52.8301 43.6608 52.5498C44.0179 51.591 43.2756 50.7689 42.9965 50.4602C42.7109 50.1125 42.3731 49.8111 41.9953 49.5666C41.7421 49.4042 41.4551 49.3017 41.1562 49.2671C40.8573 49.2324 40.5545 49.2665 40.2708 49.3667C39.8661 49.5471 39.518 49.8339 39.2634 50.1965C38.8469 50.6897 38.5009 51.2384 38.2354 51.8269C37.934 52.4983 37.8472 53.2463 37.9868 53.9689C38.2134 55.021 38.9832 55.8021 39.545 56.3719L44.112 61.0089C44.5062 61.4345 44.9418 61.8199 45.4124 62.1591C45.9817 62.5498 46.6563 62.758 47.3467 62.7561C48.5959 62.7081 49.7759 62.1698 50.6309 61.2579L50.6382 61.2502L50.7404 61.1506C50.8404 61.0543 50.9404 60.9576 51.0334 60.8565C51.259 60.605 51.3956 60.2862 51.422 59.9493C51.4484 59.6124 51.3632 59.2761 51.1795 58.9925C50.9995 58.6744 50.7774 58.382 50.5192 58.1231C50.2442 57.7946 49.9142 57.5163 49.544 57.3006C49.2823 57.1533 48.9871 57.0755 48.6867 57.0749C48.3863 57.0742 48.0907 57.1507 47.8283 57.297C47.6195 57.4336 47.4351 57.6044 47.283 57.8023C47.2409 57.8525 47.182 57.9224 47.1497 57.9572C46.9949 57.8714 46.8563 57.7591 46.7403 57.6255L43.4404 54.2435C43.2717 54.0892 43.1258 53.9117 43.0068 53.7165C42.9651 53.6477 42.9478 53.5668 42.9577 53.4869C43.0107 53.413 43.0714 53.3449 43.1386 53.2837ZM45.6669 58.6732C45.9244 58.9369 46.7099 59.7411 47.6606 59.38C47.9672 59.2482 48.2331 59.037 48.4307 58.768C48.4836 58.6996 48.5428 58.6363 48.6076 58.5791C48.6903 58.567 48.7745 58.5844 48.8456 58.6281C49.0613 58.7683 49.2539 58.941 49.4166 59.1401C49.5829 59.3042 49.7285 59.4881 49.8502 59.6876C49.88 59.7403 49.9021 59.7971 49.9157 59.8561C49.8465 59.9297 49.7729 60.0004 49.6996 60.0707L49.5612 60.2054C49.5499 60.2168 49.5389 60.2281 49.5283 60.2402C48.7003 61.0807 47.3325 61.6476 46.2532 60.917C45.8657 60.632 45.5065 60.3103 45.1806 59.9564L40.6136 55.3191C40.0324 54.7298 39.5779 54.2329 39.4531 53.6524C39.3815 53.2313 39.4388 52.7983 39.6175 52.4102C39.8308 51.9497 40.1056 51.5202 40.4345 51.1336C40.5357 50.987 40.6647 50.8617 40.8143 50.7649C40.8422 50.7548 40.8718 50.75 40.9014 50.7506C41.0175 50.757 41.13 50.793 41.2281 50.8553C41.4737 51.027 41.6941 51.2323 41.8829 51.4651C42.2498 51.8712 42.2546 52.0173 42.2561 52.0246C42.2034 52.0963 42.1439 52.1626 42.0784 52.2228C41.8802 52.403 41.7167 52.6181 41.5961 52.8574C41.4911 53.1026 41.4431 53.3684 41.4557 53.6349C41.4684 53.9013 41.5415 54.1614 41.6694 54.3955C41.8543 54.7283 42.0896 55.0305 42.367 55.2912L45.6669 58.6732Z" fill="#B81E29"/>
</svg>
