<svg width="25" height="30" viewBox="0 0 25 30" fill="none" xmlns="http://www.w3.org/2000/svg">
<path d="M7.43269 18.0794C9.50131 21.0152 11.6419 23.8961 13.8505 26.7267C14.9705 28.1599 17.0201 28.4543 18.5127 27.4143C19.6201 26.6413 20.919 25.7181 22.1132 24.8601C23.66 23.7496 24.0065 21.5963 22.888 20.0542C20.7292 17.0822 18.411 13.7727 16.3982 11.1266" fill="#F04951"/>
<path d="M7.38628 17.6044C9.67552 20.853 12.0573 24.0413 14.5186 27.1617C15.3012 28.1554 16.7581 28.4158 17.7745 27.6611C17.7787 27.6608 17.7865 27.652 17.7904 27.6475L22.9499 23.7769C24.0098 22.9818 24.23 21.4855 23.4469 20.4164C21.1162 17.2417 18.5521 13.5498 16.3476 10.6519" stroke="#D42028" stroke-width="0.835914" stroke-linecap="round" stroke-linejoin="round"/>
<path d="M17.1229 11.7996C14.8337 8.55103 12.4519 5.36275 9.99057 2.24226C9.20795 1.24859 7.75102 0.988176 6.73466 1.7429C6.73048 1.74316 6.72267 1.75204 6.71876 1.75647L1.55926 5.62709C0.499365 6.42224 0.279133 7.91853 1.06229 8.98755C3.39297 12.1623 5.9571 15.8542 8.16154 18.7521" fill="#22C3EA"/>
<path d="M17.2228 11.989C14.9336 8.74049 12.7943 5.88039 10.3327 2.75573C9.55013 1.76206 8.09321 1.50166 7.07684 2.25638C7.07267 2.25664 7.06485 2.26551 7.06094 2.26994L1.90145 6.14057C0.841553 6.93572 0.621307 8.432 1.40446 9.50102C3.73515 12.6758 5.91044 15.8435 8.11488 18.7414L17.2225 11.9849L17.2228 11.989Z" stroke="#034865" stroke-width="0.835914" stroke-linecap="round" stroke-linejoin="round"/>
<path d="M11.5128 8.88215C10.9234 7.8973 10.2372 6.97296 9.47185 6.12058" stroke="#034865" stroke-width="0.835914" stroke-linecap="round" stroke-linejoin="round"/>
<path d="M21.4832 21.6927C20.5924 20.844 19.8272 19.8618 19.224 18.7899" stroke="#D42028" stroke-width="0.835914" stroke-linecap="round" stroke-linejoin="round"/>
<path d="M18.1524 17.1295C17.8984 16.7517 17.6402 16.3743 17.3862 15.9966" stroke="#D42028" stroke-width="0.835914" stroke-linecap="round" stroke-linejoin="round"/>
</svg>
