<?xml version="1.0" encoding="UTF-8"?>
<svg id="Layer_1" xmlns="http://www.w3.org/2000/svg" version="1.1" viewBox="0 0 100 100">
  <!-- Generator: Adobe Illustrator 29.1.0, SVG Export Plug-In . SVG Version: 2.1.0 Build 142)  -->
  <defs>
    <style>
      .st0 {
        fill: #d32329;
      }
    </style>
  </defs>
  <path class="st0" d="M87.1,79.2c-2.4,0-3.1-1.4-3.7-3.2L61.8,10H26.5l-2.8,10.9h11.5l-17.3,53.6c-.8,2.2-2,4.8-4.8,4.8h-4.4v10.8h19.5l17-55h8.2s3.1,0,5.9.9c1.6.5,3.8,1.7,3.8,3.7,0,.8-.7,1.4-1.5,1.7-3.5,1-7-.6-9-3.4-1.4,3,.8,5.8,4.5,5.4,3.3-.3,6.5-1.6,9.8-1.1,2.7.4,5,2.6,5.7,5.3.6,2.7-.5,5.7-2.7,7.2.4-1.9-1-3.8-2.8-4.4-1.8-.6-3.9,0-5.4,1.1-2.9,2.1-3.6,5.3-3.2,8.7.5,4,1.9,8.1,3.2,11.9,2,6,4.2,12,6.6,17.9h23.2v-10.8h-4.2ZM22.5,84h-2.4v2.4h-1.2v-2.4h-2.4v-1.2h2.4v-2.4h1.2v2.4h2.4v1.2ZM25.1,81.2c-.5.5-1.1.7-1.7.7s-1.2-.2-1.7-.7c-.9-.9-.9-2.4,0-3.4.4-.4,1-.7,1.6-.7v.7c-.4,0-.8.2-1.1.5-.7.7-.7,1.8,0,2.4.7.7,1.8.7,2.4,0,.3-.3.5-.7.5-1.2h.7c0,.6-.3,1.2-.7,1.6M27.2,78.7l-3.3-3.3.5-.5,2.8,2.8,2-2,.5.5-2.5,2.5ZM72.3,86.4h-2.5v-3.7h2.5v.4h-2v1.2h1.9v.4h-1.9v1.3h2.1v.4ZM74.8,86c0,.1-.2.2-.3.3-.1,0-.2.1-.4.1-.1,0-.3,0-.4,0s-.3,0-.4,0c-.1,0-.3,0-.4-.2-.1,0-.2-.2-.2-.3s0-.3-.1-.4h.4c0,0,0,.2,0,.2,0,0,0,.1.2.2,0,0,.1,0,.2,0,0,0,.2,0,.3,0s.1,0,.2,0c0,0,.1,0,.2,0,0,0,.1,0,.2-.1,0,0,0-.1,0-.2s0-.2-.1-.3c0,0-.2-.1-.3-.1-.1,0-.3,0-.4,0-.1,0-.3,0-.4-.1-.1,0-.2-.1-.3-.2,0,0-.1-.2-.1-.4s0-.2,0-.3c0,0,.1-.2.2-.2,0,0,.2-.1.3-.1.1,0,.2,0,.4,0s.3,0,.4,0c.1,0,.2,0,.3.1,0,0,.2.1.2.3,0,.1,0,.2.1.4h-.4c0,0,0-.2,0-.2,0,0,0-.1-.1-.1,0,0-.1,0-.2,0,0,0-.1,0-.2,0s-.1,0-.2,0c0,0-.1,0-.2,0,0,0,0,0-.1.1s0,0,0,.2,0,.1,0,.2c0,0,.1,0,.2.1,0,0,.2,0,.3,0,.1,0,.2,0,.3,0,.1,0,.2,0,.3,0,.1,0,.2,0,.3.1,0,0,.1.1.2.2,0,0,0,.2,0,.3s0,.3,0,.4M76.5,84.2h-.5v1.6c0,0,0,0,0,.1,0,0,0,0,0,0,0,0,0,0,0,0,0,0,0,0,.2,0h.2v.4h-.3c-.1,0-.2,0-.3,0s-.1,0-.2,0c0,0,0,0-.1-.2,0,0,0-.2,0-.3v-1.7h-.5v-.4h.5v-.8h.4v.8h.5v.4ZM77.6,86.4h-.6v-.6h.6v.6ZM79.8,86.4h-.4v-2.6h-.9v-.3c.1,0,.2,0,.4,0,.1,0,.2,0,.3-.1,0,0,.2-.1.2-.2,0,0,.1-.2.1-.3h.3v3.6ZM82.6,86c-.2.3-.5.5-1,.5s-.6,0-.8-.2-.3-.4-.3-.7h.4c0,.2,0,.3.2.4s.3.1.5.1c.3,0,.5-.1.6-.3.1-.2.2-.6.2-1.1h0c0,.1-.2.3-.3.4-.2,0-.3.1-.5.1s-.3,0-.5,0c-.1,0-.3-.1-.4-.2,0-.1-.2-.2-.2-.4,0-.1,0-.3,0-.5s0-.3,0-.5c0-.1.1-.3.2-.4.1-.1.2-.2.4-.2.1,0,.3,0,.5,0s.3,0,.5,0c.1,0,.3.1.4.3s.2.3.3.5c0,.2,0,.5,0,.9,0,.6,0,1.1-.3,1.4M85.7,85.8c0,.1-.1.3-.3.3-.1,0-.2.2-.4.2-.1,0-.3,0-.5,0s-.3,0-.5,0-.3-.1-.4-.2c-.1,0-.2-.2-.3-.3,0-.1,0-.3,0-.5s0-.4.2-.6c.1-.2.3-.3.5-.3-.2,0-.3-.2-.4-.3,0-.1-.1-.3-.1-.5s0-.3,0-.4.1-.2.2-.3.2-.1.3-.2c.1,0,.3,0,.4,0,.2,0,.4,0,.5,0,.1,0,.3.1.3.2,0,0,.2.2.2.3,0,.1,0,.2,0,.3,0,.2,0,.3-.1.4,0,.1-.2.2-.4.3.2,0,.4.2.5.3.1.2.2.3.2.6s0,.3,0,.5M88.5,85.9c0,.1-.2.3-.3.3-.1,0-.2.2-.4.2-.2,0-.3,0-.5,0s-.4,0-.5,0c-.2,0-.3-.1-.4-.2-.1-.1-.2-.2-.2-.4,0-.1,0-.3,0-.5h.4c0,.2,0,.4.2.6.1.1.3.2.6.2s.2,0,.3,0c0,0,.2,0,.3-.1,0,0,.1-.1.2-.2,0,0,0-.2,0-.3s0-.2,0-.3c0,0,0-.2-.2-.2,0,0-.1-.1-.2-.1,0,0-.2,0-.3,0s-.2,0-.3,0v-.4s0,0,0,0h.1c0,0,.2,0,.3,0,0,0,.2,0,.2-.1,0,0,.1-.1.2-.2,0,0,0-.2,0-.3,0-.2,0-.3-.2-.4-.1,0-.3-.1-.5-.1s-.2,0-.3,0-.2,0-.2.2c0,0,0,.2-.1.3,0,0,0,.2,0,.3h-.4c0-.2,0-.3,0-.5,0-.1.1-.3.2-.4,0-.1.2-.2.3-.2s.3,0,.5,0,.3,0,.4,0c.1,0,.3,0,.4.2,0,0,.2.2.2.3s0,.3,0,.4,0,.3-.1.4-.2.2-.4.3h0c.2,0,.4.2.5.3.1.2.2.4.2.6s0,.3,0,.5"/>
</svg>