<svg width="76" height="76" viewBox="0 0 76 76" fill="none" xmlns="http://www.w3.org/2000/svg">
<path d="M41.5743 30.6755C39.2851 31.4184 36.9924 32.1416 34.7162 32.9281C31.4645 34.048 31.5847 35.8523 31.683 38.9816C31.7304 40.5797 31.8192 42.1806 31.987 43.7673C32.0645 44.5388 32.4133 45.0321 33.136 45.3357C33.9309 45.6723 34.7646 45.9407 35.5781 46.2383C37.2166 46.8415 38.8609 47.4487 40.4995 48.0519C40.8867 48.1915 41.3585 48.0353 41.5935 47.6972C42.5685 46.2826 43.692 44.928 44.853 43.6687C45.4726 43.0014 46.1173 42.3601 46.7871 41.745C47.3688 41.207 48.1075 40.6917 48.0088 39.8016C47.9197 39.0219 47.3514 38.2723 46.9707 37.6011C46.5461 36.8563 46.1175 36.1172 45.6708 35.3916C44.7629 33.887 43.8032 32.4069 42.8134 30.9577C42.5301 30.5445 41.9904 30.5497 41.5743 30.6755Z" fill="#534747"/>
<path d="M51.2754 57.0428C49.8716 56.7239 48.4969 56.2263 47.0308 56.4693C46.3176 56.5873 45.6865 56.9354 45.0764 57.3153C44.4245 57.7181 43.7861 58.1389 43.1476 58.5596C42.5411 58.9593 41.9463 59.3672 41.3245 59.739C41.0116 59.9279 40.697 60.1068 40.3706 60.2777C40.0542 60.4468 39.7167 60.5839 39.5351 60.9073C39.2292 61.4468 39.6101 62.0057 40.0711 62.3003C40.6993 62.7025 41.4497 63.1032 42.1623 63.322C42.5791 63.4562 42.8762 63.0661 42.7943 62.7238C44.2684 62.2702 45.7466 61.8108 47.155 61.1904C47.9298 60.8472 48.6934 60.4702 49.4167 60.0393C50.1441 59.6025 50.9429 59.1377 51.5476 58.5291C51.9535 58.1196 51.993 57.2046 51.2812 57.0469L51.2754 57.0428Z" fill="#534747"/>
<path d="M61.6867 30.9646C61.2217 30.8747 60.8368 31.1173 60.6474 31.539C60.559 31.7283 60.4881 31.9297 60.4212 32.1254C60.1871 32.2133 59.9748 32.3943 59.911 32.6353C59.5966 33.8088 59.292 34.9805 58.9933 36.1563C58.7158 37.2517 58.2055 38.4706 58.5952 39.589C58.7666 40.0886 59.0351 40.5606 59.2581 41.0357C59.4947 41.5287 59.7208 42.0491 59.9991 42.5193C60.0564 42.6111 60.1177 42.6969 60.1831 42.777C60.2671 43.0169 60.3527 43.2668 60.4564 43.5031C60.5654 43.7692 60.8475 43.948 61.1267 43.9692C61.2978 43.9844 61.4995 43.9431 61.6568 43.8536C61.879 43.8697 62.1185 43.8114 62.2925 43.673C62.3406 43.6287 62.3982 43.6081 62.4673 43.5957C62.935 43.4453 63.0314 42.8466 62.8836 42.4498C62.8917 42.4381 62.9115 42.4346 62.9156 42.4288C63.2761 42.2212 63.3576 41.8801 63.2706 41.5948C63.3058 41.5069 63.3253 41.4166 63.3314 41.3084C63.3498 39.7648 63.1059 38.2377 62.6105 36.7864C62.6356 36.6136 62.6548 36.4367 62.6839 36.2581C62.738 35.9066 62.8021 35.5534 62.8603 35.1961C62.9043 34.9587 62.9039 34.4742 63.1058 34.3206C63.5798 33.9498 63.4609 33.2877 63.048 32.9488C62.827 32.7692 62.5817 32.6246 62.3283 32.4916C62.3498 32.299 62.3754 32.1006 62.3969 31.908C62.4449 31.4659 62.1027 31.0377 61.6808 30.9605L61.6867 30.9646Z" fill="#534747"/>
<path d="M50.1519 15.2035C48.7824 14.3377 47.3075 13.6235 45.7739 13.0932C45.148 12.8742 44.3926 12.5305 43.7166 12.6571C43.0406 12.7837 42.4296 13.4137 41.9424 13.8532C41.0122 14.6936 39.3467 16.0691 40.5703 17.3436C41.1918 17.9919 41.9072 18.5672 42.5791 19.1554C42.9296 19.4597 43.2702 19.7657 43.6207 20.0699C44.0137 20.4124 44.329 20.6057 44.8343 20.7495C44.9792 20.7897 45.1041 20.7469 45.1923 20.6698C45.8585 20.7439 46.5352 20.6784 47.2049 20.5734C48.017 20.4376 48.92 20.1835 49.7395 20.3729C50.3198 20.5083 50.9616 20.2196 51.0042 19.5488C51.0535 18.7443 51.1067 17.934 51.1659 17.1277C51.1949 16.7502 51.2222 16.3627 51.0518 16.0108C50.8721 15.6351 50.4846 15.4089 50.1461 15.1994L50.1519 15.2035Z" fill="#534747"/>
<path d="M23.7942 19.6348C22.8322 19.7873 21.6369 19.7777 20.8445 20.42C19.954 21.141 19.227 22.2612 18.5902 23.2019C17.6738 24.5448 16.9111 25.9773 16.2755 27.4636C15.8031 28.1554 15.3674 28.8815 15.2351 29.706C15.0794 30.7133 15.4296 31.6398 16.2086 32.2853C16.4372 32.4788 16.9009 32.5332 17.1563 32.3649C18.247 31.6792 19.3318 30.9895 20.4149 30.2899C21.3883 29.6611 22.7729 29.0501 23.4071 28.0385C24.0292 27.0443 24.035 25.5437 24.2205 24.4189C24.431 23.1213 24.6433 21.8335 24.791 20.5268C24.855 19.9746 24.3197 19.5506 23.7983 19.629L23.7942 19.6348Z" fill="#534747"/>
<path d="M21.8551 47.4432C20.8207 46.9661 19.7326 46.6159 18.6209 46.3618C18.1896 46.2607 17.6517 46.4747 17.6435 46.9964C17.6325 47.5595 17.3298 48.0321 17.1581 48.5526C17.0072 49.0183 16.9685 49.4843 17.016 49.9756C17.1163 50.9879 17.6519 51.8964 18.2088 52.7246C18.9264 53.7943 19.6956 54.8393 20.4811 55.861C20.8729 56.367 21.2747 56.8711 21.6926 57.3519C21.9179 57.6124 22.1422 57.924 22.4035 58.1576C22.6146 58.3389 22.8726 58.4405 23.1306 58.542C23.2907 58.6102 23.4752 58.4444 23.4351 58.2782C23.4133 58.1852 23.3897 58.0823 23.3661 57.9795C24.1006 57.7812 24.8351 57.5828 25.5656 57.3904C26.0328 57.2656 26.481 56.8076 26.3397 56.2771C26.0273 55.1346 25.7387 53.9828 25.4123 52.8479C25.0784 51.6992 24.8146 50.4868 24.3795 49.3715C23.9767 48.3218 22.8138 47.8677 21.8632 47.4316L21.8551 47.4432Z" fill="#534747"/>
<path d="M43.1655 11.2634C40.6105 10.6974 37.9828 10.5219 35.3842 10.8767C32.5408 11.2602 29.902 12.3567 27.3862 13.7116C24.7171 15.1501 21.9329 16.6298 19.5888 18.5709C17.2127 20.5332 15.4127 23.1467 14.2404 25.9892C14.1619 26.1768 14.091 26.3782 14.0125 26.5657C11.8453 30.2297 11.0411 34.6943 11.266 38.8974C11.5629 44.3525 13.7578 49.5276 17.0807 53.8269C18.794 56.0385 20.8074 58.0178 23.0049 59.7447C25.3149 61.5584 27.8977 63.216 30.7495 64.0143C35.9321 65.4648 41.9605 64.5548 46.9614 62.8094C52.2895 60.9542 57.1074 57.5943 60.39 52.9852C63.8752 48.0847 65.0664 42.3673 64.7 36.4402C64.5301 33.6502 64.2596 30.6692 63.2969 28.037C62.2632 25.2084 60.2181 22.7401 58.203 20.552C54.161 16.1678 49.0537 12.582 43.1615 11.2693L43.1655 11.2634ZM24.4244 17.5234C26.8447 16.1194 29.2992 14.6786 31.9296 13.706C34.2505 12.8554 36.7381 12.5358 39.197 12.6805C39.5117 12.7004 39.8282 12.7303 40.1447 12.7601C40.0206 12.864 39.8982 12.9778 39.7857 13.0898C39.0187 13.8448 38.1821 14.5256 37.3111 15.1565C36.9632 14.9232 36.4293 14.9324 36.0378 14.911C35.4771 14.8842 34.9054 14.9105 34.3444 14.996C33.183 15.1741 32.0922 15.6608 31.0195 16.1342C29.8515 16.645 28.6906 17.1953 27.549 17.7677C26.9642 18.0615 26.3813 18.3652 25.7983 18.6689C25.5097 18.8228 25.1269 18.963 24.8449 19.182C23.8917 19.185 22.9412 19.1467 21.9958 19.0513C22.7804 18.5074 23.5879 18.0053 24.4145 17.5252L24.4244 17.5234ZM43.9069 21.7747C43.8378 21.9861 43.7489 22.201 43.6902 22.3849C43.5831 22.7255 43.48 23.0603 43.3729 23.4008C43.1357 24.1524 42.9025 24.8982 42.6594 25.6457C42.4325 26.37 42.1957 27.096 41.963 27.8161C41.9043 28.0001 41.8235 28.2033 41.7683 28.4071C41.7683 28.4071 41.7567 28.399 41.7508 28.3949C41.2311 28.2843 40.7467 28.4836 40.2569 28.6532C38.6551 29.191 37.0645 29.7625 35.4891 30.3618C33.9316 30.9477 32.263 31.4822 30.8226 32.3225C30.6891 32.4026 30.5941 32.5268 30.5422 32.6636C30.4839 32.6231 30.4175 32.5942 30.3534 32.5497C30.0597 32.3627 29.77 32.17 29.4844 31.9714C28.8666 31.5418 28.269 31.083 27.6714 30.6243C27.0738 30.1655 26.4722 29.7126 25.8688 29.2498C25.5913 29.0395 25.3138 28.8293 25.0403 28.6132L24.6211 28.2958C24.5512 28.2472 24.4247 28.1679 24.3239 28.0891C24.4292 27.7387 24.5112 27.372 24.5735 27.0089C25.0278 24.6269 25.4233 22.2301 25.8502 19.8378C25.8634 19.7691 25.8469 19.7058 25.8345 19.6366C25.928 19.5892 26.0197 19.5319 26.1091 19.4903C26.6381 19.2269 27.1689 18.9734 27.7015 18.7298C28.8322 18.2104 29.9764 17.7089 31.1259 17.2371C32.19 16.8011 33.2587 16.3336 34.3933 16.1195C34.9112 16.0213 35.4357 15.9882 35.9651 16.0104C36.3408 16.0296 36.7111 16.1314 37.0587 16.0791C37.1137 16.1865 37.1867 16.2805 37.2759 16.3512C38.7732 17.5306 40.2646 18.706 41.7236 19.928C42.4135 20.5028 43.1257 21.3439 43.9232 21.7514L43.9069 21.7747ZM42.4741 48.483C43.4395 47.3557 44.395 46.2302 45.3488 45.0948C46.4173 43.8317 47.6388 42.5972 48.593 41.2373C48.8484 40.8701 48.9537 40.5196 48.9625 40.1712C49.7862 40.0436 50.6006 39.8921 51.4202 39.7703C51.8173 39.7092 52.1978 39.5847 52.582 39.4799C52.9423 39.3846 53.2907 39.3934 53.6606 39.4085C53.8712 39.4166 54.0876 39.4287 54.3009 39.3954C54.4648 39.3711 54.4276 39.3625 54.5964 39.3934C55.0439 39.471 55.4457 39.4651 55.8914 39.334C56.0657 39.2823 56.2383 39.2207 56.4009 39.1608C56.4696 39.3729 56.5581 39.5814 56.6583 39.7981C56.9721 40.4659 57.2801 41.1297 57.5939 41.7976C58.1402 42.9643 58.6767 44.1328 59.2369 45.2919C59.0011 45.7678 58.82 46.2645 58.551 46.726C58.2045 47.3238 57.7957 47.8869 57.3909 48.4442C56.6439 49.4812 55.8911 50.5142 55.1033 51.5228C54.3253 52.5297 53.5375 53.5384 52.7363 54.529C52.6917 54.5931 52.3457 54.9664 52.0346 55.3641C50.4271 55.1888 48.8213 55.0235 47.2174 54.868C46.8124 54.8285 46.3649 54.7509 45.9235 54.7639C45.9119 54.7558 45.9142 54.7401 45.9066 54.7261C45.7669 54.5166 45.6812 54.2668 45.5595 54.0438C45.4173 53.7634 45.271 53.4887 45.1288 53.2083C44.8632 52.695 44.5957 52.1718 44.3242 51.6544C44.0528 51.1371 43.7772 50.6255 43.5116 50.1122C43.3653 49.8376 43.2231 49.5571 43.071 49.2784C42.9171 48.9899 42.7997 48.6488 42.4956 48.4893C42.484 48.4812 42.4683 48.4789 42.4566 48.4708L42.4741 48.483ZM47.5638 39.9942C47.608 40.5524 46.7628 41.2704 46.4198 41.6891C44.7072 43.7667 42.9904 45.8502 41.2894 47.9359C39.7148 47.4895 38.1551 46.9844 36.6143 46.4146C35.7776 46.1008 34.9431 45.7713 34.1208 45.4244C33.3101 45.0855 32.2309 44.7847 31.5342 44.2571C30.8667 43.7497 31.1218 42.388 31.1095 41.6098C31.0921 40.6898 31.0746 39.7697 31.0572 38.8497C31.0398 37.9297 31.0165 37.0056 30.9892 36.0873C30.9753 35.3859 30.9912 34.6792 30.8825 33.9898C31.0847 33.9229 31.2552 33.7647 31.2597 33.5344C32.5922 33.1725 33.8664 32.5712 35.1542 32.0745C36.4142 31.5931 37.68 31.1157 38.9552 30.6621C39.578 30.4379 40.2238 30.1434 40.8648 29.9925C41.3001 29.8887 41.3442 29.8502 41.6504 30.1063C41.9139 30.3242 42.1137 30.783 42.303 31.0703C43.103 32.2577 43.8652 33.4622 44.6053 34.6859C45.294 35.8219 45.963 36.9615 46.6099 38.1203C46.8895 38.626 47.5102 39.4121 47.5597 40L47.5638 39.9942ZM29.688 33.6434C29.7754 33.7042 29.8652 33.7493 29.9468 33.806C29.8104 34.6364 29.8683 35.4982 29.8733 36.349C29.8807 37.3831 29.888 38.4172 29.8953 39.4512C29.9074 40.5405 29.9155 41.6357 29.9335 42.729C29.9361 42.9989 29.9248 43.2763 29.935 43.5601C29.7835 43.6537 29.6396 43.7611 29.4939 43.8587C29.1985 44.0597 28.899 44.2665 28.6112 44.4815C28.024 44.9032 27.4542 45.3372 26.8938 45.7949C26.3375 46.2468 25.7905 46.7225 25.261 47.2104C24.8278 47.6096 24.3098 48.0189 23.9478 48.5022C23.5479 48.2069 23.1039 47.95 22.7384 47.7046C21.149 46.608 19.5086 45.5971 17.8236 44.6503C17.8119 44.6422 17.7962 44.6399 17.7846 44.6318C17.7285 44.3767 17.6626 44.1233 17.6263 43.8646C17.5626 43.3966 17.5187 42.9251 17.4747 42.4535C17.3673 41.4018 17.2756 40.3523 17.1978 39.2952C17.1196 38.2636 17.0826 37.2349 17.0968 36.2072C17.1046 35.711 17.128 35.2172 17.1614 34.7215C17.1803 34.458 17.2051 34.1985 17.2299 33.9391C17.2463 33.8035 17.2987 33.6411 17.2837 33.501C17.2842 33.4754 17.2865 33.4597 17.283 33.4399C17.5117 33.3223 17.7352 33.175 17.9465 33.0452C18.9688 32.4331 19.991 31.8209 21.0191 31.2128C21.8621 30.7094 22.8575 30.2602 23.5316 29.527C23.6383 29.4109 23.7274 29.2827 23.8166 29.1545C24.1268 29.4047 24.4428 29.6591 24.753 29.9093C25.4043 30.44 26.0655 30.969 26.7168 31.4997C27.3489 32.0083 27.981 32.517 28.6513 32.9831C28.9835 33.2141 29.3198 33.4393 29.6683 33.647L29.688 33.6434ZM14.8311 28.3109C15.0291 27.852 15.2272 27.393 15.4526 26.9445C15.6821 26.4901 15.9214 26.034 16.1724 25.5859C16.3067 25.368 16.4427 25.1599 16.5787 24.9519C16.6354 24.8703 16.6648 24.7783 16.6762 24.6997C17.0366 24.0943 17.4146 23.501 17.8333 22.9362C18.614 21.888 19.5278 20.9842 20.5186 20.1686C21.036 20.2949 21.595 20.3118 22.1023 20.3532C22.8946 20.4199 23.688 20.4355 24.4818 20.4254C24.1992 22.0879 23.9066 23.7523 23.6397 25.4171C23.4964 26.2946 23.4401 27.2584 23.1048 28.0889C22.7257 29.0445 21.7999 29.4557 20.9728 29.9614C20.1775 30.446 19.3782 30.9365 18.5771 31.4171L17.3754 32.138C17.3156 32.1742 17.1717 32.2817 17.0301 32.3734C16.9044 32.3552 16.798 32.3591 16.7009 32.3867C16.6857 32.3588 16.6723 32.3408 16.6553 32.3031C16.2837 31.3702 15.8208 30.469 15.4073 29.5589C15.2638 29.243 15.0924 28.5445 14.8293 28.301L14.8311 28.3109ZM13.1907 42.4839C12.2695 38.2376 12.5614 33.7886 14.0864 29.73C14.1391 29.6542 14.1819 29.5802 14.2247 29.5062C14.3459 29.7548 14.4734 29.9818 14.5431 30.1427C14.7769 30.677 15.0007 31.2131 15.2345 31.7475C15.436 32.2162 15.6014 32.824 15.9004 33.2395C15.9559 33.3213 16.0218 33.3758 16.0837 33.4361C15.9865 33.9738 15.9925 34.5746 15.9766 34.8835C15.9049 36.1306 15.9297 37.3758 16.0058 38.6219C16.0782 39.8483 16.2217 41.0721 16.379 42.2883C16.4582 42.8708 16.5176 43.4569 16.6166 44.0359C16.6841 44.4114 16.7668 44.8147 16.9592 45.1474C16.5937 45.8098 16.234 46.4763 15.9017 47.1532C15.7376 47.4887 15.4156 47.9393 15.3088 48.3665C14.3666 46.5008 13.6311 44.5367 13.1907 42.4839ZM20.7844 55.8747C18.772 53.8442 17.0234 51.5216 15.6568 48.9976C16.1686 48.8087 16.3864 47.9485 16.6293 47.5121C16.9745 46.8788 17.343 46.2617 17.7174 45.6487C18.9761 46.4375 20.2245 47.2536 21.4468 48.0948C22.0646 48.5244 22.9384 48.959 23.4374 49.5222C23.9517 50.1132 24.0186 51.2233 24.207 51.9596C24.5846 53.4933 24.9605 55.0171 25.3381 56.5507C25.3564 56.6239 25.3764 56.7071 25.3947 56.7803C25.2819 56.8056 25.1616 56.8171 25.0448 56.8483C24.7519 56.9213 24.4544 57.0258 24.178 57.1621C23.7564 57.3705 23.3594 57.6306 23.0709 57.9834C22.2766 57.31 21.5125 56.6058 20.7826 55.8648L20.7844 55.8747ZM35.0909 63.1678C31.025 63.0212 27.3875 61.3134 24.2207 58.9039C24.6443 58.5932 25.0324 58.2837 25.606 58.1551C26.057 58.0536 26.466 57.8883 26.6754 57.5498C26.7925 57.6052 26.8997 57.6625 27.0069 57.7197C27.5644 58.0123 28.1422 58.2757 28.7182 58.5292C29.8993 59.0565 31.103 59.5389 32.3234 59.9724C33.5048 60.3875 34.7047 60.7635 35.9114 61.0924C36.3031 61.2005 37.0063 61.3954 37.5802 61.3535C37.6147 61.4034 37.6532 61.4475 37.7057 61.484C38.3904 61.9168 39.0752 62.3497 39.7581 62.7727C39.8164 62.8133 39.8864 62.8619 39.9505 62.9065C38.3274 63.1268 36.7027 63.2249 35.081 63.1696L35.0909 63.1678ZM37.074 60.1541C36.8913 60.1308 36.705 60.0878 36.5287 60.043C35.9955 59.9144 35.4606 59.7759 34.9337 59.6257C33.876 59.3313 32.8229 59.0054 31.7882 58.6405C30.7536 58.2756 29.7293 57.8833 28.7235 57.452C28.2157 57.2373 27.7218 57.0149 27.218 56.7943C27.0637 56.7302 26.9134 56.6603 26.7632 56.5904C26.6439 55.8417 26.3518 55.0679 26.167 54.3514C25.9308 53.435 25.6947 52.5185 25.4546 51.6079C25.2621 50.8774 25.1725 49.9245 24.7656 49.2784C24.7159 49.2006 24.6564 49.1246 24.5968 49.0486C25.0582 48.7209 25.4703 48.2898 25.9008 47.9319C26.4333 47.4894 26.9833 47.059 27.5409 46.6426C28.0985 46.2262 28.6637 45.8237 29.2424 45.4391C29.5436 45.2422 29.8448 45.0452 30.1519 44.8524C30.2018 44.8179 30.2575 44.7875 30.3133 44.757C30.3249 44.7652 30.3285 44.7849 30.3401 44.793C30.8113 45.3714 31.7003 45.635 32.3503 45.9313C33.3206 46.3639 34.2972 46.7749 35.2901 47.1626C37.2659 47.9398 39.2792 48.6134 41.3132 49.2322C41.4425 49.2702 41.5588 49.2646 41.6657 49.2352C41.7169 49.4351 41.8257 49.6145 41.938 49.8136C42.0901 50.0923 42.2404 50.3611 42.3925 50.6398C42.7043 51.2111 43.016 51.7824 43.3278 52.3537C43.6302 52.9012 43.9385 53.4528 44.2409 54.0003C44.4427 54.3568 44.6313 54.7819 44.9004 55.1161C44.5245 55.408 44.2111 55.8214 43.8567 56.1197C42.041 57.6242 39.6796 58.3342 38.0799 60.0753C37.9192 60.0328 37.7396 60.0549 37.5876 60.174C37.6676 60.1086 37.2333 60.1611 37.0978 60.1447L37.074 60.1541ZM51.3408 58.9111C50.8364 59.2262 50.3186 59.5233 49.7913 59.7965C47.1947 61.1558 44.3537 62.1203 41.4421 62.6639C41.2244 62.4174 40.8975 62.216 40.672 62.0679C40.081 61.6742 39.49 61.2806 38.8891 60.8888C40.3544 59.2789 42.5913 58.5862 44.3199 57.3065C44.7655 56.9765 45.1144 56.5618 45.5349 56.2057C45.9856 55.8187 46.9346 56.1327 47.4809 56.1926C48.7679 56.3439 50.0665 56.5032 51.3512 56.6702C51.2277 57.3452 51.0992 58.0773 51.2331 58.6806C51.2549 58.7736 51.2889 58.8491 51.3368 58.917L51.3408 58.9111ZM60.7009 48.4716C58.928 52.3146 56.0625 55.6399 52.5997 58.083C52.6253 57.8846 52.6409 57.688 52.6665 57.4896C52.7226 57.0358 52.7887 56.5802 52.839 56.1223C52.8509 56.0181 52.8331 55.9193 52.7974 55.8339C53.2149 55.4325 53.6113 54.9991 54.0096 54.5756C54.8564 53.6686 55.6643 52.743 56.4511 51.7856C57.2622 50.7931 58.0558 49.7885 58.8029 48.7515C59.3333 48.0135 59.9326 47.1765 60.2927 46.2855C60.4607 46.2553 60.6221 46.16 60.7432 46.0107C61.0943 45.5804 61.5153 45.1987 61.9708 44.8669C61.6653 46.0898 61.2538 47.2909 60.7067 48.4757L60.7009 48.4716ZM62.2084 32.7362C62.7144 36.2615 62.8953 39.7942 62.3042 43.231C61.5867 43.467 60.9419 43.9093 60.3764 44.4241C59.9455 43.5018 59.5046 42.5814 59.0696 41.665C58.7728 41.0349 58.4719 40.4106 58.175 39.7805C58.0351 39.4843 57.8713 39.1975 57.7552 38.892C57.7177 38.7967 57.7035 38.7177 57.6969 38.6525C57.7536 38.5709 57.8086 38.4794 57.842 38.3816C57.8876 38.2663 57.8843 38.1343 57.867 38.0099C58.703 35.8501 59.3998 33.6541 59.9598 31.4062C60.472 31.7018 60.9823 31.9875 61.4945 32.2831C61.7223 32.4156 61.9636 32.566 62.2041 32.6554C62.2094 32.6851 62.2089 32.7107 62.2183 32.7345L62.2084 32.7362ZM58.8368 30.1238C58.5241 31.5061 58.1585 32.8775 57.74 34.238C57.5258 34.9192 57.2999 35.5922 57.0682 36.2612C56.9246 36.6542 56.7554 37.0468 56.6078 37.4456C56.566 37.4685 56.5242 37.4913 56.4784 37.5199C56.4702 37.5316 56.4662 37.5374 56.4563 37.5392C56.304 37.5716 56.1495 37.6198 56.0106 37.6703C55.7289 37.777 55.4641 37.9215 55.1543 37.9568C54.8385 37.988 54.5253 37.8913 54.2046 37.9795C53.9413 38.0473 53.5645 38.0793 53.1941 38.0897C52.4648 38.1188 51.8163 38.4547 51.1065 38.5924C50.3178 38.7444 49.5437 38.9498 48.7563 39.1372C48.5758 38.7004 48.3144 38.2679 48.0693 37.8121C47.3111 36.403 46.5152 35.0108 45.6734 33.6473C44.8584 32.3197 44.0215 31.0114 43.1427 29.7259C42.961 29.4525 42.7815 29.1635 42.5656 28.9269C42.6107 28.8371 42.6499 28.7434 42.6909 28.6595C42.848 28.2845 42.9718 27.895 43.1131 27.5176C43.3772 26.802 43.6315 26.0882 43.8956 25.3726C44.1498 24.6587 44.4139 23.9431 44.6682 23.2293C44.8037 22.8479 45.021 22.411 45.126 21.9739C45.5796 21.9434 46.0382 21.8559 46.4307 21.8261C47.3854 21.7463 48.3343 21.6625 49.2832 21.5787C49.9856 21.5137 51.0136 21.6146 51.6166 21.1951C51.6804 21.153 51.7227 21.1046 51.7749 21.0544C51.8776 21.1431 51.9901 21.23 52.1044 21.3267C52.5459 21.7115 52.9752 22.1138 53.3964 22.5277C54.1904 23.3133 54.9323 24.1491 55.6422 25.0059C56.3696 25.8748 56.9886 26.85 57.5802 27.8147C57.8778 28.307 58.1713 28.8051 58.437 29.3184C58.5774 29.589 58.6999 29.873 58.8461 30.1476L58.8368 30.1238ZM53.6206 18.9223C55.7923 20.7609 57.7631 22.9008 59.4413 25.2004C60.7263 26.9586 61.4377 28.8454 61.8803 30.8825C61.8122 30.8438 61.74 30.8109 61.6718 30.7721L59.9052 29.7686C59.837 29.7298 59.7509 29.7045 59.6706 29.6832C59.5544 29.3777 59.4127 29.0716 59.2845 28.7836C59.0525 28.2591 58.8048 27.7324 58.531 27.2307C57.963 26.1699 57.2753 25.1816 56.5836 24.1991C55.8995 23.2306 55.1156 22.331 54.2673 21.4991C53.8654 21.1072 53.4495 20.7229 53.0214 20.3561C52.7019 20.082 52.4492 19.8111 52.1099 19.7395C52.1004 19.5168 52.0852 19.29 52.0793 19.0871C52.0704 18.6398 52.0915 18.1617 52.0831 17.6889C52.613 18.0833 53.1249 18.4911 53.6247 18.9164L53.6206 18.9223ZM50.7821 18.4531C50.7751 18.8114 50.7739 19.1737 50.7669 19.532C50.7669 19.532 50.7525 19.963 50.7824 20.0444C50.7452 20.0358 50.5871 20.0642 50.526 20.065C48.8927 20.2004 47.2541 20.3061 45.6208 20.4415C45.3347 20.4675 44.8635 20.5981 44.5933 20.514C44.3192 20.4358 43.9887 20.0157 43.7659 19.8262C43.15 19.2943 42.5243 18.7641 41.8963 18.2496C40.8904 17.4205 39.8666 16.6048 38.8445 15.799C39.1845 15.5339 39.5186 15.2647 39.8452 14.9816C40.0998 14.7522 40.3544 14.5229 40.6014 14.2795C41.0531 13.8413 41.8546 13.1363 42.5165 13.1295C45.1773 13.1206 48.6973 15.3952 50.8241 16.8134C50.7682 17.3539 50.7967 17.9099 50.792 18.4513L50.7821 18.4531Z" fill="#0E1930"/>
</svg>
