<svg width="69" height="70" viewBox="0 0 69 70" fill="none" xmlns="http://www.w3.org/2000/svg">
<path d="M28.8161 3.55859V9.91956C26.009 10.5513 23.3285 11.652 20.8876 13.1755L16.4134 8.69903L8.37488 16.7376L12.8599 21.2225C11.3307 23.6588 10.2234 26.3356 9.58453 29.1402H3.23438V40.5082H9.59531C10.227 43.3153 11.3278 45.9958 12.8512 48.4367L8.37488 52.9108L16.4134 60.9494L20.8984 56.4642C23.3347 57.9934 26.0115 59.1008 28.8161 59.7397V66.09H40.1839V59.7289C42.9909 59.0978 45.6713 57.9977 48.1124 56.475L52.5866 60.9494L60.6251 52.9108L56.1401 48.4259C57.6691 45.9903 58.7764 43.3142 59.4155 40.5103H65.7656V29.1402H59.4047C58.773 26.3331 57.6722 23.6526 56.1488 21.2117L60.6251 16.7376L52.5866 8.69903L48.1016 13.1842C45.6651 11.6558 42.9884 10.5491 40.1839 9.91087V3.55859H28.8161Z" fill="#F8D459"/>
<path d="M28.814 3.55859V9.92166C27.5906 10.2067 26.3899 10.5815 25.2217 11.043L27.3563 13.1734C29.7969 11.6517 32.4766 10.5523 35.2827 9.92166V3.5607L28.814 3.55859ZM16.4112 8.70114L8.37703 16.7376L12.862 21.2225C11.3323 23.658 10.2243 26.3341 9.58453 29.1381H3.23438V40.5124H9.59747C10.2281 43.3185 11.3274 45.9983 12.8491 48.4388L8.37703 52.9151L16.4112 60.9494L19.6456 57.715L14.8458 52.9151L19.3178 48.4388C17.7961 45.9983 16.6968 43.3185 16.0662 40.5124H9.70312V29.1426H16.0533C16.6928 26.3379 17.8009 23.6611 19.3308 21.2249L14.8458 16.7397L19.6456 11.9379L16.4112 8.70351V8.70114ZM52.5888 8.70114L50.26 11.0301C51.7622 11.6114 53.2061 12.3334 54.5725 13.1863L55.8232 11.9355L52.5888 8.70114ZM27.365 56.4621L25.2087 58.6184C26.3812 59.0804 27.5862 59.4552 28.814 59.7397V66.09H35.2827V59.7397C32.478 59.1001 29.8012 57.992 27.365 56.4621ZM54.5812 56.4837C53.207 57.3297 51.7558 58.0437 50.2471 58.6163L52.5888 60.9581L55.8232 57.7237L54.5812 56.4837Z" fill="#FAA660"/>
<path d="M28.814 3.55859V9.92166C26.7913 10.3861 24.8327 11.095 22.9813 12.0326L24.1241 13.1755C26.5639 11.6532 29.2428 10.5532 32.0483 9.92166V3.5607L28.814 3.55859ZM16.4112 8.70114L8.37703 16.7376L12.862 21.2225C11.3323 23.658 10.2243 26.3341 9.58453 29.1381H12.8189C13.4587 26.3341 14.5667 23.658 16.0964 21.2225L11.6114 16.7376L18.0284 10.3183L16.4112 8.70114ZM52.5888 8.70114L49.266 12.024C49.9736 12.3791 50.6644 12.7671 51.336 13.1863L54.2038 10.3183L52.5888 8.70114ZM3.23438 29.1381V40.5124H6.46875V29.1426H3.23438V29.1381ZM9.59747 40.5124C10.2281 43.3185 11.3274 45.9983 12.8491 48.4388L8.37703 52.9151L16.4112 60.9494L18.0284 59.3322L11.6114 52.9151L16.0835 48.4388C14.5617 45.9983 13.4624 43.3185 12.8318 40.5124H9.59747ZM24.1306 56.4642L22.9684 57.6287C24.8238 58.5681 26.7868 59.2776 28.814 59.7418V66.0921H32.0483V59.7418C29.2436 59.1022 26.5668 57.9942 24.1306 56.4642ZM51.3446 56.4858C50.6656 56.899 49.9676 57.2805 49.2531 57.6287L52.5888 60.9602L54.206 59.343L51.3446 56.4858Z" fill="white"/>
<path d="M28.8161 3.55859V9.91956C26.009 10.5513 23.3285 11.652 20.8876 13.1755L16.4134 8.69903L8.37488 16.7376L12.8599 21.2225C11.3307 23.6588 10.2234 26.3356 9.58453 29.1402H3.23438V40.5082H9.59531C10.227 43.3153 11.3278 45.9958 12.8513 48.4367L8.37488 52.9108L16.4134 60.9494L20.8984 56.4642C23.3347 57.9934 26.0115 59.1008 28.8161 59.7397V66.09H40.1839V59.7289C42.9909 59.0978 45.6713 57.9977 48.1124 56.475L52.5866 60.9494L60.6251 52.9108L56.1401 48.4259C57.6691 45.9903 58.7764 43.3142 59.4155 40.5103H65.7656V29.1402H59.4047C58.773 26.3331 57.6722 23.6526 56.1488 21.2117L60.6251 16.7376L52.5866 8.69903L48.1016 13.1842C45.6651 11.6558 42.9884 10.5491 40.1839 9.91087V3.55859H28.8161Z" stroke="black" stroke-linecap="round" stroke-linejoin="round"/>
<path d="M34.5002 48.8403C42.241 48.8403 48.5161 42.5652 48.5161 34.8244C48.5161 27.0837 42.241 20.8086 34.5002 20.8086C26.7595 20.8086 20.4844 27.0837 20.4844 34.8244C20.4844 42.5652 26.7595 48.8403 34.5002 48.8403Z" fill="#01D1FF"/>
<path d="M34.5 20.8086C36.9602 20.8087 39.3771 21.4561 41.5077 22.6863C43.6383 23.9164 45.4076 25.6859 46.6377 27.8165C47.8679 29.9472 48.5155 32.3641 48.5155 34.8244C48.5155 37.2847 47.8679 39.7017 46.6377 41.8324L34.5 34.8244V20.8086Z" fill="#F4606E"/>
<path d="M34.5 20.8086C36.9602 20.8087 39.3771 21.4561 41.5077 22.6863C43.6383 23.9164 45.4076 25.6859 46.6377 27.8165C47.8679 29.9472 48.5155 32.3641 48.5155 34.8244C48.5155 37.2847 47.8679 39.7017 46.6377 41.8324L34.5 34.8244V20.8086Z" stroke="black" stroke-width="1.00015" stroke-linecap="round" stroke-linejoin="round"/>
<path d="M34.5002 20.8086C30.783 20.8086 27.218 22.2852 24.5895 24.9137C21.961 27.5422 20.4844 31.1072 20.4844 34.8244C20.4844 38.5417 21.961 42.1067 24.5895 44.7352C27.218 47.3636 30.783 48.8403 34.5002 48.8403C34.9491 48.835 35.3975 48.8082 35.8439 48.7599C32.3989 48.3992 29.2095 46.7756 26.8909 44.2023C24.5722 41.629 23.2886 38.2883 23.2875 34.8244C23.2915 31.3425 24.5913 27.9868 26.9338 25.4107C29.2763 22.8347 32.4939 21.2227 35.9597 20.8889C35.475 20.8368 34.9878 20.81 34.5002 20.8086Z" fill="white"/>
<path d="M34.5029 20.8086C33.5651 20.8096 32.6297 20.9048 31.7109 21.0927V34.8244L43.8468 41.8324C42.7329 43.7546 41.178 45.3846 39.3104 46.5877C37.4427 47.7909 35.3158 48.5329 33.1051 48.7524C35.7881 49.0236 38.4924 48.5149 40.8935 47.2874C43.2947 46.06 45.2909 44.1659 46.6425 41.8324L34.5029 34.8244V20.8086Z" fill="#00A5FF"/>
<path d="M34.5 20.8086V21.0927C36.4434 21.489 38.2805 22.2933 39.89 23.4524C41.4994 24.6115 42.8445 26.099 43.8364 27.8165C44.9429 29.7416 45.5761 31.9021 45.684 34.1199C45.7919 36.3377 45.3713 38.5494 44.4569 40.5728L46.6396 41.8324C47.8697 39.7017 48.5174 37.2847 48.5174 34.8244C48.5174 32.3641 47.8697 29.9472 46.6396 27.8165C45.4093 25.6856 43.6397 23.9161 41.5088 22.686C39.3778 21.4558 36.9606 20.8083 34.5 20.8086Z" fill="#F89963"/>
<path d="M34.5 20.8086C36.9602 20.8087 39.3771 21.4561 41.5077 22.6863C43.6383 23.9164 45.4076 25.6859 46.6377 27.8165C47.8679 29.9472 48.5155 32.3641 48.5155 34.8244C48.5155 37.2847 47.8679 39.7017 46.6377 41.8324L34.5 34.8244V20.8086Z" stroke="black" stroke-width="1.00015" stroke-linecap="round" stroke-linejoin="round"/>
<path d="M29.0469 21.9111C30.7732 21.1806 32.6292 20.8056 34.5037 20.8086C37.5729 20.8094 40.557 21.8174 42.9978 23.6782C45.4385 25.5389 47.201 28.1494 48.0146 31.1088C48.8282 34.0682 48.648 37.2129 47.5015 40.0599C46.3551 42.9069 44.3058 45.299 41.6683 46.8686C39.0309 48.4383 35.9511 49.0988 32.902 48.7488C29.8528 48.3988 27.0028 47.0576 24.7897 44.9312C22.5765 42.8048 21.1224 40.0107 20.6508 36.9779C20.1792 33.9452 20.7162 30.8415 22.1791 28.1434M24.5936 24.9141C24.9113 24.5964 25.2421 24.2955 25.5878 24.0096" stroke="black" stroke-width="1.00015" stroke-linecap="round" stroke-linejoin="round"/>
<path d="M28.8161 3.55859V9.91943C26.009 10.5511 23.3285 11.6519 20.8876 13.1754L16.4134 8.6989L8.37488 16.7375L12.8599 21.2224C11.3307 23.6587 10.2234 26.3355 9.58455 29.1401H3.23438V40.5081H9.59531C10.227 43.3152 11.3278 45.9957 12.8513 48.4366L8.37488 52.9107L16.4134 60.9493L20.8984 56.4641C23.3347 57.9933 26.0115 59.1007 28.8161 59.7395V66.0898H40.1839V59.7287C42.9909 59.0977 45.6713 57.9976 48.1124 56.4749L52.5866 60.9493L60.6251 52.9107L56.1401 48.4258C57.6691 45.9901 58.7764 43.314 59.4155 40.5102H65.7656V29.1401H59.4047C58.773 26.333 57.6722 23.6525 56.1487 21.2116L60.6251 16.7375L52.5866 8.6989L48.1016 13.1841C45.6651 11.6557 42.9884 10.5489 40.1839 9.91074V3.55859H28.8161Z" stroke="black" stroke-linecap="round" stroke-linejoin="round"/>
</svg>