<svg width="67" height="85" viewBox="0 0 67 85" fill="none" xmlns="http://www.w3.org/2000/svg">
<path d="M42.22 5.11989C28.29 2.8199 14.53 12.7299 10.51 25.9499C5.54002 42.2799 18.56 62.2999 36.33 62.6499C39.81 62.7199 43.27 62.0099 46.55 60.8599C55.1 57.8799 62.82 51.5099 65.64 42.9099C66.69 39.6899 67.04 36.2699 66.83 32.8899C66 19.5599 55.4 7.2899 42.22 5.11989Z" fill="#22C3EA"/>
<path d="M20.9202 10.9697C21.7802 11.0697 24.7603 12.3797 25.1503 13.1597C25.2803 13.4097 25.3802 13.6997 25.6002 13.8697C25.8802 14.0797 26.2603 14.0497 26.5903 13.9497C27.4203 13.7097 28.0903 13.1197 28.8403 12.6997C29.5903 12.2797 30.5802 12.0497 31.2902 12.5497C31.8302 12.9297 32.0302 14.0097 32.2902 14.6097C32.6902 15.5397 33.0102 16.5797 32.7502 17.1797C32.1802 18.4597 30.2803 18.7597 29.7103 20.0397C29.1803 21.2297 28.6402 22.4997 28.7902 23.7897C28.8702 24.4897 29.1502 25.2297 28.8702 25.8797C28.5102 26.7297 27.4402 26.9397 26.5402 27.1297C25.6402 27.3097 23.6603 28.3797 23.8303 29.2897C24.2503 31.5297 26.8602 33.0797 29.1902 34.2997C29.0302 34.8797 29.7602 35.3497 30.3602 35.2897C30.9602 35.2297 31.5003 34.8797 32.0903 34.7997C32.7403 34.7097 33.4202 34.9497 34.0602 34.7997C34.5602 34.6897 34.9802 34.3597 35.4402 34.1397C35.9002 33.9197 36.9802 33.7197 37.3702 34.0497C39.5802 33.9797 42.4502 34.2297 44.6302 34.6297C44.7302 37.0297 45.8602 39.5397 44.7902 41.6897C44.1402 42.9797 43.3503 44.0997 42.1503 44.8997C42.7903 46.8297 43.4403 48.7597 44.0803 50.6897C44.2203 51.1197 44.3702 51.5797 44.2502 52.0097C44.0502 52.7297 42.9002 53.3797 43.0602 54.1097C43.4502 55.8997 43.8703 57.9897 44.2603 59.7797C43.1903 59.8597 41.7803 59.9697 40.7103 60.1097C40.3103 59.1397 39.9102 58.1797 39.5002 57.2097C39.2302 56.5697 38.9603 55.9297 38.5703 55.3597C38.1603 54.7597 37.4802 53.9097 36.8602 53.5397C35.7302 51.0097 34.2202 48.9197 32.9202 46.4697C30.3302 45.6197 27.9402 44.2997 25.9802 42.3897C25.8402 41.7497 25.8802 41.0797 25.9202 40.4297C26.0202 38.8497 26.1302 37.2597 26.2302 35.6797C25.5402 35.2497 24.6302 34.2697 24.1302 33.6297C23.6502 33.0097 23.2303 32.2697 22.5103 31.9597C21.8903 31.6797 21.0602 31.7297 20.6702 31.1797C19.7002 29.8297 17.9303 28.9397 16.2803 28.7797C15.2803 28.6797 14.2002 28.9797 13.2902 28.5597C12.8802 28.3697 12.5502 28.0497 12.2302 27.7297C11.9102 27.4197 10.8102 26.2497 10.4902 25.9397C12.5202 19.6197 15.2402 14.4097 20.9102 10.9697H20.9202Z" fill="#01A665"/>
<path d="M54.1799 54.4597C58.2599 51.9697 61.4099 47.9997 62.9199 43.4697" stroke="#034865" stroke-width="1.3" stroke-linecap="round" stroke-linejoin="round"/>
<path d="M63.8201 41.2198C64.1201 40.2498 64.43 39.2898 64.73 38.3198" stroke="#034865" stroke-width="1.3" stroke-linecap="round" stroke-linejoin="round"/>
<path d="M11.38 26.46C12 27.46 12.78 28.56 13.95 28.68C14.38 28.72 14.8 28.62 15.23 28.57C17.23 28.31 19.33 29.14 20.62 30.69C21.44 31.67 22.65 32.39 23.92 32.35C24.75 33.35 25.48 34.78 26.31 35.78" stroke="#024C2B" stroke-width="1.3" stroke-linecap="round" stroke-linejoin="round"/>
<path d="M28.79 34C28.17 33.58 27.5501 33.16 26.9301 32.74C26.0801 32.17 25.2101 31.57 24.6501 30.71C24.1001 29.85 23.9401 28.64 24.5601 27.82C25.9001 27.57 27.2401 26.97 28.5301 26.54" stroke="#024C2B" stroke-width="1.3" stroke-linecap="round" stroke-linejoin="round"/>
<path d="M28.9199 24.8898C29.1899 24.1398 29.2099 23.2998 28.9799 22.5298" stroke="#024C2B" stroke-width="1.3" stroke-linecap="round" stroke-linejoin="round"/>
<path d="M29.41 20.77C29.49 20.01 29.8801 19.31 30.3801 18.72C31.0801 17.88 32.01 17.23 33.04 16.85C32.9 15.3 32.2601 13.35 31.5301 11.98C30.2201 12.48 28.1401 13.11 26.8301 13.61" stroke="#024C2B" stroke-width="1.3" stroke-linecap="round" stroke-linejoin="round"/>
<path d="M24.5703 12.7999C23.5603 12.2399 22.5403 11.6699 21.5303 11.1099" stroke="#024C2B" stroke-width="1.3" stroke-linecap="round" stroke-linejoin="round"/>
<path d="M26.0701 37.1401C25.8601 38.8801 25.7001 40.6201 25.5901 42.3601C27.8501 44.0001 30.6001 45.6001 33.1901 46.6501C34.3101 48.7701 35.5301 50.9701 36.6501 53.0901C37.1601 54.0601 38.0801 55.1001 38.6901 56.0001C39.5101 57.2001 40.3101 58.7001 40.6201 60.1201C41.5701 60.1801 42.7201 60.1301 43.6201 59.8401" stroke="#024C2B" stroke-width="1.3" stroke-linecap="round" stroke-linejoin="round"/>
<path d="M29.05 34.0498C29.4 34.6098 30.0801 34.8898 30.7401 34.9198C31.4001 34.9498 32.0501 34.7698 32.6801 34.5898C32.8201 34.5498 32.9501 34.5098 33.0901 34.4798C33.7301 34.2998 34.4201 34.1198 35.0601 34.2898C35.5001 34.4098 36.1401 34.5898 36.2701 34.1598" stroke="#024C2B" stroke-width="1.3" stroke-linecap="round" stroke-linejoin="round"/>
<path d="M38.9199 34.1699C40.7099 34.4199 42.52 34.5399 44.33 34.5499C44.74 36.4799 45.25 38.8399 45.08 40.8099C44.34 41.6399 43.5299 42.8999 42.7899 43.7299C42.6099 43.9299 42.4199 44.1399 42.3099 44.3899C41.9599 45.1499 42.3599 46.0299 42.7499 46.7699C43.1999 47.6299 43.2099 49.0899 43.5399 50.0099C43.7899 50.6999 44.0399 51.4699 43.7899 52.1599C43.5999 52.6899 43.1299 53.1199 43.0999 53.6799C43.0199 55.0399 43.6699 56.6599 44.2299 57.8999" stroke="#024C2B" stroke-width="1.3" stroke-linecap="round" stroke-linejoin="round"/>
<path d="M66.8601 33.3101C65.4001 32.0201 62.7801 31.0501 60.8601 31.3601C60.4401 31.4301 59.9901 31.5401 59.5901 31.4001C59.2201 31.2701 58.9501 30.9601 58.6601 30.7301C58.1701 30.3401 57.7001 29.9301 57.3001 29.4401C55.8701 27.6801 55.5201 26.4401 55.7701 24.7501C56.0501 22.8301 55.9901 20.8701 55.4001 19.0301C55.1701 18.2901 54.8401 17.5201 54.2001 17.0701C53.9501 16.9001 53.3601 17.2801 52.7101 17.8201C51.3201 19.0001 49.2301 18.8501 48.0601 17.4501C47.5901 16.8801 47.0701 16.4801 46.4201 16.6001C45.4201 16.7701 44.4301 17.0701 43.4201 17.0601C42.4101 17.0401 41.4001 13.9001 41.3201 13.3601C41.2501 12.9401 41.3201 12.5201 41.4601 12.1201C41.6801 11.5301 41.8701 10.9501 42.0101 10.3801C42.4201 8.6601 40.1101 7.02008 41.9201 5.08008C48.8001 6.18008 52.4601 8.41008 56.4001 12.0501C62.6001 17.7801 66.3901 24.8801 66.8701 33.3301L66.8601 33.3101Z" fill="#01A665"/>
<path d="M41.86 5.19971C41.36 5.66971 41.18 6.41968 41.25 7.10968C41.31 7.79968 41.58 8.44969 41.84 9.08969" stroke="#024C2B" stroke-width="1.3" stroke-linecap="round" stroke-linejoin="round"/>
<path d="M41.89 10.4297C41.64 11.2897 41.3299 12.1297 40.9399 12.9297" stroke="#024C2B" stroke-width="1.3" stroke-linecap="round" stroke-linejoin="round"/>
<path d="M41.3301 13.9199C41.6101 14.5799 41.89 15.2399 42.17 15.9099C42.29 16.1999 42.42 16.4999 42.66 16.6999C42.97 16.9699 43.4101 17.0299 43.8201 16.9699C44.2301 16.9099 44.6101 16.7499 44.9901 16.6199C45.7201 16.3699 46.4901 16.2299 47.2601 16.1999" stroke="#024C2B" stroke-width="1.3" stroke-linecap="round" stroke-linejoin="round"/>
<path d="M48.0701 17.1099C48.6101 18.0199 49.6401 18.6199 50.7001 18.6299" stroke="#024C2B" stroke-width="1.3" stroke-linecap="round" stroke-linejoin="round"/>
<path d="M53.2598 17.6099C53.6998 17.3599 54.2797 17.5799 54.6097 17.9599C54.9397 18.3399 55.0698 18.8499 55.1898 19.3399C55.2698 19.6499 55.3397 19.9599 55.4197 20.2599" stroke="#024C2B" stroke-width="1.3" stroke-linecap="round" stroke-linejoin="round"/>
<path d="M56.09 22.4399C55.86 23.7399 55.7199 25.0599 55.6799 26.3799C55.6799 26.5599 55.68 26.7699 55.84 26.8699" stroke="#024C2B" stroke-width="1.3" stroke-linecap="round" stroke-linejoin="round"/>
<path d="M56.85 28.6099C57.46 29.4099 58.13 30.1699 58.85 30.8699" stroke="#024C2B" stroke-width="1.3" stroke-linecap="round" stroke-linejoin="round"/>
<path d="M60.61 31.5098C61.7 31.2698 62.84 31.2798 63.94 31.5098" stroke="#024C2B" stroke-width="1.3" stroke-linecap="round" stroke-linejoin="round"/>
<path d="M65.29 32.21C65.6 32.48 65.9001 32.75 66.2101 33.02" stroke="#024C2B" stroke-width="1.3" stroke-linecap="round" stroke-linejoin="round"/>
<path d="M17.6799 22.04C18.7899 22.58 19.9499 23.02 21.1299 23.36" stroke="#024C2B" stroke-width="1.3" stroke-linecap="round" stroke-linejoin="round"/>
<path d="M17.3101 20.0698C18.3801 20.4798 19.4501 20.8798 20.5101 21.2898" stroke="#024C2B" stroke-width="1.3" stroke-linecap="round" stroke-linejoin="round"/>
<path d="M13.5901 44.0297C11.7201 40.4997 10.9001 36.4297 11.2501 32.4497" stroke="#034865" stroke-width="1.3" stroke-linecap="round" stroke-linejoin="round"/>
<path d="M14.4697 46.21C14.7697 46.99 15.1697 47.73 15.6597 48.4" stroke="#034865" stroke-width="1.3" stroke-linecap="round" stroke-linejoin="round"/>
<path d="M17 50.6499C18.24 52.0299 19.57 53.3499 20.96 54.5799" stroke="#034865" stroke-width="1.3" stroke-linecap="round" stroke-linejoin="round"/>
<path d="M59.88 18.4497C60.98 19.8297 61.91 21.3397 62.65 22.9397" stroke="#024C2B" stroke-width="1.3" stroke-linecap="round" stroke-linejoin="round"/>
<path d="M63.7402 25.1499C64.1102 25.7399 64.3702 26.3999 64.4802 27.0799" stroke="#024C2B" stroke-width="1.3" stroke-linecap="round" stroke-linejoin="round"/>
<path d="M35.52 41.5698C36.47 41.9398 37.43 42.3198 38.38 42.6898" stroke="#024C2B" stroke-width="1.3" stroke-linecap="round" stroke-linejoin="round"/>
<path d="M62.0101 55.5499C62.9601 56.8499 63.5501 56.8299 64.5001 58.1299C61.2101 62.8199 56.3401 66.4899 50.9601 68.4799C45.5901 70.4699 40.8001 71.4899 35.0801 71.0599C28.0901 70.5299 20.51 69.0799 15.41 64.2599C13.77 62.7099 11.8401 61.4399 10.5301 59.6099C7.73011 55.7199 5.14005 51.3399 3.47005 46.8499C0.440047 38.6799 0.960056 28.9099 3.98006 20.7399C6.99006 12.5699 14.0401 5.3899 21.6401 1.1499C22.3601 1.9899 23.0801 2.81991 23.8001 3.65991" stroke="#034865" stroke-width="1.3" stroke-linecap="round" stroke-linejoin="round"/>
<path d="M56.71 60.1098C55.94 58.9898 55.12 57.8998 54.25 56.8498C55.06 56.3198 55.92 55.5898 56.73 55.0698C57.51 56.1198 58.33 57.1098 59.22 58.0598C58.35 58.7298 57.45 59.3098 56.71 60.1098Z" fill="#F3F3F3"/>
<path d="M19.99 11.8701C19.22 10.7501 18.4 9.66008 17.53 8.61008C18.34 8.08008 19.2 7.35008 20.01 6.83008C20.79 7.88008 21.61 8.8701 22.5 9.8201C21.63 10.4901 20.73 11.0701 19.99 11.8701Z" fill="#F3F3F3"/>
<path d="M54.3701 56.8398C55.1201 57.7098 55.8801 58.5799 56.6301 59.4499" stroke="#034865" stroke-width="1.3" stroke-linecap="round" stroke-linejoin="round"/>
<path d="M56.98 55.1499C57.78 56.1599 58.59 57.1599 59.39 58.1699" stroke="#034865" stroke-width="1.3" stroke-linecap="round" stroke-linejoin="round"/>
<path d="M23.8401 3.56982C15.3801 8.96982 8.25002 17.3698 6.30002 27.2098C2.09002 48.5098 17.2001 68.7898 39.7801 66.7698C47.6901 66.0598 55.31 62.4398 60.86 56.7498C61.31 56.2898 61.76 56.1398 62.1 55.5898" stroke="#034865" stroke-width="1.3" stroke-linecap="round" stroke-linejoin="round"/>
<path d="M17.66 9.0498C18.35 9.8598 19.03 10.6698 19.72 11.4898" stroke="#034865" stroke-width="1.3" stroke-linecap="round" stroke-linejoin="round"/>
<path d="M19.8901 6.81982C20.6401 7.81982 21.3901 8.81982 22.1401 9.81982" stroke="#034865" stroke-width="1.3" stroke-linecap="round" stroke-linejoin="round"/>
<path d="M37.3301 76.6899C45.0801 76.7299 51.82 77.9999 52.79 79.4399C54.26 81.6399 49.5101 82.3999 47.1501 82.7399C39.0901 83.8999 29.5901 85.0299 21.8801 82.8099C20.7601 82.4899 19.5101 81.9899 19.2601 81.0899C18.9701 80.0099 20.2701 79.0499 21.5901 78.6499C24.9501 77.6199 28.8401 77.0499 32.7001 76.8199" stroke="#034865" stroke-width="1.3" stroke-linecap="round" stroke-linejoin="round"/>
<path d="M32.53 79.6901C32.72 76.9501 32.74 73.8101 32.61 71.0601" stroke="#034865" stroke-width="1.3" stroke-linecap="round" stroke-linejoin="round"/>
<path d="M36.8801 71.8101C37.1001 74.3001 37.1801 77.1901 37.1401 79.6901" stroke="#034865" stroke-width="1.3" stroke-linecap="round" stroke-linejoin="round"/>
</svg>
