<svg width="46" height="59" viewBox="0 0 46 59" fill="none" xmlns="http://www.w3.org/2000/svg">
<path d="M28.393 3.69351C18.8785 2.1424 9.49702 8.92795 6.77052 17.96C3.39967 29.1169 12.3174 42.7684 24.4511 42.9827C26.8273 43.0257 29.1888 42.5361 31.4267 41.7464C37.2605 39.6998 42.5228 35.3397 44.4364 29.4638C45.1488 27.2637 45.3831 24.9281 45.235 22.6206C44.6498 13.5201 37.3952 5.1569 28.393 3.69351Z" fill="#22C3EA"/>
<path d="M13.8578 7.71601C14.4452 7.7831 16.4818 8.67343 16.7491 9.20547C16.8382 9.37598 16.9069 9.57385 17.0573 9.68962C17.2488 9.83262 17.5083 9.81162 17.7334 9.74288C18.2998 9.57786 18.7565 9.17409 19.268 8.88627C19.7795 8.59846 20.4551 8.44003 20.9406 8.78044C21.3098 9.03916 21.4479 9.77629 21.6262 10.1856C21.9006 10.82 22.1206 11.5297 21.9439 11.9398C21.5565 12.8145 20.2596 13.022 19.8722 13.8968C19.512 14.71 19.145 15.5779 19.2492 16.4585C19.3048 16.9364 19.497 17.4412 19.3067 17.8854C19.0621 18.4663 18.3318 18.6112 17.7175 18.7422C17.1033 18.8663 15.7529 19.5996 15.8702 20.2207C16.1601 21.7496 17.9443 22.8043 19.5369 23.6341C19.4284 24.0303 19.9275 24.3502 20.3371 24.3084C20.7467 24.2666 21.115 24.0269 21.5177 23.9715C21.9614 23.9091 22.426 24.072 22.8628 23.9687C23.204 23.8929 23.4903 23.667 23.8041 23.5162C24.1179 23.3653 24.855 23.2273 25.1218 23.4521C26.6307 23.4012 28.5906 23.5679 30.0797 23.838C30.1513 25.4766 30.9263 27.1888 30.1987 28.6583C29.7567 29.54 29.2188 30.3058 28.4006 30.8537C28.8403 32.1706 29.2867 33.4875 29.7264 34.8044C29.8226 35.0978 29.9256 35.4117 29.8443 35.7055C29.7087 36.1974 28.9244 36.6428 29.0347 37.141C29.3034 38.3626 29.5931 39.7891 29.8619 41.0108C29.1314 41.0669 28.1688 41.1439 27.4384 41.241C27.164 40.5792 26.8895 39.9243 26.6082 39.2626C26.423 38.826 26.2378 38.3893 25.9707 38.0007C25.6899 37.5916 25.2244 37.0122 24.8006 36.7604C24.0255 35.0345 22.9916 33.6096 22.1006 31.9385C20.331 31.3617 18.6972 30.4638 17.3563 29.1623C17.2598 28.7256 17.2862 28.268 17.3126 27.8241C17.3787 26.7452 17.4516 25.6594 17.5177 24.5804C17.046 24.2878 16.4233 23.6199 16.081 23.1836C15.7524 22.761 15.4646 22.2563 14.9726 22.0456C14.5489 21.8553 13.9822 21.8906 13.7152 21.5156C13.051 20.5952 11.8412 19.9899 10.7144 19.883C10.0315 19.8161 9.29444 20.0224 8.67252 19.7369C8.39231 19.6077 8.16655 19.3897 7.94761 19.1717C7.72869 18.9604 6.976 18.1631 6.75708 17.9519C8.13439 13.6338 9.98435 10.0727 13.851 7.71603L13.8578 7.71601Z" fill="#01A665"/>
<path d="M36.6275 37.3672C39.4099 35.6614 41.5552 32.9463 42.5799 29.8512" stroke="#034865" stroke-width="1.08669" stroke-linecap="round" stroke-linejoin="round"/>
<path d="M43.191 28.3121C43.3945 27.6494 43.6048 26.9935 43.8083 26.3308" stroke="#034865" stroke-width="1.08669" stroke-linecap="round" stroke-linejoin="round"/>
<path d="M7.36523 18.3086C7.78995 18.9905 8.32406 19.7405 9.12309 19.8208C9.41675 19.8475 9.70336 19.7787 9.99689 19.744C11.3621 19.5637 12.7971 20.1275 13.6801 21.184C14.2413 21.852 15.0685 22.3419 15.9356 22.3129C16.5037 22.9945 17.0041 23.9699 17.5722 24.6515" stroke="#024C2B" stroke-width="1.08669" stroke-linecap="round" stroke-linejoin="round"/>
<path d="M19.263 23.431C18.8391 23.145 18.4152 22.8591 17.9913 22.5732C17.4102 22.1852 16.8153 21.7767 16.4318 21.1903C16.055 20.6039 15.9441 19.7779 16.3663 19.2172C17.2809 19.0446 18.195 18.6331 19.0752 18.3377" stroke="#024C2B" stroke-width="1.08669" stroke-linecap="round" stroke-linejoin="round"/>
<path d="M19.3392 17.213C19.5225 16.7005 19.535 16.1269 19.3769 15.6015" stroke="#024C2B" stroke-width="1.08669" stroke-linecap="round" stroke-linejoin="round"/>
<path d="M19.6678 14.3966C19.7214 13.8776 19.9867 13.3991 20.3273 12.9955C20.8041 12.421 21.4382 11.9759 22.1409 11.715C22.0432 10.6569 21.6035 9.32634 21.1032 8.39192C20.2094 8.73514 18.7901 9.16816 17.8963 9.51137" stroke="#024C2B" stroke-width="1.08669" stroke-linecap="round" stroke-linejoin="round"/>
<path d="M16.3524 8.96221C15.662 8.58124 14.9648 8.19346 14.2744 7.8125" stroke="#024C2B" stroke-width="1.08669" stroke-linecap="round" stroke-linejoin="round"/>
<path d="M17.4102 25.5775C17.2693 26.7658 17.1624 27.9541 17.0898 29.1423C18.6351 30.2589 20.515 31.3476 22.2849 32.0609C23.0526 33.5069 23.8886 35.0074 24.6563 36.4533C25.0059 37.1149 25.6355 37.8238 26.0532 38.4374C26.6148 39.2556 27.1631 40.2787 27.3767 41.2478C28.0255 41.2875 28.8106 41.2518 29.4247 41.0525" stroke="#024C2B" stroke-width="1.08669" stroke-linecap="round" stroke-linejoin="round"/>
<path d="M19.4409 23.4648C19.6807 23.8467 20.1454 24.037 20.596 24.0565C21.0467 24.0761 21.4903 23.9523 21.9202 23.8285C22.0157 23.801 22.1045 23.7735 22.2 23.7529C22.6368 23.6291 23.1076 23.5052 23.5448 23.6204C23.8454 23.7017 24.2827 23.8237 24.3709 23.53" stroke="#024C2B" stroke-width="1.08669" stroke-linecap="round" stroke-linejoin="round"/>
<path d="M26.1797 23.5352C27.4022 23.7034 28.6383 23.7828 29.8741 23.7871C30.1568 25.1043 30.5083 26.715 30.3949 28.0603C29.8908 28.6281 29.3395 29.4895 28.8353 30.0573C28.7127 30.1941 28.5833 30.3377 28.5085 30.5086C28.2706 31.028 28.5449 31.6283 28.8123 32.133C29.1207 32.7196 29.1295 33.7165 29.3561 34.3442C29.5278 34.815 29.6996 35.3404 29.5298 35.8118C29.4008 36.174 29.0805 36.4682 29.0608 36.8506C29.0081 37.7793 29.4541 38.8846 29.8382 39.7304" stroke="#024C2B" stroke-width="1.08669" stroke-linecap="round" stroke-linejoin="round"/>
<path d="M45.2563 22.9077C44.2576 22.0289 42.4674 21.3702 41.1569 21.5845C40.8702 21.6329 40.5631 21.7086 40.2898 21.6136C40.037 21.5254 39.8522 21.3141 39.6538 21.1574C39.3187 20.8918 38.9972 20.6125 38.7235 20.2785C37.7446 19.0788 37.5039 18.2326 37.6723 17.0783C37.8608 15.767 37.8171 14.4288 37.4117 13.1733C37.2537 12.6683 37.0273 12.143 36.5897 11.8367C36.4187 11.7209 36.0164 11.9812 35.5734 12.3508C34.6259 13.1585 33.1986 13.0589 32.3978 12.1046C32.0761 11.7161 31.7205 11.4437 31.2769 11.5265C30.5943 11.644 29.9188 11.8502 29.2291 11.8448C28.5395 11.8325 27.8455 9.68994 27.7902 9.32135C27.7418 9.03467 27.789 8.74781 27.884 8.4745C28.0334 8.07135 28.1624 7.67507 28.2572 7.28568C28.5347 6.11071 26.9552 4.99412 28.1883 3.667C32.8875 4.40853 35.3896 5.92609 38.0849 8.40599C42.3261 12.3098 44.9237 17.1524 45.2632 22.9213L45.2563 22.9077Z" fill="#01A665"/>
<path d="M28.1471 3.74913C27.8064 4.07074 27.6845 4.58307 27.7333 5.05409C27.7752 5.52514 27.9605 5.96859 28.1389 6.40521" stroke="#024C2B" stroke-width="1.08669" stroke-linecap="round" stroke-linejoin="round"/>
<path d="M28.175 7.3229C28.0055 7.91045 27.795 8.48443 27.5298 9.0312" stroke="#024C2B" stroke-width="1.08669" stroke-linecap="round" stroke-linejoin="round"/>
<path d="M27.7974 9.70312C27.9895 10.1534 28.1815 10.6036 28.3736 11.0607C28.456 11.2586 28.5452 11.4632 28.7093 11.5994C28.9213 11.7834 29.2219 11.8237 29.5017 11.7822C29.7816 11.7406 30.0408 11.6309 30.3001 11.5416C30.7982 11.3699 31.3238 11.2732 31.8495 11.2517" stroke="#024C2B" stroke-width="1.08669" stroke-linecap="round" stroke-linejoin="round"/>
<path d="M32.4038 11.8711C32.7738 12.4917 33.4779 12.8999 34.2017 12.9053" stroke="#024C2B" stroke-width="1.08669" stroke-linecap="round" stroke-linejoin="round"/>
<path d="M35.9479 12.2055C36.248 12.0342 36.6443 12.1836 36.8701 12.4426C37.096 12.7016 37.1855 13.0497 37.2681 13.3841C37.3231 13.5956 37.3713 13.8072 37.4264 14.012" stroke="#024C2B" stroke-width="1.08669" stroke-linecap="round" stroke-linejoin="round"/>
<path d="M37.8874 15.4994C37.7322 16.3874 37.6384 17.2889 37.6129 18.1902C37.6131 18.3131 37.6134 18.4565 37.7228 18.5245" stroke="#024C2B" stroke-width="1.08669" stroke-linecap="round" stroke-linejoin="round"/>
<path d="M38.415 19.7109C38.8327 20.2563 39.2912 20.7743 39.7838 21.2513" stroke="#024C2B" stroke-width="1.08669" stroke-linecap="round" stroke-linejoin="round"/>
<path d="M40.9861 21.6868C41.73 21.5214 42.5084 21.5266 43.2598 21.6821" stroke="#024C2B" stroke-width="1.08669" stroke-linecap="round" stroke-linejoin="round"/>
<path d="M44.1826 22.1602C44.3947 22.3441 44.5999 22.528 44.8119 22.7119" stroke="#024C2B" stroke-width="1.08669" stroke-linecap="round" stroke-linejoin="round"/>
<path d="M11.6606 15.2812C12.4193 15.6484 13.2119 15.9472 14.0181 16.1777" stroke="#024C2B" stroke-width="1.08669" stroke-linecap="round" stroke-linejoin="round"/>
<path d="M11.4053 13.9336C12.1364 14.2121 12.8676 14.4837 13.5919 14.7622" stroke="#024C2B" stroke-width="1.08669" stroke-linecap="round" stroke-linejoin="round"/>
<path d="M8.89865 30.3018C7.61694 27.8941 7.05139 25.1163 7.28485 22.3983" stroke="#034865" stroke-width="1.08669" stroke-linecap="round" stroke-linejoin="round"/>
<path d="M9.50244 31.7891C9.70836 32.3212 9.9825 32.8259 10.318 33.2827" stroke="#034865" stroke-width="1.08669" stroke-linecap="round" stroke-linejoin="round"/>
<path d="M11.2358 34.8164C12.0844 35.7569 12.9944 36.6564 13.9452 37.4943" stroke="#034865" stroke-width="1.08669" stroke-linecap="round" stroke-linejoin="round"/>
<path d="M40.4697 12.7734C41.2227 13.7142 41.8598 14.7439 42.3673 15.8353" stroke="#024C2B" stroke-width="1.08669" stroke-linecap="round" stroke-linejoin="round"/>
<path d="M43.1143 17.3398C43.3677 17.7422 43.5461 18.1925 43.6222 18.6566" stroke="#024C2B" stroke-width="1.08669" stroke-linecap="round" stroke-linejoin="round"/>
<path d="M23.8687 28.5898C24.5178 28.8412 25.1738 29.0993 25.823 29.3506" stroke="#024C2B" stroke-width="1.08669" stroke-linecap="round" stroke-linejoin="round"/>
<path d="M41.9752 38.099C42.6257 38.9853 43.0285 38.9709 43.6789 39.8572C41.439 43.064 38.1189 45.5766 34.4483 46.9429C30.7844 48.3091 27.5153 49.0121 23.6091 48.7265C18.8357 48.3743 13.658 47.3947 10.1691 44.1107C9.0472 43.0547 7.72769 42.1902 6.83069 40.9425C4.91348 38.2903 3.13894 35.3033 1.99245 32.2399C-0.0877348 26.6657 0.253783 19.994 2.30449 14.4114C4.34837 8.82886 9.15213 3.91664 14.3355 1.01106C14.8283 1.58361 15.321 2.14934 15.8138 2.72189" stroke="#034865" stroke-width="1.08669" stroke-linecap="round" stroke-linejoin="round"/>
<path d="M38.3629 41.223C37.8356 40.4593 37.2742 39.7163 36.6787 39.0005C37.2311 38.6375 37.8172 38.1379 38.3696 37.7817C38.9036 38.4976 39.4649 39.1724 40.0739 39.8198C39.4808 40.2785 38.8671 40.6757 38.3629 41.223Z" fill="#F3F3F3"/>
<path d="M13.2237 8.3324C12.6964 7.56874 12.1351 6.82563 11.5396 6.1099C12.0919 5.7469 12.6781 5.24727 13.2304 4.89109C13.7645 5.60694 14.3257 6.28179 14.9347 6.92921C14.3416 7.38788 13.7279 7.78514 13.2237 8.3324Z" fill="#F3F3F3"/>
<path d="M36.7603 38.9922C37.2736 39.5852 37.7937 40.1782 38.307 40.7712" stroke="#034865" stroke-width="1.08669" stroke-linecap="round" stroke-linejoin="round"/>
<path d="M38.5405 37.832C39.0882 38.5205 39.6426 39.2022 40.1903 39.8907" stroke="#034865" stroke-width="1.08669" stroke-linecap="round" stroke-linejoin="round"/>
<path d="M15.8408 2.65831C10.0719 6.35711 5.21518 12.1024 3.89737 18.8238C1.05234 33.3731 11.3975 47.1992 26.8121 45.7887C32.212 45.2929 37.4099 42.8107 41.1915 38.9179C41.4981 38.6032 41.8051 38.5001 42.0365 38.1241" stroke="#034865" stroke-width="1.08669" stroke-linecap="round" stroke-linejoin="round"/>
<path d="M11.6289 6.41016C12.1012 6.96226 12.5666 7.51438 13.0388 8.07332" stroke="#034865" stroke-width="1.08669" stroke-linecap="round" stroke-linejoin="round"/>
<path d="M13.1484 4.88672C13.6619 5.56847 14.1754 6.25022 14.6889 6.93198" stroke="#034865" stroke-width="1.08669" stroke-linecap="round" stroke-linejoin="round"/>
<path d="M25.1531 52.5647C30.4448 52.5813 35.0486 53.4391 35.7129 54.421C36.7196 55.9211 33.4775 56.4466 31.8665 56.682C26.3648 57.4852 19.8799 58.27 14.6125 56.7648C13.8473 56.5479 12.9931 56.2082 12.8212 55.5941C12.6217 54.8571 13.508 54.1998 14.4087 53.9248C16.7015 53.2169 19.3567 52.8223 21.992 52.6599" stroke="#034865" stroke-width="1.08669" stroke-linecap="round" stroke-linejoin="round"/>
<path d="M21.8801 54.623C22.0061 52.7519 22.0153 50.6079 21.9228 48.7304" stroke="#034865" stroke-width="1.08669" stroke-linecap="round" stroke-linejoin="round"/>
<path d="M24.8394 49.2344C24.993 50.9342 25.0517 52.9074 25.0278 54.6144" stroke="#034865" stroke-width="1.08669" stroke-linecap="round" stroke-linejoin="round"/>
</svg>
