<svg width="55" height="69" viewBox="0 0 55 69" fill="none" xmlns="http://www.w3.org/2000/svg">
<path d="M34.0237 4.20636C22.7432 2.34817 11.6004 10.3545 8.34504 21.0351C4.32034 34.2282 14.8639 50.4025 29.2541 50.6852C32.0722 50.7418 34.8741 50.1682 37.5302 49.2391C44.454 46.8315 50.7056 41.6852 52.9893 34.7372C53.8396 32.1357 54.123 29.3727 53.9529 26.6419C53.2808 15.8725 44.6969 5.95952 34.0237 4.20636Z" fill="#22C3EA"/>
<path d="M16.7743 8.93359C17.4708 9.01438 19.884 10.0727 20.1998 10.7029C20.3051 10.9049 20.386 11.1392 20.5642 11.2765C20.7909 11.4462 21.0987 11.422 21.3659 11.3412C22.0381 11.1473 22.5806 10.6706 23.188 10.3313C23.7953 9.99196 24.597 9.80612 25.1719 10.2101C25.6092 10.5171 25.7712 11.3896 25.9817 11.8744C26.3057 12.6257 26.5648 13.4659 26.3543 13.9507C25.8927 14.9848 24.3541 15.2272 23.8925 16.2613C23.4633 17.2227 23.026 18.2488 23.1474 19.291C23.2122 19.8565 23.439 20.4543 23.2122 20.9795C22.9207 21.6662 22.0542 21.8359 21.3254 21.9894C20.5966 22.1348 18.9932 22.9993 19.1309 23.7344C19.471 25.5442 21.5845 26.7964 23.4714 27.782C23.3418 28.2506 23.933 28.6304 24.4188 28.5819C24.9047 28.5334 25.342 28.2506 25.8198 28.186C26.3462 28.1133 26.8968 28.3072 27.4151 28.186C27.82 28.0971 28.1601 27.8305 28.5326 27.6528C28.9051 27.4751 29.7797 27.3135 30.0955 27.5801C31.8852 27.5235 34.2093 27.7255 35.9747 28.0487C36.0557 29.9876 36.9707 32.0155 36.1042 33.7525C35.5779 34.7947 34.9382 35.6995 33.9664 36.3459C34.4847 37.9051 35.011 39.4644 35.5293 41.0236C35.6427 41.371 35.7641 41.7427 35.667 42.0901C35.505 42.6718 34.5737 43.1969 34.7033 43.7867C35.0191 45.2328 35.3592 46.9214 35.6751 48.3675C34.8086 48.4321 33.6668 48.521 32.8003 48.6341C32.4764 47.8504 32.1524 47.0749 31.8204 46.2912C31.6018 45.7741 31.3831 45.2571 31.0673 44.7966C30.7353 44.3118 30.1846 43.6251 29.6825 43.3262C28.7675 41.2822 27.5447 39.5936 26.4919 37.6143C24.3945 36.9276 22.4591 35.8611 20.8719 34.318C20.7585 33.801 20.7909 33.2597 20.8233 32.7345C20.9043 31.458 20.9934 30.1735 21.0744 28.897C20.5156 28.5496 19.7787 27.7578 19.3738 27.2408C18.9851 26.7399 18.645 26.142 18.0619 25.8915C17.5599 25.6653 16.8877 25.7057 16.5719 25.2614C15.7864 24.1707 14.3531 23.4517 13.0169 23.3224C12.2071 23.2416 11.3325 23.484 10.5956 23.1447C10.2635 22.9912 9.9963 22.7326 9.73717 22.4741C9.47803 22.2237 8.58726 21.2784 8.32812 21.028C9.97202 15.922 12.1747 11.7128 16.7662 8.93359H16.7743Z" fill="#01A665"/>
<path d="M43.707 44.0703C47.011 42.0586 49.5619 38.8512 50.7847 35.1914" stroke="white" stroke-width="1.3" stroke-linecap="round" stroke-linejoin="round"/>
<path d="M51.5156 33.3703C51.7586 32.5866 52.0096 31.811 52.2525 31.0273" stroke="white" stroke-width="1.3" stroke-linecap="round" stroke-linejoin="round"/>
<path d="M9.05078 21.4453C9.55286 22.2532 10.1845 23.1419 11.132 23.2389C11.4802 23.2712 11.8203 23.1904 12.1685 23.15C13.7881 22.94 15.4887 23.6105 16.5333 24.8628C17.1974 25.6545 18.1772 26.2362 19.2056 26.2039C19.8778 27.0118 20.4689 28.1671 21.1411 28.975" stroke="#024C2B" stroke-width="1.3" stroke-linecap="round" stroke-linejoin="round"/>
<path d="M23.1467 27.5387C22.6447 27.1994 22.1426 26.86 21.6405 26.5207C20.9522 26.0602 20.2477 25.5755 19.7942 24.8807C19.3488 24.1859 19.2192 23.2083 19.7213 22.5458C20.8064 22.3439 21.8916 21.8591 22.9362 21.5117" stroke="#024C2B" stroke-width="1.3" stroke-linecap="round" stroke-linejoin="round"/>
<path d="M23.2539 20.1801C23.4726 19.5742 23.4887 18.8955 23.3025 18.2734" stroke="#024C2B" stroke-width="1.3" stroke-linecap="round" stroke-linejoin="round"/>
<path d="M23.6517 16.8515C23.7165 16.2375 24.0324 15.6719 24.4373 15.1953C25.0041 14.5166 25.7572 13.9915 26.5913 13.6845C26.478 12.4322 25.9597 10.8568 25.3686 9.75C24.3077 10.154 22.6233 10.6629 21.5625 11.0669" stroke="#024C2B" stroke-width="1.3" stroke-linecap="round" stroke-linejoin="round"/>
<path d="M19.7313 10.4122C18.9134 9.95981 18.0874 9.4993 17.2695 9.04688" stroke="#024C2B" stroke-width="1.3" stroke-linecap="round" stroke-linejoin="round"/>
<path d="M20.9473 30.0742C20.7772 31.48 20.6477 32.8857 20.5586 34.2915C22.3887 35.6164 24.6157 36.9091 26.713 37.7574C27.62 39.4702 28.608 41.2476 29.515 42.9603C29.928 43.744 30.673 44.5842 31.1669 45.3113C31.831 46.2808 32.4788 47.4927 32.7299 48.6399C33.4992 48.6884 34.4304 48.648 35.1592 48.4137" stroke="#024C2B" stroke-width="1.3" stroke-linecap="round" stroke-linejoin="round"/>
<path d="M23.3594 27.5781C23.6428 28.0306 24.1935 28.2568 24.7279 28.281C25.2624 28.3053 25.7888 28.1598 26.299 28.0144C26.4123 27.9821 26.5176 27.9498 26.631 27.9255C27.1493 27.7801 27.708 27.6347 28.2263 27.772C28.5826 27.869 29.1009 28.0144 29.2062 27.667" stroke="#024C2B" stroke-width="1.3" stroke-linecap="round" stroke-linejoin="round"/>
<path d="M31.3516 27.6758C32.8011 27.8778 34.2669 27.9747 35.7326 27.9828C36.0646 29.542 36.4776 31.4487 36.34 33.0403C35.7407 33.7108 35.0847 34.7288 34.4855 35.3994C34.3397 35.5609 34.1859 35.7306 34.0968 35.9326C33.8134 36.5466 34.1373 37.2575 34.4531 37.8554C34.8175 38.5502 34.8256 39.7297 35.0928 40.473C35.2953 41.0305 35.4977 41.6526 35.2953 42.21C35.1414 42.6382 34.7608 42.9856 34.7365 43.438C34.6717 44.5368 35.1981 45.8456 35.6516 46.8474" stroke="#024C2B" stroke-width="1.3" stroke-linecap="round" stroke-linejoin="round"/>
<path d="M53.9758 26.983C52.7935 25.9408 50.6719 25.1571 49.1171 25.4076C48.7769 25.4641 48.4126 25.553 48.0886 25.4399C47.789 25.3349 47.5703 25.0844 47.3355 24.8986C46.9387 24.5835 46.5581 24.2523 46.2342 23.8564C45.0762 22.4345 44.7928 21.4327 44.9952 20.0673C45.2219 18.5161 45.1734 16.9326 44.6956 15.4461C44.5093 14.8482 44.2421 14.2262 43.7238 13.8626C43.5214 13.7253 43.0436 14.0323 42.5172 14.4685C41.3916 15.4219 39.6991 15.3007 38.7516 14.1696C38.371 13.7091 37.9499 13.3859 37.4236 13.4829C36.6138 13.6202 35.812 13.8626 34.9942 13.8545C34.1763 13.8384 33.3584 11.3015 33.2936 10.8652C33.2369 10.5259 33.2936 10.1866 33.407 9.86345C33.5851 9.38679 33.739 8.91821 33.8524 8.4577C34.1844 7.0681 32.3137 5.74312 33.7795 4.17578C39.3509 5.06448 42.3148 6.86611 45.5054 9.80689C50.5261 14.4362 53.5953 20.1723 53.984 26.9991L53.9758 26.983Z" fill="#01A665"/>
<path d="M33.7323 4.26953C33.3274 4.64925 33.1816 5.25516 33.2383 5.81261C33.2869 6.37007 33.5056 6.89521 33.7161 7.41227" stroke="#024C2B" stroke-width="1.3" stroke-linecap="round" stroke-linejoin="round"/>
<path d="M33.7576 8.49609C33.5552 9.19089 33.3041 9.86953 32.9883 10.5159" stroke="#024C2B" stroke-width="1.3" stroke-linecap="round" stroke-linejoin="round"/>
<path d="M33.3047 11.3164C33.5314 11.8496 33.7581 12.3828 33.9849 12.9241C34.0821 13.1584 34.1873 13.4008 34.3817 13.5624C34.6327 13.7805 34.9891 13.829 35.3211 13.7805C35.6531 13.732 35.9608 13.6028 36.2685 13.4977C36.8597 13.2958 37.4832 13.1827 38.1068 13.1584" stroke="#024C2B" stroke-width="1.3" stroke-linecap="round" stroke-linejoin="round"/>
<path d="M38.7617 13.8945C39.199 14.6297 40.0331 15.1145 40.8915 15.1226" stroke="#024C2B" stroke-width="1.3" stroke-linecap="round" stroke-linejoin="round"/>
<path d="M42.9648 14.297C43.3212 14.095 43.7908 14.2727 44.0581 14.5798C44.3253 14.8868 44.4306 15.2988 44.5278 15.6947C44.5925 15.9451 44.6492 16.1956 44.714 16.438" stroke="#024C2B" stroke-width="1.3" stroke-linecap="round" stroke-linejoin="round"/>
<path d="M45.2539 18.1992C45.0677 19.2495 44.9543 20.3159 44.9219 21.3824C44.9219 21.5278 44.9219 21.6974 45.0515 21.7782" stroke="#024C2B" stroke-width="1.3" stroke-linecap="round" stroke-linejoin="round"/>
<path d="M45.8711 23.1836C46.3651 23.8299 46.9076 24.4439 47.4907 25.0095" stroke="#024C2B" stroke-width="1.3" stroke-linecap="round" stroke-linejoin="round"/>
<path d="M48.9141 25.5252C49.7967 25.3313 50.7199 25.3394 51.6107 25.5252" stroke="#024C2B" stroke-width="1.3" stroke-linecap="round" stroke-linejoin="round"/>
<path d="M52.707 26.0938C52.9581 26.3119 53.201 26.53 53.4521 26.7482" stroke="#024C2B" stroke-width="1.3" stroke-linecap="round" stroke-linejoin="round"/>
<path d="M14.1523 17.875C15.0512 18.3113 15.9906 18.6667 16.9462 18.9414" stroke="#024C2B" stroke-width="1.3" stroke-linecap="round" stroke-linejoin="round"/>
<path d="M13.8516 16.2852C14.718 16.6164 15.5845 16.9396 16.4429 17.2708" stroke="#024C2B" stroke-width="1.3" stroke-linecap="round" stroke-linejoin="round"/>
<path d="M10.8378 35.6407C9.32345 32.7888 8.65939 29.5006 8.94282 26.2852" stroke="white" stroke-width="1.3" stroke-linecap="round" stroke-linejoin="round"/>
<path d="M11.5508 37.4023C11.7937 38.0325 12.1176 38.6304 12.5144 39.1717" stroke="white" stroke-width="1.3" stroke-linecap="round" stroke-linejoin="round"/>
<path d="M13.6016 40.9922C14.6057 42.1071 15.6828 43.1735 16.8084 44.1673" stroke="white" stroke-width="1.3" stroke-linecap="round" stroke-linejoin="round"/>
<path d="M48.3242 14.9766C49.215 16.0915 49.9681 17.3114 50.5674 18.6041" stroke="#024C2B" stroke-width="1.3" stroke-linecap="round" stroke-linejoin="round"/>
<path d="M51.4492 20.3906C51.7488 20.8673 51.9594 21.4005 52.0485 21.9499" stroke="#024C2B" stroke-width="1.3" stroke-linecap="round" stroke-linejoin="round"/>
<path d="M28.5977 33.6562C29.367 33.9552 30.1444 34.2622 30.9137 34.5611" stroke="#024C2B" stroke-width="1.3" stroke-linecap="round" stroke-linejoin="round"/>
<path d="M50.0497 44.9501C50.819 46.0004 51.2967 45.9842 52.0661 47.0345C49.4018 50.8236 45.4581 53.7886 41.1014 55.3964C36.7528 57.0041 32.8738 57.8282 28.2418 57.4808C22.5813 57.0526 16.443 55.8811 12.313 51.987C10.9849 50.7347 9.42205 49.7087 8.36121 48.2302C6.09377 45.0875 3.99634 41.5488 2.64398 37.9213C0.190286 31.3207 0.611389 23.4275 3.05698 16.8269C5.49448 10.2263 11.2036 4.42552 17.3581 1C17.9411 1.67864 18.5242 2.34921 19.1072 3.02785" stroke="white" stroke-width="1.3" stroke-linecap="round" stroke-linejoin="round"/>
<path d="M45.7578 48.6343C45.1342 47.7295 44.4702 46.8489 43.7656 46.0006C44.4216 45.5724 45.118 44.9826 45.7739 44.5625C46.4056 45.4108 47.0696 46.2106 47.7903 46.9781C47.0858 47.5194 46.357 47.988 45.7578 48.6343Z" fill="#F3F3F3"/>
<path d="M16.0233 9.6617C15.3998 8.75684 14.7358 7.87622 14.0312 7.02792C14.6872 6.59973 15.3836 6.00996 16.0395 5.58984C16.6712 6.43815 17.3352 7.23799 18.0559 8.0055C17.3514 8.5468 16.6226 9.01537 16.0233 9.6617Z" fill="#F3F3F3"/>
<path d="M43.8633 45.9922C44.4706 46.6951 45.0861 47.398 45.6934 48.1008" stroke="white" stroke-width="1.3" stroke-linecap="round" stroke-linejoin="round"/>
<path d="M45.9766 44.625C46.6244 45.441 47.2804 46.2489 47.9282 47.0649" stroke="white" stroke-width="1.3" stroke-linecap="round" stroke-linejoin="round"/>
<path d="M19.1414 2.95703C12.2905 7.31973 6.51655 14.1061 4.93745 22.0559C1.52819 39.2643 13.7643 55.6487 32.0496 54.0167C38.4551 53.4431 44.6257 50.5185 49.1201 45.9215C49.4845 45.5499 49.8489 45.4287 50.1242 44.9843" stroke="white" stroke-width="1.3" stroke-linecap="round" stroke-linejoin="round"/>
<path d="M14.1367 7.38281C14.6955 8.03722 15.2461 8.69162 15.8049 9.35411" stroke="white" stroke-width="1.3" stroke-linecap="round" stroke-linejoin="round"/>
<path d="M15.9414 5.58203C16.5488 6.38994 17.1561 7.19784 17.7635 8.00575" stroke="white" stroke-width="1.3" stroke-linecap="round" stroke-linejoin="round"/>
<path d="M30.0647 62.0273C36.3406 62.0597 41.7986 63.0857 42.5841 64.2491C43.7745 66.0265 39.928 66.6405 38.0169 66.9152C31.4899 67.8523 23.7968 68.7653 17.5533 66.9717C16.6463 66.7132 15.634 66.3092 15.4316 65.5821C15.1968 64.7096 16.2495 63.934 17.3184 63.6108C20.0394 62.7787 23.1895 62.3182 26.3153 62.1324" stroke="white" stroke-width="1.3" stroke-linecap="round" stroke-linejoin="round"/>
<path d="M26.1758 64.4527C26.3296 62.239 26.3458 59.7022 26.2405 57.4805" stroke="white" stroke-width="1.3" stroke-linecap="round" stroke-linejoin="round"/>
<path d="M29.6992 58.0859C29.8774 60.0976 29.9422 62.4325 29.9098 64.4522" stroke="white" stroke-width="1.3" stroke-linecap="round" stroke-linejoin="round"/>
</svg>
