<svg width="33" height="42" viewBox="0 0 33 42" fill="none" xmlns="http://www.w3.org/2000/svg">
<g clip-path="url(#clip0_1025_91295)">
<path d="M29.0218 16.1382C28.7044 14.6489 27.9412 13.2844 27.0767 12.0182C26.2257 10.7651 25.2666 9.57114 24.0711 8.62644C20.9103 6.11379 16.1757 5.66112 12.5758 7.52428C8.97596 9.38745 6.72013 13.4549 7.10511 17.4043C7.82778 24.8636 17.7291 28.2159 20.1943 35.3144C23.7875 34.5927 26.2999 32.6377 29.8931 31.916C27.8669 27.9929 29.9606 20.5533 29.0218 16.1382Z" fill="#FFC300"/>
<path d="M20.0312 35.0183C20.5108 36.0614 20.9903 37.1045 21.4699 38.141C21.9899 39.276 22.5843 40.4897 23.6919 41.1064C24.6442 41.6378 25.8262 41.6246 26.8866 41.3688C28.3387 41.0145 29.7232 40.1617 30.3784 38.8561C31.378 36.8617 30.4729 34.4934 29.5679 32.4531" stroke="white" stroke-width="1.4" stroke-linecap="round" stroke-linejoin="round"/>
<path d="M22.6406 39.8013C25.3287 38.8106 28.01 37.8266 30.6981 36.8359" stroke="white" stroke-width="1.4" stroke-linecap="round" stroke-linejoin="round"/>
<path d="M20.7539 37.0806C23.9148 36.2409 27.0216 35.2174 30.0542 34.0234" stroke="white" stroke-width="1.4" stroke-linecap="round" stroke-linejoin="round"/>
<path d="M19.9453 35.1259C22.9508 34.2074 25.9158 33.1446 28.8133 31.9375" stroke="white" stroke-width="1.4" stroke-linecap="round" stroke-linejoin="round"/>
<path d="M21.9091 33.3814C20.7947 29.5041 18.9441 25.8303 16.4856 22.5894C15.9588 22.7272 15.7359 23.357 15.817 23.8818C15.9453 24.6888 16.6005 25.3645 17.3772 25.6728C18.1539 25.9812 19.0386 25.9746 19.8626 25.7975C20.4908 25.6663 21.1256 25.4235 21.5781 24.9774C22.2941 24.2689 22.4224 23.1864 22.3954 22.1958C22.3751 21.2839 22.1928 20.2605 21.4228 19.7422C20.6056 20.1555 20.6528 21.297 20.8825 22.1696C21.8213 25.7056 23.8475 28.8678 25.8399 31.9643" stroke="white" stroke-width="1.4" stroke-linecap="round" stroke-linejoin="round"/>
<path d="M16.7852 8.73132C20.0001 8.21961 23.4581 10.0172 24.8021 12.8972" stroke="white" stroke-width="1.4" stroke-linecap="round" stroke-linejoin="round"/>
<path d="M12.3529 5.27586C11.9072 3.8588 11.4614 2.44831 11.0156 1.03125" stroke="white" stroke-width="1.4" stroke-linecap="round" stroke-linejoin="round"/>
<path d="M20.4766 4.00358C20.6724 2.80302 20.9629 1.62214 21.3478 0.460938" stroke="white" stroke-width="1.4" stroke-linecap="round" stroke-linejoin="round"/>
<path d="M23.5586 4.37423C24.0584 3.28519 24.7338 2.28144 25.5578 1.40234" stroke="white" stroke-width="1.4" stroke-linecap="round" stroke-linejoin="round"/>
<path d="M28.9336 10.2596C30.1291 9.61663 31.3245 8.96714 32.52 8.32422" stroke="white" stroke-width="1.4" stroke-linecap="round" stroke-linejoin="round"/>
<path d="M1.96484 8.17969C3.20758 8.80949 4.44356 9.43273 5.68629 10.0625" stroke="white" stroke-width="1.4" stroke-linecap="round" stroke-linejoin="round"/>
<path d="M0.835938 10.8711C1.74097 11.0417 2.64601 11.2122 3.54429 11.3828" stroke="white" stroke-width="1.4" stroke-linecap="round" stroke-linejoin="round"/>
<path d="M0.472656 20.6072C1.97204 20.1349 3.47143 19.6559 4.96406 19.1836" stroke="white" stroke-width="1.4" stroke-linecap="round" stroke-linejoin="round"/>
<path d="M6.125 28.3497C7.11784 27.1885 8.29303 26.1716 9.59655 25.3516" stroke="white" stroke-width="1.4" stroke-linecap="round" stroke-linejoin="round"/>
</g>
<defs>
<clipPath id="clip0_1025_91295">
<rect width="33" height="42" fill="white"/>
</clipPath>
</defs>
</svg>
