<svg width="52" height="66" viewBox="0 0 52 66" fill="none" xmlns="http://www.w3.org/2000/svg">
<path d="M20.815 44.3575C27.6723 39.1384 34.7282 34.2011 41.986 29.5551C39.551 25.0311 36.7142 20.6296 33.4274 16.6825C25.9703 21.3944 18.8005 26.3694 11.8257 31.7749C14.8684 36.0346 17.7723 40.0979 20.8245 44.3544L20.815 44.3575Z" fill="#27B56E"/>
<path d="M2.82649 17.4463C9.12666 14.0127 16.336 9.82518 25.3108 3.68393C30.1395 14.2624 40.5041 25.4313 45.3138 36.0161C51.1434 48.8546 33.8379 57.0369 28.5334 53.1678C25.4518 50.9224 23.1086 47.8849 21.1707 44.6078C15.8139 35.5524 7.87159 27.3739 2.82963 17.4558L2.82649 17.4463Z" stroke="#034865" stroke-width="2" stroke-linecap="round" stroke-linejoin="round"/>
<path d="M28.2539 9.39844C20.6583 13.8191 13.132 18.3538 5.66879 22.9835" stroke="#034865" stroke-width="2" stroke-linecap="round" stroke-linejoin="round"/>
<path d="M21.499 12.688C20.7585 11.4057 20.0276 10.1203 19.284 8.8285" stroke="#034865" stroke-width="2" stroke-linecap="round" stroke-linejoin="round"/>
<path d="M13.4095 17.4396C12.486 15.9861 11.5688 14.52 10.6453 13.0666" stroke="#034865" stroke-width="2" stroke-linecap="round" stroke-linejoin="round"/>
<path d="M43.9177 48.0015C45.2074 49.7656 46.5002 51.5392 47.7804 53.3065C45.282 54.8602 42.7695 57.1666 40.2712 58.7203C40.0432 58.859 39.5756 58.6556 39.8099 58.536C38.5899 56.7277 37.5116 55.2202 36.2884 53.4025" stroke="#034865" stroke-width="2" stroke-linecap="round" stroke-linejoin="round"/>
<path d="M43.7807 55.41C43.119 54.2701 42.3054 53.2122 41.3808 52.2647" stroke="#034865" stroke-width="2" stroke-linecap="round" stroke-linejoin="round"/>
</svg>
