<svg width="63" height="69" viewBox="0 0 63 69" fill="none" xmlns="http://www.w3.org/2000/svg">
<path d="M4.59558 54.4836C3.61212 55.6893 2.52547 56.8154 1.36641 57.8545C1.59059 59.582 2.23118 61.5884 2.65908 63.2842C5.0895 61.0756 7.64935 58.9892 10.0789 56.7906" fill="#857BBA"/>
<path d="M8.06523 34.4956C22.3629 24.3711 34.445 14.7577 48.9028 4.85868C50.4765 3.78706 52.6004 4.06089 53.8459 5.48979C55.8916 7.83508 58.2178 10.2963 60.4554 12.5185C62.0666 14.1213 62.1721 16.7116 60.6616 18.4115C49.6201 30.8209 38.287 43.2338 27.0835 55.4376" fill="#857BBA"/>
<path d="M23.7464 58.98C25.2324 57.6593 27.0146 55.5122 28.564 53.7154C26.4027 50.4357 13.6534 36.9534 9.81817 33.0894C7.92663 34.343 3.93427 37.4937 4.02888 39.7616C4.07394 40.8101 6.31338 42.9019 6.69615 43.8806C8.11591 47.5847 7.11369 52.0824 4.26217 54.835C5.4605 56.6713 6.69531 57.1152 7.88368 58.9506C10.0307 57.0977 12.2065 55.9203 15.0231 55.5343C17.1888 55.2396 18.418 56.5163 20.3451 58.7303C21.2176 59.7336 22.7531 59.8535 23.7473 58.9701L23.7464 58.98Z" fill="#23275B"/>
<path d="M27.0946 32.5043C26.5476 33.2176 26.007 33.9717 25.8366 34.8498C25.6662 35.728 25.9828 36.7711 26.7913 37.156C27.6187 37.5527 28.5983 37.16 29.4187 36.7527C37.4754 32.7472 44.6325 26.9326 50.2073 19.8593C50.7977 19.1098 51.3818 18.3195 51.6074 17.3862C53.1977 10.733 41.8547 18.7368 40.644 19.5704C35.5072 23.1591 30.9216 27.531 27.0955 32.4943L27.0946 32.5043Z" stroke="#23275B" stroke-width="1.4" stroke-linecap="round" stroke-linejoin="round"/>
<path d="M13.173 31.5577C16.8777 35.8616 20.8768 39.9111 25.1122 43.681" stroke="#23275B" stroke-width="1.4" stroke-linecap="round" stroke-linejoin="round"/>
<path d="M26.8347 45.4949C27.9028 46.6667 28.961 47.8375 30.0291 49.0092" stroke="#23275B" stroke-width="1.4" stroke-linecap="round" stroke-linejoin="round"/>
<path d="M49.1409 6.30708C52.5497 10.1121 55.9586 13.9171 59.3574 17.7212" stroke="#23275B" stroke-width="1.4" stroke-linecap="round" stroke-linejoin="round"/>
</svg>
