<svg width="62" height="68" viewBox="0 0 62 68" fill="none" xmlns="http://www.w3.org/2000/svg">
<path d="M3.80918 54.8053C2.83858 56.0214 1.76396 57.159 0.615991 58.2103C0.858506 59.9353 1.52037 61.9348 1.96625 63.626C4.37308 61.3917 6.91063 59.2783 9.31666 57.054" fill="#857BBA"/>
<path d="M7.06242 34.781C21.2517 24.5053 33.2311 14.7641 47.583 4.71216C49.1452 3.62388 51.2719 3.87515 52.5325 5.29074C54.6029 7.61417 56.9552 10.0506 59.2163 12.2489C60.8444 13.8345 60.9774 16.4235 59.485 18.1394C48.5759 30.6652 37.3753 43.1978 26.302 55.5199" fill="#857BBA"/>
<path d="M23.002 59.0968C24.4738 57.7604 26.2331 55.5945 27.7633 53.7813C25.5673 50.5248 12.6756 37.1786 8.79953 33.3556C6.92141 34.6291 2.96274 37.8221 3.08142 40.0889C3.13761 41.1368 5.39914 43.2047 5.79228 44.1793C7.2513 47.8681 6.2969 52.3762 3.47476 55.1589C4.69252 56.9824 5.93198 57.4131 7.13977 59.2358C9.26695 57.3603 11.4301 56.1598 14.2425 55.7439C16.4049 55.4262 17.6477 56.6898 19.5981 58.8832C20.4813 59.8772 22.0179 59.9808 23.0028 59.0868L23.002 59.0968Z" fill="#23275B"/>
<path d="M26.072 32.587C25.5326 33.3061 25 34.0659 24.839 34.9458C24.6779 35.8257 25.0056 36.8653 25.8181 37.2417C26.6497 37.6296 27.6251 37.2265 28.4411 36.8105C36.4548 32.7197 43.5497 26.8294 49.0491 19.6973C49.6315 18.9415 50.2072 18.1451 50.4229 17.2094C51.9424 10.5397 40.6851 18.6635 39.4833 19.5099C34.3849 23.153 29.846 27.5734 26.0728 32.577L26.072 32.587Z" stroke="#23275B" stroke-linecap="round" stroke-linejoin="round"/>
<path d="M12.1377 31.7889C15.888 36.0532 19.9298 40.06 24.205 43.7847" stroke="#23275B" stroke-linecap="round" stroke-linejoin="round"/>
<path d="M25.9488 45.5788C27.0292 46.7392 28.0997 47.8987 29.1802 49.059" stroke="#23275B" stroke-linecap="round" stroke-linejoin="round"/>
<path d="M47.8417 6.15615C51.2907 9.92474 54.7398 13.6933 58.1788 17.4611" stroke="#23275B" stroke-linecap="round" stroke-linejoin="round"/>
</svg>
