<svg width="72" height="47" viewBox="0 0 72 47" fill="none" xmlns="http://www.w3.org/2000/svg">
<g clip-path="url(#clip0_1025_96577)">
<path d="M62.0817 44.6789C62.7814 44.8971 63.4719 45.1221 64.1899 45.277C64.6677 45.3857 65.1815 45.4753 65.6024 45.1618C65.9674 44.8889 66.0935 44.4048 66.0298 43.9732C65.9505 43.4317 65.5788 43.0175 65.2007 42.6436C64.7727 42.2205 64.3128 41.8419 63.8848 41.4188C63.8617 41.7209 63.8051 42.026 63.719 42.3099C63.4531 43.2596 62.873 44.1099 62.0736 44.6776L62.0817 44.6789Z" fill="#A6AFBF"/>
<path d="M58.9743 44.0215C59.3686 44.241 59.7548 44.4591 60.1529 44.6544C60.4045 44.7851 60.6747 44.9023 60.9577 44.9388C61.2326 44.974 61.492 44.8994 61.728 44.7632C61.9827 44.6134 62.2171 44.4357 62.4393 44.2311C63.2159 43.4945 63.6648 42.4829 63.7663 41.4246C63.8008 41.0499 63.8431 40.6268 63.6314 40.2958C63.3737 39.8914 62.8909 39.6579 62.5097 39.4075C60.4575 38.0909 58.3946 36.7892 56.3199 35.5104C55.4259 34.9557 54.5307 34.409 53.6261 33.8691C53.2438 33.9904 52.9314 34.2964 52.6779 34.5951C51.6226 35.8413 50.8357 37.3201 50.3818 38.8846C50.378 38.9088 50.3593 38.9224 50.3339 38.9266C50.7875 39.1885 51.2398 39.4584 51.6934 39.7203C53.4204 40.7458 55.1356 41.7941 56.8639 42.8115C57.5665 43.2202 58.2691 43.6289 58.9743 44.0215Z" fill="#0E5C9C"/>
<path d="M51.9605 35.3349C52.195 35.0001 52.4456 34.6679 52.7326 34.3662C52.9505 34.1362 53.2074 33.9207 53.4986 33.8015C52.353 33.116 51.2074 32.4306 50.0512 31.76C48.638 30.9412 47.2141 30.1373 45.764 29.3954C45.7559 29.3941 45.7479 29.3928 45.7398 29.3916C45.4116 29.2239 45.0753 29.055 44.7378 28.8941C44.271 28.6632 43.8018 28.4484 43.3219 28.2485C43.0624 28.4802 42.8178 28.7225 42.5948 28.9847C41.7689 29.9284 41.1039 31.0545 40.7235 32.2588C41.3485 32.8453 42.0107 33.4047 42.6768 33.9399C43.5317 34.6372 44.4265 35.2912 45.3438 35.9075C46.9399 36.9783 48.6034 37.9358 50.2576 38.9002L50.2602 38.884C50.3893 38.4334 50.5506 37.9878 50.7347 37.5542C51.0635 36.7798 51.4784 36.0355 51.9673 35.3443L51.9605 35.3349ZM49.8205 35.459C49.5447 35.4815 49.2757 35.3563 49.039 35.2362C48.8332 35.1292 48.6273 35.0222 48.4228 34.9072C47.3462 34.3071 46.2853 33.6598 45.2444 32.9909C45.0424 32.8597 44.8404 32.7286 44.6397 32.5894C44.4161 32.4383 44.1925 32.2872 44.038 32.0644C43.8822 31.8497 43.8103 31.5738 43.9465 31.3392C44.0152 31.2178 44.111 31.1338 44.2529 31.1232C44.3949 31.1126 44.5372 31.1517 44.6795 31.1907C44.8837 31.2561 45.076 31.3444 45.2683 31.4327C45.774 31.678 46.2572 31.9611 46.7298 32.259C47.7005 32.8507 48.638 33.495 49.5968 34.1096C49.7438 34.2237 49.8882 34.354 50.0058 34.4966C50.1506 34.6766 50.2865 34.9129 50.2321 35.1523C50.1854 35.3432 50.012 35.448 49.8205 35.459Z" fill="#0E5C9C"/>
<path d="M45.5637 33.0494C46.5454 33.6758 47.5308 34.2781 48.5468 34.8439C48.7285 34.947 48.9183 35.0514 49.1025 35.1384C49.3312 35.2573 49.6082 35.3838 49.8718 35.3346C50.0751 35.3007 50.1595 35.1322 50.1152 34.9434C50.0417 34.6259 49.7664 34.384 49.5238 34.1969C49.4416 34.1425 49.3514 34.0869 49.2693 34.0326C48.3495 33.4325 47.4403 32.8175 46.506 32.2564C46.0698 31.989 45.623 31.7364 45.163 31.5149C44.9869 31.4291 44.8094 31.3515 44.6281 31.298C44.5099 31.2627 44.3756 31.2249 44.2498 31.2381C44.0905 31.2542 44.0061 31.4227 43.9924 31.561C43.9575 31.886 44.2437 32.1628 44.4808 32.3325C44.8285 32.5859 45.1961 32.8176 45.5637 33.0494Z" fill="#A6AFBF"/>
<path d="M47.7646 21.6134C47.1533 21.5662 46.5492 21.421 45.9375 21.3242C45.9285 22.736 45.9209 24.1398 45.8958 25.5491C46.5437 25.4698 47.194 25.3744 47.8419 25.2951C47.863 24.067 47.8345 22.8394 47.7565 21.6121L47.7646 21.6134Z" fill="#A6AFBF"/>
<path d="M4.03972 34.1125C3.44117 33.9847 2.76468 33.828 2.27262 33.4444C2.11086 33.3196 2.00927 33.1795 1.95176 33.0217C1.91985 33.2232 1.90532 33.4193 1.88147 33.6221C1.84563 34.0049 1.80725 34.4038 1.8786 34.787C1.94319 35.1608 2.20487 35.3841 2.52505 35.5505C3.23531 35.9108 4.06944 36.0098 4.84595 36.1079C6.2702 36.2837 7.68768 36.4502 9.11447 36.61C12.5421 37.0037 15.9748 37.3652 19.4088 37.7187C23.0868 38.0942 26.7687 38.4456 30.4543 38.7727C33.652 39.0557 36.8522 39.3226 40.06 39.541C40.7129 39.5865 41.367 39.6239 42.0211 39.6614C42.5773 39.6915 43.1526 39.7578 43.709 39.631C45.0772 39.3269 45.3628 37.8349 45.4496 36.6089C45.2655 37.0426 44.9763 37.4101 44.544 37.6392C43.9757 37.9459 43.3101 37.9811 42.6788 37.9555C40.8199 37.8679 38.9575 37.6971 37.11 37.5369C34.0988 37.2752 31.0927 36.9812 28.0865 36.6872C24.1793 36.3002 20.2653 35.9038 16.362 35.4926C14.1548 35.259 11.9464 35.0334 9.74731 34.801C8.5874 34.6753 7.43426 34.5589 6.27435 34.4331C5.52748 34.3562 4.77933 34.2874 4.04394 34.1379L4.03972 34.1125Z" fill="#A6AFBF"/>
<path d="M8.87178 9.66981C9.27127 9.69998 9.66949 9.73822 10.0677 9.77645C13.059 10.0598 16.0503 10.3432 19.0417 10.6266C21.4564 10.8518 23.8711 11.0769 26.2859 11.3021C28.9768 11.5545 31.6597 11.8056 34.3507 12.058C36.1956 12.2343 38.0499 12.4038 39.8923 12.5962C40.8256 12.6944 41.7601 12.7844 42.6857 12.9309C42.7099 12.9348 42.7315 12.9547 42.7357 12.9802C42.7718 13.4818 42.7918 13.9808 42.8118 14.4798C42.8688 16.1005 42.8831 17.7308 42.8812 19.3587C42.8849 22.2023 42.8551 25.0488 42.8079 27.9009C42.9867 27.9705 43.1561 28.0469 43.3348 28.1165C43.3429 28.1178 43.3509 28.1191 43.367 28.1216C44.0621 28.4217 44.7533 28.746 45.4339 29.0851C45.5402 29.1433 45.6478 29.1934 45.746 29.2503C45.7841 27.2893 45.8142 25.3271 45.8282 23.3623C45.854 20.697 45.8638 18.0291 45.7985 15.3658C45.7714 14.1301 45.7374 12.885 45.5925 11.6637C45.5495 11.3098 45.507 10.8485 45.3318 10.5481C45.1104 10.1742 44.7204 9.9802 44.3252 9.81848C44.0859 9.71449 43.8508 9.63595 43.6132 9.57355C43.2171 9.46954 42.8066 9.40456 42.4029 9.34893C41.6611 9.23979 40.9062 9.16162 40.1606 9.07667C38.8867 8.94115 37.6116 8.81371 36.3352 8.69432C34.3602 8.50568 32.3771 8.31578 30.4008 8.1352C27.5315 7.86287 24.669 7.59988 21.7997 7.32754C17.8484 6.95834 13.8984 6.58107 9.95518 6.21314C8.41864 6.06911 5.94854 5.62029 5.18309 7.43305C4.90687 8.08355 4.88732 8.83253 4.7924 9.53653C4.73448 10.0067 4.66723 10.4837 4.60127 10.9526C4.26622 13.4864 3.92313 16.0189 3.59741 18.5459C3.23596 21.2986 2.88384 24.0446 2.56263 26.8037C2.34666 28.6373 2.09722 30.4739 2.01936 32.3211C2.00915 32.3856 2.01376 32.4607 2.01032 32.5345C2.01032 32.5345 2.00777 32.5507 2.0065 32.5587C2.00394 32.5748 2.00267 32.5829 2.00011 32.599C1.99619 32.7802 2.01768 32.9572 2.11799 33.1053C2.45957 33.6056 3.24619 33.7963 3.80323 33.9258C4.47972 34.0824 5.16898 34.1585 5.85018 34.2332C6.98595 34.3551 8.11366 34.4758 9.24943 34.5977C13.4773 35.0437 17.7052 35.4898 21.9356 35.9197C25.4273 36.274 28.9189 36.6283 32.4143 36.9584C34.9256 37.1989 37.4382 37.4313 39.9572 37.6234C40.7643 37.685 41.5713 37.7466 42.3809 37.7921C42.9693 37.8274 43.5684 37.8479 44.1337 37.6646C44.8727 37.4262 45.3196 36.844 45.5014 36.1125C45.4489 36.0794 45.4044 36.0475 45.3519 36.0144C44.5613 35.4843 43.7999 34.9258 43.0504 34.3443C42.9364 34.3346 42.8212 34.3328 42.7072 34.3231C41.3761 34.2364 40.0489 34.1254 38.7216 34.0145C37.8421 33.9415 36.9639 33.8603 36.0844 33.7872C36.078 33.8275 36.0179 33.8428 35.9827 33.8042C35.9827 33.8042 35.9692 33.7855 35.9624 33.7762C34.9622 33.684 33.97 33.5931 32.9698 33.5009C30.4814 33.2723 27.9955 33.0276 25.5096 32.7829C22.5276 32.4927 19.5481 32.1864 16.5687 31.8801C13.1186 31.5241 9.67106 31.152 6.22096 30.796C6.18877 30.7909 6.16845 30.7629 6.17356 30.7306C6.30236 29.3956 6.46463 28.0577 6.61757 26.7265C6.97068 23.7658 7.34794 20.8089 7.74257 17.8466C8.09764 15.1341 8.46203 12.4149 8.81838 9.69441C8.82348 9.66216 8.85146 9.6418 8.88365 9.64689L8.87178 9.66981ZM5.41681 20.9165C5.13333 20.9873 4.86694 20.846 4.72432 20.6003C4.5872 20.372 4.56453 20.0461 4.73964 19.8258C4.82062 19.7312 4.95412 19.6697 5.07446 19.6392C5.18675 19.6073 5.32191 19.5874 5.42821 19.6456C5.7858 19.6278 6.03933 20.0068 5.97896 20.3361C5.93429 20.6182 5.69901 20.8537 5.42486 20.9178L5.41681 20.9165Z" fill="#A6AFBF"/>
<path d="M35.3699 25.6846C36.2082 25.9661 37.0426 26.2717 37.8545 26.6151C38.0998 26.6291 38.3358 26.6499 38.5772 26.6882C39.8515 26.8733 41.1032 27.2532 42.3099 27.7087C42.4349 27.7533 42.5585 27.8059 42.6835 27.8505C42.6889 27.3472 42.7024 26.8452 42.7078 26.3419C41.854 25.1159 40.9536 23.9237 39.9986 22.7643C39.1409 21.7194 38.2447 20.7098 37.3111 19.7273C36.8585 19.2507 36.4085 18.758 35.9173 18.3166C35.665 18.0866 35.3634 17.9066 35.0189 18.0504C34.7371 18.1629 34.4883 18.3797 34.2471 18.5481C32.0698 20.0548 29.8912 21.5695 27.7138 23.0761C28.9364 24.5258 30.1218 26.0027 31.2872 27.5012C32.8856 29.5477 34.448 31.6132 36.0105 33.6787C37.1085 33.7781 38.2079 33.8695 39.3153 33.9621C40.5044 34.0594 41.7017 34.158 42.8946 34.2311C42.8502 34.1993 42.807 34.1594 42.7625 34.1276C41.9347 33.4676 41.1187 32.7847 40.3625 32.0369C39.6631 31.3477 38.9942 30.622 38.3986 29.85C37.899 29.2007 37.3479 28.4605 37.1552 27.6449C37.1391 27.6424 37.1218 27.6479 37.1069 27.6373C36.5019 27.0291 35.9168 26.3993 35.3304 25.7775C35.2885 25.7296 35.3242 25.6608 35.3873 25.6791L35.3699 25.6846Z" fill="#6EBE45"/>
<path d="M37.4016 27.5682C37.4016 27.5682 37.2855 27.6242 37.2643 27.6539C37.2524 27.6768 37.2566 27.7023 37.2676 27.7371C37.3213 27.9191 37.4004 28.0969 37.4796 28.2748C37.692 28.7051 37.959 29.1027 38.2435 29.4949C38.8543 30.3271 39.5423 31.0889 40.2688 31.8155C40.3903 31.9339 40.5038 32.051 40.6266 32.1613C40.7259 31.8465 40.8494 31.5354 40.989 31.227C41.5159 30.0872 42.2699 29.0247 43.2025 28.1888C43.0398 28.1218 42.8772 28.0547 42.7065 27.9864C42.2482 27.8064 41.7806 27.6332 41.3104 27.4761C40.174 27.0979 38.9858 26.7859 37.7835 26.7195C37.7986 26.9368 37.7574 27.1452 37.6289 27.3314C37.564 27.4286 37.4775 27.5058 37.3843 27.5737L37.4016 27.5682Z" fill="#0E5C9C"/>
<path d="M7.19025 22.906C7.17494 23.0028 7.15835 23.1076 7.15108 23.2056C7.20831 23.1568 7.27231 23.1174 7.32953 23.0686C7.42278 23.0007 7.51859 22.9167 7.61056 22.8568C7.87588 22.6922 8.16956 22.5569 8.44038 22.4097C9.04601 22.0758 9.64359 21.7406 10.2424 21.3974C11.4495 20.7041 12.643 19.9922 13.8432 19.2896C15.0261 18.5925 16.2184 17.8886 17.4135 17.2183C17.9844 16.8954 18.5621 16.5819 19.1384 16.2764C19.6428 16.0091 20.2005 15.7172 20.7782 15.9244C21.051 16.0254 21.2856 16.2113 21.4948 16.4014C21.7255 16.6115 21.9538 16.8377 22.1832 17.0558C22.6477 17.5095 23.1029 17.97 23.5499 18.4292C24.4429 19.3557 25.3146 20.3118 26.1689 21.2735C26.6664 21.8316 27.1452 22.4033 27.632 22.9762C28.882 22.1162 30.1251 21.2468 31.367 20.3855C31.932 19.9956 32.4983 19.5976 33.0713 19.209C33.6176 18.8326 34.1504 18.4376 34.7103 18.0799C34.9409 17.9264 35.196 17.8262 35.4726 17.9031C35.7721 17.9918 36.0071 18.2273 36.2205 18.4429C36.6985 18.9153 37.1672 19.3944 37.6253 19.8884C39.4682 21.8496 41.1755 23.938 42.715 26.1487C42.7297 24.9609 42.7432 23.7812 42.7579 22.5934C42.772 20.4717 42.778 18.3486 42.7438 16.2192C42.722 15.1579 42.7002 14.0966 42.6289 13.0357C42.5645 13.0255 42.5081 13.0166 42.4438 13.0064C41.4271 12.862 40.3959 12.7566 39.3728 12.6525C37.3923 12.4465 35.4161 12.2659 33.433 12.076C30.7823 11.83 28.1248 11.5747 25.4741 11.3287C22.995 11.0933 20.5146 10.866 18.0354 10.6307C16.5807 10.4913 15.1327 10.3613 13.6779 10.2219C12.0931 10.0703 10.504 9.89313 8.91406 9.77371C8.71439 11.2958 8.50539 12.8248 8.30572 14.3469C7.92896 17.1964 7.55219 20.0459 7.19153 22.898L7.19025 22.906ZM11.3803 12.2798C11.9885 11.9298 12.7706 11.8883 13.3686 12.2804C13.776 12.4689 14.0884 12.8407 14.2644 13.2404C14.4472 13.6495 14.4533 14.0803 14.2958 14.5016C14.1502 14.9001 13.8581 15.234 13.4818 15.4224C13.0521 15.6354 12.5021 15.7219 12.0285 15.6386C11.2812 15.5121 10.716 14.8606 10.5589 14.1333C10.3963 13.3885 10.7268 12.6557 11.3803 12.2798Z" fill="#77C3ED"/>
<path d="M35.5417 25.8596C36.0794 26.4241 36.6078 26.9953 37.156 27.5449C37.1641 27.5462 37.1696 27.5636 37.1683 27.5717C37.5218 27.3714 37.7245 27.0812 37.6849 26.6534C36.9806 26.3601 36.263 26.0978 35.543 25.8516L35.5417 25.8596Z" fill="#A6AFBF"/>
<path d="M7.70236 22.9415C7.50232 23.0586 7.32004 23.2199 7.13226 23.3637C6.81931 25.8101 6.5144 28.2577 6.27516 30.7075C6.68143 30.747 7.08642 30.7946 7.49269 30.8341C10.908 31.2011 14.3247 31.5601 17.7426 31.911C20.6657 32.2084 23.5807 32.5045 26.5051 32.7938C28.9266 33.0283 31.3481 33.2628 33.7709 33.4892C34.4707 33.5504 35.1613 33.6184 35.8611 33.6796C35.7109 33.4823 35.5606 33.2849 35.4103 33.0876C33.8466 31.0301 32.291 28.974 30.6899 26.9437C29.0619 24.876 27.3884 22.8343 25.6366 20.871C24.7674 19.8987 23.8863 18.9493 22.9693 18.019C22.5209 17.5679 22.0713 17.1248 21.6136 16.6805C21.3909 16.4717 21.1694 16.2548 20.895 16.1122C20.5896 15.9564 20.2693 15.947 19.9486 16.045C19.6451 16.1375 19.3718 16.3009 19.0929 16.4468C18.7967 16.5983 18.5072 16.7591 18.2097 16.9186C17.6134 17.2457 17.0251 17.5741 16.4437 17.9118C15.2633 18.5928 14.0885 19.2911 12.9149 19.9814C11.7494 20.673 10.5771 21.3552 9.39125 22.0188C9.11111 22.1728 8.83902 22.3281 8.55888 22.4821C8.27874 22.6361 7.97573 22.7782 7.69304 22.9483L7.70236 22.9415Z" fill="#6EBE45"/>
<path d="M13.3122 12.3745C12.6926 11.9624 11.8266 12.065 11.2526 12.5114C10.6893 12.9429 10.5007 13.6651 10.7338 14.3301C10.9765 15.0379 11.6117 15.56 12.3713 15.5562C12.8081 15.5592 13.3043 15.4477 13.6586 15.1897C13.985 14.9521 14.2004 14.5813 14.2791 14.1887C14.4168 13.475 13.9725 12.6856 13.3283 12.3771C13.3283 12.3771 13.3283 12.3771 13.3202 12.3758L13.3122 12.3745Z" fill="#F3D430"/>
<path d="M5.42827 19.76C5.42827 19.76 5.40412 19.7562 5.39607 19.7549C5.29782 19.698 5.1601 19.7341 5.05586 19.7672C4.94229 19.8071 4.84355 19.8575 4.78416 19.9721C4.68659 20.1715 4.7288 20.4262 4.85748 20.6036C5.00098 20.7916 5.23606 20.8701 5.45515 20.7891C5.67423 20.708 5.8468 20.5039 5.86771 20.2676C5.88989 20.0232 5.69476 19.7443 5.42827 19.76Z" fill="white"/>
<path d="M44.3063 37.1212C44.3063 37.1212 44.2883 37.1269 44.2786 37.1339C44.2786 37.1339 44.2786 37.1339 44.3063 37.1212Z" fill="#14202B"/>
<path d="M45.0164 11.0036C45.0164 11.0036 45.0207 11.029 45.0274 11.0384C45.0274 11.0384 45.0249 11.0545 45.0329 11.0558C45.0549 11.1254 44.9928 10.8924 45.0177 10.9955L45.0164 11.0036Z" fill="#14202B"/>
<path d="M44.9294 10.7644C44.9294 10.7644 44.9349 10.7818 44.9417 10.7911C44.9417 10.7911 44.9552 10.8098 44.9632 10.8111C45.0052 10.859 44.8896 10.6507 44.9374 10.7657L44.9294 10.7644Z" fill="#14202B"/>
<path d="M43.7877 10.1044C43.9046 10.1477 44.0135 10.1898 44.1223 10.2318C44.3777 10.3383 44.6679 10.4338 44.8304 10.6579C44.8643 10.7046 44.8981 10.7513 44.9239 10.7967C44.9239 10.7967 44.9184 10.7793 44.9117 10.77C44.8639 10.6549 44.9781 10.8714 44.9375 10.8154C44.9375 10.8154 44.9239 10.7967 44.9159 10.7954C44.9214 10.8128 44.9349 10.8315 44.9404 10.8489C44.9637 10.9104 44.9857 10.98 45.0009 11.0403C45.0022 11.0322 44.9967 11.0148 44.9899 11.0055C44.9662 10.8943 45.0271 11.1353 45.0051 11.0657C45.0051 11.0657 45.0077 11.0496 44.9996 11.0483C44.9971 11.0645 45.0038 11.0738 45.0093 11.0912C45.0246 11.1515 45.0317 11.2104 45.0469 11.2707C45.0722 11.4235 45.0908 11.5669 45.1161 11.7197C45.2679 12.9503 45.2937 14.1941 45.3222 15.4218C45.3874 18.085 45.3777 20.7529 45.3518 23.4183C45.3328 25.4153 45.3056 27.4111 45.2705 29.4055C45.2686 29.678 45.5837 29.8766 45.8273 29.849C46.1298 29.8143 46.2685 29.5635 46.2704 29.2911C46.3329 25.6645 46.3873 22.0367 46.368 18.4055C46.3561 16.5524 46.3441 14.6992 46.2237 12.8537C46.175 12.1187 46.1382 11.3608 45.9383 10.6432C45.8736 10.4263 45.7729 10.2286 45.6281 10.0486C45.2776 9.60472 44.6982 9.35598 44.1662 9.1726C43.821 9.06011 43.4719 8.9718 43.111 8.90641C42.5421 8.79984 41.96 8.72424 41.3835 8.66603C40.3468 8.54328 39.3157 8.43792 38.2753 8.33936C36.5938 8.1724 34.9192 8.01477 33.2445 7.85715C30.7239 7.62347 28.2045 7.38174 25.6839 7.14806C22.1389 6.81836 18.5858 6.48739 15.0421 6.14963C13.9694 6.04597 12.8874 5.9491 11.8148 5.84543C10.7341 5.7405 9.6572 5.61137 8.57012 5.54675C7.74443 5.49871 6.86956 5.50073 6.09235 5.824C5.15751 6.20497 4.62657 7.00524 4.42258 7.98123C4.30528 8.56598 4.25236 9.16092 4.1753 9.75204C4.11355 10.2464 4.04376 10.7395 3.98201 11.2339C3.82151 12.4564 3.65423 13.6696 3.49373 14.8922C3.11952 17.7255 2.74531 20.5589 2.39524 23.3961C2.10054 25.7792 1.7978 28.1611 1.57681 30.5477C1.50858 31.2393 1.44713 31.9404 1.43652 32.6329C1.42817 33.1027 1.60543 33.4944 1.98019 33.7851C2.5383 34.2206 3.2834 34.4129 3.96245 34.5534C4.69783 34.7029 5.44598 34.7717 6.19285 34.8486C7.35277 34.9743 8.50463 35.0988 9.66582 35.2165C11.873 35.4501 14.0801 35.6837 16.2805 35.9081C20.1851 36.3112 24.0978 36.7156 28.005 37.1026C31.0112 37.3966 34.0173 37.6906 37.0286 37.9524C38.8841 38.1138 40.7384 38.2834 42.5973 38.371C43.3104 38.4012 44.0577 38.3707 44.6968 38.0339C45.4347 37.6465 45.8461 36.9761 46.0381 36.18C46.1043 35.9178 45.8757 35.6419 45.6182 35.6011C45.3284 35.5553 45.1075 35.7517 45.04 36.022C44.9661 36.3326 44.8291 36.625 44.6192 36.8563C44.5488 36.936 44.4916 36.9848 44.3449 37.0773C44.3449 37.0773 44.2716 37.1236 44.2636 37.1223C44.2716 37.1236 44.2809 37.1168 44.2903 37.11C44.2636 37.1223 44.2636 37.1223 44.2636 37.1223C44.2449 37.1359 44.2195 37.1401 44.2009 37.1537C44.1208 37.1906 44.0326 37.2262 43.9457 37.2538C43.7025 37.331 43.3076 37.3759 42.9687 37.3802C42.8119 37.3801 42.6243 37.367 42.4273 37.3606C41.6177 37.3151 40.8106 37.2535 40.0036 37.1918C37.4859 36.9917 34.9733 36.7593 32.4607 36.5269C28.9652 36.1968 25.4736 35.8425 21.982 35.4882C17.7516 35.0582 13.5237 34.6122 9.29578 34.1661C8.16002 34.0442 7.0323 33.9236 5.89653 33.8017C5.20728 33.7256 4.51803 33.6496 3.84958 33.4942C3.76105 33.4802 3.67506 33.4501 3.59585 33.4292C3.5717 33.4254 3.54756 33.4216 3.52469 33.4097C3.52469 33.4097 3.52469 33.4097 3.49249 33.4046C3.50054 33.4059 3.50859 33.4072 3.52469 33.4097C3.51664 33.4084 3.43065 33.3783 3.4226 33.377C3.26546 33.3274 3.10958 33.2696 2.95627 33.1958C2.89443 33.1695 2.83386 33.1351 2.7733 33.1007C2.75043 33.0888 2.72756 33.0769 2.70469 33.0651C2.71951 33.0757 2.72629 33.085 2.67377 33.0519C2.68182 33.0532 2.69792 33.0557 2.70469 33.0651C2.69664 33.0638 2.68182 33.0532 2.6831 33.0451C2.63186 33.0039 2.58062 32.9628 2.52939 32.9216C2.52939 32.9216 2.53616 32.9309 2.54421 32.9322C2.53066 32.9135 2.46333 32.8698 2.52939 32.9216C2.50907 32.8936 2.49552 32.8749 2.47393 32.855C2.41592 32.8045 2.50141 32.942 2.47393 32.855C2.46843 32.8376 2.45616 32.8108 2.45067 32.7934C2.49974 32.9004 2.45067 32.7934 2.45832 32.7451C2.45666 32.7035 2.45499 32.6619 2.4546 32.6122C2.46225 32.5639 2.45254 32.521 2.45214 32.4714C2.45077 32.6364 2.44959 32.4875 2.46363 32.3988C2.54022 30.5596 2.79093 28.715 3.0069 26.8814C3.32811 24.1223 3.68024 21.3763 4.04169 18.6236C4.36868 16.0885 4.7105 13.5641 5.04554 11.0303C5.11151 10.5614 5.1707 10.0831 5.23667 9.61424C5.32394 8.95862 5.33838 8.24189 5.59212 7.62915C5.89465 6.91669 6.54769 6.64815 7.27051 6.56421C8.14587 6.45482 8.99905 6.58986 9.8853 6.67229C13.8353 7.04955 17.7866 7.41876 21.7298 7.78669C24.5991 8.05903 27.4617 8.32202 30.331 8.59435C32.3072 8.77493 34.2903 8.96483 36.2653 9.15347C37.5417 9.27286 38.8169 9.4003 40.0907 9.53582C40.8376 9.61271 41.5832 9.69766 42.333 9.80808C42.7355 9.87178 43.146 9.93675 43.5433 10.0327C43.6157 10.0442 43.6776 10.0705 43.7487 10.09C43.4937 10.0331 43.7326 10.0875 43.8038 10.107L43.7877 10.1044Z" fill="#14202B"/>
<path d="M2.71842 33.0757C2.71842 33.0757 2.69427 33.0718 2.6875 33.0625C2.74001 33.0956 2.73196 33.0943 2.71842 33.0757Z" fill="#14202B"/>
<path d="M2.47329 32.8556C2.41528 32.8051 2.50077 32.9426 2.47329 32.8556V32.8556Z" fill="#14202B"/>
<path d="M2.54366 32.9395C2.54366 32.9395 2.53561 32.9382 2.52884 32.9289C2.46278 32.8771 2.52884 32.9289 2.54366 32.9395Z" fill="#14202B"/>
<path d="M42.5896 13.4861C42.4477 13.3397 42.3059 13.1933 42.1641 13.0469C42.1771 13.1729 42.1808 13.3057 42.1858 13.4305C42.2422 13.4394 42.2985 13.4483 42.3629 13.4585C42.4354 13.47 42.5158 13.4827 42.5883 13.4942L42.5896 13.4861Z" fill="#14202B"/>
<path d="M6.71295 30.8335C6.73298 30.6549 6.75173 30.4843 6.76371 30.3044C6.61078 30.2802 6.44725 30.2708 6.29305 30.2547C6.43527 30.4507 6.57073 30.6375 6.71295 30.8335Z" fill="#14202B"/>
<path d="M17.963 11.0832C20.4421 11.3185 22.9225 11.5458 25.4016 11.7812C28.0524 12.0272 30.7031 12.2732 33.3525 12.5273C35.3275 12.7159 37.3038 12.8965 39.2843 13.1025C40.251 13.1977 41.2245 13.3022 42.1849 13.4376C42.1799 13.3129 42.1681 13.1788 42.1631 13.054C42.3049 13.2004 42.4468 13.3469 42.5886 13.4933C42.5162 13.4818 42.4357 13.4691 42.3632 13.4576C42.3069 13.4487 42.2506 13.4398 42.1862 13.4296C42.2419 14.3806 42.2642 15.3345 42.2877 16.2804C42.3232 18.4018 42.3185 20.5167 42.3044 22.6385C42.2944 24.4221 42.2682 26.2031 42.2421 27.9841C42.2402 28.2565 42.5553 28.4552 42.7989 28.4276C43.1015 28.3928 43.2402 28.1421 43.242 27.8696C43.2905 25.0095 43.3228 22.1468 43.3217 19.2871C43.3223 17.6673 43.3068 16.045 43.2498 14.4244C43.2298 13.9253 43.2097 13.4263 43.1736 12.9247C43.1585 12.7074 42.9654 12.5198 42.7481 12.4855C41.8225 12.3389 40.896 12.2502 39.9627 12.152C38.1204 11.9596 36.2835 11.7845 34.4385 11.6082C31.7556 11.3571 29.0647 11.1048 26.3817 10.8537C23.967 10.6285 21.5523 10.4033 19.1375 10.1781C16.1382 9.89349 13.1295 9.61562 10.1301 9.33097C9.73189 9.29273 9.33494 9.24643 8.93417 9.22432C8.66473 9.20647 8.39391 9.35369 8.35602 9.64522C8.00095 12.3576 7.62979 15.0675 7.28149 17.7893C6.89363 20.761 6.5151 23.7259 6.15266 26.6934C5.99294 28.0153 5.84 29.3464 5.70443 30.6721C5.67969 30.9327 5.84007 31.2225 6.12433 31.251C9.55705 31.6125 12.9885 31.9821 16.4144 32.3342C19.4019 32.6418 22.3894 32.9494 25.3782 33.2489C27.8387 33.4978 30.3004 33.7387 32.7635 33.9715C34.6821 34.1512 36.5927 34.3297 38.5059 34.492C39.8251 34.6016 41.1363 34.71 42.4581 34.8035C42.572 34.8133 42.6953 34.8162 42.8093 34.826C43.0787 34.8439 43.3415 34.6954 43.3874 34.4051C43.427 34.1552 43.245 33.8454 42.9675 33.8263C41.7262 33.7455 40.4794 33.6473 39.242 33.5424C37.3932 33.3902 35.5483 33.2139 33.7101 33.047C31.3114 32.8243 28.9153 32.5856 26.5193 32.3468C23.5949 32.0575 20.6637 31.7589 17.7419 31.4534C14.3401 31.1051 10.9489 30.7419 7.5484 30.3854C7.28023 30.3595 7.0214 30.3268 6.75323 30.3009C6.73321 30.4796 6.71446 30.6502 6.70248 30.8301C6.56025 30.634 6.4248 30.4473 6.28257 30.2512C6.43678 30.2674 6.59903 30.2848 6.75323 30.3009C7.0073 27.8617 7.31093 25.4222 7.62133 22.9919C7.98327 20.1318 8.35327 17.273 8.74063 14.4086C8.92666 13.0248 9.11268 11.641 9.29066 10.256C9.11908 10.2453 8.94878 10.2266 8.7772 10.216C8.97303 10.0735 9.15953 9.93769 9.35535 9.79512C9.3311 9.94831 9.30686 10.1015 9.29066 10.256C10.7332 10.3686 12.1748 10.5389 13.6147 10.6677C15.0615 10.8057 16.5082 10.9438 17.9562 11.0738L17.963 11.0832Z" fill="#14202B"/>
<path d="M8.78416 10.2186C8.95574 10.2293 9.12604 10.2479 9.29762 10.2586C9.32186 10.1054 9.34611 9.9522 9.36231 9.79774C9.16648 9.9403 8.97998 10.0761 8.78416 10.2186Z" fill="#14202B"/>
<path d="M2.33649 34.7611C2.33649 34.7611 2.33099 34.7437 2.32422 34.7344C2.33394 34.7772 2.34071 34.7866 2.33649 34.7611Z" fill="#14202B"/>
<path d="M2.61008 35.0702C2.61008 35.0702 2.59399 35.0677 2.58594 35.0664C2.63168 35.0902 2.62363 35.0889 2.61008 35.0702Z" fill="#14202B"/>
<path d="M2.3974 34.9035C2.3974 34.9035 2.38202 34.8925 2.375 34.8828C2.38335 34.8841 2.39037 34.8938 2.3974 34.9035Z" fill="#14202B"/>
<path d="M44.1145 39.0181C44.1145 39.0181 44.0878 39.0304 44.0704 39.0359C44.0704 39.0359 44.0704 39.0359 44.1145 39.0181Z" fill="#14202B"/>
<path d="M42.7657 39.2342C42.7013 39.224 42.6263 39.2287 42.5606 39.2266C42.4052 39.2185 42.2497 39.2104 42.0942 39.2023C41.4401 39.1649 40.786 39.1275 40.1331 39.082C36.9333 38.8648 33.7331 38.598 30.5355 38.315C26.8498 37.9878 23.176 37.6377 19.498 37.2622C16.0627 36.9168 12.6313 36.5472 9.20369 36.1535C7.77689 35.9938 6.35941 35.8273 4.93517 35.6514C4.1667 35.5546 3.38086 35.4632 2.7244 35.1279C2.68671 35.1054 2.64774 35.091 2.61809 35.0698C2.63419 35.0723 2.64096 35.0817 2.59395 35.066C2.59395 35.066 2.61005 35.0685 2.61809 35.0698C2.602 35.0672 2.5804 35.0473 2.57363 35.038C2.51434 34.9955 2.46311 34.9543 2.4051 34.9038C2.4051 34.9038 2.39705 34.9026 2.3835 34.8839C2.3835 34.8839 2.39832 34.8945 2.4051 34.9038C2.44151 34.9344 2.33825 34.7528 2.3835 34.8839C2.37928 34.8584 2.35769 34.8385 2.35347 34.813C2.34797 34.7956 2.34247 34.7782 2.33698 34.7608C2.3412 34.7863 2.33443 34.777 2.32471 34.7341C2.32343 34.7422 2.33021 34.7515 2.33698 34.7608C2.33698 34.7608 2.33953 34.7447 2.33403 34.7273C2.28938 34.3318 2.29547 34.0848 2.33385 33.6859C2.36458 33.3354 2.41945 32.9887 2.44891 32.6463C2.47492 32.3777 2.31071 32.112 2.029 32.0674C1.77144 32.0266 1.47815 32.2116 1.45085 32.4883C1.38596 33.2632 1.19268 34.0673 1.32606 34.8405C1.39487 35.2398 1.57429 35.5657 1.90714 35.8085C2.26285 36.0632 2.6593 36.2168 3.07823 36.3327C3.8517 36.5543 4.64814 36.6308 5.44203 36.7234C6.15416 36.8113 6.87433 36.9005 7.58773 36.9804C11.006 37.3809 14.4294 37.7492 17.8634 38.1027C21.638 38.4935 25.4084 38.8589 29.1826 39.2C32.5505 39.5017 35.9198 39.7953 39.2911 40.0231C39.9842 40.075 40.6786 40.1188 41.3729 40.1626C42.0109 40.1974 42.668 40.2684 43.3082 40.2375C43.8734 40.2112 44.4577 40.064 44.8968 39.6873C45.4492 39.2209 45.7144 38.5356 45.8644 37.8486C45.9626 37.3848 46.0124 36.9134 46.0288 36.4449C46.0388 36.1737 45.8987 35.9119 45.6089 35.866C45.3594 35.8265 45.042 36.0077 45.0308 36.2869C45.0038 36.7703 44.9607 37.251 44.8625 37.7149C44.7967 38.0267 44.7165 38.2207 44.5557 38.5589C44.5557 38.5589 44.5544 38.5669 44.5531 38.575C44.5056 38.6666 44.5955 38.5156 44.5531 38.575C44.5412 38.5979 44.52 38.6276 44.5001 38.6492C44.467 38.7019 44.4272 38.7451 44.3873 38.7884C44.3568 38.8249 44.2411 38.9306 44.3369 38.8465C44.289 38.8885 44.233 38.9293 44.1771 38.97C44.1491 38.9904 44.0864 39.0218 44.0771 39.0286C44.0944 39.023 44.1038 39.0163 44.1211 39.0107C44.0851 39.0298 44.0758 39.0366 44.0771 39.0286C44.041 39.0477 43.997 39.0655 43.9529 39.0833C43.8995 39.1079 43.8393 39.1232 43.7779 39.1465C43.7605 39.152 43.7351 39.1563 43.7084 39.1686C43.8474 39.1244 43.7003 39.1673 43.6656 39.1783C43.4194 39.222 43.1703 39.2322 42.9224 39.2342C42.9224 39.2342 42.9144 39.233 42.8822 39.2279C42.8983 39.2304 42.9063 39.2317 42.9224 39.2342C42.9224 39.2342 42.7911 39.23 42.767 39.2262L42.7657 39.2342Z" fill="#14202B"/>
<path d="M44.5462 38.5743C44.5068 38.6673 44.5899 38.5069 44.5462 38.5743V38.5743Z" fill="#14202B"/>
<path d="M5.19055 20.6234C5.19055 20.6234 5.19055 20.6234 5.1825 20.6222C5.15031 20.6171 5.24434 20.6485 5.1986 20.6247L5.19055 20.6234Z" fill="#14202B"/>
<path d="M5.12084 20.5891C5.12084 20.5891 5.12084 20.5891 5.10547 20.5781C5.10547 20.5781 5.10547 20.5781 5.12084 20.5891Z" fill="#14202B"/>
<path d="M5.0555 20.5473C5.0555 20.5473 5.0555 20.5473 5.04873 20.5379C5.02036 20.5087 5.06355 20.5485 5.06228 20.5566L5.0555 20.5473Z" fill="#14202B"/>
<path d="M4.92903 20.3128C4.92903 20.3128 4.93167 20.2961 4.93473 20.3308C4.93473 20.3308 4.93605 20.3225 4.93737 20.3141L4.92903 20.3128Z" fill="#14202B"/>
<path d="M4.9831 20.4417C4.9831 20.4417 4.9831 20.4417 4.98438 20.4336C5.00342 20.4697 5.00214 20.4777 4.99792 20.4523L4.9831 20.4417Z" fill="#14202B"/>
<path d="M5.625 20.0742C5.625 20.0742 5.625 20.0742 5.62368 20.0826C5.6364 20.1103 5.63773 20.1019 5.625 20.0742Z" fill="#14202B"/>
<path d="M5.67712 20.2232C5.67712 20.2232 5.67712 20.2232 5.67584 20.2313C5.68429 20.2822 5.68605 20.1668 5.67712 20.2232Z" fill="#14202B"/>
<path d="M5.66148 20.321C5.65255 20.3774 5.68651 20.2671 5.66148 20.321V20.321Z" fill="#14202B"/>
<path d="M5.54289 20.5068C5.54289 20.5068 5.54289 20.5068 5.53357 20.5136C5.51364 20.5352 5.52296 20.5285 5.54417 20.4988L5.54289 20.5068Z" fill="#14202B"/>
<path d="M5.33735 20.6236C5.33735 20.6236 5.35472 20.618 5.3454 20.6248C5.33735 20.6236 5.29327 20.6414 5.33735 20.6236Z" fill="#14202B"/>
<path d="M5.6242 20.3934C5.6242 20.3934 5.6136 20.4083 5.60427 20.4151C5.60555 20.407 5.61615 20.3921 5.62547 20.3854L5.6242 20.3934Z" fill="#14202B"/>
<path d="M4.9603 20.051C4.9603 20.051 4.9603 20.051 4.96158 20.0429C4.96158 20.0429 4.96158 20.0429 4.96285 20.0349C4.97473 20.012 4.96541 20.0187 4.95225 20.0497L4.9603 20.051Z" fill="#14202B"/>
<path d="M5.9862 19.7172C5.8321 19.5441 5.61822 19.4358 5.38392 19.4566C5.35172 19.4515 5.32375 19.4719 5.29705 19.4842C5.3051 19.4855 5.3212 19.488 5.32797 19.4973C5.44782 19.5742 5.51172 19.6917 5.45655 19.8318C5.44084 19.8789 5.40099 19.9221 5.3476 19.9467C5.37979 19.9518 5.41199 19.9569 5.44418 19.962C5.44418 19.962 5.44418 19.962 5.45223 19.9633C5.45223 19.9633 5.45223 19.9633 5.43613 19.9608C5.44418 19.962 5.46028 19.9646 5.46833 19.9658C5.46833 19.9658 5.48442 19.9684 5.49247 19.9697C5.49247 19.9697 5.47638 19.9671 5.46833 19.9658C5.47638 19.9671 5.49247 19.9697 5.50052 19.9709C5.51662 19.9735 5.53144 19.9841 5.54626 19.9947L5.55431 19.996C5.55431 19.996 5.55431 19.996 5.54626 19.9947C5.56786 20.0147 5.59622 20.0439 5.60427 20.0452C5.60427 20.0452 5.60427 20.0452 5.59622 20.0439C5.59622 20.0439 5.59622 20.0439 5.603 20.0533C5.61105 20.0546 5.61654 20.072 5.62331 20.0813C5.62331 20.0813 5.62331 20.0813 5.63009 20.0906C5.63009 20.0906 5.63009 20.0906 5.63136 20.0826C5.65168 20.1106 5.65041 20.1186 5.63009 20.0906C5.63009 20.0906 5.63558 20.108 5.64363 20.1093C5.64913 20.1267 5.65463 20.1441 5.6614 20.1534L5.66012 20.1615C5.6614 20.1534 5.64785 20.1348 5.6559 20.136C5.6559 20.136 5.65463 20.1441 5.66012 20.1615C5.65629 20.1857 5.66729 20.2205 5.66601 20.2285C5.66601 20.2285 5.66601 20.2285 5.66729 20.2205C5.67622 20.164 5.67445 20.2795 5.66601 20.2285C5.66601 20.2285 5.66346 20.2447 5.66218 20.2527C5.65835 20.2769 5.65453 20.3011 5.65197 20.3172C5.64176 20.3817 5.67573 20.2714 5.65197 20.3172C5.6507 20.3253 5.64942 20.3334 5.64814 20.3414C5.64432 20.3656 5.61507 20.394 5.61124 20.4182C5.61251 20.4102 5.62184 20.4034 5.63116 20.3966C5.62989 20.4047 5.61929 20.4195 5.60996 20.4263C5.60868 20.4344 5.59936 20.4411 5.59003 20.4479C5.57011 20.4696 5.55951 20.4844 5.53958 20.5061C5.51033 20.5345 5.51033 20.5345 5.52898 20.5209C5.52898 20.5209 5.52898 20.5209 5.53831 20.5141C5.53831 20.5141 5.51966 20.5277 5.51838 20.5358C5.49845 20.5574 5.47175 20.5697 5.44378 20.5901C5.44378 20.5901 5.39716 20.624 5.43445 20.5969C5.47175 20.5697 5.43445 20.5969 5.42641 20.5956C5.39971 20.6079 5.38233 20.6134 5.35563 20.6257C5.36368 20.627 5.37173 20.6283 5.34759 20.6244C5.30479 20.6342 5.34759 20.6244 5.35563 20.6257C5.35563 20.6257 5.33954 20.6232 5.33021 20.6299C5.31411 20.6274 5.29674 20.6329 5.28064 20.6304C5.28064 20.6304 5.28064 20.6304 5.26455 20.6278C5.26455 20.6278 5.26455 20.6278 5.2565 20.6265C5.24845 20.6253 5.23235 20.6227 5.2243 20.6215C5.21625 20.6202 5.2082 20.6189 5.19211 20.6164C5.19211 20.6164 5.19211 20.6164 5.20015 20.6176C5.24717 20.6333 5.15186 20.61 5.18406 20.6151C5.15991 20.6113 5.14509 20.6006 5.13027 20.59L5.1074 20.5782C5.1235 20.5807 5.15186 20.61 5.12222 20.5888C5.10612 20.5862 5.1074 20.5782 5.1074 20.5782C5.09258 20.5675 5.07098 20.5476 5.05616 20.537C5.05616 20.537 5.06421 20.5383 5.06293 20.5463C5.06293 20.5463 5.01975 20.5064 5.04939 20.5276C5.04939 20.5276 5.03457 20.517 5.02779 20.5077C5.01425 20.489 5.0007 20.4704 4.98716 20.4517C4.98716 20.4517 4.98039 20.4423 4.97361 20.433C4.97361 20.433 4.97361 20.433 4.97234 20.4411C4.98461 20.4678 4.97783 20.4585 4.95879 20.4224C4.95879 20.4224 4.96007 20.4143 4.95329 20.405C4.93975 20.3863 4.93553 20.3609 4.92326 20.3341C4.92326 20.3341 4.92581 20.318 4.91904 20.3087C4.90932 20.2658 4.90932 20.2658 4.91354 20.2913C4.91354 20.2913 4.91227 20.2993 4.91099 20.3074C4.91354 20.2913 4.90255 20.2565 4.89705 20.2391C4.89833 20.231 4.89961 20.2229 4.90088 20.2149C4.90216 20.2068 4.90471 20.1907 4.90599 20.1826C4.90599 20.1826 4.90343 20.1988 4.90216 20.2068C4.90599 20.1826 4.90981 20.1584 4.91492 20.1262C4.9162 20.1181 4.91875 20.102 4.92002 20.0939C4.92002 20.0939 4.92002 20.0939 4.9213 20.0859C4.9264 20.0536 4.92513 20.0617 4.92258 20.0778C4.9264 20.0536 4.93701 20.0388 4.94888 20.0159C4.94888 20.0159 4.94888 20.0159 4.94761 20.0239C4.97009 19.9862 4.97009 19.9862 4.95821 20.0091C4.95821 20.0091 4.95821 20.0091 4.95693 20.0171C4.95821 20.0091 4.96881 19.9942 4.97813 19.9874C4.97941 19.9794 4.99934 19.9577 5.00866 19.9509C5.00866 19.9509 4.99806 19.9658 4.98874 19.9726C4.99001 19.9645 5.00738 19.959 5.01671 19.9522C5.01543 19.9603 5.05273 19.9331 5.06078 19.9344L5.05273 19.9331C5.05273 19.9331 5.05273 19.9331 5.06078 19.9344C5.06078 19.9344 5.06078 19.9344 5.06883 19.9357C5.06883 19.9357 5.06883 19.9357 5.07688 19.9369C5.06078 19.9344 5.06078 19.9344 5.07688 19.9369C5.10103 19.9408 5.10103 19.9408 5.07688 19.9369C5.07688 19.9369 5.07688 19.9369 5.08493 19.9382C5.08493 19.9382 5.08493 19.9382 5.06883 19.9357C5.07688 19.9369 5.08493 19.9382 5.0917 19.9476C5.15904 19.9913 5.24463 19.9718 5.31668 19.9336C5.22137 19.9102 5.15236 19.8249 5.13548 19.7231C5.1186 19.6212 5.18348 19.5241 5.26613 19.471C5.08189 19.384 4.85859 19.4396 4.70939 19.5482C4.56019 19.6568 4.45967 19.8227 4.41422 20.0056C4.33903 20.3243 4.45956 20.6574 4.67973 20.8824C4.90666 21.1166 5.28495 21.1765 5.57864 21.0412C5.87233 20.9058 6.12459 20.6152 6.14472 20.2795C6.1618 20.0673 6.10517 19.8518 5.95656 19.696L5.9862 19.7172Z" fill="#14202B"/>
<path d="M5.1565 19.7366C5.17338 19.8384 5.24239 19.9237 5.3377 19.9471C5.38304 19.9212 5.4229 19.8779 5.44665 19.8321C5.50182 19.6921 5.43919 19.5664 5.31807 19.4977C5.31002 19.4964 5.29392 19.4939 5.28715 19.4845C5.19645 19.5363 5.13962 19.6347 5.1565 19.7366Z" fill="#14202B"/>
<path d="M5.08594 19.9375L5.08461 19.9459L5.09296 19.9472L5.08461 19.9459L5.08594 19.9375Z" fill="#14202B"/>
<path d="M5.04029 19.9583C5.04996 19.9513 5.07898 19.9301 5.04029 19.9583V19.9583Z" fill="#14202B"/>
<path d="M5.08594 19.9375L5.08461 19.9459L5.09296 19.9472L5.09429 19.9388L5.08594 19.9375Z" fill="#14202B"/>
<path d="M47.3164 21.6133C47.3282 21.7474 47.3306 21.8883 47.3424 22.0224C47.4725 22.0347 47.6106 22.0483 47.7419 22.0525C47.6001 21.9061 47.4582 21.7597 47.3164 21.6133Z" fill="#14202B"/>
<path d="M47.8482 24.8397C47.705 24.8583 47.5538 24.8757 47.4105 24.8944C47.4079 25.0675 47.4065 25.2326 47.4039 25.4057C47.5485 25.222 47.7024 25.0315 47.8469 24.8477L47.8482 24.8397Z" fill="#14202B"/>
<path d="M47.8485 24.8383C47.7039 25.0221 47.55 25.2126 47.4054 25.3963C47.4081 25.2232 47.4094 25.0581 47.4121 24.885C46.9744 24.9396 46.538 24.9863 46.1003 25.041C45.8393 25.074 45.6095 25.3269 45.6572 25.5989C45.6969 25.8697 45.9357 26.081 46.2141 26.0425C46.8017 25.9784 47.3826 25.9051 47.9703 25.8411C48.2648 25.805 48.4115 25.5555 48.4134 25.2831C48.4396 24.0228 48.4082 22.7616 48.3272 21.5008C48.3176 21.301 48.1148 21.0705 47.9017 21.0616C47.4031 21.0322 46.9083 20.9787 46.4093 20.8997C46.1517 20.859 45.8665 21.0452 45.8311 21.3206C45.7971 21.588 45.9693 21.8549 46.251 21.8995C46.6132 21.9568 46.978 21.998 47.336 22.0299C47.3242 21.8958 47.3217 21.7549 47.31 21.6208C47.4518 21.7672 47.5936 21.9136 47.7355 22.0601C47.6041 22.0558 47.466 22.0422 47.336 22.0299C47.3917 22.9809 47.414 23.9348 47.4028 24.8917C47.546 24.8731 47.6972 24.8557 47.8404 24.837L47.8485 24.8383Z" fill="#14202B"/>
<path d="M50.7388 12.7513L50.7265 12.7751C50.7265 12.7751 50.7291 12.7584 50.7388 12.7513Z" fill="#14202B"/>
<path d="M49.9555 15.3037C49.9555 15.3037 49.9555 15.3037 49.9568 15.2956C49.958 15.2875 49.9606 15.2714 49.9619 15.2633C49.9628 15.2056 49.9542 15.3117 49.9542 15.3117L49.9555 15.3037Z" fill="#14202B"/>
<path d="M50.3525 17.0191C50.3144 16.9469 50.377 17.0726 50.3525 17.0191V17.0191Z" fill="#14202B"/>
<path d="M50.4112 22.5345C50.3615 22.5781 50.4015 22.5415 50.4112 22.5345V22.5345Z" fill="#14202B"/>
<path d="M51.0845 21.4157C51.0845 21.4157 51.062 21.4535 51.0688 21.4628C51.0714 21.4467 51.0752 21.4225 51.0845 21.4157Z" fill="#14202B"/>
<path d="M50.7996 22.0578C50.7746 22.1117 50.8526 21.9836 50.7996 22.0578V22.0578Z" fill="#14202B"/>
<path d="M49.8429 22.947C49.8963 22.9224 49.8429 22.947 49.8255 22.9526C49.8175 22.9513 49.8162 22.9594 49.8429 22.947Z" fill="#14202B"/>
<path d="M48.6837 23.2772C48.6422 23.2789 48.6007 23.2806 48.5511 23.281C48.535 23.2785 48.527 23.2772 48.5109 23.2746C48.5109 23.2746 48.5109 23.2746 48.5189 23.2759C48.5189 23.2759 48.5189 23.2759 48.5109 23.2746C48.5109 23.2746 48.5028 23.2734 48.4948 23.2721C48.4371 23.2712 48.4706 23.2683 48.5028 23.2734C48.4304 23.2619 48.3312 23.2627 48.2575 23.2593C48.169 23.2453 48.0885 23.2326 48 23.2186C47.7437 23.1697 47.4546 23.3802 47.4218 23.6395C47.3932 23.9242 47.5626 24.1576 47.8417 24.2183C49.3756 24.5355 51.0081 23.7608 51.7609 22.3923C52.1308 21.7236 52.261 20.9012 52.1572 20.1492C52.1087 19.7779 52.0026 19.4058 51.8419 19.0663C51.654 18.6894 51.4089 18.3614 51.1371 18.0456C50.8789 17.7485 50.6193 17.4595 50.4158 17.1298C50.3967 17.0937 50.3777 17.0576 50.3506 17.0203C50.3125 16.9481 50.3751 17.0737 50.3506 17.0203C50.3506 17.0203 50.3451 17.0029 50.3383 16.9935C50.3002 16.9214 50.2622 16.8493 50.2334 16.7703C50.1666 16.6192 50.1171 16.4626 50.0757 16.3073C50.0769 16.2993 50.0702 16.2899 50.0647 16.2725C50.0647 16.2725 50.0647 16.2725 50.066 16.2645C50.066 16.2645 50.0672 16.2564 50.0685 16.2483C50.0478 16.1707 50.0698 16.2403 50.066 16.2645C50.063 16.2309 50.0452 16.1868 50.0423 16.1533C50.0216 16.0756 50.0102 15.9912 49.9975 15.9148C49.9735 15.754 49.9588 15.5863 49.9602 15.4213C49.9665 15.381 49.9568 15.3381 49.9551 15.2965C49.9551 15.2965 49.9564 15.2884 49.9577 15.2804C49.9577 15.2804 49.9577 15.2804 49.9564 15.2884C49.9564 15.2884 49.9569 15.1811 49.9641 15.2401C49.9628 15.2481 49.9603 15.2643 49.959 15.2723C49.9717 15.1917 49.9697 15.1005 49.9744 15.0186C49.9919 14.856 50.0106 14.6854 50.0442 14.5255C50.071 14.3561 50.1207 14.1987 50.1636 14.032C50.161 14.0481 50.1584 14.0642 50.1559 14.0803C50.1559 14.0803 50.178 13.9929 50.1636 14.032L50.1661 14.0158C50.1712 13.9836 50.1856 13.9445 50.1988 13.9136C50.2289 13.8274 50.2591 13.7413 50.2892 13.6551C50.414 13.336 50.5696 13.0301 50.7482 12.736C50.7482 12.736 50.7482 12.736 50.7469 12.7441C50.7469 12.7441 50.7469 12.7441 50.7456 12.7522C50.7456 12.7522 50.7431 12.7683 50.7338 12.7751C50.7338 12.7751 50.735 12.767 50.7456 12.7522C50.7456 12.7522 50.7456 12.7522 50.7469 12.7441C50.7495 12.728 50.7588 12.7212 50.7482 12.736C50.7482 12.736 50.7507 12.7199 50.7601 12.7131C50.7813 12.6834 50.8025 12.6537 50.8237 12.624C50.8767 12.5498 50.9297 12.4755 50.9827 12.4012C51.0861 12.2689 51.1896 12.1365 51.3011 12.0054C51.3609 11.9404 51.4207 11.8755 51.4804 11.8106C51.511 11.7741 51.5496 11.7389 51.5788 11.7105C51.5894 11.6956 51.6081 11.682 51.6187 11.6672C51.6187 11.6672 51.6386 11.6455 51.6492 11.6307C51.6492 11.6307 51.6492 11.6307 51.6505 11.6226C51.6797 11.5942 51.6611 11.6078 51.6492 11.6307C51.6598 11.6158 51.7064 11.5819 51.7157 11.5751C51.7543 11.5399 51.7836 11.5115 51.8221 11.4763C51.89 11.4126 51.9658 11.3502 52.0404 11.2959C52.3346 11.0532 52.6411 10.8373 52.9623 10.6319C53.1264 10.5339 53.2904 10.4359 53.4544 10.3379C53.473 10.3243 53.4904 10.3188 53.5171 10.3065C53.5171 10.3065 53.5171 10.3065 53.5091 10.3052C53.4557 10.3298 53.5277 10.2916 53.5358 10.2929C53.5358 10.2929 53.5358 10.2929 53.5277 10.2916C53.5637 10.2726 53.5998 10.2535 53.6451 10.2276C53.7265 10.1826 53.8159 10.1389 53.8973 10.0939C54.5872 9.74859 55.3017 9.45671 56.0297 9.18351C56.2141 9.11351 56.3891 9.0503 56.5722 8.98837C56.8179 8.89504 56.9668 8.57976 56.8577 8.33108C56.7418 8.07306 56.4728 7.94784 56.2016 8.04541C54.7494 8.56763 53.287 9.15435 52.0078 10.0428C50.7926 10.8918 49.7793 12.029 49.2908 13.4475C48.8166 14.827 48.8072 16.3462 49.5529 17.6296C49.7471 17.9661 49.9986 18.2538 50.2501 18.5416C50.3826 18.6948 50.5151 18.848 50.6383 19.008C50.6924 19.0827 50.7466 19.1574 50.7995 19.2401C50.8266 19.2775 50.8457 19.3135 50.8715 19.359C50.8592 19.3322 50.866 19.3416 50.8715 19.359C50.8783 19.3683 50.8837 19.3857 50.8905 19.395C50.9735 19.5487 51.0378 19.7159 51.0847 19.8886C51.0957 19.9234 51.1134 19.9675 51.1164 20.001C51.1134 19.9675 51.1079 19.9501 51.1151 20.0091C51.1151 20.0091 51.1151 20.0091 51.1164 20.001C51.1151 20.0091 51.1125 20.0252 51.1193 20.0346C51.1375 20.1283 51.1556 20.2221 51.1657 20.3146C51.1771 20.3991 51.1817 20.4742 51.1851 20.5574C51.1867 20.599 51.1871 20.6486 51.1888 20.6902C51.1888 20.6902 51.1875 20.6983 51.1837 20.7224C51.1837 20.7224 51.1824 20.7305 51.1811 20.7386C51.1704 20.9104 51.1517 21.081 51.1168 21.2491C51.1105 21.2894 51.1028 21.3377 51.0884 21.3768C51.0858 21.3929 51.0845 21.401 51.082 21.4171C51.082 21.4171 51.0807 21.4252 51.0794 21.4332C51.0743 21.4655 51.0743 21.4655 51.0663 21.4642C51.0625 21.4884 51.0586 21.5126 51.0561 21.5287C51.0404 21.5758 51.0247 21.6229 51.0009 21.6687C50.9721 21.7468 50.9364 21.8155 50.8995 21.8924C50.877 21.9301 50.8626 21.9692 50.8401 22.0069C50.8376 22.023 50.8189 22.0366 50.8083 22.0515C50.7833 22.1054 50.8613 21.9772 50.8083 22.0515C50.7116 22.1932 50.6069 22.3336 50.4886 22.4554C50.4594 22.4839 50.4394 22.5055 50.4102 22.5339L50.4115 22.5259C50.4115 22.5259 50.4115 22.5259 50.4102 22.5339C50.361 22.584 50.3915 22.5475 50.4102 22.5339C50.4009 22.5407 50.3822 22.5543 50.3822 22.5543C50.3157 22.6099 50.2491 22.6655 50.1826 22.721C50.116 22.7766 50.0427 22.8229 49.9694 22.8691C49.9414 22.8895 49.9054 22.9086 49.8774 22.9289C49.8774 22.9289 49.8494 22.9493 49.8333 22.9468C49.852 22.9332 49.9054 22.9086 49.8507 22.9412C49.824 22.9535 49.824 22.9535 49.8333 22.9468C49.6812 23.0218 49.5223 23.0876 49.3566 23.144C49.3138 23.1538 49.2697 23.1716 49.235 23.1826C49.2189 23.1801 49.2002 23.1937 49.1828 23.1992C49.1307 23.2157 49.2176 23.1881 49.2176 23.1881C49.1455 23.2263 49.0223 23.2233 48.946 23.2361C48.8697 23.2488 48.7867 23.2522 48.7104 23.2649L48.6837 23.2772Z" fill="#14202B"/>
<path d="M51.6765 11.628C51.6765 11.628 51.6659 11.6429 51.6752 11.6361C51.6951 11.6144 51.7138 11.6008 51.6765 11.628Z" fill="#14202B"/>
<path d="M53.5174 10.3041C53.5174 10.3041 53.5174 10.3041 53.5254 10.3054C53.5254 10.3054 53.5254 10.3054 53.5335 10.3067C53.5335 10.3067 53.4614 10.3449 53.5068 10.319L53.5174 10.3041Z" fill="#14202B"/>
<path d="M50.8765 19.3752C50.8833 19.3845 50.9079 19.438 50.8765 19.3752V19.3752Z" fill="#14202B"/>
<path d="M51.1159 20.0021C51.1159 20.0021 51.1159 20.0021 51.1146 20.0101C51.1087 19.9431 51.1061 19.9592 51.1159 20.0021Z" fill="#14202B"/>
<path d="M20.1528 16.4385C20.1528 16.4385 20.1702 16.433 20.1795 16.4262C20.1541 16.4304 20.1448 16.4372 20.1528 16.4385Z" fill="#14202B"/>
<path d="M8.29399 21.9845C8.02318 22.1317 7.74303 22.2857 7.46417 22.4316C7.23065 22.5517 7.05721 22.8135 7.17862 23.0889C7.27422 23.319 7.58253 23.5082 7.8347 23.3746C10.1309 22.1595 12.3551 20.8256 14.5942 19.5023C15.705 18.8434 16.8227 18.1938 17.9538 17.5629C18.2352 17.4009 18.4607 17.2795 18.7222 17.1391C18.993 16.9919 19.2638 16.8446 19.5427 16.6987C19.6601 16.6346 19.7762 16.5786 19.9004 16.5239C19.9618 16.5006 20.0233 16.4772 20.0847 16.4539C20.1021 16.4484 20.1275 16.4442 20.1542 16.4318C20.1542 16.4318 20.1542 16.4318 20.1809 16.4195C20.1729 16.4183 20.1635 16.4251 20.1542 16.4318C20.1542 16.4318 20.2398 16.4123 20.2479 16.4136C20.272 16.4174 20.3644 16.4073 20.3817 16.4017C20.3737 16.4005 20.3656 16.3992 20.3576 16.3979C20.3817 16.4017 20.3898 16.403 20.3817 16.4017C20.43 16.4094 20.4703 16.4158 20.5186 16.4234C20.5186 16.4234 20.5347 16.426 20.5508 16.4285C20.5508 16.4285 20.5588 16.4298 20.5669 16.431C20.5991 16.4361 20.6287 16.4574 20.6596 16.4705C20.6905 16.4837 20.7215 16.4968 20.7511 16.5181C20.7672 16.5206 20.774 16.5299 20.782 16.5312C20.7308 16.49 20.8358 16.5563 20.782 16.5312C20.782 16.5312 20.7968 16.5418 20.8117 16.5524C21.2872 16.8839 21.6941 17.3367 22.1073 17.7493C22.5354 18.1724 22.9541 18.6023 23.3715 19.0403C23.4782 19.1481 23.5837 19.2639 23.6823 19.3705C23.7958 19.4876 23.8229 19.525 23.9431 19.6514C24.1552 19.8751 24.3593 20.0975 24.5621 20.3279C24.9837 20.7914 25.4054 21.2548 25.8178 21.725C27.4739 23.6153 29.0555 25.5599 30.5998 27.5316C32.1169 29.466 33.5981 31.4194 35.0792 33.3729C35.2566 33.6076 35.442 33.8435 35.6181 34.0863C35.7752 34.293 36.1094 34.3707 36.3264 34.1984C36.5341 34.0329 36.6093 33.7143 36.4387 33.4889C34.9372 31.5074 33.4358 29.5259 31.9144 27.5661C30.3511 25.5583 28.7517 23.5696 27.0846 21.6445C25.4525 19.7581 23.7553 17.9192 21.9477 16.2033C21.4604 15.7378 20.8959 15.3426 20.1904 15.421C19.5774 15.4893 19.0242 15.8563 18.4932 16.1359C17.3299 16.7617 16.1868 17.4155 15.0493 18.0867C13.9037 18.7566 12.7742 19.4291 11.6286 20.099C11.0738 20.4244 10.519 20.7498 9.95746 21.0659C9.67604 21.228 9.38658 21.3888 9.09711 21.5496C8.82502 21.7049 8.53683 21.8576 8.31009 21.987L8.29399 21.9845Z" fill="#14202B"/>
<path d="M20.7645 16.5374C20.7132 16.4962 20.8183 16.5624 20.7645 16.5374V16.5374Z" fill="#14202B"/>
<path d="M35.2556 18.44C35.2556 18.44 35.2475 18.4388 35.2395 18.4375C35.1886 18.446 35.2234 18.4349 35.2556 18.44Z" fill="#14202B"/>
<path d="M35.1093 18.5018C35.0211 18.5374 35.1746 18.4543 35.1093 18.5018V18.5018Z" fill="#14202B"/>
<path d="M28.1867 23.2819C30.4293 21.7278 32.6719 20.1736 34.9145 18.6195C34.9705 18.5787 35.0252 18.5461 35.0811 18.5053C35.0811 18.5053 35.0904 18.4985 35.0998 18.4918C35.0116 18.5274 35.165 18.4442 35.0998 18.4918C35.0998 18.4918 35.0998 18.4918 35.1078 18.493C35.1345 18.4807 35.1532 18.4672 35.1786 18.4629C35.1786 18.4629 35.2214 18.4532 35.2468 18.4489C35.2133 18.4519 35.1799 18.4549 35.2307 18.4464C35.2468 18.4489 35.2629 18.4515 35.279 18.454C35.279 18.454 35.279 18.454 35.2629 18.4515C35.279 18.454 35.2951 18.4566 35.3031 18.4578C35.2709 18.4527 35.287 18.4553 35.3353 18.4629C35.3273 18.4617 35.3112 18.4591 35.3031 18.4578C35.3031 18.4578 35.3192 18.4604 35.3273 18.4617C35.3502 18.4735 35.3811 18.4867 35.404 18.4986C35.404 18.4986 35.404 18.4986 35.412 18.4999C35.3688 18.46 35.5048 18.5393 35.412 18.4999C35.4713 18.5423 35.5306 18.5847 35.5805 18.634C35.6966 18.735 35.81 18.8521 35.9167 18.9599C36.1382 19.1768 36.3503 19.4004 36.5717 19.6173C36.6784 19.7251 36.7838 19.841 36.8905 19.9488C36.9472 20.0073 36.9972 20.0566 37.0539 20.1151C37.0823 20.1444 37.1026 20.1724 37.131 20.2017C37.131 20.2017 37.131 20.2017 37.1229 20.2004C37.1513 20.2297 37.1581 20.2391 37.131 20.2017C37.1526 20.2217 37.1661 20.2403 37.1877 20.2603C38.0417 21.1723 38.8664 22.1128 39.6525 23.0885C40.5508 24.1893 41.4025 25.3241 42.2156 26.4942C42.3633 26.7077 42.7081 26.7705 42.9239 26.6063C43.1409 26.434 43.1975 26.1289 43.0362 25.8968C41.559 23.7621 39.9325 21.7361 38.1705 19.8373C37.7124 19.3433 37.245 18.8561 36.7682 18.3757C36.5468 18.1588 36.3385 17.911 36.0865 17.7306C35.7376 17.4853 35.3521 17.3664 34.9297 17.4814C34.6102 17.5713 34.3372 17.7843 34.0761 17.9744C33.7883 18.1767 33.5018 18.3711 33.2059 18.5722C32.6316 18.9689 32.048 19.3724 31.4737 19.7691C30.1771 20.6631 28.8886 21.5583 27.592 22.4523C27.3788 22.6003 27.3159 22.9458 27.4797 23.1618C27.6516 23.3791 27.9481 23.4343 28.188 23.2739L28.1867 23.2819Z" fill="#14202B"/>
<path d="M37.1367 20.2031C37.1367 20.2031 37.1367 20.2031 37.1451 20.2044C37.1661 20.2335 37.1675 20.2251 37.1367 20.2031Z" fill="#14202B"/>
<path d="M35.3269 18.4558C35.3269 18.4558 35.351 18.4596 35.3591 18.4609C35.3027 18.452 35.2959 18.4426 35.3269 18.4558Z" fill="#14202B"/>
<path d="M35.4304 18.5001C35.3872 18.4602 35.5232 18.5396 35.4304 18.5001V18.5001Z" fill="#14202B"/>
<path d="M13.2787 14.8974C13.2334 14.9233 13.2601 14.9109 13.2787 14.8974V14.8974Z" fill="#14202B"/>
<path d="M12.9181 15.0377C12.8918 15.0421 12.9015 15.035 12.9181 15.0377V15.0377Z" fill="#14202B"/>
<path d="M13.6754 14.5231C13.6767 14.515 13.7085 14.4705 13.6754 14.5231C13.6729 14.5392 13.6729 14.5392 13.6754 14.5231Z" fill="#14202B"/>
<path d="M13.8164 13.5117C13.8164 13.5117 13.8151 13.5201 13.8138 13.5284C13.8181 13.5549 13.8138 13.5284 13.8164 13.5117Z" fill="#14202B"/>
<path d="M12.3437 15.1116C12.3437 15.1116 12.3437 15.1116 12.3356 15.1104C12.3356 15.1104 12.3356 15.1104 12.3276 15.1091C12.27 15.1082 12.3356 15.1104 12.3437 15.1116Z" fill="#14202B"/>
<path d="M13.6523 13.1055C13.6523 13.1055 13.6523 13.1055 13.651 13.1138C13.651 13.1138 13.658 13.1235 13.6651 13.1332C13.658 13.1235 13.651 13.1138 13.6523 13.1055Z" fill="#14202B"/>
<path d="M11.1124 14.0765C11.1124 14.0765 11.1124 14.0765 11.1137 14.0685C11.0807 13.9641 11.1264 14.1449 11.1124 14.0765Z" fill="#14202B"/>
<path d="M12.7476 12.6069C12.7476 12.6069 12.7556 12.6081 12.7637 12.6094C12.7637 12.6094 12.7798 12.612 12.7878 12.6132C12.8522 12.6234 12.687 12.5725 12.7476 12.6069Z" fill="#14202B"/>
<path d="M12.4153 12.5619C12.4153 12.5619 12.4475 12.567 12.4636 12.5695C12.4636 12.5695 12.3577 12.561 12.4073 12.5606L12.4153 12.5619Z" fill="#14202B"/>
<path d="M13.0259 12.7247C13.0259 12.7247 13.0339 12.726 13.042 12.7272C13.1106 12.7629 12.937 12.661 13.0259 12.7247Z" fill="#14202B"/>
<path d="M11.7013 12.7372C11.6398 12.7605 11.7652 12.6978 11.7013 12.7372V12.7372Z" fill="#14202B"/>
<path d="M13.6681 11.9503C13.8904 12.1095 13.877 12.4545 13.7299 12.6543C13.657 12.7502 13.5582 12.8007 13.4553 12.8257C13.4891 12.8724 13.523 12.9191 13.5568 12.9658C13.5759 13.0019 13.6043 13.0311 13.6233 13.0672C13.6368 13.0859 13.6423 13.1033 13.6559 13.122C13.6559 13.122 13.6559 13.122 13.6572 13.1139C13.6572 13.1139 13.6627 13.1313 13.6694 13.1406C13.6694 13.1406 13.6627 13.1313 13.6559 13.122C13.6559 13.122 13.6559 13.122 13.6546 13.13C13.6901 13.2183 13.735 13.2998 13.7625 13.3868C13.7735 13.4216 13.7832 13.4644 13.8022 13.5005C13.7997 13.5166 13.8064 13.526 13.8132 13.5353L13.8158 13.5192C13.8158 13.5192 13.817 13.5111 13.8183 13.5031C13.8183 13.5031 13.8183 13.5031 13.8158 13.5192C13.8213 13.5366 13.8255 13.562 13.8132 13.5353C13.8107 13.5514 13.8094 13.5595 13.8162 13.5688C13.8343 13.6626 13.8444 13.7551 13.8465 13.8464C13.8439 13.8625 13.8401 13.8867 13.8456 13.9041C13.8431 13.9202 13.8405 13.9363 13.8456 13.9041C13.8392 13.9444 13.829 14.0089 13.8277 14.0169C13.8214 14.0573 13.8137 14.1056 13.8073 14.1459C13.8048 14.1621 13.8022 14.1782 13.7997 14.1943L13.8009 14.1863C13.8009 14.1863 13.7997 14.1943 13.7971 14.2104C13.792 14.2427 13.7856 14.283 13.7971 14.2104C13.7971 14.2104 13.7971 14.2104 13.7984 14.2024C13.7759 14.2402 13.7144 14.4205 13.7025 14.4434C13.7012 14.4515 13.6681 14.5041 13.6563 14.527C13.6588 14.5109 13.6893 14.4744 13.6563 14.527C13.6444 14.5499 13.6537 14.5431 13.6563 14.527C13.6444 14.5499 13.6245 14.5716 13.6138 14.5864C13.5833 14.6229 13.5608 14.6607 13.5316 14.6891C13.521 14.7039 13.5023 14.7175 13.4917 14.7324C13.4506 14.7837 13.4892 14.7485 13.4917 14.7324C13.4917 14.7324 13.4917 14.7324 13.493 14.7243C13.493 14.7243 13.493 14.7243 13.4917 14.7324C13.4667 14.7863 13.3146 14.8614 13.2773 14.8885C13.2773 14.8885 13.2773 14.8885 13.2679 14.8953C13.2853 14.8898 13.2946 14.883 13.2679 14.8953C13.2319 14.9144 13.2599 14.894 13.2679 14.8953C13.2506 14.9008 13.2319 14.9144 13.2239 14.9131C13.1798 14.9309 13.1344 14.9568 13.0823 14.9734C13.0383 14.9912 12.9861 15.0077 12.9433 15.0175C12.9433 15.0175 12.9086 15.0285 12.8993 15.0353C12.9166 15.0298 12.9501 15.0268 12.8993 15.0353C12.8645 15.0463 12.8738 15.0395 12.8993 15.0353C12.8993 15.0353 12.8912 15.034 12.8832 15.0327C12.7722 15.0565 12.6531 15.079 12.5446 15.0866C12.5031 15.0883 12.4523 15.0968 12.4027 15.0972C12.3785 15.0934 12.3451 15.0963 12.3196 15.1006C12.3196 15.1006 12.3196 15.1006 12.3277 15.1019C12.3196 15.1006 12.2447 15.1052 12.3116 15.0993C12.3116 15.0993 12.3116 15.0993 12.3196 15.1006C12.215 15.084 12.1159 15.0849 12.0218 15.0534C12.0769 15.0704 11.9736 15.0458 11.9736 15.0458C11.9736 15.0458 11.9816 15.0471 11.9896 15.0483C11.9655 15.0445 11.9346 15.0314 11.9117 15.0195C11.8727 15.005 11.8418 14.9919 11.8041 14.9694C11.7961 14.9681 11.7732 14.9562 11.7503 14.9444C11.7503 14.9444 11.7503 14.9444 11.7262 14.9405C11.6885 14.918 11.7101 14.938 11.7503 14.9444C11.7503 14.9444 11.683 14.9006 11.6762 14.8913C11.6466 14.8701 11.625 14.8501 11.5954 14.8289C11.5657 14.8077 11.5373 14.7784 11.509 14.7491C11.4942 14.7385 11.4874 14.7292 11.4726 14.7186C11.3875 14.6307 11.5145 14.7665 11.4726 14.7186C11.4239 14.6613 11.382 14.6133 11.3426 14.5492C11.3223 14.5212 11.2952 14.4839 11.2762 14.4478C11.2707 14.4304 11.2558 14.4198 11.2503 14.4024C11.1839 14.301 11.2817 14.4652 11.2503 14.4024C11.219 14.3396 11.1877 14.2768 11.1657 14.2072C11.1547 14.1724 11.137 14.1283 11.126 14.0935C11.1285 14.0773 11.115 14.0587 11.1082 14.0493C11.1082 14.0493 11.1082 14.0493 11.1069 14.0574C11.1209 14.1257 11.0685 13.9356 11.1082 14.0493C11.0943 13.981 11.0803 13.9127 11.0745 13.8456C11.0728 13.804 11.0698 13.7705 11.0682 13.7289C11.0695 13.7209 11.0707 13.7128 11.072 13.7047C11.0661 13.6377 11.0592 13.7854 11.072 13.7047C11.072 13.7047 11.072 13.7047 11.0733 13.6967C11.0848 13.6241 11.0962 13.5515 11.1077 13.479C11.1077 13.479 11.1128 13.4467 11.1167 13.4225C11.1141 13.4387 11.1128 13.4467 11.1179 13.4145C11.1256 13.3661 11.1218 13.3903 11.1167 13.4225C11.1205 13.3984 11.1455 13.3445 11.1468 13.3364C11.16 13.3054 11.1744 13.2664 11.1956 13.2367C11.2075 13.2138 11.2791 13.1259 11.2206 13.1828C11.1702 13.2409 11.2312 13.1679 11.2431 13.145C11.2656 13.1073 11.2948 13.0788 11.3173 13.0411C11.3385 13.0114 11.3678 12.9829 11.3877 12.9613C11.3877 12.9613 11.389 12.9532 11.4063 12.9477C11.3504 12.9885 11.4754 12.876 11.4343 12.9274C11.4343 12.9274 11.4237 12.9422 11.4144 12.949C11.4703 12.9083 11.5276 12.8595 11.5835 12.8187C11.6208 12.7916 11.6568 12.7725 11.6929 12.7534C11.6929 12.7534 11.6929 12.7534 11.7022 12.7466C11.6407 12.7699 11.7662 12.7072 11.7022 12.7466C11.7022 12.7466 11.7102 12.7479 11.7196 12.7411C11.7997 12.7042 11.8704 12.6741 11.9573 12.6465C11.984 12.6342 12.0094 12.63 12.0442 12.6189C12.0442 12.6189 12.0442 12.6189 12.0361 12.6176C12.0361 12.6176 12.0442 12.6189 12.0522 12.6202C12.0522 12.6202 12.0603 12.6215 12.0683 12.6227C12.1378 12.6007 12.0844 12.6253 12.0522 12.6202C12.0522 12.6202 12.0522 12.6202 12.0442 12.6189C12.0603 12.6215 12.087 12.6092 12.0963 12.6024C12.1819 12.5829 12.2662 12.5714 12.3492 12.568C12.3734 12.5719 12.4378 12.582 12.4657 12.5617C12.4496 12.5591 12.4335 12.5566 12.4174 12.554C12.3611 12.5451 12.4738 12.563 12.4738 12.563C12.4818 12.5642 12.4979 12.5668 12.506 12.5681C12.5865 12.5808 12.675 12.5948 12.7555 12.6075C12.7555 12.6075 12.7716 12.6101 12.7796 12.6114C12.7796 12.6114 12.7716 12.6101 12.7635 12.6088C12.7017 12.5825 12.8682 12.6254 12.8038 12.6152C12.8038 12.6152 12.7877 12.6126 12.7796 12.6114C12.8118 12.6165 12.8495 12.639 12.8805 12.6521C12.9194 12.6665 12.9571 12.689 12.9961 12.7035C13.0122 12.706 13.027 12.7166 13.0418 12.7272C13.0418 12.7272 13.0499 12.7285 13.0579 12.7298C13.0579 12.7298 13.0499 12.7285 13.0418 12.7272C12.9516 12.6716 13.1265 12.7654 13.0579 12.7298C13.1858 12.8079 13.3362 12.8482 13.4807 12.8215C13.4604 12.7935 13.44 12.7655 13.4117 12.7362C13.2305 12.5257 13.3243 12.1934 13.524 12.0267C13.5799 11.986 13.6333 11.9614 13.6935 11.9461C13.6935 11.9461 13.6935 11.9461 13.6854 11.9448C12.9905 11.4877 12.075 11.4337 11.3291 11.8198C10.9248 12.0285 10.5895 12.3226 10.3621 12.7163C10.1386 13.0859 10.0604 13.5281 10.1 13.9558C10.1723 14.802 10.7496 15.6372 11.54 15.9607C12.0292 16.1538 12.5651 16.156 13.0706 16.0376C13.5935 15.9138 14.0834 15.6855 14.4163 15.2506C15.1337 14.3146 14.968 13.0156 14.231 12.1469C14.0985 11.9937 13.8901 11.9028 13.6922 11.9541L13.6681 11.9503Z" fill="#14202B"/>
<path d="M13.3962 12.7353C13.3962 12.7353 13.4449 12.7926 13.4652 12.8206C13.5669 12.8036 13.6656 12.7531 13.7398 12.6492C13.887 12.4493 13.9003 12.1043 13.678 11.9452C13.6178 11.9604 13.5644 11.985 13.5085 12.0258C13.3101 12.1845 13.2163 12.5167 13.3962 12.7353Z" fill="#14202B"/>
<path d="M11.0709 13.7135C11.065 13.6464 11.0581 13.7941 11.0709 13.7135V13.7135Z" fill="#14202B"/>
<path d="M11.4793 14.7283C11.401 14.6498 11.528 14.7856 11.4793 14.7283V14.7283Z" fill="#14202B"/>
<path d="M11.7316 14.9415L11.7557 14.9454C11.7248 14.9322 11.6952 14.911 11.7316 14.9415Z" fill="#14202B"/>
<path d="M11.4025 12.9557C11.4025 12.9557 11.4131 12.9408 11.4224 12.934C11.4636 12.8827 11.3466 12.9964 11.3945 12.9544L11.4025 12.9557Z" fill="#14202B"/>
<path d="M11.2548 14.4269C11.1964 14.3267 11.2848 14.4978 11.2548 14.4269V14.4269Z" fill="#14202B"/>
<path d="M12.0249 15.0701C12.0249 15.0701 12.0007 15.0663 11.9927 15.065L11.9766 15.0625C11.9766 15.0625 12.0786 15.0952 12.0249 15.0701Z" fill="#14202B"/>
<path d="M60.8486 44.466C60.8486 44.466 60.8245 44.4622 60.8164 44.4609C60.8757 44.5034 60.8782 44.4873 60.8486 44.466Z" fill="#14202B"/>
<path d="M37.2415 26.9094C37.2572 26.8623 37.2572 26.8623 37.2402 26.9175L37.2389 26.9256C37.2389 26.9256 37.2389 26.9256 37.2402 26.9175C37.2376 26.9336 37.2351 26.9497 37.2164 26.9633C37.2152 26.9714 37.2126 26.9875 37.2033 26.9943C37.2351 26.9497 37.2338 26.9578 37.1914 27.0172C37.1914 27.0172 37.1939 27.0011 37.1952 26.993C37.1753 27.0147 37.1541 27.0444 37.1342 27.066C37.1342 27.066 37.1435 27.0592 37.1528 27.0524C37.1036 27.1025 37.0943 27.1093 37.1342 27.066C37.1236 27.0809 37.1062 27.0864 37.0956 27.1012C37.0303 27.1487 36.957 27.195 36.885 27.2332C36.7489 27.3108 36.6462 27.5425 36.6796 27.6965C36.8917 28.5979 37.45 29.397 38.0117 30.1223C38.6344 30.9316 39.3317 31.6866 40.0608 32.3971C40.8183 33.1368 41.6343 33.8197 42.4608 34.4877C43.2954 35.157 44.1606 35.7898 45.0562 36.3861C47.086 37.7405 49.2324 38.9315 51.3296 40.1725C53.0337 41.1861 54.7354 42.2157 56.4408 43.2212C57.1273 43.6274 57.8151 44.0255 58.5135 44.4088C58.862 44.6045 59.2186 44.8014 59.5685 44.989C60.0784 45.2598 60.6192 45.5438 61.2179 45.5145C61.5259 45.4972 61.8009 45.3754 62.0556 45.2256C61.8102 45.3686 61.534 45.3414 61.3473 45.1135C61.189 44.9149 61.2316 44.5415 61.4596 44.404C61.4596 44.404 61.4596 44.404 61.477 44.3985C61.469 44.3972 61.4584 44.4121 61.4503 44.4108C61.4236 44.4231 61.3889 44.4342 61.3622 44.4465C61.3355 44.4588 61.2914 44.4766 61.2567 44.4876C61.2888 44.4927 61.2969 44.494 61.2232 44.4906C61.2312 44.4918 61.2473 44.4944 61.2567 44.4876C61.2486 44.4863 61.2325 44.4838 61.2245 44.4825C61.2003 44.4787 61.1656 44.4897 61.1401 44.494C61.1401 44.494 61.116 44.4901 61.0986 44.4956C61.1469 44.5033 61.1469 44.5033 61.0825 44.4931L61.0664 44.4906C61.0664 44.4906 61.0745 44.4918 61.0825 44.4931C61.0825 44.4931 61.0825 44.4931 61.0906 44.4944C61.0825 44.4931 61.0745 44.4918 61.0584 44.4893C61.002 44.4804 60.9376 44.4702 60.8813 44.4613C60.8733 44.46 60.8491 44.4562 60.833 44.4536C60.8639 44.4668 60.8694 44.4842 60.8008 44.4485C60.8008 44.4485 60.8169 44.4511 60.833 44.4536C60.833 44.4536 60.833 44.4536 60.8169 44.4511C60.6759 44.4039 60.5441 44.35 60.415 44.28C60.0168 44.0848 59.6306 43.8666 59.2431 43.6565C58.5595 43.2838 57.8785 42.8951 57.2068 42.4995C55.6064 41.5602 54.0179 40.598 52.428 39.6439C51.3121 38.9796 50.1949 38.3235 49.0777 37.6673C48.5716 37.3723 48.0736 37.0786 47.5688 36.7756C47.3426 36.6406 47.1177 36.4976 46.8916 36.3626C46.8687 36.3507 46.8391 36.3295 46.8162 36.3176C46.8755 36.36 46.8162 36.3176 46.8001 36.315C46.8001 36.315 46.8081 36.3163 46.8162 36.3176C46.8162 36.3176 46.8162 36.3176 46.8081 36.3163C46.7476 36.2819 46.6883 36.2395 46.6358 36.2064C46.5227 36.1389 46.419 36.0646 46.3059 35.9971C44.4866 34.8249 42.7491 33.5003 41.1486 32.0403C40.8463 31.7611 40.5452 31.4737 40.2629 31.1728C40.2277 31.1342 40.1913 31.1037 40.1642 31.0663C40.1494 31.0557 40.0939 30.9891 40.0723 30.9691C40.0804 30.9704 40.0859 30.9878 40.0927 30.9971C40.0575 30.9585 40.0575 30.9585 40.0723 30.9691C39.9953 30.8825 39.9102 30.7947 39.8331 30.7081C39.6642 30.5244 39.4966 30.3325 39.337 30.142C39.0165 29.7689 38.7147 29.3823 38.4315 28.9821C38.296 28.7954 38.1779 28.6031 38.0611 28.4028C38.0353 28.3574 38.0095 28.312 37.9837 28.2666C37.9837 28.2666 37.9702 28.2479 37.9634 28.2386C37.9744 28.2734 37.9866 28.3001 37.9511 28.2119C37.9498 28.2199 37.9647 28.2305 37.9634 28.2386C37.9634 28.2386 37.9647 28.2305 37.9579 28.2212C37.9143 28.1316 37.8707 28.0421 37.8271 27.9526C37.8094 27.9084 37.7929 27.8562 37.7751 27.8121C37.6886 27.8893 37.5861 27.964 37.478 28.0213C37.5438 27.8664 37.6176 27.7128 37.6834 27.5579C37.6445 27.3864 37.6859 27.5418 37.6888 27.5753C37.6998 27.6101 37.7096 27.653 37.7286 27.689C37.7396 27.7238 37.7574 27.768 37.7764 27.804C37.9693 27.6279 38.1016 27.4175 38.1814 27.1739C38.0043 27.1459 37.8328 27.1353 37.6599 27.1327C37.8541 26.9485 38.0482 26.7644 38.2424 26.5802C38.2668 26.7907 38.2429 26.9936 38.1882 27.1832C38.5851 27.2295 38.9795 27.292 39.3701 27.3786C39.6814 27.4444 39.9902 27.5263 40.291 27.607C40.3554 27.6172 40.4172 27.6435 40.4803 27.6617C40.5286 27.6694 40.5756 27.6851 40.6146 27.6995C40.5663 27.6919 40.5904 27.6957 40.6146 27.6995C40.6146 27.6995 40.6226 27.7008 40.6307 27.7021C40.6307 27.7021 40.6387 27.7034 40.6468 27.7046C40.812 27.7556 40.9852 27.8078 41.1492 27.8668C42.3178 28.2501 43.4538 28.7357 44.5647 29.2752C46.3723 30.1563 48.1379 31.1466 49.8756 32.1571C51.9847 33.3753 54.0632 34.6299 56.1366 35.9168C56.4073 36.0836 56.6779 36.2504 56.9404 36.4159C57.001 36.4503 57.0603 36.4927 57.1208 36.5271C57.1369 36.5296 57.2259 36.5933 57.2487 36.6052C57.2487 36.6052 57.2407 36.6039 57.2326 36.6026C57.2555 36.6145 57.2555 36.6145 57.2487 36.6052C57.3834 36.6926 57.5194 36.772 57.654 36.8594C58.1792 37.1905 58.6975 37.5122 59.2227 37.8433C60.2285 38.4735 61.2249 39.1106 62.2214 39.7477C62.4531 39.9 62.6953 40.0376 62.9163 40.2048C62.9972 40.2672 63.0768 40.3376 63.1564 40.4081C63.1564 40.4081 63.1564 40.4081 63.1645 40.4093C63.1577 40.4 63.1442 40.3813 63.1361 40.3801C63.1979 40.4064 63.2009 40.4399 63.1645 40.4093C63.1645 40.4093 63.1713 40.4187 63.1793 40.42C63.2144 40.4586 63.2403 40.504 63.2741 40.5507C63.2386 40.4624 63.3338 40.6428 63.2741 40.5507C63.2851 40.5855 63.3042 40.6215 63.3151 40.6563C63.3151 40.6563 63.3194 40.6818 63.3249 40.6992C63.3261 40.6911 63.3274 40.6831 63.3206 40.6737C63.308 40.5974 63.3291 40.7247 63.3371 40.7259C63.3371 40.7259 63.3304 40.7166 63.3249 40.6992C63.3346 40.7421 63.3362 40.7836 63.346 40.8265C63.3489 40.86 63.3506 40.9016 63.3535 40.9351C63.351 40.9513 63.3484 40.9674 63.3526 40.9929C63.3526 40.9929 63.3526 40.9929 63.3514 41.0009C63.3501 41.009 63.3475 41.0251 63.3463 41.0332C63.3412 41.0654 63.3399 41.0735 63.3424 41.0574C63.3284 41.146 63.3359 41.2547 63.33 41.3446C63.3091 41.581 63.2708 41.8229 63.2177 42.0542C63.2087 42.1106 63.1905 42.1738 63.1722 42.237C63.218 42.1038 63.1552 42.2922 63.1421 42.3232C63.0975 42.4484 63.0542 42.5655 63.0029 42.6813C62.9515 42.7972 62.8922 42.9117 62.834 43.0182C62.8103 43.0641 62.7865 43.1099 62.7547 43.1545C62.7666 43.1315 62.7772 43.1167 62.7429 43.1774C62.7441 43.1693 62.7454 43.1612 62.7547 43.1545C62.7522 43.1706 62.7429 43.1774 62.7335 43.1842C62.7111 43.2219 62.6793 43.2665 62.6568 43.3042C62.5826 43.4082 62.5096 43.5041 62.4287 43.5987C62.3875 43.6501 62.3371 43.7082 62.2879 43.7583C62.268 43.7799 62.248 43.8015 62.2281 43.8232C62.2268 43.8312 62.1696 43.88 62.1497 43.9017C62.1683 43.8881 62.1789 43.8732 62.1497 43.9017C62.1404 43.9085 62.1391 43.9165 62.1497 43.9017C62.1298 43.9233 62.1018 43.9437 62.1018 43.9437C62.0819 43.9653 62.0552 43.9776 62.0352 43.9993C61.978 44.0481 61.9208 44.0969 61.8648 44.1376C61.7517 44.2271 61.6237 44.306 61.505 44.3781C61.5317 44.3658 61.5503 44.3523 61.4876 44.3837C61.733 44.2407 62.0105 44.2598 62.1959 44.4958C62.3542 44.6944 62.3116 45.0678 62.0836 45.2053C63.1411 44.571 63.859 43.5276 64.1927 42.3573C64.3282 41.8663 64.3857 41.3465 64.3763 40.8326C64.3605 40.359 64.1684 39.9567 63.8323 39.6307C63.6608 39.4631 63.452 39.3226 63.25 39.1915C63.0035 39.0285 62.7558 38.8736 62.5013 38.7093C61.9922 38.3808 61.4819 38.0604 60.9729 37.7319C59.8862 37.0392 58.7982 36.3546 57.701 35.6768C55.5682 34.3474 53.4156 33.0398 51.2498 31.7631C49.4003 30.6769 47.539 29.6137 45.6289 28.6502C44.6133 28.1341 43.59 27.6663 42.5231 27.2661C41.2854 26.7974 39.988 26.3937 38.6722 26.2103C38.3985 26.1669 38.1223 26.1397 37.8436 26.1287C37.5165 26.11 37.2262 26.3285 37.2611 26.6811C37.264 26.7147 37.267 26.7482 37.2712 26.7736C37.2703 26.8314 37.269 26.8394 37.2712 26.7736C37.2686 26.7898 37.261 26.8381 37.2559 26.8704L37.2415 26.9094Z" fill="#14202B"/>
<path d="M46.8364 36.3307C46.8364 36.3307 46.8284 36.3294 46.8203 36.3281C46.8364 36.3307 46.8957 36.3731 46.8364 36.3307Z" fill="#14202B"/>
<path d="M37.981 28.2494C37.981 28.2494 37.9675 28.2307 37.9688 28.2227C38.003 28.319 38.0001 28.2855 37.981 28.2494Z" fill="#14202B"/>
<path d="M40.1156 30.9989C40.1156 30.9989 40.1021 30.9803 40.0953 30.9709C40.0805 30.9603 40.0805 30.9603 40.1156 30.9989Z" fill="#14202B"/>
<path d="M37.705 27.5934C37.705 27.5934 37.6539 27.3953 37.6995 27.576C37.6338 27.7309 37.5599 27.8845 37.4942 28.0394C37.6035 27.9741 37.7048 27.9075 37.7913 27.8302C37.7723 27.7942 37.7625 27.7513 37.7435 27.7152C37.7325 27.6804 37.7147 27.6363 37.7037 27.6015L37.705 27.5934Z" fill="#14202B"/>
<path d="M37.206 26.9842C37.206 26.9842 37.2035 27.0003 37.2022 27.0084C37.2446 26.949 37.2459 26.9409 37.2141 26.9855L37.206 26.9842Z" fill="#14202B"/>
<path d="M37.2387 26.9177C37.2557 26.8625 37.257 26.8544 37.24 26.9096L37.2387 26.9177Z" fill="#14202B"/>
<path d="M61.2621 44.4889C61.2621 44.4889 61.2367 44.4931 61.2287 44.4919C61.3104 44.4965 61.2956 44.4859 61.2621 44.4889Z" fill="#14202B"/>
<path d="M37.1532 27.0448C37.1532 27.0448 37.1438 27.0515 37.1345 27.0583C37.0959 27.0935 37.104 27.0948 37.1532 27.0448Z" fill="#14202B"/>
<path d="M37.25 26.8047C37.2491 26.8624 37.2491 26.8624 37.25 26.8047V26.8047Z" fill="#14202B"/>
<path d="M62.1745 44.5195C61.9891 44.2835 61.7196 44.2657 61.4662 44.4074C61.2382 44.5448 61.1968 44.9102 61.3539 45.1169C61.5406 45.3448 61.8168 45.372 62.0622 45.229C62.2889 45.0996 62.3328 44.7181 62.1745 44.5195Z" fill="#14202B"/>
<path d="M38.2473 26.5962C38.0531 26.7804 37.859 26.9645 37.6648 27.1487C37.8364 27.1593 38.016 27.1712 38.1863 27.1899C38.2411 27.0002 38.2637 26.8054 38.2405 26.5869L38.2473 26.5962Z" fill="#14202B"/>
<path d="M61.4851 44.4008C61.4851 44.4008 61.4851 44.4008 61.4677 44.4063C61.5317 44.3669 61.505 44.3792 61.4851 44.4008Z" fill="#14202B"/>
<path d="M62.7469 43.1709C62.7469 43.1709 62.7443 43.1871 62.735 43.1939C62.7694 43.1332 62.7668 43.1493 62.7469 43.1709Z" fill="#14202B"/>
<path d="M62.1393 43.9182C62.1283 43.9336 62.1379 43.9265 62.1393 43.9182V43.9182Z" fill="#14202B"/>
<path d="M63.3204 40.6918C63.3204 40.6918 63.3179 40.7079 63.3247 40.7172C63.3234 40.7253 63.3289 40.7427 63.3369 40.744C63.3369 40.744 63.3158 40.6166 63.3204 40.6918Z" fill="#14202B"/>
<path d="M63.2698 40.5759C63.2343 40.4876 63.3295 40.668 63.2698 40.5759V40.5759Z" fill="#14202B"/>
<path d="M63.1406 40.3984C63.1406 40.3984 63.1542 40.4171 63.169 40.4277C63.2135 40.4596 63.2025 40.4248 63.1406 40.3984Z" fill="#14202B"/>
<path d="M35.8993 25.5916C35.8993 25.5916 35.879 25.5635 35.8642 25.5529C35.8223 25.505 35.948 25.6488 35.8993 25.5916Z" fill="#14202B"/>
<path d="M35.0726 26.173C35.0726 26.173 35.0942 26.1929 35.1077 26.2116C35.1077 26.2116 35.1158 26.2129 35.1225 26.2222C35.1577 26.2608 35.0239 26.1157 35.0806 26.1743L35.0726 26.173Z" fill="#14202B"/>
<path d="M38.2945 26.8714C38.3917 26.6224 38.3008 26.3105 38.0454 26.2039C37.2335 25.8605 36.3991 25.5549 35.5608 25.2734C35.3177 25.1936 35.0715 25.2373 34.9273 25.4707C34.7831 25.7041 34.8533 25.9383 35.0303 26.1234C35.0586 26.1527 35.087 26.1819 35.1154 26.2112C35.1154 26.2112 35.1073 26.2099 35.1005 26.2006C35.0857 26.19 35.0789 26.1807 35.0654 26.162C35.0087 26.1034 35.1505 26.2498 35.1073 26.2099C35.1573 26.2592 35.2072 26.3084 35.2479 26.3644C35.4032 26.5295 35.5586 26.6946 35.714 26.8597C36.0747 27.2391 36.4287 27.6092 36.7987 27.9818C36.9837 28.1681 37.3557 28.1113 37.5109 27.9127C37.6886 27.6764 37.6409 27.4044 37.4423 27.1994C37.3572 27.1115 37.2789 27.033 37.1938 26.9452C36.5191 26.6731 35.8325 26.4239 35.1353 26.1896C35.3126 25.9036 35.4886 25.6257 35.6658 25.3397C35.6942 25.3689 35.7226 25.3982 35.7509 25.4275C35.7861 25.4661 35.8212 25.5047 35.8644 25.5446C35.8792 25.5553 35.8928 25.5739 35.8995 25.5833C36.0549 25.7484 36.2035 25.9041 36.3589 26.0692C36.6345 26.3608 36.9101 26.6523 37.187 26.9358C37.3349 26.9923 37.4734 27.0555 37.6212 27.112C37.8605 27.216 38.1893 27.1193 38.2878 26.8621L38.2945 26.8714Z" fill="#14202B"/>
<path d="M35.9052 25.5938C35.9052 25.5938 35.8768 25.5645 35.8701 25.5552C35.8849 25.5658 35.8904 25.5832 35.9052 25.5938C35.9539 25.6511 35.8282 25.5072 35.8701 25.5552C35.8349 25.5166 35.7998 25.478 35.7566 25.4381C35.7282 25.4088 35.6999 25.3795 35.6715 25.3502C35.4942 25.6362 35.3182 25.9141 35.141 26.2001C35.8301 26.4332 36.518 26.6743 37.1995 26.9557C36.9226 26.6722 36.647 26.3807 36.3713 26.0891C36.216 25.924 36.0674 25.7682 35.912 25.6032L35.9052 25.5938Z" fill="#14202B"/>
<path d="M43.3074 28.9151C43.3074 28.9151 43.326 28.9015 43.3273 28.8934C43.3379 28.8786 43.3366 28.8866 43.3074 28.9151Z" fill="#14202B"/>
<path d="M42.0249 30.4971C42.0249 30.4971 42.0368 30.4742 42.0461 30.4674C42.0487 30.4512 42.0474 30.4593 42.0249 30.4971Z" fill="#14202B"/>
<path d="M40.5313 32.6005C40.7558 32.6939 41.1143 32.6184 41.1979 32.3506C41.3129 31.9887 41.4441 31.6292 41.6062 31.283C41.6825 31.1133 41.7657 30.9529 41.8569 30.7937C41.9031 30.7101 41.9506 30.6185 42.0049 30.5362C42.0049 30.5362 42.038 30.4836 42.0486 30.4687C42.0473 30.4768 42.0367 30.4916 42.0274 30.4984C42.0511 30.4526 42.0592 30.4538 42.0486 30.4687C42.0698 30.439 42.091 30.4093 42.1041 30.3783C42.3106 30.0639 42.532 29.7601 42.7749 29.4762C42.8958 29.3383 43.0166 29.2004 43.1442 29.0718C43.1828 29.0366 43.2133 29.0001 43.2519 28.9649C43.2532 28.9569 43.3011 28.9149 43.3197 28.9013C43.3184 28.9093 43.3011 28.9149 43.2998 28.9229C43.3384 28.8877 43.3384 28.8877 43.3197 28.9013C43.3863 28.8457 43.446 28.7808 43.5126 28.7252C43.7135 28.5504 43.8035 28.2423 43.6249 28.0157C43.4666 27.8171 43.1362 27.7152 42.9166 27.9036C41.6911 28.9741 40.7522 30.371 40.2661 31.9304C40.2283 32.0649 40.2011 32.1846 40.2531 32.3251C40.3009 32.4401 40.3983 32.5546 40.5152 32.5979L40.5313 32.6005Z" fill="#14202B"/>
<path d="M52.0564 36.1969C52.0564 36.1969 52.0589 36.1808 52.0683 36.174C52.0683 36.174 52.0339 36.2347 52.0564 36.1969Z" fill="#14202B"/>
<path d="M50.8172 38.9606L50.8223 38.9284C50.8054 38.9835 50.8236 38.9203 50.8223 38.9284C50.8223 38.9284 50.8223 38.9284 50.8236 38.9203C50.8313 38.8719 50.8563 38.818 50.872 38.7709C50.9034 38.6767 50.9348 38.5825 50.965 38.4964C51.0278 38.308 51.0974 38.1289 51.167 37.9498C51.3155 37.5849 51.4788 37.2306 51.657 36.8869C51.7507 36.7116 51.8432 36.5444 51.9437 36.3785C51.9675 36.3327 51.9993 36.2882 52.023 36.2423C52.0256 36.2262 52.0349 36.2194 52.0455 36.2046C52.023 36.2423 52.0481 36.1884 52.0574 36.1816C52.0574 36.1816 52.0548 36.1978 52.0455 36.2046C52.0998 36.1222 52.1541 36.0399 52.2083 35.9576C52.4255 35.6283 52.6655 35.3109 52.9203 35.0042C52.9826 34.9231 53.0517 34.8514 53.1128 34.7784C53.1433 34.7419 53.1738 34.7054 53.2111 34.6783C53.2311 34.6567 53.2497 34.6431 53.2616 34.6202C53.2896 34.5998 53.3002 34.5849 53.2616 34.6202C53.3362 34.5658 53.404 34.5022 53.4786 34.4479C53.4786 34.4479 53.496 34.4424 53.5053 34.4356C53.4973 34.4343 53.4786 34.4479 53.4693 34.4547C53.532 34.4233 53.5227 34.4301 53.5053 34.4356C53.5134 34.4369 53.532 34.4233 53.5413 34.4165C53.5867 34.3906 53.6388 34.3741 53.6896 34.3656C53.9409 34.2897 54.0776 33.9476 53.9752 33.7083C53.8605 33.4422 53.5958 33.3425 53.3191 33.4226C52.9034 33.5469 52.5749 33.8503 52.3014 34.1707C52.0292 34.483 51.7706 34.8139 51.5348 35.1568C51.0527 35.8573 50.6285 36.6084 50.2971 37.3989C50.0998 37.8636 49.9415 38.3426 49.7992 38.8243C49.7262 39.0772 49.9684 39.3717 50.2192 39.4031C50.5195 39.4342 50.7204 39.2593 50.7973 38.9822L50.8172 38.9606Z" fill="#14202B"/>
<path d="M53.4907 34.4327C53.4907 34.4327 53.5174 34.4204 53.5267 34.4136C53.5453 34.4 53.5534 34.4013 53.4907 34.4327Z" fill="#14202B"/>
<path d="M49.4025 34.3506C49.5143 34.4262 49.6617 34.433 49.7546 34.3155C49.8355 34.2208 49.8327 34.0303 49.7196 33.9628C49.4622 33.765 49.145 34.1529 49.4025 34.3506Z" fill="#14202B"/>
<path d="M45.1338 33.1372C46.1895 33.8167 47.2572 34.4733 48.3566 35.0853C48.8034 35.3379 49.3247 35.6931 49.859 35.6537C50.1348 35.6312 50.376 35.4628 50.4355 35.1912C50.4975 34.9035 50.3545 34.6081 50.1813 34.3989C50.0501 34.2377 49.9002 34.09 49.7304 33.9639C49.8422 34.0395 49.8463 34.2219 49.7654 34.3166C49.6725 34.4341 49.5251 34.4273 49.4133 34.3517C49.5454 34.4553 49.6762 34.5669 49.7871 34.7002C49.8629 34.7948 49.9281 34.9043 49.9475 34.99C49.9475 34.99 49.9492 35.0316 49.956 35.0409C49.956 35.0409 49.956 35.0409 49.9547 35.049C49.956 35.0409 49.9589 35.0745 49.9547 35.049C49.9547 35.049 49.9547 35.049 49.9534 35.0571C49.9521 35.0651 49.9509 35.0732 49.9496 35.0813L49.9521 35.0651C49.9483 35.0893 49.947 35.0974 49.9496 35.0813C49.9496 35.0813 49.9483 35.0893 49.947 35.0974L49.9483 35.0893C49.9483 35.0893 49.9483 35.0893 49.947 35.0974C49.9458 35.1054 49.9445 35.1135 49.947 35.0974C49.9377 35.1042 49.9458 35.1054 49.947 35.0974L49.9284 35.111C49.9203 35.1097 49.9191 35.1177 49.9284 35.111C49.9203 35.1097 49.8924 35.1301 49.8843 35.1288C49.8843 35.1288 49.8602 35.125 49.8589 35.133C49.7678 35.1351 49.6767 35.1372 49.5598 35.0939C49.4336 35.0574 49.3112 34.9967 49.1968 34.9373C49.0058 34.841 48.8241 34.7378 48.6424 34.6347C47.6493 34.0808 46.6706 33.4879 45.7118 32.8733C45.3523 32.6428 44.9847 32.4111 44.637 32.1577C44.5036 32.0622 44.3808 31.9519 44.2873 31.8131C44.2602 31.7758 44.2356 31.7223 44.2272 31.6714C44.2272 31.6714 44.2175 31.6285 44.2188 31.6204C44.2213 31.6043 44.2226 31.5962 44.2171 31.5788C44.2171 31.5788 44.2171 31.5788 44.2184 31.5708C44.2184 31.5708 44.2184 31.5708 44.2171 31.5788L44.2196 31.5627C44.2273 31.5143 44.2299 31.4982 44.2511 31.4685C44.2511 31.4685 44.2723 31.4388 44.2922 31.4172C44.2922 31.4172 44.3002 31.4184 44.3096 31.4117C44.3202 31.3968 44.3388 31.3832 44.3176 31.4129C44.3257 31.4142 44.3337 31.4155 44.3176 31.4129L44.3337 31.4155C44.3418 31.4168 44.3498 31.418 44.3579 31.4193C44.3015 31.4104 44.374 31.4219 44.374 31.4219C44.374 31.4219 44.374 31.4219 44.3659 31.4206C44.3981 31.4257 44.4303 31.4308 44.4544 31.4346C44.4866 31.4397 44.5188 31.4448 44.551 31.4499C44.5671 31.4524 44.5832 31.455 44.5993 31.4575C44.5993 31.4575 44.5993 31.4575 44.6074 31.4588C44.5752 31.4537 44.6396 31.4639 44.6074 31.4588C44.6074 31.4588 44.6074 31.4588 44.6154 31.4601C44.7954 31.5216 44.9729 31.5993 45.1504 31.677C45.6103 31.8985 46.0571 32.1511 46.4933 32.4185C47.4128 32.969 48.3059 33.5814 49.2041 34.1616C49.2863 34.2159 49.3765 34.2715 49.4586 34.3259C49.2012 34.1281 49.5196 33.7322 49.7758 33.938C48.8009 33.3209 47.8485 32.666 46.8562 32.0544C46.3743 31.7633 45.8843 31.4708 45.3786 31.2255C45.0491 31.0659 44.659 30.8719 44.2828 30.9033C44.0739 30.9198 43.9209 31.0526 43.8259 31.2359C43.6634 31.5325 43.7399 31.8835 43.9295 32.1449C44.0975 32.3864 44.336 32.5481 44.5744 32.7098C44.7751 32.849 44.9771 32.9801 45.1791 33.1113L45.1338 33.1372Z" fill="#14202B"/>
<path d="M44.2667 31.4206C44.2667 31.4206 44.2583 31.4193 44.2487 31.4263C44.2487 31.4263 44.2487 31.4263 44.257 31.4277L44.2667 31.4206Z" fill="#14202B"/>
<path d="M44.2734 31.423C44.2734 31.423 44.2747 31.4146 44.265 31.4217C44.265 31.4217 44.265 31.4217 44.2734 31.423Z" fill="#14202B"/>
<path d="M64.8443 44.9341C64.7947 44.9345 64.8201 44.9303 64.8443 44.9341V44.9341Z" fill="#14202B"/>
<path d="M65.1225 44.9061C65.1225 44.9061 65.0717 44.9146 65.0704 44.9226C65.0865 44.9252 65.1051 44.9116 65.1212 44.9141L65.1225 44.9061Z" fill="#14202B"/>
<path d="M65.4771 44.6388C65.4771 44.6388 65.4809 44.6146 65.4915 44.5997C65.4941 44.5836 65.4928 44.5917 65.4677 44.6456L65.4771 44.6388Z" fill="#14202B"/>
<path d="M65.2461 44.857C65.2461 44.857 65.2274 44.8706 65.2181 44.8774C65.2181 44.8774 65.2274 44.8706 65.2367 44.8638C65.2007 44.8829 65.1579 44.8926 65.1219 44.9117C65.1219 44.9117 65.1299 44.913 65.138 44.9143C65.138 44.9143 65.13 44.913 65.1219 44.9117C65.1219 44.9117 65.1058 44.9092 65.0965 44.916C65.0791 44.9215 65.0711 44.9202 65.0723 44.9122C65.0643 44.9109 65.0562 44.9096 65.0469 44.9164C64.98 44.9223 64.9211 44.9295 64.8541 44.9355C64.8541 44.9355 64.8541 44.9355 64.8461 44.9342C64.7885 44.9333 64.8219 44.9304 64.8461 44.9342C64.8219 44.9304 64.7897 44.9253 64.7817 44.924C64.7253 44.9151 64.6771 44.9074 64.6207 44.8985C64.5 44.8794 64.3792 44.8603 64.2598 44.8331C63.9565 44.7686 63.6557 44.6879 63.355 44.6073C63.2677 44.5852 63.1737 44.5538 63.0864 44.5317C63.0784 44.5304 63.0542 44.5266 63.0381 44.5241C63.0462 44.5253 63.0542 44.5266 63.0623 44.5279C62.9992 44.5096 63.014 44.5202 63.0381 44.5241C62.9979 44.5177 62.9509 44.502 62.9119 44.4876C62.7226 44.4328 62.5265 44.3687 62.3384 44.3059C62.0872 44.2248 61.7809 44.2837 61.6718 44.5557C61.5785 44.7806 61.6536 45.1397 61.9209 45.2233C62.6046 45.4389 63.2963 45.6559 63.9969 45.8163C64.554 45.9458 65.1563 46.0494 65.6874 45.7698C66.2091 45.497 66.5627 44.9828 66.6076 44.3866C66.6534 43.7326 66.4169 43.1415 65.9923 42.6445C65.4838 42.0516 64.8491 41.5793 64.3033 41.0135C64.1183 40.8272 63.7463 40.884 63.5911 41.0826C63.4134 41.319 63.4611 41.591 63.6597 41.796C64.092 42.2446 64.5828 42.6363 65.0244 43.0781C65.046 43.098 65.0743 43.1273 65.0959 43.1473C65.0756 43.1193 65.0472 43.09 65.1107 43.1579C65.1107 43.1579 65.1027 43.1566 65.0959 43.1473C65.0959 43.1473 65.1107 43.1579 65.1095 43.1659C65.1594 43.2152 65.2001 43.2712 65.242 43.3191C65.3258 43.4151 65.391 43.5246 65.4574 43.626C65.4354 43.5564 65.5239 43.7274 65.4561 43.634C65.4684 43.6608 65.4807 43.6875 65.4942 43.7062C65.5188 43.7597 65.5353 43.8119 65.5517 43.8641C65.5517 43.8641 65.564 43.8908 65.5682 43.9163C65.5721 43.8921 65.5708 43.9001 65.5682 43.9163C65.5682 43.9163 65.5682 43.9163 65.567 43.9243C65.5741 43.9833 65.5881 44.0516 65.5952 44.1106C65.5901 44.1429 65.6024 44.1696 65.5973 44.2018C65.5973 44.2018 65.5934 44.226 65.5909 44.2422C65.5871 44.2663 65.5845 44.2825 65.5909 44.2422C65.5909 44.2422 65.5909 44.2422 65.5935 44.226C65.5914 44.1348 65.5935 44.226 65.5896 44.2502C65.5845 44.2825 65.5807 44.3067 65.5756 44.3389C65.5718 44.3631 65.5692 44.3792 65.5654 44.4034C65.5654 44.4034 65.5734 44.4047 65.5603 44.4357C65.559 44.4437 65.5577 44.4518 65.5552 44.4679L65.5526 44.484C65.5526 44.484 65.5539 44.476 65.5552 44.4679C65.5513 44.4921 65.5395 44.515 65.5276 44.5379C65.5238 44.5621 65.5051 44.5757 65.4932 44.5986C65.492 44.6067 65.4894 44.6228 65.4788 44.6376C65.4775 44.6457 65.4762 44.6538 65.4669 44.6606C65.4669 44.6606 65.4682 44.6525 65.4695 44.6444C65.4669 44.6606 65.4483 44.6741 65.4377 44.689C65.4071 44.7255 65.3698 44.7526 65.3474 44.7904C65.3486 44.7823 65.358 44.7755 65.3673 44.7688C65.3474 44.7904 65.3207 44.8027 65.302 44.8163C65.302 44.8163 65.294 44.815 65.2846 44.8218C65.2846 44.8218 65.266 44.8354 65.2567 44.8422L65.2461 44.857Z" fill="#14202B"/>
<path d="M65.237 44.8558C65.2451 44.8571 65.2557 44.8423 65.265 44.8355C65.2756 44.8206 65.2675 44.8194 65.229 44.8546L65.237 44.8558Z" fill="#14202B"/>
<path d="M65.4543 43.6352C65.514 43.7273 65.4256 43.5562 65.4556 43.6271L65.4543 43.6352Z" fill="#14202B"/>
<path d="M65.0874 43.1555C65.0874 43.1555 65.0955 43.1568 65.1023 43.1661C65.0468 43.0995 65.0671 43.1275 65.0874 43.1555Z" fill="#14202B"/>
<path d="M65.5676 43.9149C65.5632 43.8884 65.5703 43.8981 65.5676 43.9149V43.9149Z" fill="#14202B"/>
</g>
<defs>
<clipPath id="clip0_1025_96577">
<rect width="67.1071" height="36.3497" fill="white" transform="translate(5.68359) rotate(8.99415)"/>
</clipPath>
</defs>
</svg>
