<svg width="49" height="65" viewBox="0 0 49 65" fill="none" xmlns="http://www.w3.org/2000/svg">
<g clip-path="url(#clip0_1025_61614)">
<path d="M42.9701 24.9246C42.5001 22.6546 41.3701 20.5746 40.0901 18.6446C38.8301 16.7346 37.4101 14.9146 35.6401 13.4746C30.9601 9.64461 23.9501 8.95461 18.6201 11.7946C13.2901 14.6346 9.95012 20.8346 10.5201 26.8546C11.5901 38.2246 26.2501 43.3346 29.9001 54.1546C35.2201 53.0546 38.9401 50.0746 44.2601 48.9746C41.2601 42.9946 44.3601 31.6546 42.9701 24.9246Z" fill="#FFC300"/>
<path d="M29.6602 53.703C30.3702 55.293 31.0802 56.883 31.7902 58.463C32.5602 60.193 33.4402 62.043 35.0802 62.983C36.4902 63.793 38.2402 63.773 39.8102 63.383C41.9602 62.843 44.0102 61.543 44.9802 59.553C46.4602 56.513 45.1202 52.903 43.7802 49.793" stroke="#1A245C" stroke-width="1.4" stroke-linecap="round" stroke-linejoin="round"/>
<path d="M33.5195 60.9966C37.4995 59.4866 41.4695 57.9866 45.4495 56.4766" stroke="#1A245C" stroke-width="1.4" stroke-linecap="round" stroke-linejoin="round"/>
<path d="M30.7305 56.8436C35.4105 55.5636 40.0105 54.0036 44.5005 52.1836" stroke="#1A245C" stroke-width="1.4" stroke-linecap="round" stroke-linejoin="round"/>
<path d="M29.5312 53.8639C33.9812 52.4639 38.3712 50.8439 42.6612 49.0039" stroke="#1A245C" stroke-width="1.4" stroke-linecap="round" stroke-linejoin="round"/>
<path d="M32.4385 51.2041C30.7885 45.2941 28.0485 39.6941 24.4085 34.7541C23.6285 34.9641 23.2985 35.9241 23.4185 36.7241C23.6085 37.9541 24.5785 38.9841 25.7285 39.4541C26.8785 39.9241 28.1885 39.9141 29.4085 39.6441C30.3385 39.4441 31.2785 39.0741 31.9485 38.3941C33.0085 37.3141 33.1985 35.6641 33.1585 34.1541C33.1285 32.7641 32.8585 31.2041 31.7185 30.4141C30.5085 31.0441 30.5785 32.7841 30.9185 34.1141C32.3085 39.5041 35.3085 44.3241 38.2585 49.0441" stroke="#1A245C" stroke-width="1.4" stroke-linecap="round" stroke-linejoin="round"/>
<path d="M24.8516 13.6323C29.6116 12.8523 34.7316 15.5923 36.7216 19.9823" stroke="#1A245C" stroke-width="1.4" stroke-linecap="round" stroke-linejoin="round"/>
<path d="M18.2886 8.36453C17.6286 6.20453 16.9686 4.05453 16.3086 1.89453" stroke="#1A245C" stroke-width="1.4" stroke-linecap="round" stroke-linejoin="round"/>
<path d="M30.3203 6.42344C30.6103 4.59344 31.0403 2.79344 31.6103 1.02344" stroke="#1A245C" stroke-width="1.4" stroke-linecap="round" stroke-linejoin="round"/>
<path d="M34.8789 6.99484C35.6189 5.33484 36.6189 3.80484 37.8389 2.46484" stroke="#1A245C" stroke-width="1.4" stroke-linecap="round" stroke-linejoin="round"/>
<path d="M42.8398 15.9656C44.6098 14.9856 46.3798 13.9956 48.1498 13.0156" stroke="#1A245C" stroke-width="1.4" stroke-linecap="round" stroke-linejoin="round"/>
<path d="M2.91016 12.793C4.75016 13.753 6.58016 14.703 8.42016 15.663" stroke="#1A245C" stroke-width="1.4" stroke-linecap="round" stroke-linejoin="round"/>
<path d="M1.23828 16.8945C2.57828 17.1545 3.91828 17.4145 5.24828 17.6745" stroke="#1A245C" stroke-width="1.4" stroke-linecap="round" stroke-linejoin="round"/>
<path d="M0.699219 31.7325C2.91922 31.0125 5.13922 30.2825 7.34922 29.5625" stroke="#1A245C" stroke-width="1.4" stroke-linecap="round" stroke-linejoin="round"/>
<path d="M9.07031 43.5348C10.5403 41.7648 12.2803 40.2148 14.2103 38.9648" stroke="#1A245C" stroke-width="1.4" stroke-linecap="round" stroke-linejoin="round"/>
</g>
<defs>
<clipPath id="clip0_1025_61614">
<rect width="48.86" height="64.02" fill="white" transform="translate(0 0.324219)"/>
</clipPath>
</defs>
</svg>
