<svg width="21" height="21" viewBox="0 0 21 21" fill="none" xmlns="http://www.w3.org/2000/svg">
<path d="M10.5 17.0625C14.1244 17.0625 17.0625 16.1811 17.0625 15.0938C17.0625 14.0064 14.1244 13.125 10.5 13.125C6.87563 13.125 3.9375 14.0064 3.9375 15.0938C3.9375 16.1811 6.87563 17.0625 10.5 17.0625Z" stroke="#072445"/>
<path fill-rule="evenodd" clip-rule="evenodd" d="M10.6641 14.9922C10.6641 14.9922 14.4375 12.0391 14.4375 8.10156C14.4375 6.13281 13.1796 4.16406 10.6641 4.16406C8.14849 4.16406 6.89062 6.13281 6.89062 8.10156C6.89062 12.0391 10.6641 14.9922 10.6641 14.9922ZM10.6641 9.08594C10.9686 9.08594 11.2608 8.96494 11.4761 8.74957C11.6915 8.53419 11.8125 8.24208 11.8125 7.9375C11.8125 7.63292 11.6915 7.34081 11.4761 7.12543C11.2608 6.91006 10.9686 6.78906 10.6641 6.78906C10.3595 6.78906 10.0674 6.91006 9.85199 7.12543C9.63662 7.34081 9.51562 7.63292 9.51562 7.9375C9.51562 8.24208 9.63662 8.53419 9.85199 8.74957C10.0674 8.96494 10.3595 9.08594 10.6641 9.08594Z" fill="#B81E29"/>
<path d="M10.5 14.9922L10.3989 15.1213C10.4278 15.1439 10.4634 15.1561 10.5 15.1561C10.5366 15.1561 10.5722 15.1439 10.6011 15.1213M10.5 14.9922L10.6011 15.1213M10.5 14.9922C10.3989 15.1213 10.3988 15.1213 10.3986 15.1211L10.3978 15.1206L10.3955 15.1187L10.3868 15.1118C10.3343 15.0694 10.2824 15.0262 10.2311 14.9822C10.0829 14.8547 9.93811 14.7231 9.79699 14.5878C9.32256 14.1335 8.88331 13.6439 8.48302 13.1232C7.52965 11.8796 6.5625 10.122 6.5625 8.10156C6.5625 7.08388 6.88718 6.0603 7.54507 5.28822C8.20575 4.51253 9.19521 4 10.5 4C11.8048 4 12.7943 4.51237 13.4549 5.28822C14.1127 6.0603 14.4375 7.08405 14.4375 8.10156C14.4375 10.1218 13.4705 11.8796 12.517 13.1232C12.1167 13.6439 11.6774 14.1335 11.203 14.5878C11.0619 14.7231 10.9171 14.8547 10.7689 14.9822C10.7162 15.0273 10.6747 15.0618 10.6462 15.085L10.6132 15.1118L10.6045 15.1187L10.6022 15.1206L10.6014 15.1211L10.6011 15.1213" stroke="#072445" stroke-linecap="round" stroke-linejoin="round"/>
<path d="M10.5 9.25C11.2249 9.25 11.8125 8.66237 11.8125 7.9375C11.8125 7.21263 11.2249 6.625 10.5 6.625C9.77513 6.625 9.1875 7.21263 9.1875 7.9375C9.1875 8.66237 9.77513 9.25 10.5 9.25Z" stroke="#072445" stroke-width="0.5"/>
</svg>
