<svg width="1009" height="93" viewBox="0 0 1009 93" fill="none" xmlns="http://www.w3.org/2000/svg">
<path opacity="0.1" d="M68.9899 75.014L62.2061 78.9864C-87.1944 166.474 -179 326.622 -179 499.754V508.733C-179 786.68 46.3203 1012 324.267 1012H3435.2C3707.37 1012 3928 791.367 3928 519.201C3928 335.473 3825.79 167.001 3662.84 82.1309L3627.2 63.5699C3469.58 -18.5278 3282.3 -20.7818 3122.74 57.4983L3024.99 105.457C2879.53 176.818 2707.52 167.884 2570.24 81.8395C2424.03 -9.80154 2239.26 -13.5685 2089.43 72.0373L2071.47 82.3007C1921.26 168.128 1737.47 170.674 1584.94 89.0387L1541.41 65.7419C1387.08 -16.8555 1201.12 -14.2802 1049.14 72.5593L1031.75 82.4965C882.853 167.571 699.636 165.657 552.553 77.4911C403.919 -11.6043 218.529 -12.5541 68.9899 75.014Z" fill="url(#paint0_linear_4481_67847)"/>
<defs>
<linearGradient id="paint0_linear_4481_67847" x1="1874.5" y1="-67" x2="1874.5" y2="1012" gradientUnits="userSpaceOnUse">
<stop stop-color="white"/>
<stop offset="1" stop-color="white"/>
</linearGradient>
</defs>
</svg>
