<svg width="40" height="36" viewBox="0 0 40 36" fill="none" xmlns="http://www.w3.org/2000/svg">
<g clip-path="url(#clip0_1025_61651)">
<path d="M38.7339 8.93035C34.2289 -0.170542 21.4359 -3.77122 16.1154 6.74316C13.9194 11.0828 14.5826 16.7269 17.7268 20.4267C19.0532 21.989 20.7531 23.1942 22.5364 24.196C23.7007 24.8458 24.9289 25.4211 26.2407 25.6542C28.9181 26.1353 31.6497 25.1483 34.0078 23.7794C35.6094 22.852 37.1323 21.7162 38.2181 20.2085C40.5271 17.0096 40.4878 12.4715 38.7339 8.93531V8.93035ZM27.857 22.4255C27.0513 22.4701 26.2505 22.3412 25.4694 22.1328C22.954 21.4633 20.7727 19.9605 19.4119 17.6841C17.6875 14.7976 17.152 10.1107 19.1122 7.24408C22.3055 2.57708 28.3188 2.65148 32.4848 5.51318C33.2512 6.0389 33.998 6.60925 34.5679 7.34327C35.9533 9.13865 36.6018 11.9061 36.2824 14.128C35.6978 18.1552 32.2441 22.1676 27.8619 22.4205L27.857 22.4255Z" fill="#006CD1"/>
<path d="M19.6958 20.8856C18.9147 19.7151 18.5708 19.2291 17.7897 18.0586C15.2547 20.1069 12.7639 22.2148 10.332 24.3871C11.8353 24.8285 11.4865 26.3759 12.926 27.0008C15.2448 24.9277 17.377 22.9587 19.6958 20.8856Z" fill="#006CD1"/>
<path d="M6.96326 25.6046C7.64614 24.9995 8.34375 24.3895 9.15928 23.9927C9.97972 23.5959 10.9426 23.4174 11.8024 23.715C13.2811 24.2209 14.0328 26.2245 13.2516 27.5884C13.0257 27.9852 12.6965 28.3175 12.3722 28.6399C10.4415 30.5493 8.34867 32.3001 6.12808 33.8623C5.33712 34.4178 4.51177 34.9584 3.57834 35.2114C1.31354 35.8264 -1.08882 33.7979 0.537317 31.6553C2.23223 29.4235 4.87532 27.4644 6.96326 25.5996V25.6046Z" fill="#1A245C"/>
<path d="M18.0213 8.88881C20.1732 3.1555 28.4021 1.99991 32.9857 5.28317C36.3657 7.70842 37.8887 12.5986 36.1692 16.4076C35.5551 17.7665 34.5873 18.942 33.5311 19.9884C32.7401 20.7721 31.8853 21.5061 30.8831 21.9872C26.8939 23.9065 21.1901 21.4366 19.0874 17.7764C17.589 15.1677 16.9356 11.7604 18.0164 8.88385L18.0213 8.88881Z" stroke="#1A245C" stroke-width="1.4" stroke-linecap="round" stroke-linejoin="round"/>
<path d="M25.2773 11.8438C25.41 13.3763 25.7981 14.884 26.4269 16.2876" stroke="#1A245C" stroke-width="1.4" stroke-linecap="round" stroke-linejoin="round"/>
<path d="M27.418 9.10938C27.757 11.7876 28.3612 14.4261 29.221 16.9852" stroke="#1A245C" stroke-width="1.4" stroke-linecap="round" stroke-linejoin="round"/>
<path d="M15.5625 16.6094C16.5451 19.5306 18.6281 22.06 21.2859 23.5727" stroke="#1A245C" stroke-width="1.4" stroke-linecap="round" stroke-linejoin="round"/>
<path d="M28.082 24.4685C30.3665 24.1412 32.5527 23.1245 34.282 21.582" stroke="#1A245C" stroke-width="1.4" stroke-linecap="round" stroke-linejoin="round"/>
<path d="M22.0664 3.31044C23.1816 2.97814 24.2968 2.64585 25.412 2.30859" stroke="#1A245C" stroke-width="1.4" stroke-linecap="round" stroke-linejoin="round"/>
</g>
<defs>
<clipPath id="clip0_1025_61651">
<rect width="40" height="35" fill="white" transform="translate(0 0.324219)"/>
</clipPath>
</defs>
</svg>
