<svg width="41" height="50" viewBox="0 0 41 50" fill="none" xmlns="http://www.w3.org/2000/svg">
<path d="M33.9352 20.9506C29.5482 28.8094 21.0947 31.8819 19.6498 32.3567C19.5767 32.0245 19.479 31.7259 19.3442 31.4642C20.1478 31.1832 23.6613 29.8448 27.2032 27.16C30.7198 24.4819 34.9305 19.8919 35.6141 13.0467C36.0414 17.4467 33.97 20.9177 33.9352 20.9506Z" fill="#12326D"/>
<path d="M34.6328 9.26081C33.9528 8.79895 32.7528 8.34669 30.6697 8.31481C26.02 8.23403 21.5173 10.1225 19.7898 11.149C16.7048 12.9485 16.6332 16.6256 17.1173 19.3945C17.3201 20.5611 17.5737 21.5825 17.7999 22.4826C18.4573 25.1074 18.93 27.0037 17.7112 30.1266C17.7067 30.1346 17.7102 30.1471 17.7102 30.1471C17.4974 30.0785 17.232 29.98 16.9707 29.8837C17.3324 29.2873 18.3374 27.0089 16.8647 21.9701C15.0659 15.8212 15.9473 12.0305 19.6386 10.0329C22.69 8.36749 30.1372 6.02532 33.5078 8.12258C33.9795 8.42336 34.3557 8.80696 34.6305 9.26479L34.6328 9.26081Z" fill="#12326D"/>
<path d="M13.378 42.9749L14.8164 43.5262C14.308 43.8065 13.819 43.9025 13.4066 43.7517L12.4242 43.3972C12.6142 43.3366 12.7979 43.2777 12.9894 43.1863C13.1213 43.1242 13.2519 43.0456 13.3762 42.9686L13.378 42.9749Z" fill="#7C2529"/>
<path d="M14.3333 42.2688L15.7515 42.8086C15.54 43.0101 15.3341 43.1831 15.1275 43.3292L13.6972 42.7826C13.9182 42.6394 14.1305 42.4647 14.3374 42.2711L14.3333 42.2688Z" fill="#7C2529"/>
<path d="M15.1129 41.4569L16.4815 41.9895C16.3151 42.2061 16.1496 42.4022 15.9702 42.5851L14.5688 42.0443C14.7539 41.87 14.9361 41.6729 15.1129 41.4569Z" fill="#7C2529"/>
<path d="M15.8041 40.5342L17.1323 41.0437C16.981 41.2901 16.8262 41.5239 16.6643 41.7326L15.3073 41.2172C15.4818 41.0052 15.6447 40.776 15.8041 40.5342Z" fill="#7C2529"/>
<path d="M17.288 40.7929L15.9679 40.288C16.1192 40.0416 16.2705 39.7952 16.3976 39.5349L17.7015 40.0306C17.5699 40.2988 17.4267 40.5498 17.288 40.7929Z" fill="#7C2529"/>
<path d="M34.5168 23.2117C34.3281 23.5424 34.1314 23.8685 33.9071 24.2052C33.8571 24.2929 33.7375 24.3145 33.6549 24.262C33.5704 24.2033 33.5426 24.0924 33.5967 24.007C33.8187 23.6742 34.0154 23.3482 34.1973 23.0294C34.2473 22.9418 34.3587 22.9156 34.4437 22.964C34.5286 23.0125 34.5605 23.1257 34.5127 23.2094L34.5168 23.2117Z" fill="white"/>
<path d="M33.1161 24.8694C33.196 24.936 33.2112 25.0504 33.1514 25.1271C30.6546 28.2444 28.016 29.8814 27.9862 29.8961C27.9003 29.9527 27.7851 29.9292 27.731 29.8455C27.6774 29.7516 27.6996 29.6375 27.7913 29.5895C27.813 29.5702 30.4063 27.9655 32.8591 24.897C32.9253 24.8186 33.038 24.8089 33.1184 24.8654L33.1161 24.8694Z" fill="white"/>
<path d="M34.3511 21.2014C29.8219 29.2907 21.0568 32.4019 19.7451 32.8313C19.9624 34.3389 19.7225 36.3568 18.9787 38.478C17.5843 42.3879 15.0552 44.9323 13.219 44.2703L10.9421 43.4413C10.9421 43.4413 10.9143 43.4148 10.8981 43.4056C10.8486 43.3985 10.7909 43.3867 10.746 43.3716C8.53824 42.5716 7.90143 38.8864 9.30219 34.9748C10.6921 31.0728 13.5032 28.6259 15.7109 29.426C15.7397 29.4319 15.7721 29.4503 15.8044 29.4688C15.8252 29.47 15.8423 29.4587 15.8585 29.468C15.8585 29.468 16.1406 29.5655 16.5081 29.7012C16.7028 29.4162 17.9318 27.3184 16.4019 22.0886C14.5363 15.6903 15.4844 11.7264 19.402 9.60451C22.6392 7.83905 30.1784 5.48599 33.7588 7.7135C34.8037 8.36245 35.4328 9.35508 35.6286 10.6656C37.3183 16.2823 34.3761 21.1576 34.3534 21.1975L34.3511 21.2014ZM19.6497 32.3596C21.0945 31.8848 29.548 28.8123 33.935 20.9535C33.9659 20.9183 36.0413 17.4496 35.614 13.0496C34.9281 19.8988 30.7197 24.4848 27.2031 27.1629C23.6612 29.8477 20.1517 31.1884 19.3441 31.4671C19.4766 31.7328 19.5765 32.0275 19.6497 32.3596ZM19.1046 31.0506C20.2869 30.6319 34.6368 25.3517 35.2148 11.9452C35.2377 11.5199 35.2176 11.1229 35.1545 10.7543C35.1226 10.641 35.0989 10.5324 35.0642 10.4334C35.0652 10.4128 34.5673 8.86134 30.6715 8.79342C26.1219 8.70636 21.7248 10.56 20.0408 11.548C17.1925 13.2237 17.1327 16.7016 17.5893 19.3121C17.7931 20.4582 18.0325 21.4292 18.2693 22.3671C18.9277 24.9714 19.4442 27.0352 18.1603 30.3005L18.1557 30.3085L18.1926 30.319C18.5601 30.4547 18.8639 30.702 19.1069 31.0466L19.1046 31.0506ZM15.968 40.2881L17.2881 40.793C17.4268 40.55 17.57 40.299 17.7015 40.0307L16.3976 39.5351C16.2706 39.7953 16.1193 40.0417 15.968 40.2881ZM17.1323 41.0474L15.8041 40.5379C15.6447 40.7796 15.4818 41.0088 15.3072 41.2208L16.6642 41.7362C16.8261 41.5276 16.981 41.2938 17.1323 41.0474ZM17.8286 39.7705C17.9465 39.5262 18.0563 39.2773 18.1627 39.0158L16.8795 38.5214C16.7651 38.7782 16.6552 39.0272 16.5327 39.2794L17.8286 39.7705ZM16.4813 41.991L15.1127 41.4584C14.9382 41.6704 14.752 41.8652 14.5686 42.0458L15.97 42.5866C16.1471 42.4077 16.3126 42.2116 16.4813 41.991ZM18.2798 38.7446C18.3351 38.5913 18.4008 38.4387 18.4538 38.2894C18.4967 38.1765 18.5247 38.0711 18.5596 37.9536L17.2764 37.4592C17.237 37.5846 17.2044 37.6981 17.157 37.8189C17.1039 37.9682 17.0497 38.1009 16.9885 38.2456L18.2798 38.7446ZM15.7472 42.808L14.3291 42.2683C14.1222 42.4618 13.9122 42.6325 13.6889 42.7797L15.1191 43.3263C15.3276 43.1865 15.5294 43.0112 15.7432 42.8057L15.7472 42.808ZM17.3642 37.1925L18.6474 37.6869C18.734 37.4036 18.8115 37.1362 18.8769 36.8619L17.5856 36.3629C17.5243 36.6395 17.4549 36.9115 17.3642 37.1925ZM30.6721 8.31318C32.7552 8.34505 33.953 8.80129 34.6352 9.25917C34.3563 8.79903 33.9842 8.41773 33.5125 8.11696C30.1442 6.01572 22.6947 8.36187 19.6432 10.0273C15.9561 12.0272 15.0769 15.8139 16.8694 21.9645C18.3421 27.0032 17.3371 29.2817 16.9754 29.878C17.2367 29.9743 17.4981 30.0706 17.7149 30.1415C17.7149 30.1415 17.7114 30.1289 17.7159 30.121C18.937 26.9941 18.4661 25.1041 17.8046 22.4769C17.5784 21.5768 17.3248 20.5555 17.122 19.3889C16.6397 16.6263 16.7072 12.9469 19.7945 11.1434C21.522 10.1168 26.0247 8.22841 30.6744 8.30919L30.6721 8.31318ZM18.9495 36.5654C19.0063 36.2967 19.0626 36.0384 19.109 35.7691L17.7889 35.2642C17.7574 35.5261 17.7047 35.7971 17.6456 36.0697L18.9495 36.5654ZM14.8203 43.5308L13.3819 42.9795C13.2535 43.0542 13.1229 43.1328 12.995 43.1972C12.8035 43.2886 12.6239 43.3498 12.4298 43.4081L13.4122 43.7626C13.8247 43.9134 14.3137 43.8174 14.822 43.5371L14.8203 43.5308ZM17.8282 34.9698L19.1438 35.4826C19.1899 35.1763 19.2275 34.8755 19.2461 34.5798L17.8896 34.0542C17.8894 34.3551 17.8726 34.6571 17.8345 34.9681L17.8282 34.9698ZM17.8943 33.7452L19.2594 34.2653C19.2696 33.9278 19.2622 33.612 19.2376 33.3075L17.828 32.7621C17.8688 33.0758 17.8964 33.4032 17.8983 33.7476L17.8943 33.7452ZM12.7475 42.6915C14.2873 41.9751 15.7827 40.0398 16.6361 37.6326C17.9053 34.0737 17.3984 30.6211 15.5299 29.9406C13.6528 29.2658 11.09 31.6061 9.81854 35.169C8.55743 38.7325 9.05212 42.1782 10.9247 42.861C11.4681 43.0548 12.0839 42.9995 12.7434 42.6892L12.7475 42.6915ZM17.7778 32.4272L19.2081 32.9739C19.1658 32.6909 19.1081 32.4257 19.0345 32.1882L17.58 31.6277C17.6571 31.8777 17.727 32.1499 17.7778 32.4272ZM17.4502 31.2633L18.9128 31.8284C18.6981 31.3309 18.3953 30.9786 17.999 30.837L17.0292 30.4791C17.1925 30.7096 17.3273 30.9713 17.4502 31.2633Z" fill="white"/>
<path d="M17.2944 43.4282C17.3743 43.4949 17.3814 43.6046 17.3296 43.686C17.2988 43.7212 16.6327 44.5505 15.5381 45.0879C15.3109 45.1854 15.0775 45.2846 14.8432 45.3569C14.7421 45.3838 14.641 45.3261 14.6081 45.2334C14.5798 45.1327 14.624 45.0365 14.7251 45.0096C14.9467 44.9407 15.163 44.8528 15.3694 44.754C16.4016 44.2603 17.0369 43.4662 17.0414 43.4582C17.0995 43.3752 17.2226 43.3662 17.3007 43.4266L17.2944 43.4282Z" fill="white"/>
<path d="M18.1648 39.0097C18.0585 39.2712 17.9486 39.5201 17.8307 39.7644L16.5349 39.2733C16.6574 39.021 16.7672 38.7721 16.8816 38.5152L18.1648 39.0097Z" fill="#7C2529"/>
<path d="M18.4535 38.2868C18.4005 38.4361 18.3371 38.5848 18.2796 38.7421L16.9883 38.243C17.0494 38.0983 17.1037 37.9656 17.1567 37.8163C17.2042 37.6955 17.2367 37.582 17.2761 37.4566L18.5593 37.9511C18.5245 38.0685 18.4965 38.174 18.4535 38.2868Z" fill="#7C2529"/>
<path d="M18.6495 37.683L17.3663 37.1886C17.4529 36.9053 17.5223 36.6333 17.5877 36.359L18.8789 36.858C18.8176 37.1346 18.7361 37.3997 18.6495 37.683Z" fill="#7C2529"/>
<path d="M19.1088 35.7664C19.0646 36.0317 19.0084 36.29 18.9493 36.5627L17.6454 36.067C17.7022 35.7983 17.7549 35.5274 17.7887 35.2615L19.1088 35.7664Z" fill="#7C2529"/>
<path d="M13.7067 45.3486C13.7017 45.4513 13.6252 45.5291 13.5215 45.5228C13.2597 45.5213 12.9976 45.4827 12.7348 45.4173C12.6322 45.3904 12.5745 45.2941 12.6003 45.1926C12.6179 45.0865 12.7246 45.0312 12.8168 45.0574C13.0549 45.1193 13.2945 45.1503 13.5287 45.1625C13.6324 45.1688 13.7117 45.2458 13.7067 45.3486Z" fill="white"/>
<path d="M19.1459 35.4773L17.8303 34.9645C17.8684 34.6535 17.8852 34.3515 17.8854 34.0505L19.2418 34.5762C19.2255 34.8679 19.188 35.1687 19.1395 35.479L19.1459 35.4773Z" fill="#7C2529"/>
<path d="M19.2596 34.2632L17.8945 33.7432C17.8886 33.3965 17.865 33.0715 17.8242 32.7577L19.2337 33.3031C19.2583 33.6076 19.2698 33.9258 19.2555 34.2609L19.2596 34.2632Z" fill="#7C2529"/>
<path d="M16.6424 37.6297C15.789 40.0369 14.2913 41.9762 12.7538 42.6887C12.0903 42.9967 11.4785 43.0543 10.9351 42.8604C9.06251 42.1776 8.56781 38.732 9.82893 35.1685C11.1004 31.6056 13.6631 29.2652 15.5403 29.9401C17.4129 30.6229 17.9156 34.0731 16.6464 37.632L16.6424 37.6297ZM13.6445 39.3046L13.9447 38.3932L13.1463 38.2705L14.6313 33.7414L13.9193 33.6363L12.0249 34.8053L12.2607 35.5946L12.9383 35.1679C13.1548 35.0327 13.3019 34.9159 13.4002 34.8188C13.2984 35.0723 13.1744 35.44 13.023 35.9028L12.2926 38.132L11.4942 38.0092L11.1941 38.9206L13.6427 39.2983L13.6445 39.3046ZM11.2487 41.9725C11.3305 41.9981 11.4114 41.9598 11.4402 41.8811C11.473 41.8048 11.4252 41.7194 11.3537 41.6945C9.90977 41.1717 9.68225 38.639 10.7775 35.5354C11.2948 34.093 11.9914 32.8533 12.7376 32.0432C12.8713 31.9029 13.0153 31.7633 13.1519 31.6458C13.2126 31.5959 13.2211 31.5058 13.1597 31.4443C13.1086 31.3835 13.0177 31.3738 12.9611 31.426C12.8158 31.5491 12.6592 31.6921 12.5164 31.8484C11.7462 32.6817 11.0292 33.9573 10.5017 35.4361C9.31484 38.7568 9.61492 41.3785 11.2423 41.9742L11.2487 41.9725ZM15.1194 31.11C15.2013 31.1356 15.2821 31.0972 15.3109 31.0186C15.3311 30.9456 15.2937 30.8609 15.2163 30.8273C14.8281 30.6903 14.419 30.684 13.9947 30.8169C13.9189 30.837 13.877 30.9293 13.9005 31.0008C13.9344 31.073 14.0153 31.1191 14.0916 31.0887C14.4481 30.9805 14.7928 30.9871 15.1176 31.1037L15.1194 31.11Z" fill="#D6001C"/>
<path d="M19.212 32.9751L17.7817 32.4284C17.7308 32.1512 17.6609 31.879 17.5838 31.629L19.0383 32.1895C19.1119 32.4269 19.1737 32.6945 19.212 32.9751Z" fill="#7C2529"/>
<path d="M18.9128 31.8247L17.4501 31.2596C17.329 30.974 17.1965 30.7082 17.0291 30.4754L17.9989 30.8333C18.3952 30.9749 18.6981 31.3272 18.9128 31.8247Z" fill="#7C2529"/>
<path d="M13.9446 38.3928L13.6445 39.3042L11.1958 38.9265L11.496 38.0151L12.2943 38.1378L13.0247 35.9087C13.1744 35.4396 13.3001 35.0782 13.4019 34.8247C13.3013 34.9258 13.1525 35.0363 12.94 35.1738L12.2624 35.6005L12.0266 34.8111L13.9211 33.6422L14.633 33.7473L13.148 38.2763L13.9464 38.3991L13.9446 38.3928Z" fill="white"/>
<path d="M11.4363 41.88C11.4116 41.9609 11.3267 41.997 11.2448 41.9714C9.61739 41.3757 9.31503 38.758 10.5042 35.4333C11.0316 33.9545 11.7509 32.6749 12.5189 31.8455C12.6616 31.6893 12.8183 31.5463 12.9635 31.4232C13.0242 31.3733 13.1152 31.383 13.1622 31.4415C13.2213 31.5069 13.2128 31.5971 13.1544 31.643C13.0114 31.7621 12.8697 31.8978 12.7401 32.0404C11.9916 32.8544 11.2973 34.0902 10.78 35.5325C9.68471 38.6362 9.91224 41.1689 11.3562 41.6917C11.43 41.7126 11.4755 41.802 11.4427 41.8783L11.4363 41.88Z" fill="white"/>
<path d="M15.3069 31.0141C15.2822 31.095 15.1973 31.1311 15.1154 31.1055C14.7883 30.9928 14.4459 30.9823 14.0893 31.0905C14.009 31.1186 13.9281 31.0724 13.8983 31.0026C13.877 30.9271 13.9189 30.8348 13.9925 30.8187C14.4167 30.6858 14.8259 30.6921 15.2141 30.8291C15.2914 30.8626 15.3289 30.9474 15.3087 31.0203L15.3069 31.0141Z" fill="white"/>
<path d="M15.0861 28.255C15.1018 28.359 15.0207 28.4448 14.9207 28.4511C14.8125 28.4527 14.5762 28.4816 14.2699 28.5393C14.1653 28.5535 14.0688 28.4879 14.0531 28.3839C14.0328 28.2878 14.0977 28.1928 14.2024 28.1786C14.4328 28.1411 14.7409 28.0897 14.8991 28.0849C14.9991 28.0786 15.0911 28.1522 15.0861 28.255Z" fill="white"/>
<path d="M13.4911 28.5323C13.5321 28.6296 13.4915 28.7384 13.3985 28.7699C13.3687 28.7846 13.3388 28.7992 13.3009 28.8093C12.9732 28.9234 12.0929 29.245 11.3168 30.1542C11.2506 30.2326 11.1276 30.2416 11.0495 30.1812C10.9696 30.1145 10.967 29.9969 11.0269 29.9201C11.8651 28.9302 12.8086 28.5918 13.1702 28.4654C13.2 28.4507 13.2379 28.4406 13.2551 28.4293C13.3481 28.3979 13.4583 28.4396 13.4911 28.5323Z" fill="white"/>
<path d="M20.7687 7.62228C20.8016 7.71498 20.7529 7.8192 20.6518 7.84603C20.2402 7.9756 19.8528 8.119 19.4594 8.3012C19.3618 8.34061 19.2557 8.30118 19.2188 8.20618C19.1733 8.11684 19.2139 8.008 19.3033 7.96396C19.7134 7.78072 20.1053 7.62935 20.5377 7.50105C20.6307 7.4696 20.7363 7.51931 20.7647 7.61997L20.7687 7.62228Z" fill="white"/>
<path d="M18.6471 8.49967C18.6926 8.58901 18.6704 8.70309 18.5787 8.75111C18.1656 8.99601 17.7568 9.28034 17.3776 9.59739C15.6844 10.9868 15.0867 12.5417 15.088 12.5583C15.0461 12.6506 14.9463 12.694 14.8482 12.6592C14.7501 12.6243 14.6975 12.5098 14.7435 12.4199C14.7637 12.3469 15.379 10.7703 17.1402 9.3088C17.5303 8.9821 17.9626 8.68477 18.3929 8.42855C18.4869 8.37655 18.5975 8.40802 18.6517 8.4917L18.6471 8.49967Z" fill="white"/>
</svg>
