<svg width="37" height="67" viewBox="0 0 37 67" fill="none" xmlns="http://www.w3.org/2000/svg">
<g clip-path="url(#clip0_1025_84700)">
<path d="M24.53 34.43C17.96 34.98 11.51 38.99 9.56001 44.96C9.56001 44.99 9.53001 45 9.51001 45C12.38 48.38 13.98 51.01 15.22 53.7C17.48 58.59 19.07 63.48 25 64.9C26 65.14 27.09 65.25 28.09 64.95C33.41 63.24 37.05 58.02 36.09 51.82C35.08 45.32 29.48 38.65 24.63 34.25L24.58 34.31C24.58 34.31 24.61 34.42 24.54 34.43H24.53Z" fill="#A6AFBF"/>
<path d="M17.4698 63.9903C19.8398 65.3803 23.5198 66.0703 26.9898 65.2503C26.0698 65.2903 25.1398 65.1003 24.2598 64.8303C18.4398 63.0003 17.1498 58.0103 14.8198 53.1503C12.9798 49.3303 10.4198 46.1003 7.55984 42.9903C5.06984 40.2803 4.34984 39.6803 0.839844 37.7803C0.929844 37.8703 3.15984 40.8303 5.07984 44.3303C8.28984 50.1903 8.59984 53.0203 11.2998 57.3403C12.8198 59.7603 15.0198 62.5603 17.4698 63.9903Z" fill="#0E5C9C"/>
<path d="M15.7895 37.1797C19.9795 34.5397 24.4995 34.2497 24.5695 34.2997L24.6195 34.2397C18.5695 28.7297 17.9495 26.9597 14.8995 27.4297C12.4995 27.7997 9.46945 29.1497 7.43945 30.2997L7.66945 30.4397C7.73945 30.3197 7.75945 30.4997 9.06945 31.3397C9.09945 31.3597 9.09945 31.3797 9.09945 31.4097C9.34945 31.2097 10.2095 30.8397 10.6495 30.7897C12.0195 30.6297 13.5095 32.5297 14.0295 33.8697C14.0495 33.9197 14.0095 33.9497 13.9695 33.9497L13.9995 34.0297C14.0595 34.0097 14.1295 34.0897 14.0695 34.1397C13.7795 34.3897 13.4795 34.6197 13.1495 34.8097C14.0495 35.5197 14.9595 36.2297 15.7695 37.0497C15.7995 37.0797 15.7895 37.1297 15.7595 37.1497L15.7795 37.1797H15.7895Z" fill="#A6AFBF"/>
<path d="M7.45001 30.3C4.64001 31.89 2.42001 34.31 0.920008 37.05C0.640008 37.56 0.630008 37.52 0.780008 37.7C0.780008 37.66 0.830008 37.62 0.880008 37.64C4.22001 39.46 5.36001 40.11 9.44001 44.9C10.5 41.66 12.89 38.99 15.79 37.17L15.77 37.14C15.65 37.22 15.83 37.05 13.04 34.87C12.62 35.09 12.41 35.18 11.84 35.41C11.65 35.48 11.55 35.45 11.38 35.34C10.31 34.64 9.29001 33.78 8.35001 32.92C8.31001 32.88 8.34001 32.83 8.38001 32.81C8.38001 32.81 8.37001 32.79 8.37001 32.78C8.31001 32.25 8.62001 31.77 9.03001 31.45C8.93001 31.42 8.02001 30.77 7.69001 30.52C7.66001 30.5 7.66001 30.46 7.67001 30.43L7.44001 30.29L7.45001 30.3Z" fill="#A6AFBF"/>
<path d="M12.0907 35.1304L12.1107 35.1704C13.5607 34.5904 13.9007 34.0704 14.0207 34.0304L13.9907 33.9504C13.8507 33.9504 13.8507 33.4104 13.1007 32.4404C12.5207 31.6904 11.5307 30.7704 10.5907 30.9404C10.2307 31.0004 9.3807 31.3104 8.9707 31.6904L9.1707 31.7504C9.1707 31.7504 9.2107 31.7304 9.2407 31.7504C10.9707 32.5804 11.4007 34.3004 12.1107 35.0404C12.1507 35.0804 12.1207 35.1305 12.0907 35.1505V35.1304Z" fill="#0E5C9C"/>
<path d="M8.45922 32.8504C9.22922 33.5404 10.0292 34.2304 10.8692 34.8404C11.7392 35.4604 11.5692 35.3904 12.0992 35.1804L12.0792 35.1404C11.8792 35.2304 11.1492 33.7604 10.7992 33.2804C9.76922 31.8704 8.92922 31.9204 9.15922 31.7504L8.95922 31.6904C8.65922 31.9704 8.44922 32.3604 8.48922 32.7904C8.48922 32.8204 8.46922 32.8404 8.44922 32.8504H8.45922Z" fill="#0E5C9C"/>
<path d="M34.8514 58.1497C34.8514 58.1497 34.8614 58.1197 34.8514 58.1397C34.8414 58.1697 34.8314 58.1997 34.8514 58.1497Z" fill="#14202B"/>
<path d="M33.41 60.6402C33.34 60.7302 33.47 60.5602 33.41 60.6402V60.6402Z" fill="#14202B"/>
<path d="M28.8701 64.0997C28.8701 64.0997 28.8401 64.1097 28.8301 64.1197C28.9101 64.0897 28.9001 64.0897 28.8701 64.0997Z" fill="#14202B"/>
<path d="M31.4612 62.5903C31.4612 62.5903 31.4912 62.5703 31.4812 62.5703C31.4512 62.5903 31.4112 62.6203 31.4612 62.5903Z" fill="#14202B"/>
<path d="M35.6409 55.3203H35.6309V55.3303L35.6409 55.3203Z" fill="#14202B"/>
<path d="M34.3711 47.7998C34.3711 47.7998 34.3711 47.8198 34.3811 47.8298C34.3811 47.8498 34.3911 47.8598 34.3711 47.7998Z" fill="#14202B"/>
<path d="M7.27 50.4197C7.27 50.3997 7.26 50.3897 7.25 50.3697C7.25 50.3597 7.25 50.3697 7.27 50.4197Z" fill="#14202B"/>
<path d="M16.18 27.8801C16.18 27.8801 16.19 27.8801 16.2 27.8801C16.33 27.8901 16.07 27.8601 16.17 27.8801H16.18Z" fill="#14202B"/>
<path d="M1.0918 37.8498C1.1518 37.7298 1.2118 37.6198 1.2718 37.4998C1.2118 37.4198 1.1518 37.3398 1.0918 37.2598V37.8498Z" fill="#14202B"/>
<path d="M22.1404 64.9796C22.0204 64.9696 22.2404 64.9996 22.1404 64.9796V64.9796Z" fill="#14202B"/>
<path d="M16.8709 28.0703C16.8709 28.0703 16.8809 28.0703 16.8909 28.0703C16.9909 28.1103 16.7909 28.0203 16.8709 28.0703Z" fill="#14202B"/>
<path d="M18.0899 28.8105C18.0399 28.7705 18.1699 28.8705 18.0899 28.8105V28.8105Z" fill="#14202B"/>
<path d="M23.97 33.5296C23.77 33.7496 23.73 34.1396 23.97 34.3596C24.2 34.5596 24.58 34.5996 24.8 34.3596C25 34.1396 25.04 33.7496 24.8 33.5296C24.57 33.3296 24.19 33.2896 23.97 33.5296Z" fill="#14202B"/>
<path d="M9.451 52.6405C9.451 52.6405 9.451 52.6305 9.451 52.6205C9.401 52.5105 9.491 52.7205 9.461 52.6405H9.451Z" fill="#14202B"/>
<path d="M7.27091 50.4201C7.27091 50.4201 7.27091 50.4201 7.27091 50.4301C7.27091 50.4301 7.27091 50.4301 7.27091 50.4201C7.30091 50.4901 7.33091 50.5701 7.36091 50.6401C7.47091 50.8901 7.57091 51.1401 7.67091 51.4001C7.86091 51.8701 8.06091 52.3401 8.25091 52.8001C8.6509 53.7601 9.07091 54.7101 9.55091 55.6301C10.2509 56.9601 11.0409 58.2301 11.9209 59.4401C12.8609 60.7301 13.8909 61.9601 15.0709 63.0201C15.6209 63.5101 16.2109 63.9801 16.8409 64.3701C17.4109 64.7301 18.0309 65.0201 18.6609 65.2701C21.0009 66.2001 23.5909 66.4501 26.0709 66.0801C28.5209 65.7101 30.8609 64.6601 32.7309 63.0301C34.7109 61.3001 36.1009 58.8901 36.6309 56.3201C37.2009 53.5701 36.7409 50.7201 35.7409 48.1201C34.6909 45.3901 33.1409 42.8901 31.3609 40.5801C29.7209 38.4501 27.9009 36.4601 25.9509 34.6001C25.5609 34.2301 25.1709 33.8701 24.7809 33.5201C25.0209 33.7401 24.9809 34.1201 24.7809 34.3501C24.5609 34.5901 24.1809 34.5501 23.9509 34.3501C25.7909 35.9901 27.5209 37.7601 29.1109 39.6401C29.3309 39.9001 29.5509 40.1601 29.7609 40.4301C29.8709 40.5601 29.9709 40.6901 30.0809 40.8201C30.1409 40.8901 30.1909 40.9601 30.2409 41.0301C30.2609 41.0601 30.2809 41.0901 30.3109 41.1101C30.3109 41.1201 30.3309 41.1301 30.3309 41.1401C30.3009 41.1001 30.3609 41.1801 30.3309 41.1401C30.3309 41.1401 30.3309 41.1501 30.3509 41.1601C30.7909 41.7301 31.2109 42.3101 31.6209 42.9001C32.4209 44.0701 33.1609 45.2901 33.7909 46.5701C33.9509 46.8901 34.1009 47.2101 34.2409 47.5301C34.2809 47.6101 34.3109 47.6901 34.3509 47.7701C34.3509 47.7701 34.3509 47.7901 34.3709 47.8101C34.3709 47.8101 34.3709 47.7901 34.3609 47.7801C34.3909 47.8401 34.3809 47.8301 34.3709 47.8101C34.3809 47.8401 34.4009 47.8701 34.4109 47.9001C34.4809 48.0701 34.5509 48.2401 34.6109 48.4101C34.8509 49.0401 35.0609 49.6801 35.2309 50.3301C35.3209 50.6601 35.3909 50.9901 35.4609 51.3201C35.4909 51.4901 35.5209 51.6501 35.5509 51.8201C35.5609 51.8901 35.5709 51.9701 35.5809 52.0401C35.5809 52.0701 35.5809 52.1001 35.5909 52.1201C35.5909 52.1101 35.5909 52.1201 35.5909 52.1601C35.5909 52.1501 35.5909 52.1301 35.5909 52.1201C35.5909 52.1301 35.5909 52.1801 35.6009 52.2001C35.6809 52.8501 35.7109 53.5101 35.6909 54.1701C35.6809 54.4901 35.6609 54.8201 35.6209 55.1401C35.6209 55.1901 35.6109 55.2401 35.6009 55.2801C35.6009 55.2501 35.6209 55.1701 35.6009 55.2801C35.5909 55.3601 35.5809 55.4401 35.5609 55.5201C35.5309 55.6801 35.5009 55.8501 35.4709 56.0101C35.3309 56.6701 35.1309 57.3101 34.8809 57.9401C34.8709 57.9701 34.8609 58.0001 34.8409 58.0301C34.8409 58.0301 34.8309 58.0601 34.8209 58.0901C34.8209 58.0701 34.8209 58.0701 34.8209 58.1001C34.8009 58.1401 34.8209 58.1201 34.8209 58.0901C34.8109 58.1201 34.7909 58.1701 34.7909 58.1701C34.7809 58.2001 34.7609 58.2301 34.7509 58.2601C34.6809 58.4201 34.6109 58.5701 34.5309 58.7201C34.3909 59.0001 34.2409 59.2701 34.0809 59.5401C33.9209 59.8101 33.7509 60.0701 33.5709 60.3201C33.5209 60.3801 33.4809 60.4501 33.4309 60.5101C33.4109 60.5301 33.3909 60.5601 33.3709 60.5801C33.3709 60.5801 33.3709 60.5801 33.3709 60.5901C33.3009 60.6801 33.4309 60.5101 33.3709 60.5901C33.3709 60.5901 33.3709 60.5901 33.3609 60.6101C33.2609 60.7301 33.1709 60.8501 33.0709 60.9701C32.6809 61.4201 32.2609 61.8501 31.8009 62.2401C31.6909 62.3301 31.5809 62.4201 31.4709 62.5101C31.4709 62.5101 31.4609 62.5201 31.4409 62.5301C31.4409 62.5301 31.4409 62.5301 31.4209 62.5501C31.3709 62.5901 31.4109 62.5501 31.4409 62.5301C31.4309 62.5401 31.3809 62.5801 31.3709 62.5801C31.3109 62.6301 31.2509 62.6701 31.1909 62.7101C30.9509 62.8901 30.7009 63.0501 30.4509 63.2101C29.9409 63.5201 29.4109 63.8001 28.8709 64.0401C28.8609 64.0401 28.8409 64.0501 28.8309 64.0601C28.8609 64.0501 28.8609 64.0501 28.7909 64.0801C28.8009 64.0801 28.8209 64.0701 28.8309 64.0601C28.8109 64.0601 28.7909 64.0801 28.7809 64.0801C28.7209 64.1101 28.6609 64.1301 28.5909 64.1501C28.4409 64.2101 28.3009 64.2601 28.1509 64.3101C27.8809 64.4101 27.6009 64.4901 27.3209 64.5701C26.7609 64.7301 26.1909 64.8401 25.6109 64.9201C25.6309 64.9201 25.6209 64.9201 25.5609 64.9201C25.5809 64.9201 25.5909 64.9201 25.6109 64.9201C25.5809 64.9201 25.4809 64.9401 25.4509 64.9401C25.3809 64.9401 25.3209 64.9601 25.2509 64.9601C25.0909 64.9801 24.9409 64.9901 24.7809 65.0001C24.4909 65.0201 24.1909 65.0301 23.9009 65.0301C23.3009 65.0301 22.7109 64.9901 22.1109 64.9201C22.1109 64.9201 22.1109 64.9201 22.1009 64.9201C21.9709 64.9001 22.1909 64.9301 22.1009 64.9201C22.0709 64.9201 22.0309 64.9201 22.0009 64.9101C21.9209 64.9001 21.8509 64.8901 21.7709 64.8801C21.6209 64.8601 21.4709 64.8301 21.3209 64.8001C21.0209 64.7401 20.7209 64.6701 20.4309 64.5901C20.1309 64.5101 19.8409 64.4201 19.5509 64.3201C19.4209 64.2801 19.2909 64.2301 19.1609 64.1801C19.0909 64.1501 19.0209 64.1301 18.9509 64.1001C18.9209 64.0901 18.8909 64.0801 18.8609 64.0701C18.8609 64.0701 18.8009 64.0401 18.7609 64.0301C18.7809 64.0401 18.8009 64.0501 18.7609 64.0301C18.7309 64.0201 18.7409 64.0301 18.7609 64.0301C18.7409 64.0201 18.7009 64.0001 18.7009 64.0001C18.6709 63.9901 18.6409 63.9801 18.6209 63.9601C18.5509 63.9301 18.4809 63.9001 18.4109 63.8601C18.2609 63.7901 18.1209 63.7201 17.9809 63.6401C17.6809 63.4801 17.4009 63.3001 17.1209 63.1101C16.9809 63.0201 16.8509 62.9201 16.7209 62.8201C16.6909 62.7901 16.6509 62.7701 16.6209 62.7401C16.6409 62.7601 16.6609 62.7701 16.6209 62.7401C16.6209 62.7401 16.6209 62.7401 16.6109 62.7401C16.6109 62.7401 16.6009 62.7401 16.6009 62.7301C16.5209 62.6601 16.4309 62.6001 16.3509 62.5301C16.0709 62.3001 15.7909 62.0501 15.5209 61.8001C14.9809 61.2801 14.4709 60.7301 13.9909 60.1601C13.4709 59.5401 13.0909 59.0401 12.6109 58.3701C12.1809 57.7501 11.7609 57.1201 11.3809 56.4701C10.7709 55.4501 10.2209 54.4001 9.7409 53.3201C9.6509 53.1201 9.5609 52.9101 9.4809 52.7101C9.4609 52.6601 9.44091 52.6201 9.42091 52.5701C9.42091 52.5701 9.42091 52.5801 9.42091 52.5901C9.4509 52.6701 9.3609 52.4501 9.4109 52.5701C9.4109 52.5501 9.39091 52.5301 9.38091 52.5001C9.3309 52.3901 9.2909 52.2801 9.2409 52.1601C9.0409 51.6801 8.8509 51.2001 8.6509 50.7301C8.1909 49.6101 7.71091 48.5001 7.20091 47.4001C5.91091 44.6201 4.40091 41.9501 2.66091 39.4201C2.20091 38.7501 1.72091 38.0901 1.23091 37.4401C1.17091 37.5601 1.11091 37.6701 1.05091 37.7901V37.2001C1.11091 37.2801 1.17091 37.3601 1.23091 37.4401C2.24091 35.5201 3.55091 33.8601 5.19091 32.4301C5.64091 32.0301 5.99091 31.7601 6.48091 31.4301C6.98091 31.0901 7.51091 30.7901 8.05091 30.5001C8.60091 30.2001 9.17091 29.9101 9.7409 29.6501C10.0109 29.5201 10.2809 29.4001 10.5609 29.2801C10.8109 29.1701 10.9709 29.1001 11.2609 28.9901C12.1509 28.6401 13.0609 28.3201 13.9809 28.1001C14.3409 28.0101 14.7009 27.9401 15.0709 27.8801C15.0709 27.8801 15.0709 27.8801 15.0809 27.8801C15.1209 27.8801 15.1309 27.8801 15.1309 27.8801C15.1509 27.8801 15.1709 27.8801 15.1809 27.8801C15.2609 27.8801 15.3409 27.8601 15.4209 27.8601C15.5509 27.8501 15.6809 27.8401 15.8209 27.8401C15.9309 27.8401 16.0509 27.8401 16.1609 27.8601C16.1609 27.8601 16.1509 27.8601 16.1409 27.8601C16.0409 27.8401 16.3009 27.8701 16.1709 27.8601C16.2009 27.8601 16.2209 27.8601 16.2509 27.8701C16.3209 27.8801 16.3809 27.9001 16.4509 27.9201C16.5909 27.9601 16.7209 28.0001 16.8509 28.0501C16.8509 28.0501 16.8409 28.0501 16.8309 28.0501C16.7409 28.0101 16.9509 28.1001 16.8509 28.0501C16.8709 28.0601 16.9009 28.0701 16.9209 28.0801C16.9909 28.1101 17.0609 28.1501 17.1309 28.1901C17.4109 28.3401 17.6809 28.5101 17.9309 28.7001C17.9709 28.7301 18.0009 28.7501 18.0309 28.7801C17.9809 28.7401 18.1109 28.8401 18.0309 28.7801C18.1009 28.8401 18.1709 28.8901 18.2409 28.9501C18.3909 29.0701 18.5409 29.2001 18.6809 29.3301C20.2309 30.7101 21.6409 32.2301 23.1609 33.6401C23.4109 33.8701 23.6609 34.0901 23.9109 34.3201C23.6709 34.1001 23.7109 33.7201 23.9109 33.4901C24.1309 33.2501 24.5109 33.2901 24.7409 33.4901C23.0709 31.9901 21.5209 30.3601 19.8709 28.8301C18.8209 27.8601 17.6409 26.8401 16.1609 26.6801C15.5309 26.6101 14.8809 26.7201 14.2609 26.8401C13.3709 27.0101 12.4909 27.2801 11.6409 27.6001C10.5009 28.0201 9.39091 28.5101 8.31091 29.0601C7.17091 29.6401 6.07091 30.2601 5.06091 31.0401C3.17091 32.5001 1.59091 34.4101 0.410905 36.4801C0.270905 36.7201 0.140905 36.9701 0.0109053 37.2201C-0.0790947 37.3901 -0.119095 37.6401 0.0109053 37.8101C2.05091 40.4901 3.85091 43.3501 5.36091 46.3701C5.94091 47.5301 6.49091 48.7201 7.00091 49.9101C7.05091 50.0301 7.10091 50.1501 7.15091 50.2701C7.15091 50.2901 7.17091 50.3101 7.17091 50.3201C7.17091 50.3201 7.18091 50.3501 7.19091 50.3601L7.27091 50.4201Z" fill="#14202B"/>
<path d="M18.8004 64.0701C18.7604 64.0501 18.7804 64.0601 18.8004 64.0701V64.0701Z" fill="#14202B"/>
<path d="M10.502 47.2393C10.502 47.2393 10.512 47.2593 10.522 47.2593C10.542 47.2793 10.532 47.2693 10.502 47.2393Z" fill="#14202B"/>
<path d="M25.9325 64.5497C25.7925 64.5297 26.0425 64.5697 25.9325 64.5497V64.5497Z" fill="#14202B"/>
<path d="M4.19196 40.4294C4.19196 40.4294 4.20196 40.4294 4.21196 40.4394C4.27196 40.4894 4.09196 40.3494 4.18196 40.4194L4.19196 40.4294Z" fill="#14202B"/>
<path d="M18.9016 59.9495C18.1916 58.8795 17.6116 57.7295 17.0716 56.5695C16.5416 55.4295 16.0616 54.2595 15.5216 53.1195C14.9016 51.7995 14.1916 50.5295 13.4016 49.3095C11.6816 46.6595 9.62156 44.2295 7.46156 41.9295C6.69156 41.1095 5.91156 40.2995 5.02156 39.6095C4.11156 38.8995 3.12156 38.2995 2.11156 37.7395C1.79156 37.5595 1.47156 37.3895 1.15156 37.2095C0.881559 37.0595 0.501559 37.1295 0.351559 37.4195C0.211559 37.6895 0.271559 38.0595 0.561559 38.2195C1.66156 38.8195 2.77156 39.4095 3.79156 40.1295C3.89156 40.1995 3.99156 40.2695 4.08156 40.3395C4.12156 40.3695 4.16156 40.3995 4.20156 40.4295C4.11156 40.3595 4.29156 40.4995 4.23156 40.4495C4.23156 40.4495 4.22156 40.4495 4.21156 40.4395C4.24156 40.4595 4.27156 40.4895 4.30156 40.5095C4.49156 40.6695 4.69156 40.8295 4.87156 40.9895C5.29156 41.3695 5.69156 41.7595 6.09156 42.1695C7.15156 43.2695 8.18156 44.4095 9.16156 45.5695C9.41156 45.8595 9.65156 46.1495 9.89156 46.4495C10.0116 46.5995 10.1316 46.7495 10.2516 46.8995C10.3116 46.9795 10.3816 47.0595 10.4416 47.1395C10.4616 47.1695 10.4816 47.1895 10.5016 47.2195C10.5116 47.2295 10.5216 47.2395 10.5216 47.2495C10.5216 47.2495 10.5116 47.2295 10.5016 47.2295C10.5316 47.2695 10.5416 47.2795 10.5216 47.2495C10.5316 47.2695 10.5516 47.2895 10.5616 47.3095C11.0316 47.9295 11.4916 48.5595 11.9316 49.1995C12.7916 50.4595 13.5816 51.7795 14.2516 53.1595C14.8016 54.2895 15.2916 55.4595 15.8116 56.6095C16.8716 58.9595 18.1016 61.3595 20.0716 63.0895C21.1016 63.9895 22.2916 64.6595 23.5716 65.1395C24.8716 65.6195 26.2916 65.9095 27.6716 65.7095C27.9516 65.6695 28.2216 65.5995 28.4916 65.4995C28.7816 65.3895 29.0016 65.0995 28.9016 64.7795C28.8116 64.4995 28.4916 64.2595 28.1816 64.3695C28.0516 64.4195 27.9216 64.4595 27.7816 64.4995C27.7016 64.5195 27.6316 64.5395 27.5516 64.5495C27.5216 64.5495 27.5016 64.5495 27.4716 64.5595C27.4416 64.5595 27.4216 64.5595 27.3916 64.5695C27.3316 64.5695 27.3416 64.5695 27.4316 64.5695C27.3916 64.5995 27.2816 64.5895 27.2316 64.5895C27.1516 64.5895 27.0716 64.5995 26.9916 64.5995C26.8316 64.5995 26.6716 64.5995 26.5116 64.5995C26.3616 64.5995 26.2116 64.5795 26.0616 64.5695C26.0216 64.5695 25.9716 64.5595 25.9316 64.5495C25.7916 64.5295 26.0416 64.5695 25.9316 64.5495C25.9316 64.5495 25.9216 64.5495 25.9116 64.5495C25.8216 64.5395 25.7416 64.5195 25.6516 64.5095C25.3216 64.4495 24.9916 64.3695 24.6716 64.2795C24.3416 64.1895 24.0216 64.0795 23.7116 63.9495C23.6316 63.9195 23.5616 63.8895 23.4816 63.8595C23.4016 63.8295 23.6116 63.9195 23.4816 63.8595C23.4416 63.8395 23.4016 63.8195 23.3616 63.8095C23.2016 63.7395 23.0416 63.6595 22.8916 63.5895C22.3416 63.3095 21.8116 62.9895 21.3216 62.6195C21.3016 62.6095 21.3016 62.5995 21.2916 62.5995C21.3116 62.6095 21.3216 62.6195 21.3416 62.6395C21.3316 62.6395 21.2716 62.5895 21.2916 62.5995C21.2716 62.5895 21.2516 62.5695 21.2416 62.5595C21.1816 62.5095 21.1216 62.4595 21.0616 62.4095C20.9416 62.3095 20.8116 62.1995 20.7016 62.0895C20.4616 61.8695 20.2416 61.6395 20.0216 61.3995C19.9216 61.2795 19.8216 61.1695 19.7216 61.0495C19.6816 60.9995 19.6316 60.9395 19.5916 60.8895C19.5616 60.8595 19.5416 60.8195 19.5116 60.7895C19.5116 60.7895 19.4916 60.7695 19.4816 60.7495C19.4416 60.6995 19.4616 60.7195 19.4816 60.7495C19.4816 60.7495 19.4916 60.7595 19.5016 60.7695C19.2916 60.5195 19.1116 60.2395 18.9316 59.9795L18.9016 59.9495Z" fill="#14202B"/>
<path d="M23.4719 63.8491C23.3919 63.8191 23.6019 63.9091 23.4719 63.8491V63.8491Z" fill="#14202B"/>
<path d="M21.3222 62.6091C21.3222 62.6091 21.2922 62.5891 21.2722 62.5691C21.2522 62.5491 21.3022 62.5991 21.3222 62.6091Z" fill="#14202B"/>
<path d="M10.4219 44.1399C10.4219 44.1399 10.4219 44.1399 10.4219 44.1299C10.3719 44.2499 10.4019 44.1799 10.4219 44.1399Z" fill="#14202B"/>
<path d="M14.752 38.7006C14.792 38.6806 14.822 38.6706 14.752 38.7006V38.7006Z" fill="#14202B"/>
<path d="M18.7109 36.3903C18.7109 36.3903 18.7209 36.3903 18.7309 36.3903C18.7709 36.3703 18.8209 36.3503 18.7109 36.3903Z" fill="#14202B"/>
<path d="M23.9719 35.0001C24.1619 34.9801 24.3419 34.9601 24.5319 34.9501C24.8319 34.9201 25.1319 34.7001 25.1119 34.3701C25.1019 34.0701 24.8519 33.7601 24.5319 33.7901C21.8419 34.0101 19.2119 34.7701 16.8119 36.0201C14.5019 37.2201 12.4419 38.9001 10.8919 41.0001C10.0419 42.1501 9.38187 43.4401 8.93187 44.8101C8.84187 45.1001 9.04187 45.4601 9.34187 45.5301C9.66187 45.6001 9.96187 45.4301 10.0619 45.1201C10.1619 44.8301 10.2619 44.5401 10.3819 44.2501C10.3919 44.2201 10.4019 44.1901 10.4119 44.1701C10.3919 44.2101 10.3619 44.2801 10.4119 44.1601C10.4119 44.1601 10.4119 44.1601 10.4119 44.1701C10.4119 44.1701 10.4119 44.1501 10.4219 44.1501C10.4519 44.0901 10.4819 44.0201 10.5019 43.9601C10.5719 43.8201 10.6319 43.6801 10.7019 43.5301C10.9719 42.9901 11.2819 42.4601 11.6319 41.9601C11.7119 41.8501 11.7919 41.7401 11.8719 41.6201C11.9219 41.5501 11.9719 41.4901 12.0219 41.4201C12.0419 41.4001 12.0519 41.3801 12.0719 41.3501C11.9819 41.4801 12.0919 41.3301 12.1119 41.3101C12.3019 41.0701 12.4919 40.8401 12.7019 40.6101C13.1119 40.1501 13.5519 39.7201 14.0119 39.3201C14.2419 39.1201 14.4819 38.9201 14.7219 38.7301C14.7219 38.7301 14.7419 38.7201 14.7519 38.7101C14.7519 38.7101 14.7519 38.7101 14.7419 38.7101C14.7619 38.7101 14.7919 38.6701 14.8119 38.6601C14.8819 38.6101 14.9519 38.5601 15.0119 38.5101C15.1419 38.4201 15.2619 38.3301 15.3919 38.2401C15.9019 37.8801 16.4419 37.5501 16.9919 37.2501C17.5519 36.9401 18.1319 36.6601 18.7219 36.4101C18.7219 36.4101 18.7319 36.4101 18.7419 36.4101C18.7419 36.4101 18.7319 36.4101 18.7219 36.4101C18.8319 36.3601 18.7819 36.3901 18.7419 36.4101C18.7719 36.4001 18.8119 36.3801 18.8419 36.3701C18.9119 36.3401 18.9719 36.3201 19.0419 36.2901C19.1919 36.2301 19.3519 36.1701 19.5119 36.1101C19.8219 36.0001 20.1219 35.8901 20.4419 35.7901C21.1219 35.5801 21.8119 35.4001 22.5119 35.2601C22.8719 35.1901 23.2219 35.1301 23.5819 35.0801C23.6119 35.0801 23.6419 35.0801 23.6719 35.0701C23.5019 35.0901 23.7019 35.0701 23.7319 35.0701C23.8219 35.0601 23.9019 35.0501 23.9919 35.0401L23.9719 35.0001Z" fill="#14202B"/>
<path d="M9.39062 32.0195C9.39062 32.0195 9.42062 31.9995 9.43062 31.9795C9.43062 31.9895 9.41062 31.9995 9.39062 32.0195Z" fill="#14202B"/>
<path d="M9.19922 32.1999C9.19922 32.1999 9.20922 32.1799 9.21922 32.1699C9.20922 32.1899 9.19922 32.1999 9.19922 32.1999Z" fill="#14202B"/>
<path d="M9.02061 32.5596C9.02061 32.5596 9.00061 32.6496 9.01061 32.6196C9.01061 32.5996 9.01061 32.5796 9.02061 32.5596Z" fill="#14202B"/>
<path d="M9.06055 32.4203C9.06055 32.4203 9.06055 32.4503 9.06055 32.4303C9.07055 32.4003 9.08055 32.3703 9.06055 32.4203Z" fill="#14202B"/>
<path d="M13.4006 33.9802C13.4006 33.9802 13.4006 33.9602 13.3906 33.9502C13.3906 33.9702 13.4406 34.0702 13.4006 33.9802Z" fill="#14202B"/>
<path d="M11.7695 31.8203C11.7695 31.8203 11.7895 31.8303 11.7995 31.8403C11.8295 31.8603 11.8695 31.8703 11.7695 31.8203Z" fill="#14202B"/>
<path d="M12.65 32.7097C12.59 32.6297 12.71 32.7797 12.65 32.7097V32.7097Z" fill="#14202B"/>
<path d="M13.42 34.04C13.53 34.32 13.82 34.55 14.14 34.45C14.42 34.36 14.67 34.04 14.55 33.73C14.11 32.59 13.35 31.52 12.35 30.8C11.9 30.48 11.34 30.24 10.78 30.26C10.21 30.28 9.61005 30.53 9.12005 30.8C8.41005 31.19 7.77005 31.92 7.86005 32.78C7.89005 33.08 8.11005 33.38 8.44005 33.36C8.73005 33.35 9.06005 33.1 9.02005 32.78C9.02005 32.74 9.00005 32.67 9.01005 32.61C9.01005 32.64 9.01005 32.56 9.02005 32.55C9.02005 32.56 9.02005 32.59 9.01005 32.61C9.01005 32.61 9.01005 32.59 9.02005 32.57C9.02005 32.54 9.03005 32.51 9.04005 32.48C9.04005 32.48 9.04005 32.45 9.06005 32.43C9.06005 32.45 9.05005 32.46 9.06005 32.42C9.08005 32.37 9.06005 32.4 9.06005 32.43C9.07005 32.41 9.09005 32.36 9.09005 32.36C9.12005 32.3 9.16005 32.25 9.19005 32.19C9.19005 32.19 9.19005 32.18 9.21005 32.16C9.21005 32.17 9.20005 32.18 9.19005 32.19C9.18005 32.21 9.27005 32.1 9.29005 32.08C9.31005 32.06 9.34005 32.04 9.38005 32.01C9.37005 32.01 9.37005 32.01 9.40005 31.99C9.40005 31.99 9.41005 31.99 9.42005 31.98C9.42005 31.98 9.42005 31.98 9.42005 31.97C9.43005 31.97 9.45005 31.95 9.46005 31.94C9.52005 31.9 9.58005 31.86 9.65005 31.83C9.76005 31.77 9.87005 31.71 9.99005 31.66C10 31.66 10.02 31.65 10.03 31.64C9.99005 31.66 10.07 31.62 10.08 31.62C10.06 31.62 10.04 31.63 10.03 31.64C10.03 31.64 10.05 31.64 10.06 31.63C10.12 31.61 10.19 31.58 10.25 31.56C10.35 31.52 10.46 31.49 10.57 31.46C10.62 31.45 10.67 31.43 10.72 31.42C10.72 31.42 10.72 31.42 10.73 31.42C10.73 31.42 10.73 31.42 10.72 31.42C10.63 31.42 10.88 31.39 10.78 31.42C10.77 31.42 10.75 31.42 10.74 31.42C10.83 31.42 10.93 31.42 11.02 31.42C10.85 31.42 10.98 31.42 11.05 31.43C11.11 31.44 11.17 31.46 11.23 31.48C11.24 31.48 11.25 31.48 11.26 31.49C11.27 31.49 11.28 31.49 11.29 31.5C11.32 31.51 11.32 31.52 11.31 31.52C11.34 31.53 11.37 31.54 11.39 31.55C11.5 31.61 11.6 31.67 11.7 31.74C11.73 31.76 11.75 31.78 11.78 31.8C11.78 31.8 11.79 31.8 11.8 31.81C11.8 31.81 11.78 31.79 11.77 31.79C11.87 31.85 11.83 31.83 11.8 31.81C11.83 31.83 11.86 31.86 11.9 31.89C12 31.98 12.1 32.07 12.2 32.17C12.29 32.26 12.37 32.35 12.46 32.45C12.5 32.5 12.54 32.55 12.58 32.6C12.6 32.63 12.62 32.66 12.65 32.68C12.59 32.6 12.71 32.75 12.65 32.68C12.82 32.91 12.98 33.14 13.12 33.39C13.19 33.51 13.25 33.63 13.31 33.75C13.34 33.81 13.36 33.86 13.39 33.92C13.39 33.92 13.39 33.93 13.4 33.95C13.44 34.04 13.4 33.94 13.39 33.92C13.38 33.89 13.42 33.99 13.42 34.01V34.04Z" fill="#14202B"/>
<path d="M10.7096 31.4396C10.7096 31.4396 10.7096 31.4396 10.7196 31.4396C10.7296 31.4396 10.7496 31.4396 10.7596 31.4396C10.8596 31.4196 10.6096 31.4396 10.6996 31.4396H10.7096Z" fill="#14202B"/>
<path d="M10.0306 31.6499C10.0306 31.6499 10.0606 31.6299 10.0806 31.6299C10.0706 31.6299 9.98065 31.6699 10.0306 31.6499Z" fill="#14202B"/>
<path d="M11.25 31.5195C11.25 31.5195 11.3 31.5495 11.31 31.5495C11.29 31.5495 11.27 31.5295 11.26 31.5195H11.25Z" fill="#14202B"/>
<path d="M12.3504 34.5104C12.2904 34.4404 12.4404 34.6404 12.3504 34.5204V34.5104Z" fill="#14202B"/>
<path d="M10.2205 33.3398C10.2205 33.3398 10.2305 33.3598 10.2405 33.3698C10.2805 33.4198 10.2705 33.4098 10.2205 33.3398Z" fill="#14202B"/>
<path d="M9.6909 32.7901C9.7609 32.8501 9.8309 32.9101 9.8909 32.9801C9.9609 33.0501 10.0309 33.1301 10.1009 33.2001C10.1309 33.2401 10.1709 33.2801 10.2009 33.3101C10.2009 33.3201 10.2209 33.3301 10.2309 33.3401C10.2809 33.4101 10.2909 33.4201 10.2509 33.3701C10.2509 33.3701 10.2409 33.3501 10.2309 33.3401C10.2509 33.4101 10.3609 33.5101 10.4009 33.5701C10.4509 33.6401 10.5009 33.7201 10.5509 33.7901C10.9109 34.3501 11.1909 34.9901 11.6609 35.4801C11.8709 35.7001 12.2809 35.7101 12.4909 35.4801C12.7109 35.2401 12.7209 34.8901 12.4909 34.6501C12.4409 34.6001 12.4009 34.5501 12.3609 34.5001C12.4509 34.6201 12.2909 34.4201 12.3609 34.4901C12.3409 34.4601 12.3209 34.4301 12.3009 34.4101C12.2109 34.2801 12.1309 34.1401 12.0509 34.0101C11.8709 33.7101 11.7009 33.4001 11.5109 33.1101C11.0109 32.3401 10.3609 31.6801 9.5209 31.2801C9.2409 31.1501 8.8809 31.1901 8.7209 31.4901C8.5809 31.7501 8.6309 32.1501 8.9309 32.2901C9.1409 32.3901 9.3409 32.5101 9.5409 32.6401C9.5709 32.6601 9.7209 32.7401 9.5909 32.6701C9.6309 32.6901 9.6809 32.7401 9.7109 32.7701L9.6909 32.7901Z" fill="#14202B"/>
<path d="M11.5412 34.8305C11.5412 34.8305 11.5812 34.8305 11.6712 34.8305C11.6112 34.8305 11.7512 34.8305 11.8112 34.8405C11.7812 34.8205 11.7312 34.7905 11.7112 34.7705C11.6712 34.7805 11.6312 34.8005 11.6012 34.8105C11.5812 34.8105 11.5512 34.8205 11.5512 34.8205L11.5412 34.8305Z" fill="#14202B"/>
<path d="M11.7012 34.7805C11.7012 34.7805 11.7712 34.8305 11.8012 34.8505C11.8212 34.8505 11.8412 34.8505 11.8312 34.8605C11.8312 34.8605 11.8212 34.8605 11.8012 34.8505C11.7412 34.8405 11.6012 34.8405 11.6612 34.8405C11.5712 34.8405 11.5412 34.8405 11.5312 34.8405C11.5312 34.8405 11.5712 34.8405 11.5812 34.8305C11.6212 34.8105 11.6512 34.8005 11.6912 34.7905L11.6712 34.7805C11.4812 34.6505 11.2912 34.5305 11.1112 34.3905C11.0212 34.3205 10.9212 34.2505 10.8312 34.1805C10.7912 34.1505 10.7412 34.1205 10.7012 34.0805C10.6812 34.0605 10.6612 34.0505 10.6412 34.0305C10.5812 33.9805 10.6912 34.0705 10.6412 34.0305C10.4512 33.8805 10.2712 33.7305 10.0812 33.5805C9.6512 33.2205 9.2312 32.8605 8.8212 32.4805C8.5912 32.2705 8.2112 32.2405 7.9912 32.4805C7.7812 32.7005 7.7512 33.0905 7.9912 33.3105C8.7912 34.0305 9.6112 34.7405 10.4912 35.3705C10.6912 35.5105 10.8912 35.6505 11.1012 35.7905C11.3712 35.9705 11.6512 36.0705 11.9712 35.9505C12.3912 35.7905 12.8212 35.6205 13.2212 35.4105C13.6712 35.1705 14.0812 34.8605 14.4612 34.5305C14.6912 34.3305 14.6812 33.9105 14.4612 33.7005C14.2112 33.4705 13.8812 33.4905 13.6312 33.7005C13.5512 33.7705 13.4812 33.8305 13.4012 33.9005C13.3812 33.9205 13.3612 33.9305 13.3412 33.9505C13.3412 33.9505 13.3412 33.9505 13.3512 33.9505C13.4012 33.9105 13.3312 33.9705 13.3212 33.9705C13.3212 33.9705 13.3312 33.9705 13.3412 33.9605C13.3012 33.9905 13.2612 34.0205 13.2212 34.0505C13.0712 34.1605 12.9212 34.2505 12.7612 34.3405C12.6112 34.4305 12.4512 34.5105 12.2912 34.5805C12.2512 34.6005 12.2112 34.6105 12.1712 34.6305C12.1512 34.6305 12.1312 34.6505 12.1112 34.6605C12.0512 34.6905 12.1512 34.6405 12.1512 34.6405C12.0812 34.7005 11.9312 34.7305 11.8512 34.7605C11.8012 34.7805 11.7512 34.8005 11.7012 34.8205V34.7805Z" fill="#14202B"/>
<path d="M10.6415 34.0205C10.5815 33.9705 10.6915 34.0605 10.6415 34.0205V34.0205Z" fill="#14202B"/>
<path d="M13.3503 33.9105C13.3503 33.9105 13.3503 33.9105 13.3403 33.9105C13.3403 33.9105 13.3303 33.9105 13.3203 33.9205C13.3203 33.9205 13.4003 33.8605 13.3503 33.9005V33.9105Z" fill="#14202B"/>
<path d="M15.33 37.5097C15.54 37.7297 15.95 37.7397 16.16 37.5097C16.38 37.2697 16.39 36.9197 16.16 36.6797C15.34 35.8397 14.4 35.1097 13.48 34.3897C13.35 34.2897 13.24 34.2197 13.07 34.2197C12.93 34.2197 12.76 34.2797 12.66 34.3897C12.47 34.5997 12.4 35.0197 12.66 35.2197C13.59 35.9397 14.52 36.6697 15.34 37.5097H15.33Z" fill="#14202B"/>
<path d="M7.44078 30.9903C7.87078 31.3103 8.31078 31.6203 8.76078 31.9103C9.02078 32.0803 9.42078 31.9703 9.56078 31.7003C9.71078 31.4103 9.63078 31.0803 9.35078 30.9003C8.90078 30.6103 8.46078 30.3103 8.03078 29.9803C7.92078 29.8903 7.71078 29.8903 7.58078 29.9203C7.44078 29.9603 7.30078 30.0603 7.23078 30.1903C7.16078 30.3303 7.12078 30.4903 7.17078 30.6403C7.19078 30.6903 7.21078 30.7303 7.23078 30.7803C7.28078 30.8703 7.35078 30.9403 7.44078 30.9903Z" fill="#14202B"/>
<path d="M15.9102 18.9797C15.9302 18.9697 15.9502 18.9497 15.9102 18.9797V18.9797Z" fill="#14202B"/>
<path d="M16.4694 18.4202C16.4294 18.4802 16.5494 18.3302 16.4694 18.4202V18.4202Z" fill="#14202B"/>
<path d="M7.16027 3.98032C7.16027 3.98032 7.15027 3.98032 7.14027 3.97032C7.04027 3.90032 7.22027 4.03032 7.16027 3.99032V3.98032Z" fill="#14202B"/>
<path d="M11.819 8.6599C11.749 8.5999 11.889 8.7199 11.819 8.6599V8.6599Z" fill="#14202B"/>
<path d="M4.62961 1.53047C4.62961 1.53047 4.62961 1.53047 4.62961 1.52047C4.62961 1.51047 4.60961 1.49047 4.59961 1.48047C4.59961 1.48047 4.67961 1.58047 4.63961 1.53047H4.62961Z" fill="#14202B"/>
<path d="M14.7891 11.5596C14.7991 11.5696 14.8091 11.5896 14.7891 11.5596V11.5596Z" fill="#14202B"/>
<path d="M16.9997 17.1602C16.9897 17.2202 16.9897 17.2202 16.9997 17.2002C16.9997 17.1902 16.9997 17.1702 16.9997 17.1602Z" fill="#14202B"/>
<path d="M7.44081 28.98C7.41081 28.97 7.42081 28.98 7.44081 28.98V28.98Z" fill="#14202B"/>
<path d="M14.83 19.5998C14.83 19.5998 14.85 19.5998 14.85 19.5898C14.85 19.5898 14.83 19.5898 14.83 19.5998Z" fill="#14202B"/>
<path d="M6.57999 22.6401C6.57999 22.6401 6.59999 22.6201 6.60999 22.6201C6.60999 22.6201 6.60999 22.6201 6.57999 22.6401Z" fill="#14202B"/>
<path d="M7.56077 22.0701C7.64077 22.0301 7.47077 22.1101 7.54077 22.0701H7.56077Z" fill="#14202B"/>
<path d="M9.50936 21.5799C9.50936 21.5799 9.55936 21.5799 9.57936 21.5799C9.62936 21.5799 9.66936 21.5699 9.71936 21.5599C9.83936 21.5499 9.94936 21.5299 10.0694 21.5199C10.2794 21.4999 10.4894 21.4799 10.7094 21.4699C11.1294 21.4399 11.5494 21.4099 11.9794 21.3799C13.4994 21.2699 15.0994 20.9699 16.3794 20.0799C16.9994 19.6499 17.5394 19.0899 17.8494 18.3999C18.2694 17.4599 18.2794 16.4399 18.0394 15.4499C17.8394 14.5799 17.4694 13.7399 17.0594 12.9499C16.7294 12.2999 16.3394 11.6899 15.9094 11.0999C15.0794 9.98994 14.1094 9.00994 13.0294 8.12994C11.9894 7.28994 10.8894 6.53994 9.77936 5.79993C9.24936 5.44993 8.72936 5.09993 8.20936 4.73993C7.94936 4.55993 7.69936 4.37993 7.43936 4.18993C7.37936 4.14993 7.31936 4.09993 7.25936 4.05993C7.22936 4.03993 7.20936 4.01994 7.17936 3.99993C7.17936 3.99993 7.16936 3.98993 7.15936 3.97993C7.21936 4.01994 7.03936 3.88994 7.13936 3.95993C7.13936 3.95993 7.14936 3.95993 7.15936 3.96993C7.03936 3.87994 6.91936 3.77993 6.79936 3.68993C6.31936 3.29993 5.85936 2.88994 5.42936 2.44993C5.20936 2.22993 4.99936 1.98993 4.80936 1.74993C4.75936 1.68993 4.71936 1.63993 4.66936 1.57993C4.64936 1.55993 4.63936 1.53993 4.61936 1.51993C4.61936 1.51993 4.61936 1.51993 4.61936 1.52993C4.65936 1.57993 4.57936 1.47993 4.57936 1.47993C4.58936 1.48993 4.59936 1.49993 4.60936 1.51993C4.59936 1.50993 4.58936 1.48993 4.57936 1.47993C4.47936 1.34993 4.38936 1.21993 4.29936 1.08993C4.11936 0.829935 3.95936 0.569935 3.80936 0.299935C3.65936 0.0299349 3.26936 -0.0800651 3.00936 0.0899349C2.73936 0.259935 2.63936 0.599935 2.79936 0.889935C3.43936 2.02993 4.27936 3.03994 5.23936 3.90993C6.18936 4.77993 7.24936 5.52993 8.31936 6.24993C9.38936 6.96993 10.4794 7.67993 11.5194 8.44993C11.5794 8.49994 11.6394 8.53994 11.7094 8.58994C11.7394 8.61994 11.7794 8.63994 11.8094 8.66994C11.8094 8.66994 11.8094 8.66994 11.8194 8.66994C11.7494 8.60993 11.8994 8.72994 11.8194 8.66994C11.9494 8.76994 12.0794 8.87993 12.2094 8.97993C12.4694 9.18993 12.7194 9.39994 12.9694 9.62994C13.4694 10.0799 13.9494 10.5599 14.3894 11.0799C14.4994 11.2099 14.6094 11.3399 14.7194 11.4699C14.7494 11.4999 14.7694 11.5399 14.7994 11.5699C14.7894 11.5499 14.7694 11.5299 14.7694 11.5299C14.7794 11.5299 14.7894 11.5599 14.7994 11.5699C14.8094 11.5899 14.8194 11.5999 14.7994 11.5699C14.8594 11.6499 14.9194 11.7199 14.9694 11.7999C15.1794 12.0899 15.3694 12.3799 15.5594 12.6799C15.7594 12.9999 15.9394 13.3299 16.0994 13.6599C16.1894 13.8399 16.2694 14.0199 16.3494 14.1999C16.3694 14.2399 16.3794 14.2799 16.3994 14.3199C16.4094 14.3499 16.4194 14.3699 16.4294 14.3999C16.4594 14.4599 16.4094 14.3599 16.4094 14.3599C16.4294 14.3799 16.4494 14.4499 16.4594 14.4799C16.4794 14.5399 16.5094 14.5899 16.5294 14.6499C16.7094 15.0999 16.8494 15.5599 16.9394 16.0399C16.9494 16.0999 16.9594 16.1599 16.9694 16.2199V16.2399C16.9694 16.1999 16.9694 16.2999 16.9694 16.2399C16.9694 16.2399 16.9694 16.2599 16.9694 16.2699C16.9794 16.3999 16.9894 16.5299 16.9994 16.6599C16.9994 16.7699 16.9994 16.8799 16.9994 16.9999C16.9994 17.0499 16.9994 17.0999 16.9894 17.1499C16.9894 17.1599 16.9894 17.1799 16.9894 17.1899C16.9894 17.2099 16.9894 17.2299 16.9894 17.2499C16.9694 17.3599 16.9394 17.4699 16.9094 17.5799C16.9094 17.5999 16.8294 17.8599 16.8094 17.8599C16.8094 17.8599 16.8594 17.7499 16.8294 17.8099C16.8294 17.8299 16.8094 17.8399 16.8094 17.8599C16.7894 17.8999 16.7694 17.9399 16.7494 17.9799C16.7094 18.0599 16.6694 18.1299 16.6194 18.2099C16.5794 18.2799 16.5294 18.3399 16.4794 18.4099C16.4394 18.4699 16.5594 18.3199 16.4794 18.4099C16.4494 18.4399 16.4294 18.4799 16.3994 18.5099C16.2894 18.6399 16.1594 18.7599 16.0294 18.8799C15.9994 18.8999 15.9694 18.9299 15.9394 18.9499C15.9394 18.9499 15.9394 18.9499 15.9194 18.9599C15.9294 18.9599 15.9494 18.9399 15.9194 18.9599C15.8994 18.9699 15.8894 18.9899 15.8794 18.9899C15.8794 18.9899 15.8994 18.9699 15.9194 18.9599C15.8494 19.0099 15.7794 19.0599 15.6994 19.1099C15.5494 19.2099 15.3894 19.2999 15.2294 19.3799C15.1494 19.4199 15.0794 19.4599 14.9994 19.4899C14.9594 19.5099 14.9294 19.5199 14.8894 19.5399C14.8694 19.5499 14.8394 19.5599 14.8194 19.5699C14.7594 19.5899 14.7994 19.5799 14.8194 19.5699C14.8194 19.5699 14.8394 19.5699 14.8394 19.5599C14.8394 19.5599 14.8294 19.5599 14.8194 19.5699C14.7594 19.6099 14.6594 19.6299 14.5994 19.6499C14.5094 19.6799 14.4094 19.7199 14.3094 19.7499C13.9594 19.8599 13.6094 19.9499 13.2494 20.0199C13.0694 20.0499 12.8894 20.0799 12.7094 20.1099C12.7194 20.1099 12.7394 20.1099 12.7494 20.1099C12.8194 20.1099 12.6894 20.1099 12.6894 20.1099C12.6894 20.1099 12.6894 20.1099 12.6994 20.1099C12.6894 20.1099 12.6794 20.1099 12.6594 20.1099C12.6194 20.1099 12.5794 20.1099 12.5394 20.1199C12.4494 20.1299 12.3594 20.1399 12.2694 20.1499C10.5294 20.2999 8.72936 20.2699 7.08936 20.9599C6.23936 21.3199 5.51936 21.8699 4.95936 22.5999C4.41936 23.3099 4.11936 24.1599 4.00936 25.0399C3.79936 26.7899 4.66936 28.4899 6.07936 29.5099C6.41936 29.7599 6.79936 29.9499 7.19936 30.0999C7.48936 30.2099 7.84936 29.9799 7.91936 29.6899C7.99936 29.3599 7.81936 29.0899 7.50936 28.9699C7.49936 28.9699 7.43936 28.9399 7.41936 28.9299C7.44936 28.9399 7.45936 28.9499 7.41936 28.9299C7.38936 28.9199 7.39936 28.9199 7.41936 28.9299C7.39936 28.9199 7.36936 28.9099 7.35936 28.8999C7.26936 28.8599 7.17936 28.8099 7.08936 28.7599C7.00936 28.7099 6.92936 28.6699 6.84936 28.6199C6.80936 28.5899 6.76936 28.5599 6.72936 28.5399C6.70936 28.5299 6.68936 28.5199 6.67936 28.4999C6.67936 28.4999 6.65936 28.4899 6.64936 28.4799C6.64936 28.4799 6.64936 28.4799 6.62936 28.4699C6.57936 28.4299 6.61936 28.4599 6.64936 28.4799C6.63936 28.4699 6.58936 28.4299 6.57936 28.4199C6.53936 28.3899 6.49936 28.3599 6.46936 28.3199C6.39936 28.2499 6.31936 28.1799 6.24936 28.1099C6.17936 28.0399 6.11936 27.9799 6.05936 27.9099C6.02936 27.8699 5.98936 27.8299 5.95936 27.7999C5.95936 27.7899 5.93936 27.7799 5.92936 27.7699C5.97936 27.8399 5.86936 27.6899 5.91936 27.7499C5.91936 27.7499 5.91936 27.7599 5.92936 27.7699C5.80936 27.6099 5.69936 27.4399 5.59936 27.2699C5.55936 27.1899 5.50936 27.1099 5.46936 27.0199C5.46936 27.0099 5.42936 26.9099 5.41936 26.8999C5.42936 26.9199 5.46936 27.0199 5.41936 26.9199C5.41936 26.9199 5.41936 26.9099 5.41936 26.8999C5.41936 26.8799 5.39936 26.8599 5.39936 26.8399C5.32936 26.6599 5.27936 26.4699 5.22936 26.2899C5.20936 26.2099 5.19936 26.1199 5.17936 26.0399C5.17936 26.0399 5.17936 26.0299 5.17936 26.0199C5.17936 25.9999 5.17936 25.9899 5.17936 25.9799C5.17936 25.9299 5.17936 25.8799 5.16936 25.8299C5.15936 25.6199 5.15936 25.4199 5.16936 25.2099C5.16936 25.1699 5.16936 25.1399 5.17936 25.0999C5.17936 25.0999 5.17936 25.0899 5.17936 25.0799C5.18936 24.9699 5.17936 25.0799 5.17936 25.0999C5.17936 25.0899 5.17936 25.0499 5.17936 25.0399C5.19936 24.9399 5.21936 24.8399 5.23936 24.7399C5.28936 24.5499 5.33936 24.3599 5.40936 24.1699C5.40936 24.1599 5.44936 24.0599 5.45936 24.0599C5.43936 24.0899 5.42936 24.1199 5.45936 24.0799C5.45936 24.0599 5.45936 24.0599 5.45936 24.0599C5.46936 24.0299 5.48936 23.9899 5.48936 23.9899C5.52936 23.8999 5.57936 23.8099 5.62936 23.7199C5.67936 23.6399 5.72936 23.5499 5.77936 23.4699C5.79936 23.4299 5.82936 23.3999 5.84936 23.3599C5.86936 23.3399 5.87936 23.3099 5.89936 23.2899C5.89936 23.2899 5.89936 23.2899 5.89936 23.2799C5.89936 23.2799 5.89936 23.2799 5.90936 23.2599C5.94936 23.2099 5.90936 23.2599 5.89936 23.2799C5.89936 23.2699 5.96936 23.1999 5.96936 23.1899C5.99936 23.1599 6.02936 23.1199 6.05936 23.0899C6.12936 23.0099 6.19936 22.9399 6.26936 22.8699C6.33936 22.7999 6.41936 22.7299 6.49936 22.6599C6.51936 22.6399 6.54936 22.6199 6.55936 22.6099C6.54936 22.6099 6.53936 22.6299 6.52936 22.6299C6.56936 22.5999 6.56936 22.5999 6.55936 22.6099C6.59936 22.5799 6.63936 22.5499 6.66936 22.5299C6.83936 22.4099 7.00936 22.3099 7.18936 22.2099C7.27936 22.1599 7.35936 22.1199 7.44936 22.0799C7.46936 22.0799 7.48936 22.0599 7.50936 22.0599C7.42936 22.0899 7.59936 22.0199 7.52936 22.0599C7.57936 22.0399 7.61936 22.0199 7.66936 22.0099C7.86936 21.9399 8.06936 21.8699 8.26936 21.8199C8.65936 21.7099 9.07936 21.6099 9.48936 21.5799C9.46936 21.5799 9.35936 21.5999 9.46936 21.5799H9.50936Z" fill="#14202B"/>
<path d="M5.95922 23.2696L5.94922 23.2896C5.96922 23.2696 5.99922 23.2196 5.95922 23.2696Z" fill="#14202B"/>
<path d="M6.64999 28.51C6.64999 28.51 6.66999 28.53 6.66999 28.52C6.63999 28.5 6.60999 28.47 6.64999 28.51Z" fill="#14202B"/>
<path d="M12.7609 20.1397C12.7609 20.1397 12.7309 20.1397 12.7209 20.1397C12.7209 20.1397 12.7209 20.1397 12.7109 20.1397C12.7109 20.1397 12.8309 20.1197 12.7709 20.1397H12.7609Z" fill="#14202B"/>
<path d="M5.94915 27.8097C5.94915 27.8097 5.94915 27.7997 5.93915 27.7897C5.88915 27.7297 5.99915 27.8697 5.94915 27.8097Z" fill="#14202B"/>
</g>
<defs>
<clipPath id="clip0_1025_84700">
<rect width="36.89" height="66.25" fill="white"/>
</clipPath>
</defs>
</svg>
