<svg width="34" height="34" viewBox="0 0 34 34" fill="none" xmlns="http://www.w3.org/2000/svg">
<path d="M34 8.49375C23.7022 7.1623 13.6831 6.39005 3.38528 5.05859C2.34972 13.6704 0.199753 21.8828 0 30.5533C8.79437 31.3894 22.8507 33.8659 31.6766 33.9991C31.7817 26.2607 32.4598 16.0777 33.9947 8.49375H34Z" fill="#12326D"/>
<path d="M6.36572 12.5547C10.9495 13.3482 15.5333 14.1418 20.1119 14.93" stroke="white" stroke-width="2" stroke-linecap="round" stroke-linejoin="round"/>
<path d="M23.3345 15.0625C24.7695 15.3394 26.2046 15.6111 27.6397 15.888" stroke="white" stroke-width="2" stroke-linecap="round" stroke-linejoin="round"/>
<path d="M6.08203 17.6445C11.98 18.4913 17.9095 19.1251 23.8495 19.5352" stroke="white" stroke-width="2" stroke-linecap="round" stroke-linejoin="round"/>
<path d="M4.58887 23.2773C11.9429 25.2585 19.4704 26.574 27.0505 27.1918" stroke="white" stroke-width="2" stroke-linecap="round" stroke-linejoin="round"/>
</svg>
