<svg width="69" height="75" viewBox="0 0 69 75" fill="none" xmlns="http://www.w3.org/2000/svg">
<path d="M62.5199 67.9404C60.8899 47.4504 58.3999 27.8904 56.7699 7.40039C48.7899 7.63039 40.8099 7.85039 32.8299 8.08039C30.9599 8.13039 29.0799 8.19039 27.2099 8.24039C18.9899 8.47039 12.7199 12.2604 4.48987 12.4904C7.21987 33.0304 9.93987 53.5804 12.6699 74.1204C29.5599 72.9504 45.8499 70.9004 62.5199 67.9504V67.9404Z" fill="#F0494F"/>
<path d="M3.03986 15.2901C2.38986 14.7901 1.33986 15.3001 1.13986 16.1001C0.939861 16.9001 1.42986 17.7301 2.10986 18.1701C2.78986 18.6101 3.62986 18.7401 4.43986 18.8101C6.23986 18.9601 8.44986 18.5901 9.08986 16.9101" stroke="#23275B" stroke-width="1.4" stroke-linecap="round" stroke-linejoin="round"/>
<path d="M1.91987 21.2002C1.18987 21.5402 0.989876 22.5602 1.31988 23.2902C1.64988 24.0202 2.36988 24.5102 3.10988 24.8402C5.49988 25.9102 8.79987 25.4202 10.0399 23.1102" stroke="#23275B" stroke-width="1.4" stroke-linecap="round" stroke-linejoin="round"/>
<path d="M1.66983 28.71C0.989828 29.11 0.949828 30.16 1.41983 30.8C1.88983 31.44 2.67983 31.74 3.44983 31.95C4.80983 32.32 6.25983 32.47 7.63983 32.14C9.00983 31.81 10.2998 30.94 10.9098 29.67" stroke="#23275B" stroke-width="1.4" stroke-linecap="round" stroke-linejoin="round"/>
<path d="M2.5899 35.8901C2.4399 36.7001 2.9299 37.5301 3.5999 38.0001C4.2799 38.4701 5.1099 38.6601 5.9199 38.7801C6.9699 38.9401 8.05991 39.0201 9.09991 38.7601C10.1399 38.5001 11.1099 37.8501 11.5499 36.8701" stroke="#23275B" stroke-width="1.4" stroke-linecap="round" stroke-linejoin="round"/>
<path d="M3.22986 42.9204C3.71986 44.5304 5.38985 45.6104 7.06985 45.7004C8.74985 45.7904 10.3898 45.0204 11.6498 43.9004" stroke="#23275B" stroke-width="1.4" stroke-linecap="round" stroke-linejoin="round"/>
<path d="M4.20985 51.1304C4.01985 52.2804 4.74985 53.4404 5.76985 54.0104C6.78985 54.5804 8.01985 54.6404 9.16985 54.4704C10.6998 54.2504 12.1798 53.6404 13.4198 52.7204" stroke="#23275B" stroke-width="1.4" stroke-linecap="round" stroke-linejoin="round"/>
<path d="M5.48987 58.6504C5.63987 60.2204 6.99986 61.4804 8.50986 61.9304C10.0199 62.3804 11.6499 62.1604 13.1899 61.8104" stroke="#23275B" stroke-width="1.4" stroke-linecap="round" stroke-linejoin="round"/>
<path d="M7.0199 66.1704C7.1799 67.6204 8.7999 68.4604 10.2499 68.6104C12.2499 68.8204 14.3299 68.2004 15.8799 66.9104" stroke="#23275B" stroke-width="1.4" stroke-linecap="round" stroke-linejoin="round"/>
<path d="M5.57983 8.39012C21.0498 5.38012 36.8698 4.14012 52.6198 4.70012" stroke="#23275B" stroke-width="1.4" stroke-linecap="round" stroke-linejoin="round"/>
<path d="M5.36987 4.34C9.49987 3.91 13.6099 3.21 17.6499 2.25" stroke="#23275B" stroke-width="1.4" stroke-linecap="round" stroke-linejoin="round"/>
<path d="M31.1299 0.700195C38.4499 1.2002 53.3899 1.9502 60.7199 1.4902" stroke="#23275B" stroke-width="1.4" stroke-linecap="round" stroke-linejoin="round"/>
<path d="M56.7699 7.40039C58.5399 27.4604 60.0999 47.9504 62.5199 67.9404" stroke="#23275B" stroke-width="1.4" stroke-linecap="round" stroke-linejoin="round"/>
<path d="M61.2099 1.66016C64.4999 20.3702 66.8499 44.7402 68.2399 63.6802C68.3399 65.0502 64.5299 68.1902 62.5199 68.4102C46.3999 70.2102 29.7499 72.9702 12.6699 74.1102" stroke="#23275B" stroke-width="1.4" stroke-linecap="round" stroke-linejoin="round"/>
<path d="M49.3798 16.2803C38.0198 16.5503 26.6298 18.1903 15.3598 19.6603C15.2798 22.6903 15.6298 25.7303 16.3998 28.6503C21.4098 28.1203 25.8798 27.8703 30.8998 27.3503" stroke="#23275B" stroke-width="1.4" stroke-linecap="round" stroke-linejoin="round"/>
<path d="M34.8999 26.7401C39.5599 25.8501 44.2099 24.9701 48.8699 24.0801" stroke="#23275B" stroke-width="1.4" stroke-linecap="round" stroke-linejoin="round"/>
</svg>
