<svg width="62" height="103" viewBox="0 0 62 103" fill="none" xmlns="http://www.w3.org/2000/svg">
<path d="M24.9899 79.2797C25.8999 79.6497 26.8599 80.0697 27.3899 80.8997C28.2599 82.2497 27.5499 84.1597 26.2799 85.1397C25.0099 86.1197 23.3499 86.3997 21.7699 86.6597C18.5299 87.1797 15.2999 87.6997 12.0599 88.2197C9.18989 88.6797 6.2299 89.1797 3.8099 90.7797C1.38989 92.3797 -0.340106 95.4197 0.489894 98.1997C1.30989 100.95 4.50989 102.56 7.33989 102.07C10.1699 101.58 12.4899 99.3497 13.6299 96.7197C13.8299 96.2497 14.0299 95.7397 14.4599 95.4697C14.8699 95.2097 15.3899 95.2397 15.8699 95.2597C19.2499 95.4397 22.6499 95.3097 26.0099 94.8697C27.9899 94.6097 29.9899 94.2197 31.7199 93.2397C33.4499 92.2497 34.9099 90.5597 35.0999 88.5697C35.8799 80.0797 27.9699 79.3497 28.1199 75.2797C28.2199 72.5197 36.9899 73.6397 34.3599 72.2697C31.4299 70.7397 27.6699 69.7397 26.0799 69.7697C24.1099 69.7997 21.0499 71.8297 20.9199 74.1597C20.7399 77.4397 22.4899 78.2797 24.9799 79.3097L24.9899 79.2797Z" fill="#FFC40C"/>
<path d="M41.6199 67.53C47.7799 49.75 54.5199 30.48 59.4899 12.34C52.6599 8.93003 45.2299 8.18004 37.7699 6.54004C31.6899 24.56 27.8499 43.37 23.2999 61.83C29.9399 63.01 35.4399 64.84 41.6199 67.53Z" fill="#FFC40C"/>
<path d="M61.1199 7.06985C54.0199 4.23985 46.7499 1.37984 39.1099 1.08984L37.6499 6.88986C45.2899 7.17986 52.5599 10.0398 59.6599 12.8698" stroke="#23275B" stroke-width="1.4" stroke-linecap="round" stroke-linejoin="round"/>
<path d="M56.5199 11.2796C56.9899 9.39963 57.4699 7.51965 57.9399 5.63965" stroke="#23275B" stroke-width="1.4" stroke-linecap="round" stroke-linejoin="round"/>
<path d="M52.22 9.57004C52.64 7.89004 53.07 6.20002 53.49 4.52002" stroke="#23275B" stroke-width="1.4" stroke-linecap="round" stroke-linejoin="round"/>
<path d="M46.35 7.77969C46.8 5.99969 47.25 4.21969 47.69 2.42969" stroke="#23275B" stroke-width="1.4" stroke-linecap="round" stroke-linejoin="round"/>
<path d="M41.6297 6.87964C41.5597 5.33964 41.8797 3.77965 42.5597 2.38965" stroke="#23275B" stroke-width="1.4" stroke-linecap="round" stroke-linejoin="round"/>
<path d="M37.4599 6.92969C31.4999 24.7197 27.5599 43.1197 23.6399 61.4797" stroke="#23275B" stroke-width="1.4" stroke-linecap="round" stroke-linejoin="round"/>
<path d="M61 7.66992C58.32 16.5299 55.65 25.3799 52.97 34.2399" stroke="#23275B" stroke-width="1.4" stroke-linecap="round" stroke-linejoin="round"/>
<path d="M23.3302 61.5996C25.7202 61.9396 27.9602 62.9096 30.2102 63.7596C33.4702 64.9996 36.8102 65.9996 40.2002 66.7696" stroke="#23275B" stroke-width="1.4" stroke-linecap="round" stroke-linejoin="round"/>
<path d="M24.9399 62.0898C24.4799 64.2398 24.0199 66.3899 23.5599 68.5399C27.3999 69.9699 31.8499 71.3499 35.7799 72.5099C36.5499 70.5599 37.6299 68.3898 38.1299 66.3598" stroke="#23275B" stroke-width="1.4" stroke-linecap="round" stroke-linejoin="round"/>
<path d="M24.5399 65.6797C28.4399 66.9097 32.3399 68.1497 36.2399 69.3797" stroke="#23275B" stroke-width="1.4" stroke-linecap="round" stroke-linejoin="round"/>
<path d="M32.36 65.98C33.94 66.58 35.55 67.1 37.18 67.52" stroke="#23275B" stroke-width="1.4" stroke-linecap="round" stroke-linejoin="round"/>
<path d="M35.2899 46.99C35.0699 48.52 34.8499 50.14 35.4699 51.55C35.6599 51.99 35.9599 52.4301 36.4199 52.5901C37.3199 52.9101 38.1799 52.0501 38.7199 51.2601C42.9199 45.0801 44.7699 37.6001 45.8199 30.2001C46.1499 27.8801 45.9899 24.08 42.7199 24.11C40.6499 24.13 40.1599 26.28 39.6099 27.9C37.4899 34.17 36.2399 40.4501 35.2899 46.9801V46.99Z" stroke="#23275B" stroke-width="1.4" stroke-linecap="round" stroke-linejoin="round"/>
<path d="M41.86 66.7299C43.67 61.4499 45.47 56.1599 47.28 50.8799" stroke="#23275B" stroke-width="1.4" stroke-linecap="round" stroke-linejoin="round"/>
<path d="M32.2499 34.94C33.1599 31.47 34.0699 27.99 34.9799 24.52" stroke="#23275B" stroke-width="1.4" stroke-linecap="round" stroke-linejoin="round"/>
<path d="M48.7499 11.9497C51.0799 12.7097 53.4199 13.4697 55.7499 14.2297" stroke="#23275B" stroke-width="1.4" stroke-linecap="round" stroke-linejoin="round"/>
</svg>
