<svg width="54" height="59" viewBox="0 0 54 59" fill="none" xmlns="http://www.w3.org/2000/svg">
<g clip-path="url(#clip0_1025_93302)">
<path d="M14.5863 21.7988C14.5363 21.6688 14.5363 21.5288 14.5863 21.3888C14.5163 21.1988 14.4063 21.0188 14.3163 20.8288C14.1163 20.4188 13.9163 20.0088 13.7163 19.5988C12.8763 17.8888 12.0263 16.1788 11.1463 14.4888C9.60625 11.5688 7.95625 8.6988 6.05625 5.9888C5.06625 4.5888 4.02625 3.2088 2.87625 1.9288C2.60625 1.6288 2.28625 1.2388 1.86625 1.1388C1.22625 0.988798 1.15625 1.5288 1.15625 2.0088C1.16625 2.8588 1.32625 3.7188 1.51625 4.5488C2.30625 7.8688 4.09625 10.8488 5.92625 13.6888C7.88625 16.7388 10.0363 19.6688 12.1863 22.5888C12.2063 22.6188 12.2262 22.6488 12.2362 22.6788C12.9862 22.4788 13.8063 22.2588 14.4263 21.8888C14.4963 21.8488 14.5463 21.8188 14.5863 21.7988Z" fill="#0AB29C"/>
<path d="M12.1925 22.7799L12.1625 22.7199C12.1625 22.7199 12.1325 22.6699 12.1125 22.6399C9.9925 19.7599 7.8125 16.7899 5.8525 13.7299C4.0525 10.9299 2.2325 7.91991 1.4325 4.55991C1.1925 3.55991 1.0825 2.73991 1.0625 1.99991C1.0625 1.68991 1.0825 1.31991 1.3125 1.12991C1.4525 1.01991 1.6325 0.989912 1.8725 1.04991C2.2925 1.14991 2.6125 1.50991 2.8625 1.79991L2.9225 1.86991C3.9525 3.01991 5.0025 4.34991 6.1125 5.92991C7.8025 8.33991 9.4225 11.0399 11.2025 14.4399C12.1625 16.2599 13.0425 18.0399 13.7725 19.5499C13.9725 19.9599 14.1725 20.3699 14.3725 20.7799C14.4025 20.8399 14.4325 20.8999 14.4625 20.9599C14.5225 21.0799 14.5925 21.2099 14.6425 21.3399V21.3699V21.4099C14.6025 21.5299 14.6025 21.6599 14.6425 21.7599L14.6725 21.8299L14.6125 21.8699C14.6125 21.8699 14.5425 21.9099 14.4925 21.9399L14.4525 21.9599C13.8425 22.3299 13.0525 22.5499 12.2425 22.7599L12.1725 22.7799H12.1925ZM1.6625 1.20991C1.5625 1.20991 1.4925 1.22991 1.4325 1.27991C1.2525 1.41991 1.2425 1.76991 1.2425 2.00991C1.2525 2.73991 1.3725 3.53991 1.6025 4.52991C2.3925 7.85991 4.2025 10.8599 6.0025 13.6399C7.9625 16.6899 10.1425 19.6599 12.2525 22.5299C12.2625 22.5499 12.2725 22.5599 12.2825 22.5799C13.0625 22.3799 13.8125 22.1599 14.3825 21.8199L14.4225 21.7999C14.4225 21.7999 14.4625 21.7799 14.4825 21.7699C14.4525 21.6499 14.4525 21.5199 14.4925 21.3999C14.4425 21.2799 14.3825 21.1699 14.3325 21.0599C14.3025 20.9999 14.2725 20.9399 14.2425 20.8699C14.0425 20.4599 13.8425 20.0499 13.6425 19.6399C12.9025 18.1299 12.0225 16.3499 11.0725 14.5399C9.2925 11.1499 7.6725 8.44991 5.9925 6.04991C4.8825 4.46991 3.8525 3.14991 2.8225 1.99991L2.7625 1.92991C2.5125 1.63991 2.2225 1.31991 1.8625 1.23991C1.7925 1.21991 1.7325 1.21991 1.6825 1.21991L1.6625 1.20991Z" fill="#0AB29C"/>
<path d="M36.8881 45.4807C33.8381 44.6107 30.6781 44.1607 27.5081 44.2007C25.1781 44.2307 22.8081 44.7007 20.4781 44.4207C20.4081 44.5307 20.2981 44.6207 20.1481 44.6807C18.5681 45.3207 16.9881 45.9607 15.4081 46.5907C13.8781 47.2107 12.2481 47.7306 10.7981 48.5106C9.71806 49.0906 8.17806 50.5407 9.13806 51.8807C9.95806 53.0307 11.8481 52.6907 13.0181 52.5507C15.0881 52.3107 17.6481 52.6707 18.0781 55.1207C18.2181 55.9007 18.3381 56.3307 19.1581 56.5307C19.7781 56.6807 20.4481 56.6707 21.0781 56.6907C22.5881 56.7207 24.0981 56.6107 25.5981 56.4607C31.2881 55.9107 36.9081 54.6007 42.2681 52.6207C44.7081 51.7207 47.2781 50.7607 49.3981 49.2207C51.2681 47.8607 53.5281 45.1107 51.5681 42.9206C49.8481 41.0106 46.8281 40.4307 44.3781 40.3607C41.7581 40.2807 39.1581 40.7407 36.5981 41.2707C36.9481 42.4407 37.2581 43.6207 37.5881 44.7807C37.7081 45.1907 37.3081 45.5907 36.8981 45.4707L36.8881 45.4807Z" fill="#0AB29C"/>
<path d="M15.845 23.3692C15.905 23.0192 15.815 22.6892 15.615 22.4492C15.395 22.6792 15.075 22.8392 14.735 22.9792C14.045 23.2592 13.335 23.5092 12.625 23.7292C12.745 23.9392 12.855 24.1592 12.975 24.3792C13.365 25.0492 13.995 25.0892 14.675 24.7592C15.225 24.4892 15.755 23.9992 15.855 23.3792L15.845 23.3692Z" fill="#16355C"/>
<path d="M13.9022 25.0403C13.4822 25.0403 13.1322 24.8303 12.8922 24.4203C12.8122 24.2803 12.7422 24.1503 12.6722 24.0103C12.6322 23.9303 12.5822 23.8503 12.5422 23.7703L12.4922 23.6803L12.5922 23.6503C13.3222 23.4303 14.0322 23.1803 14.6922 22.9003C15.0122 22.7703 15.3422 22.6203 15.5422 22.3903L15.6122 22.3203L15.6722 22.4003C15.8922 22.6703 15.9822 23.0303 15.9222 23.3903C15.8222 23.9703 15.3722 24.5103 14.6922 24.8303C14.4022 24.9703 14.1322 25.0403 13.8922 25.0403H13.9022ZM12.7322 23.7803C12.7622 23.8303 12.7822 23.8803 12.8122 23.9303C12.8822 24.0603 12.9522 24.2003 13.0322 24.3303C13.3722 24.9103 13.9022 25.0203 14.6122 24.6803C15.2322 24.3803 15.6622 23.8803 15.7422 23.3603C15.7922 23.0803 15.7322 22.8003 15.5822 22.5803C15.3522 22.7903 15.0422 22.9303 14.7422 23.0603C14.1022 23.3203 13.4222 23.5603 12.7222 23.7803H12.7322Z" fill="#16355C"/>
<path d="M13.9022 25.042C13.4822 25.042 13.1322 24.832 12.8922 24.422C12.8122 24.282 12.7422 24.152 12.6722 24.012C12.6322 23.932 12.5822 23.852 12.5422 23.772L12.4922 23.682L12.5922 23.652C13.3222 23.432 14.0322 23.182 14.6922 22.912C15.0122 22.782 15.3422 22.632 15.5422 22.402L15.6122 22.332L15.6722 22.412C15.8922 22.682 15.9822 23.042 15.9222 23.402C15.8222 23.982 15.3722 24.512 14.6922 24.842C14.4022 24.982 14.1322 25.052 13.8922 25.052L13.9022 25.042ZM12.7322 23.782C12.7622 23.832 12.7822 23.882 12.8122 23.932C12.8822 24.062 12.9522 24.202 13.0322 24.332C13.3722 24.912 13.9022 25.022 14.6122 24.682C15.2322 24.382 15.6622 23.882 15.7422 23.362C15.7922 23.082 15.7322 22.802 15.5822 22.582C15.3522 22.792 15.0422 22.932 14.7422 23.062C14.1022 23.322 13.4222 23.562 12.7222 23.782H12.7322Z" fill="#16355C"/>
<path d="M13.8994 25.1309C13.4394 25.1309 13.0694 24.9009 12.8194 24.4709C12.7394 24.3309 12.6694 24.1909 12.5894 24.0609C12.5394 23.9709 12.4994 23.8909 12.4594 23.8209L12.3594 23.6409L12.5594 23.5809C13.2894 23.3609 13.9894 23.1109 14.6594 22.8409C14.9694 22.7109 15.2894 22.5709 15.4794 22.3509L15.6094 22.2109L15.7294 22.3609C15.9694 22.6509 16.0594 23.0309 15.9994 23.4209C15.8994 24.0209 15.4194 24.5909 14.7294 24.9309C14.4294 25.0709 14.1494 25.1509 13.8894 25.1509L13.8994 25.1309ZM12.8594 23.8309L12.8894 23.8909C12.9594 24.0309 13.0294 24.1609 13.1094 24.2909C13.4194 24.8309 13.9094 24.9309 14.5794 24.6009C15.1794 24.3109 15.5894 23.8409 15.6694 23.3509C15.7094 23.1309 15.6694 22.9009 15.5694 22.7109C15.3394 22.8909 15.0594 23.0209 14.7794 23.1409C14.1694 23.3909 13.5194 23.6209 12.8494 23.8309H12.8594ZM12.7394 23.9709C12.8094 24.1109 12.8794 24.2409 12.9594 24.3709C13.0594 24.5409 13.1794 24.6709 13.3094 24.7709C13.1594 24.6609 13.0394 24.5209 12.9594 24.3709C12.8794 24.2409 12.8094 24.1009 12.7394 23.9709ZM12.6094 23.7309C12.6094 23.7309 12.6494 23.7909 12.6594 23.8309L12.6094 23.7309L12.6794 23.7109C12.6794 23.7109 12.6294 23.7209 12.6094 23.7309ZM14.4094 23.1009C14.1394 23.2109 13.8694 23.3109 13.5794 23.4009C13.8594 23.3009 14.1394 23.2009 14.4094 23.1009ZM15.5294 22.5309C15.3194 22.7209 15.0294 22.8609 14.7394 22.9809C15.0194 22.8609 15.3094 22.7309 15.5294 22.5309ZM15.6594 22.5209C15.6594 22.5209 15.6894 22.5809 15.7094 22.6009C15.6894 22.5709 15.6794 22.5409 15.6594 22.5209ZM15.5994 22.4509C15.5994 22.4509 15.5594 22.4909 15.5394 22.5109L15.6094 22.4509H15.5994Z" fill="#16355C"/>
<path d="M22.2753 43.3758C24.6953 43.3258 27.0653 42.9958 29.4953 43.1158C29.6053 43.1158 29.7053 43.1258 29.8153 43.1358C28.7953 41.8958 27.4753 41.0458 25.9553 40.4158C24.3953 39.7758 22.9053 39.1258 21.5653 38.0758C19.0553 36.1058 17.2853 33.2558 16.6553 30.1358C16.5153 29.4258 17.5953 29.1258 17.7353 29.8358C18.3753 32.9958 20.2353 35.8758 22.9253 37.6858C24.3853 38.6758 26.0653 39.1558 27.6253 39.9458C29.1253 40.7058 30.3553 41.8558 31.2853 43.2458C32.1153 43.3358 32.9453 43.4458 33.7753 43.5958C32.4153 40.3758 30.1153 37.8058 27.2453 35.8458C25.7453 34.8158 24.2453 33.8158 22.8653 32.6158C21.5253 31.4458 20.3053 30.1358 19.2053 28.7358C18.7653 28.1758 19.5553 27.3758 19.9953 27.9458C21.1653 29.4458 22.4753 30.8358 23.9253 32.0658C25.4053 33.3258 27.0553 34.3158 28.6153 35.4558C31.4453 37.5158 33.6053 40.2658 34.9353 43.5058C34.9853 43.6358 34.9853 43.7458 34.9553 43.8458C35.3753 43.9358 35.7953 44.0358 36.2153 44.1358C35.6053 41.9458 35.0153 39.7358 34.1053 37.6658C33.1053 35.3858 31.6653 33.4258 29.7453 31.8358C25.8153 28.5758 20.7953 27.0958 16.2453 24.9258C16.1153 25.0658 15.9753 25.2058 15.8253 25.3258C15.3053 25.7458 14.6253 26.0658 13.9453 26.1058C14.6553 28.5558 14.2953 31.1258 14.3753 33.6558C14.4553 36.0958 15.0853 38.6458 16.3753 40.7358C17.6953 42.8658 19.8553 43.4458 22.2353 43.3958L22.2753 43.3758Z" fill="#FCB027"/>
<path d="M36.3572 44.2569L36.2172 44.2169C35.8372 44.1169 35.4272 44.0269 34.9572 43.9269L34.8672 43.9069L34.8972 43.8169C34.9272 43.7369 34.9172 43.6369 34.8772 43.5369C33.5672 40.3369 31.3972 37.5569 28.5872 35.5269C28.0472 35.1369 27.4972 34.7569 26.9572 34.3869C25.9272 33.6869 24.8672 32.9569 23.8872 32.1269C22.4672 30.9169 21.1372 29.5269 19.9472 27.9969C19.7672 27.7669 19.5472 27.8169 19.3972 27.9269C19.1872 28.0969 19.0772 28.4269 19.2872 28.6869C20.4072 30.1169 21.6272 31.4169 22.9272 32.5569C24.1872 33.6569 25.5872 34.6169 26.9472 35.5369L27.2972 35.7769C30.3472 37.8569 32.5572 40.4769 33.8572 43.5669L33.9172 43.7069L33.7672 43.6769C32.9472 43.5269 32.1172 43.4169 31.2872 43.3269H31.2472L31.2272 43.2869C30.2772 41.8669 29.0272 40.7369 27.5972 40.0069C27.0172 39.7069 26.3972 39.4569 25.8072 39.2069C24.8272 38.7969 23.8072 38.3669 22.8872 37.7469C20.2172 35.9369 18.3172 33.0569 17.6672 29.8369C17.6372 29.6769 17.5472 29.5669 17.4072 29.5269C17.2472 29.4669 17.0372 29.5269 16.8972 29.6469C16.8172 29.7169 16.6972 29.8669 16.7472 30.1069C17.3772 33.2169 19.1072 36.0269 21.6272 37.9969C22.9472 39.0369 24.3872 39.6669 25.9972 40.3269C27.6572 41.0069 28.9272 41.9069 29.8872 43.0669L30.0072 43.2169L29.6872 43.1969C29.6272 43.1969 29.5572 43.1969 29.4972 43.1869C28.0172 43.1169 26.5372 43.2169 25.0972 43.3069C24.1772 43.3669 23.2272 43.4269 22.2872 43.4469C19.4172 43.4969 17.5272 42.6469 16.3472 40.7469C15.1372 38.7969 14.4172 36.2669 14.3272 33.6269C14.2972 32.8769 14.3172 32.1169 14.3272 31.3769C14.3572 29.6269 14.3872 27.8169 13.8972 26.1069L13.8672 26.0069H13.9772C14.5872 25.9669 15.2472 25.6869 15.8072 25.2369C15.9472 25.1169 16.0872 24.9869 16.2172 24.8469L16.2572 24.7969L16.3172 24.8269C17.6072 25.4469 18.9672 26.0169 20.2772 26.5669C23.5872 27.9669 27.0172 29.4069 29.8372 31.7469C31.7372 33.3169 33.2072 35.2969 34.2172 37.6069C35.0772 39.5669 35.6572 41.6769 36.2172 43.7069L36.3672 44.2269L36.3572 44.2569ZM35.0672 43.7769C35.4472 43.8569 35.7872 43.9369 36.1072 44.0169L36.0372 43.7769C35.4772 41.7469 34.8972 39.6469 34.0372 37.6969C33.0372 35.4069 31.5772 33.4569 29.7072 31.8969C26.9072 29.5669 23.4972 28.1269 20.1972 26.7369C18.9072 26.1869 17.5672 25.6269 16.2872 25.0169C16.1672 25.1469 16.0372 25.2669 15.9072 25.3769C15.3572 25.8169 14.6972 26.1069 14.0872 26.1669C14.5572 27.8669 14.5272 29.6569 14.4972 31.3869C14.4872 32.1269 14.4672 32.8869 14.4972 33.6269C14.5872 36.2369 15.2972 38.7369 16.4872 40.6669C17.6272 42.5069 19.4672 43.3369 22.2772 43.2869C23.2172 43.2669 24.1572 43.2069 25.0772 43.1469C26.5172 43.0469 28.0072 42.9469 29.4972 43.0269C29.5372 43.0269 29.5772 43.0269 29.6172 43.0269C28.6872 41.9569 27.4772 41.1269 25.9172 40.4869C24.2972 39.8169 22.8472 39.1869 21.5072 38.1369C18.9572 36.1369 17.2072 33.2969 16.5672 30.1469C16.5172 29.9069 16.5972 29.6769 16.7672 29.5269C16.9572 29.3669 17.2272 29.2969 17.4472 29.3769C17.6372 29.4369 17.7672 29.5969 17.8172 29.8169C18.4572 32.9969 20.3372 35.8369 22.9672 37.6169C23.8772 38.2269 24.8872 38.6569 25.8572 39.0669C26.4472 39.3169 27.0672 39.5769 27.6572 39.8769C29.1072 40.6169 30.3772 41.7569 31.3372 43.1769C32.1072 43.2569 32.8772 43.3669 33.6372 43.4969C32.3372 40.5069 30.1672 37.9569 27.1972 35.9269L26.8472 35.6869C25.4872 34.7569 24.0872 33.7969 22.8172 32.6869C21.5072 31.5369 20.2772 30.2269 19.1472 28.7869C18.8772 28.4469 19.0072 28.0069 19.2872 27.7869C19.5072 27.6169 19.8372 27.5769 20.0772 27.8869C21.2672 29.4069 22.5872 30.7969 23.9972 31.9969C24.9672 32.8169 26.0272 33.5469 27.0472 34.2469C27.5872 34.6169 28.1472 34.9969 28.6872 35.3869C31.5172 37.4469 33.7172 40.2369 35.0372 43.4769C35.0772 43.5869 35.0972 43.6869 35.0872 43.7869L35.0672 43.7769Z" fill="#63441B"/>
<path d="M53.5901 43.8086C52.7701 40.8086 49.0001 39.5486 46.2701 39.1686C42.9001 38.6986 39.4901 39.2886 36.1901 39.9786C35.4501 37.6986 34.5201 35.4886 33.0501 33.5886C30.5801 30.3986 26.9601 28.3986 23.3301 26.7886C21.1701 25.8286 18.9701 24.9586 16.8401 23.9486C16.9601 23.6186 17.0001 23.2586 16.9501 22.8886C16.8501 22.1286 16.3901 21.4486 15.7001 21.1286C15.5901 20.8686 15.4301 20.6086 15.3101 20.3686C15.0901 19.9186 14.8801 19.4786 14.6601 19.0286C14.2201 18.1386 13.7801 17.2386 13.3401 16.3586C11.5601 12.8186 9.66006 9.31865 7.42006 6.03865C6.33006 4.43865 5.15006 2.87865 3.88006 1.40865C3.41006 0.858646 2.89006 0.258646 2.15006 0.0586459C1.49006 -0.111354 0.720062 0.0586458 0.320062 0.648646C-0.179938 1.36865 0.030062 2.43865 0.130062 3.24865C0.250062 4.19865 0.460062 5.12865 0.750062 6.04865C1.34006 7.91865 2.21006 9.69865 3.19006 11.3986C5.55006 15.5186 8.40006 19.3386 11.2001 23.1586C11.1101 23.3586 11.1401 23.6086 11.3101 23.7886C11.8701 24.3886 12.0201 25.2586 12.6701 25.7386C13.6101 28.2386 13.2001 30.8986 13.2701 33.5086C13.3401 36.0286 13.9501 38.5786 15.1501 40.7986C15.9301 42.2386 17.0501 43.2986 18.4501 43.8986C17.2601 44.3786 16.0701 44.8586 14.8801 45.3386C13.3701 45.9486 11.8001 46.4886 10.3501 47.2086C9.16006 47.7986 8.08006 48.6886 7.66006 49.9986C7.29006 51.1486 7.57006 52.3986 8.50006 53.1886C9.45006 53.9786 10.7501 54.1286 11.9301 54.0386C13.2901 53.9386 15.1201 53.3886 16.2601 54.4486C16.8101 54.9586 16.6801 55.6886 16.9101 56.3486C17.1101 56.9186 17.5201 57.3386 18.0701 57.6086C19.2801 58.1986 20.9001 58.0886 22.2001 58.0486C28.8601 57.8886 35.6101 56.4286 41.8801 54.2086C44.6401 53.2286 47.5701 52.1786 49.9701 50.4786C51.9801 49.0586 54.3101 46.4986 53.5801 43.7986L53.5901 43.8086ZM12.2301 22.6786C12.2301 22.6786 12.2001 22.6186 12.1801 22.5886C10.0301 19.6686 7.88006 16.7386 5.92006 13.6886C4.09006 10.8486 2.30006 7.86865 1.51006 4.54865C1.31006 3.71865 1.16006 2.85865 1.15006 2.00865C1.15006 1.52865 1.22006 0.988646 1.86006 1.13865C2.28006 1.23865 2.60006 1.62865 2.87006 1.92865C4.02006 3.20865 5.06006 4.57865 6.05006 5.98865C7.95006 8.68865 9.60006 11.5586 11.1401 14.4886C12.0301 16.1786 12.8801 17.8786 13.7101 19.5986C13.9101 20.0086 14.1101 20.4186 14.3101 20.8286C14.4001 21.0086 14.5101 21.1986 14.5801 21.3886C14.5301 21.5286 14.5301 21.6786 14.5801 21.7986C14.5401 21.8286 14.4901 21.8586 14.4201 21.8886C13.8001 22.2586 12.9801 22.4786 12.2301 22.6786ZM12.9601 24.3786C12.8301 24.1586 12.7201 23.9386 12.6101 23.7286C13.3201 23.5086 14.0301 23.2586 14.7201 22.9786C15.0601 22.8386 15.3901 22.6886 15.6001 22.4486C15.8001 22.6886 15.8901 23.0286 15.8301 23.3686C15.7301 23.9886 15.2001 24.4786 14.6501 24.7486C13.9801 25.0786 13.3501 25.0386 12.9501 24.3686L12.9601 24.3786ZM16.4101 40.7186C15.1201 38.6286 14.4901 36.0786 14.4101 33.6386C14.3201 31.1186 14.6901 28.5386 13.9801 26.0886C14.6601 26.0486 15.3401 25.7286 15.8601 25.3086C16.0101 25.1886 16.1501 25.0586 16.2801 24.9086C20.8301 27.0786 25.8501 28.5586 29.7801 31.8186C31.7001 33.4086 33.1401 35.3686 34.1401 37.6486C35.0501 39.7286 35.6401 41.9386 36.2501 44.1186C35.8301 44.0086 35.4101 43.9186 34.9901 43.8286C35.0201 43.7286 35.0201 43.6186 34.9701 43.4886C33.6501 40.2486 31.4901 37.4986 28.6501 35.4386C27.0901 34.2986 25.4301 33.3086 23.9601 32.0486C22.5101 30.8086 21.2001 29.4286 20.0301 27.9286C19.5901 27.3586 18.7901 28.1586 19.2401 28.7186C20.3401 30.1286 21.5501 31.4286 22.9001 32.5986C24.2701 33.7986 25.7701 34.7986 27.2801 35.8286C30.1501 37.7886 32.4501 40.3686 33.8101 43.5786C32.9801 43.4286 32.1501 43.3086 31.3201 43.2286C30.3901 41.8386 29.1601 40.6886 27.6601 39.9286C26.1001 39.1386 24.4201 38.6586 22.9601 37.6686C20.2801 35.8486 18.4101 32.9786 17.7701 29.8186C17.6301 29.1086 16.5401 29.4086 16.6901 30.1186C17.3201 33.2486 19.0901 36.0886 21.6001 38.0586C22.9401 39.1086 24.4301 39.7586 25.9901 40.3986C27.5101 41.0186 28.8201 41.8786 29.8501 43.1186C29.7401 43.1186 29.6401 43.1086 29.5301 43.0986C27.1101 42.9786 24.7301 43.3186 22.3101 43.3586C19.9201 43.4086 17.7701 42.8286 16.4501 40.6986L16.4101 40.7186ZM49.4001 49.2286C47.2801 50.7686 44.7101 51.7286 42.2701 52.6286C36.9101 54.5986 31.2901 55.9086 25.6001 56.4686C24.1001 56.6186 22.5901 56.7286 21.0801 56.6986C20.4501 56.6886 19.7801 56.6986 19.1601 56.5386C18.3501 56.3486 18.2201 55.9186 18.0801 55.1286C17.6501 52.6786 15.0901 52.3186 13.0201 52.5586C11.8501 52.6886 9.97006 53.0386 9.14006 51.8886C8.18006 50.5486 9.72006 49.0986 10.8001 48.5186C12.2601 47.7386 13.8801 47.2086 15.4101 46.5986C16.9901 45.9586 18.5701 45.3186 20.1501 44.6886C20.3001 44.6286 20.4101 44.5386 20.4801 44.4286C22.8101 44.6986 25.1701 44.2386 27.5101 44.2086C30.6901 44.1686 33.8401 44.6086 36.8901 45.4886C37.3001 45.6086 37.7001 45.2086 37.5801 44.7986C37.2501 43.6386 36.9401 42.4586 36.5901 41.2886C39.1501 40.7586 41.7501 40.2986 44.3701 40.3786C46.8201 40.4586 49.8401 41.0286 51.5601 42.9386C53.5301 45.1286 51.2601 47.8786 49.3901 49.2386L49.4001 49.2286Z" fill="#232020"/>
<path d="M53.5901 43.8086C52.7701 40.8086 49.0001 39.5486 46.2701 39.1686C42.9001 38.6986 39.4901 39.2886 36.1901 39.9786C35.4501 37.6986 34.5201 35.4886 33.0501 33.5886C30.5801 30.3986 26.9601 28.3986 23.3301 26.7886C21.1701 25.8286 18.9701 24.9586 16.8401 23.9486C16.9601 23.6186 17.0001 23.2586 16.9501 22.8886C16.8501 22.1286 16.3901 21.4486 15.7001 21.1286C15.5901 20.8686 15.4301 20.6086 15.3101 20.3686C15.0901 19.9186 14.8801 19.4786 14.6601 19.0286C14.2201 18.1386 13.7801 17.2386 13.3401 16.3586C11.5601 12.8186 9.66006 9.31865 7.42006 6.03865C6.33006 4.43865 5.15006 2.87865 3.88006 1.40865C3.41006 0.858646 2.89006 0.258646 2.15006 0.0586459C1.49006 -0.111354 0.720062 0.0586458 0.320062 0.648646C-0.179938 1.36865 0.030062 2.43865 0.130062 3.24865C0.250062 4.19865 0.460062 5.12865 0.750062 6.04865C1.34006 7.91865 2.21006 9.69865 3.19006 11.3986C5.55006 15.5186 8.40006 19.3386 11.2001 23.1586C11.1101 23.3586 11.1401 23.6086 11.3101 23.7886C11.8701 24.3886 12.0201 25.2586 12.6701 25.7386C13.6101 28.2386 13.2001 30.8986 13.2701 33.5086C13.3401 36.0286 13.9501 38.5786 15.1501 40.7986C15.9301 42.2386 17.0501 43.2986 18.4501 43.8986C17.2601 44.3786 16.0701 44.8586 14.8801 45.3386C13.3701 45.9486 11.8001 46.4886 10.3501 47.2086C9.16006 47.7986 8.08006 48.6886 7.66006 49.9986C7.29006 51.1486 7.57006 52.3986 8.50006 53.1886C9.45006 53.9786 10.7501 54.1286 11.9301 54.0386C13.2901 53.9386 15.1201 53.3886 16.2601 54.4486C16.8101 54.9586 16.6801 55.6886 16.9101 56.3486C17.1101 56.9186 17.5201 57.3386 18.0701 57.6086C19.2801 58.1986 20.9001 58.0886 22.2001 58.0486C28.8601 57.8886 35.6101 56.4286 41.8801 54.2086C44.6401 53.2286 47.5701 52.1786 49.9701 50.4786C51.9801 49.0586 54.3101 46.4986 53.5801 43.7986L53.5901 43.8086ZM12.2301 22.6786C12.2301 22.6786 12.2001 22.6186 12.1801 22.5886C10.0301 19.6686 7.88006 16.7386 5.92006 13.6886C4.09006 10.8486 2.30006 7.86865 1.51006 4.54865C1.31006 3.71865 1.16006 2.85865 1.15006 2.00865C1.15006 1.52865 1.22006 0.988646 1.86006 1.13865C2.28006 1.23865 2.60006 1.62865 2.87006 1.92865C4.02006 3.20865 5.06006 4.57865 6.05006 5.98865C7.95006 8.68865 9.60006 11.5586 11.1401 14.4886C12.0301 16.1786 12.8801 17.8786 13.7101 19.5986C13.9101 20.0086 14.1101 20.4186 14.3101 20.8286C14.4001 21.0086 14.5101 21.1986 14.5801 21.3886C14.5301 21.5286 14.5301 21.6786 14.5801 21.7986C14.5401 21.8286 14.4901 21.8586 14.4201 21.8886C13.8001 22.2586 12.9801 22.4786 12.2301 22.6786ZM12.9601 24.3786C12.8301 24.1586 12.7201 23.9386 12.6101 23.7286C13.3201 23.5086 14.0301 23.2586 14.7201 22.9786C15.0601 22.8386 15.3901 22.6886 15.6001 22.4486C15.8001 22.6886 15.8901 23.0286 15.8301 23.3686C15.7301 23.9886 15.2001 24.4786 14.6501 24.7486C13.9801 25.0786 13.3501 25.0386 12.9501 24.3686L12.9601 24.3786ZM16.4101 40.7186C15.1201 38.6286 14.4901 36.0786 14.4101 33.6386C14.3201 31.1186 14.6901 28.5386 13.9801 26.0886C14.6601 26.0486 15.3401 25.7286 15.8601 25.3086C16.0101 25.1886 16.1501 25.0586 16.2801 24.9086C20.8301 27.0786 25.8501 28.5586 29.7801 31.8186C31.7001 33.4086 33.1401 35.3686 34.1401 37.6486C35.0501 39.7286 35.6401 41.9386 36.2501 44.1186C35.8301 44.0086 35.4101 43.9186 34.9901 43.8286C35.0201 43.7286 35.0201 43.6186 34.9701 43.4886C33.6501 40.2486 31.4901 37.4986 28.6501 35.4386C27.0901 34.2986 25.4301 33.3086 23.9601 32.0486C22.5101 30.8086 21.2001 29.4286 20.0301 27.9286C19.5901 27.3586 18.7901 28.1586 19.2401 28.7186C20.3401 30.1286 21.5501 31.4286 22.9001 32.5986C24.2701 33.7986 25.7701 34.7986 27.2801 35.8286C30.1501 37.7886 32.4501 40.3686 33.8101 43.5786C32.9801 43.4286 32.1501 43.3086 31.3201 43.2286C30.3901 41.8386 29.1601 40.6886 27.6601 39.9286C26.1001 39.1386 24.4201 38.6586 22.9601 37.6686C20.2801 35.8486 18.4101 32.9786 17.7701 29.8186C17.6301 29.1086 16.5401 29.4086 16.6901 30.1186C17.3201 33.2486 19.0901 36.0886 21.6001 38.0586C22.9401 39.1086 24.4301 39.7586 25.9901 40.3986C27.5101 41.0186 28.8201 41.8786 29.8501 43.1186C29.7401 43.1186 29.6401 43.1086 29.5301 43.0986C27.1101 42.9786 24.7301 43.3186 22.3101 43.3586C19.9201 43.4086 17.7701 42.8286 16.4501 40.6986L16.4101 40.7186ZM49.4001 49.2286C47.2801 50.7686 44.7101 51.7286 42.2701 52.6286C36.9101 54.5986 31.2901 55.9086 25.6001 56.4686C24.1001 56.6186 22.5901 56.7286 21.0801 56.6986C20.4501 56.6886 19.7801 56.6986 19.1601 56.5386C18.3501 56.3486 18.2201 55.9186 18.0801 55.1286C17.6501 52.6786 15.0901 52.3186 13.0201 52.5586C11.8501 52.6886 9.97006 53.0386 9.14006 51.8886C8.18006 50.5486 9.72006 49.0986 10.8001 48.5186C12.2601 47.7386 13.8801 47.2086 15.4101 46.5986C16.9901 45.9586 18.5701 45.3186 20.1501 44.6886C20.3001 44.6286 20.4101 44.5386 20.4801 44.4286C22.8101 44.6986 25.1701 44.2386 27.5101 44.2086C30.6901 44.1686 33.8401 44.6086 36.8901 45.4886C37.3001 45.6086 37.7001 45.2086 37.5801 44.7986C37.2501 43.6386 36.9401 42.4586 36.5901 41.2886C39.1501 40.7586 41.7501 40.2986 44.3701 40.3786C46.8201 40.4586 49.8401 41.0286 51.5601 42.9386C53.5301 45.1286 51.2601 47.8786 49.3901 49.2386L49.4001 49.2286Z" fill="#232020"/>
<path d="M53.5901 43.8086C52.7701 40.8086 49.0001 39.5486 46.2701 39.1686C42.9001 38.6986 39.4901 39.2886 36.1901 39.9786C35.4501 37.6986 34.5201 35.4886 33.0501 33.5886C30.5801 30.3986 26.9601 28.3986 23.3301 26.7886C21.1701 25.8286 18.9701 24.9586 16.8401 23.9486C16.9601 23.6186 17.0001 23.2586 16.9501 22.8886C16.8501 22.1286 16.3901 21.4486 15.7001 21.1286C15.5901 20.8686 15.4301 20.6086 15.3101 20.3686C15.0901 19.9186 14.8801 19.4786 14.6601 19.0286C14.2201 18.1386 13.7801 17.2386 13.3401 16.3586C11.5601 12.8186 9.66006 9.31865 7.42006 6.03865C6.33006 4.43865 5.15006 2.87865 3.88006 1.40865C3.41006 0.858646 2.89006 0.258646 2.15006 0.0586459C1.49006 -0.111354 0.720062 0.0586458 0.320062 0.648646C-0.179938 1.36865 0.030062 2.43865 0.130062 3.24865C0.250062 4.19865 0.460062 5.12865 0.750062 6.04865C1.34006 7.91865 2.21006 9.69865 3.19006 11.3986C5.55006 15.5186 8.40006 19.3386 11.2001 23.1586C11.1101 23.3586 11.1401 23.6086 11.3101 23.7886C11.8701 24.3886 12.0201 25.2586 12.6701 25.7386C13.6101 28.2386 13.2001 30.8986 13.2701 33.5086C13.3401 36.0286 13.9501 38.5786 15.1501 40.7986C15.9301 42.2386 17.0501 43.2986 18.4501 43.8986C17.2601 44.3786 16.0701 44.8586 14.8801 45.3386C13.3701 45.9486 11.8001 46.4886 10.3501 47.2086C9.16006 47.7986 8.08006 48.6886 7.66006 49.9986C7.29006 51.1486 7.57006 52.3986 8.50006 53.1886C9.45006 53.9786 10.7501 54.1286 11.9301 54.0386C13.2901 53.9386 15.1201 53.3886 16.2601 54.4486C16.8101 54.9586 16.6801 55.6886 16.9101 56.3486C17.1101 56.9186 17.5201 57.3386 18.0701 57.6086C19.2801 58.1986 20.9001 58.0886 22.2001 58.0486C28.8601 57.8886 35.6101 56.4286 41.8801 54.2086C44.6401 53.2286 47.5701 52.1786 49.9701 50.4786C51.9801 49.0586 54.3101 46.4986 53.5801 43.7986L53.5901 43.8086ZM12.2301 22.6786C12.2301 22.6786 12.2001 22.6186 12.1801 22.5886C10.0301 19.6686 7.88006 16.7386 5.92006 13.6886C4.09006 10.8486 2.30006 7.86865 1.51006 4.54865C1.31006 3.71865 1.16006 2.85865 1.15006 2.00865C1.15006 1.52865 1.22006 0.988646 1.86006 1.13865C2.28006 1.23865 2.60006 1.62865 2.87006 1.92865C4.02006 3.20865 5.06006 4.57865 6.05006 5.98865C7.95006 8.68865 9.60006 11.5586 11.1401 14.4886C12.0301 16.1786 12.8801 17.8786 13.7101 19.5986C13.9101 20.0086 14.1101 20.4186 14.3101 20.8286C14.4001 21.0086 14.5101 21.1986 14.5801 21.3886C14.5301 21.5286 14.5301 21.6786 14.5801 21.7986C14.5401 21.8286 14.4901 21.8586 14.4201 21.8886C13.8001 22.2586 12.9801 22.4786 12.2301 22.6786ZM12.9601 24.3786C12.8301 24.1586 12.7201 23.9386 12.6101 23.7286C13.3201 23.5086 14.0301 23.2586 14.7201 22.9786C15.0601 22.8386 15.3901 22.6886 15.6001 22.4486C15.8001 22.6886 15.8901 23.0286 15.8301 23.3686C15.7301 23.9886 15.2001 24.4786 14.6501 24.7486C13.9801 25.0786 13.3501 25.0386 12.9501 24.3686L12.9601 24.3786ZM16.4101 40.7186C15.1201 38.6286 14.4901 36.0786 14.4101 33.6386C14.3201 31.1186 14.6901 28.5386 13.9801 26.0886C14.6601 26.0486 15.3401 25.7286 15.8601 25.3086C16.0101 25.1886 16.1501 25.0586 16.2801 24.9086C20.8301 27.0786 25.8501 28.5586 29.7801 31.8186C31.7001 33.4086 33.1401 35.3686 34.1401 37.6486C35.0501 39.7286 35.6401 41.9386 36.2501 44.1186C35.8301 44.0086 35.4101 43.9186 34.9901 43.8286C35.0201 43.7286 35.0201 43.6186 34.9701 43.4886C33.6501 40.2486 31.4901 37.4986 28.6501 35.4386C27.0901 34.2986 25.4301 33.3086 23.9601 32.0486C22.5101 30.8086 21.2001 29.4286 20.0301 27.9286C19.5901 27.3586 18.7901 28.1586 19.2401 28.7186C20.3401 30.1286 21.5501 31.4286 22.9001 32.5986C24.2701 33.7986 25.7701 34.7986 27.2801 35.8286C30.1501 37.7886 32.4501 40.3686 33.8101 43.5786C32.9801 43.4286 32.1501 43.3086 31.3201 43.2286C30.3901 41.8386 29.1601 40.6886 27.6601 39.9286C26.1001 39.1386 24.4201 38.6586 22.9601 37.6686C20.2801 35.8486 18.4101 32.9786 17.7701 29.8186C17.6301 29.1086 16.5401 29.4086 16.6901 30.1186C17.3201 33.2486 19.0901 36.0886 21.6001 38.0586C22.9401 39.1086 24.4301 39.7586 25.9901 40.3986C27.5101 41.0186 28.8201 41.8786 29.8501 43.1186C29.7401 43.1186 29.6401 43.1086 29.5301 43.0986C27.1101 42.9786 24.7301 43.3186 22.3101 43.3586C19.9201 43.4086 17.7701 42.8286 16.4501 40.6986L16.4101 40.7186ZM49.4001 49.2286C47.2801 50.7686 44.7101 51.7286 42.2701 52.6286C36.9101 54.5986 31.2901 55.9086 25.6001 56.4686C24.1001 56.6186 22.5901 56.7286 21.0801 56.6986C20.4501 56.6886 19.7801 56.6986 19.1601 56.5386C18.3501 56.3486 18.2201 55.9186 18.0801 55.1286C17.6501 52.6786 15.0901 52.3186 13.0201 52.5586C11.8501 52.6886 9.97006 53.0386 9.14006 51.8886C8.18006 50.5486 9.72006 49.0986 10.8001 48.5186C12.2601 47.7386 13.8801 47.2086 15.4101 46.5986C16.9901 45.9586 18.5701 45.3186 20.1501 44.6886C20.3001 44.6286 20.4101 44.5386 20.4801 44.4286C22.8101 44.6986 25.1701 44.2386 27.5101 44.2086C30.6901 44.1686 33.8401 44.6086 36.8901 45.4886C37.3001 45.6086 37.7001 45.2086 37.5801 44.7986C37.2501 43.6386 36.9401 42.4586 36.5901 41.2886C39.1501 40.7586 41.7501 40.2986 44.3701 40.3786C46.8201 40.4586 49.8401 41.0286 51.5601 42.9386C53.5301 45.1286 51.2601 47.8786 49.3901 49.2386L49.4001 49.2286Z" fill="#232020"/>
</g>
<defs>
<clipPath id="clip0_1025_93302">
<rect width="53.72" height="58.09" fill="white"/>
</clipPath>
</defs>
</svg>
