<svg width="42" height="74" viewBox="0 0 42 74" fill="none" xmlns="http://www.w3.org/2000/svg">
<path d="M35.4899 31.1499C27.4599 31.2799 15.8299 32.2699 1.98987 35.3399C3.04987 42.3699 4.11986 49.3899 5.17986 56.4199C16.9499 55.2199 27.1099 54.2099 38.7699 52.4999C38.1099 50.0999 36.3399 37.3899 35.4899 31.1599V31.1499Z" fill="#F0494F"/>
<path d="M9.62986 19.8499C9.70986 18.1599 8.46986 12.5898 8.54986 10.8998C12.5399 10.1498 16.4398 9.40984 20.4798 9.00984C20.7598 8.97984 21.0799 8.95984 21.2799 9.11984C21.3999 9.21984 21.4499 9.35985 21.4999 9.49985C22.0399 11.1098 23.1198 16.2799 23.4298 17.9399" fill="#F0494F"/>
<path d="M38.2299 69.42C32.4499 71 18.2099 73.12 12.2599 72.76C10.2699 72.64 8.58988 71.19 8.11988 69.26C3.70988 51.42 2.89989 42.7 1.09989 24.41C0.91989 22.62 2.28989 21.06 4.07989 20.96C9.59989 20.63 23.2899 18.31 28.8499 17.6C29.1699 17.56 29.4399 17.52 29.6999 17.49C31.2899 17.28 32.7899 18.31 33.1699 19.87C37.4599 37.69 38.0599 47.06 40.9499 65.18C41.2499 67.08 40.0799 68.91 38.2299 69.42Z" stroke="#23275B" stroke-width="1.4" stroke-linecap="round" stroke-linejoin="round"/>
<path d="M12.8098 14.5299C12.5798 10.1199 12.1798 5.69985 12.5198 1.28985C12.8498 0.0298519 14.3299 -0.140134 15.2399 0.819866C16.4299 4.92987 17.2898 9.17986 18.4798 13.2799C18.5398 13.4699 18.5999 13.6799 18.7399 13.8099" fill="#F0494F"/>
<path d="M8.54993 10.7597C12.6499 10.0797 16.7399 9.39973 20.8399 8.71973" stroke="#23275B" stroke-width="1.4" stroke-linecap="round" stroke-linejoin="round"/>
<path d="M13.0699 19.83C12.5199 16.54 11.9599 13.25 11.4099 9.95996" stroke="#23275B" stroke-width="1.4" stroke-linecap="round" stroke-linejoin="round"/>
<path d="M17.1999 18.7998C16.7299 15.6998 16.2599 12.6098 15.7899 9.50977" stroke="#23275B" stroke-width="1.4" stroke-linecap="round" stroke-linejoin="round"/>
<path d="M20.0699 15.8797C19.8999 14.7397 19.7199 13.5897 19.5499 12.4497" stroke="#23275B" stroke-width="1.4" stroke-linecap="round" stroke-linejoin="round"/>
<path d="M1.94983 35.34C9.59983 34.01 17.2998 32.99 25.0298 32.27" stroke="#23275B" stroke-width="1.4" stroke-linecap="round" stroke-linejoin="round"/>
<path d="M23.0399 54.6198C28.1499 53.8298 33.2699 53.0498 38.3799 52.2598" stroke="#23275B" stroke-width="1.4" stroke-linecap="round" stroke-linejoin="round"/>
<path d="M8.77985 46.3399C12.1898 45.5599 15.6898 45.3099 19.1698 45.0599C20.3098 44.9799 32.0898 42.8799 33.2298 42.7999L31.4899 36.3999C24.0799 36.5899 16.2198 39.7799 7.83984 39.8299" stroke="#23275B" stroke-width="1.4" stroke-linecap="round" stroke-linejoin="round"/>
<path d="M5.32983 56.28C7.63983 56.11 9.94983 55.94 12.2598 55.77" stroke="#23275B" stroke-width="1.4" stroke-linecap="round" stroke-linejoin="round"/>
<path d="M29.6599 31.5097C31.4899 31.3197 33.3199 31.1197 35.1499 30.9297" stroke="#23275B" stroke-width="1.4" stroke-linecap="round" stroke-linejoin="round"/>
<path d="M15.1499 55.36C16.1099 55.23 17.0699 55.11 18.0299 54.98" stroke="#23275B" stroke-width="1.4" stroke-linecap="round" stroke-linejoin="round"/>
<path d="M9.49988 67.2598C9.66988 68.9498 11.3199 70.3398 13.0199 70.2398" stroke="#23275B" stroke-width="1.4" stroke-linecap="round" stroke-linejoin="round"/>
</svg>
