<svg width="37" height="60" viewBox="0 0 37 60" fill="none" xmlns="http://www.w3.org/2000/svg">
<path d="M27.26 38.3603C19.11 35.5603 10.86 33.0903 2.51001 30.9603C3.40001 25.9003 4.71003 20.8303 6.59003 16.0503C15.15 18.1803 23.52 20.6503 31.84 23.5903C30.29 28.5903 28.81 33.3603 27.25 38.3603H27.26Z" fill="#27B56E"/>
<path d="M35.8801 7.16016C28.8201 5.88016 20.6601 4.17016 10.2101 1.16016C8.95007 12.7202 2.62005 26.5802 1.38005 38.1402C-0.119948 52.1602 18.8801 54.4901 22.7001 49.1501C24.9201 46.0501 26.19 42.4301 27 38.7101C29.24 28.4301 34.2101 18.1702 35.8801 7.17017V7.16016Z" stroke="#034865" stroke-width="2" stroke-linecap="round" stroke-linejoin="round"/>
<path d="M9.21008 7.51025C17.8101 9.32025 26.38 11.2602 34.92 13.3102" stroke="#034865" stroke-width="2" stroke-linecap="round" stroke-linejoin="round"/>
<path d="M16.6602 8.51041C16.9602 7.06041 17.2502 5.61039 17.5502 4.15039" stroke="#034865" stroke-width="2" stroke-linecap="round" stroke-linejoin="round"/>
<path d="M25.8301 10.48C26.2501 8.80998 26.6601 7.12996 27.0801 5.45996" stroke="#034865" stroke-width="2" stroke-linecap="round" stroke-linejoin="round"/>
<path d="M6.46997 49.0801C5.79997 51.1601 5.12997 53.2501 4.46997 55.3301C7.32997 56.0201 10.44 57.4201 13.3 58.1101C13.56 58.1701 13.94 57.8301 13.68 57.7901C14.27 55.6901 14.82 53.9201 15.41 51.8101" stroke="#034865" stroke-width="2" stroke-linecap="round" stroke-linejoin="round"/>
<path d="M8.93005 56.0701C9.20005 54.7801 9.64003 53.5201 10.22 52.3301" stroke="#034865" stroke-width="2" stroke-linecap="round" stroke-linejoin="round"/>
</svg>
