<svg width="63" height="43" viewBox="0 0 63 43" fill="none" xmlns="http://www.w3.org/2000/svg">
<g clip-path="url(#clip0_1025_93323)">
<path d="M55.9823 8.05937C54.1123 6.14937 51.7123 4.82937 49.2323 3.82937C44.0823 1.74937 38.4623 0.939374 32.9123 1.19937C30.0823 1.32937 27.2723 1.74937 24.5323 2.40937C22.0423 3.01937 19.0123 3.75937 17.6823 6.13937C16.3323 8.54937 18.3323 10.6294 18.8923 12.9294C19.4323 15.1594 18.3223 17.2194 16.4723 18.5194C12.2423 21.4994 5.4423 19.1494 2.3223 23.9194C-0.447695 28.1494 2.0323 33.3494 6.4523 35.2594C6.6823 35.3594 6.7723 35.5394 6.7523 35.7294C7.7623 36.3694 8.80231 36.9594 9.88231 37.4894C14.9823 39.9694 20.7123 41.0294 26.3723 41.2294C32.3623 41.4394 38.4823 40.8494 44.3823 39.8094C47.0923 39.3294 49.8123 38.6594 52.3023 37.4694C53.5323 36.8894 54.7423 36.1994 55.7623 35.2994C56.8323 34.3494 57.5323 33.1694 58.0723 31.8694C59.1423 29.2794 60.1823 26.5894 60.7223 23.8394C61.2823 20.9794 61.0523 18.0994 60.1623 15.3194C59.3123 12.6794 57.9523 10.0494 55.9823 8.03937V8.05937ZM38.9023 8.39937C38.9023 6.97937 39.7323 5.68937 40.9423 4.96937C42.3123 4.15937 44.0023 4.07937 45.5323 4.36937C48.2323 4.88937 50.6423 6.84937 51.2423 9.59937C51.8123 12.2294 50.4723 14.8994 48.1023 16.1394C45.6723 17.4094 42.5523 16.9894 40.4323 15.2894C39.3523 14.4294 38.6323 13.2494 38.4923 11.8594C38.3723 10.7094 38.5823 9.51937 38.9023 8.37937V8.39937ZM20.1223 17.9294C22.0923 16.7894 24.0123 14.6494 22.9223 12.2694C22.5023 11.3494 21.8623 10.4794 21.8023 9.43937C21.7323 8.39937 22.3123 7.50937 23.0723 6.84937C26.3323 4.06937 30.8723 5.51937 33.9023 7.85937C35.4423 9.04937 36.8623 10.5194 37.4123 12.4294C37.8923 14.0694 37.6823 15.8294 37.0323 17.3894C35.5423 20.9494 32.0623 22.8994 28.2923 23.0694C26.2323 23.1594 24.1323 22.7594 22.2223 22.0094C21.4023 21.6894 20.5423 21.2994 20.0323 20.5394C19.6223 19.9194 19.5223 19.1094 19.8423 18.4494C19.8223 18.2594 19.9023 18.0594 20.1223 17.9294ZM23.2823 37.2694C21.3123 37.7594 19.2123 37.4994 17.2723 37.0194C15.1723 36.4994 13.1023 35.7794 11.2323 34.6894C9.6023 33.7494 7.7023 32.3694 7.0623 30.5094C6.3923 28.5694 7.3323 26.4094 8.5823 24.9194C10.8923 22.1494 14.7223 20.9394 18.1823 21.8994C18.3323 21.9394 18.4223 22.0194 18.4823 22.1094C22.6923 22.9194 27.7923 24.4794 28.5723 29.3194C29.1523 32.9494 26.8223 36.3894 23.2923 37.2594L23.2823 37.2694ZM40.3723 38.0194C37.7123 39.4094 34.2923 38.9494 31.9823 37.0894C30.8023 36.1494 30.0123 34.8494 29.8523 33.3394C29.7223 32.0894 29.9523 30.7694 30.3023 29.5294C30.3023 27.9794 31.2023 26.5694 32.5323 25.7794C34.0323 24.8894 35.8823 24.8094 37.5623 25.1294C40.5223 25.6994 43.1623 27.8394 43.8223 30.8594C44.4523 33.7394 42.9823 36.6694 40.3823 38.0194H40.3723ZM53.8923 31.0794C51.2223 32.4694 47.8023 32.0094 45.4723 30.1494C44.2923 29.1994 43.4923 27.9094 43.3423 26.3894C43.2123 25.1294 43.4423 23.8194 43.7923 22.5694C43.7923 21.0094 44.7023 19.5994 46.0323 18.8094C47.5323 17.9194 49.3923 17.8294 51.0723 18.1594C54.0323 18.7294 56.6823 20.8794 57.3423 23.9094C57.9723 26.7994 56.5023 29.7294 53.8923 31.0894V31.0794Z" fill="#EAEAEA"/>
<path d="M25.3772 21.7117C27.3472 22.0717 29.4372 22.0117 31.3372 21.3217C34.2472 20.2717 36.5272 17.4517 36.5172 14.2917C36.5172 12.5517 35.6772 11.0617 34.4572 9.86168C33.1872 8.60168 31.6172 7.49168 29.9172 6.91168C28.2872 6.35168 26.4472 6.27168 24.8672 7.03168C24.0972 7.40168 23.1472 8.07168 22.9672 8.97168C22.8172 9.72168 23.2872 10.4517 23.6172 11.0917C24.3572 12.5017 24.6972 13.8817 24.0472 15.4117C23.4472 16.8217 22.2972 17.9317 21.0072 18.7317C21.0072 18.7417 20.9972 18.7517 20.9872 18.7617C19.7072 20.5517 24.3472 21.5217 25.3672 21.7117H25.3772Z" fill="#F15D48"/>
<path d="M17.4894 23.1083C17.2894 23.0683 17.1594 22.9683 17.0894 22.8283C13.8694 22.2583 10.3194 23.8783 8.71935 26.7383C8.25935 27.5683 7.90935 28.5383 8.00935 29.5083C8.10935 30.4283 8.68935 31.1983 9.31935 31.8283C10.5894 33.0983 12.1894 34.0183 13.8494 34.6983C16.8694 35.9483 20.8294 37.1483 24.0094 35.8183C26.8494 34.6283 28.2894 31.0883 27.0694 28.2483C25.4994 24.5783 20.9794 23.7283 17.4994 23.1083H17.4894Z" fill="#FCB027"/>
<path d="M20.8898 36.4686C18.8998 36.4686 16.5598 35.8986 13.8198 34.7586C11.9098 33.9686 10.4198 33.0186 9.26981 31.8786C8.44981 31.0586 8.01981 30.3086 7.93981 29.5186C7.84981 28.6686 8.09981 27.7286 8.65981 26.7186C10.2698 23.8486 13.8098 22.1886 17.0898 22.7786H17.1198L17.1298 22.8086C17.1798 22.9086 17.2898 23.0286 17.4898 23.0586C20.8698 23.6586 25.4998 24.4886 27.0998 28.2386C27.6898 29.6086 27.6898 31.2386 27.0998 32.6986C26.5098 34.1586 25.3898 35.3186 24.0198 35.8886C23.0898 36.2786 22.0498 36.4686 20.8798 36.4686H20.8898ZM15.7598 22.7686C12.9398 22.7686 10.1398 24.3186 8.76981 26.7686C8.21981 27.7586 7.97981 28.6786 8.05981 29.4986C8.13981 30.2586 8.54981 30.9786 9.34981 31.7886C10.4898 32.9286 11.9598 33.8586 13.8598 34.6486C18.1798 36.4386 21.4898 36.8086 23.9798 35.7686C25.3198 35.2086 26.4198 34.0686 26.9998 32.6386C27.5798 31.2086 27.5798 29.6186 26.9998 28.2686C25.4198 24.5786 20.8298 23.7586 17.4698 23.1586C17.2398 23.1186 17.1098 22.9886 17.0398 22.8686C16.6098 22.7986 16.1798 22.7586 15.7498 22.7586L15.7598 22.7686Z" fill="#16355C"/>
<path d="M37.1002 26.3081C35.2702 25.9881 32.8002 26.4681 31.9002 28.1181C31.9602 28.2381 31.9702 28.3781 31.9202 28.5481C31.7902 28.9281 31.6702 29.3081 31.5602 29.7081C31.5602 29.8281 31.5302 29.9381 31.4702 30.0181C31.2002 31.0181 31.0302 32.0581 31.0902 33.0681C31.1802 34.5081 32.0502 35.6881 33.2402 36.4581C35.3102 37.8081 38.1302 38.0081 40.2402 36.6481C42.2702 35.3381 43.1902 32.8981 42.4402 30.5981C41.6802 28.2381 39.4802 26.7381 37.1002 26.3181V26.3081Z" fill="#FBCC30"/>
<path d="M41.5807 14.7221C43.4707 15.9521 46.0407 16.1421 47.9707 14.8921C49.8307 13.6921 50.6707 11.4721 49.9807 9.36205C49.2807 7.20205 47.2707 5.84205 45.1107 5.45205C43.4407 5.16205 41.1807 5.59205 40.3607 7.10205C40.4107 7.21205 40.4207 7.34205 40.3707 7.49205C40.2507 7.83205 40.1407 8.19205 40.0407 8.55205C40.0407 8.66205 40.0107 8.76205 39.9607 8.83205C39.7207 9.74205 39.5607 10.6921 39.6107 11.6121C39.6907 12.9321 40.4907 14.0021 41.5707 14.7121L41.5807 14.7221Z" fill="#0AB29C"/>
<path d="M50.6124 19.3393C48.7824 19.0193 46.3024 19.4993 45.3924 21.1493C45.4524 21.2693 45.4624 21.4093 45.4124 21.5793C45.2824 21.9593 45.1624 22.3393 45.0524 22.7393C45.0524 22.8593 45.0224 22.9693 44.9624 23.0493C44.6924 24.0493 44.5224 25.0893 44.5824 26.0993C44.6724 27.5493 45.5424 28.7193 46.7324 29.4993C48.8024 30.8493 51.6324 31.0593 53.7524 29.6893C55.7924 28.3793 56.7124 25.9293 55.9624 23.6193C55.1924 21.2493 52.9924 19.7493 50.6124 19.3293V19.3393Z" fill="#F26322"/>
<path d="M62.1114 18.7613C61.4514 13.1713 58.4714 7.69126 53.5414 4.67126C48.6214 1.67126 42.5814 0.301264 36.8314 0.0412635C33.9014 -0.0887365 30.9614 0.0912635 28.0614 0.541264C25.2914 0.971264 22.2914 1.52126 19.7714 2.77126C17.5314 3.89126 15.6714 6.07126 16.0714 8.66126C16.4414 11.1013 18.8014 13.3413 17.4014 15.8613C15.9814 18.4213 12.7514 18.9213 10.0814 19.2613C7.3914 19.6013 4.5614 19.9813 2.5114 21.8913C-1.1386 25.3113 -0.648602 31.0113 2.8614 34.3213C3.6314 35.0513 4.5214 35.6513 5.4814 36.1113C5.5114 36.2513 5.5914 36.3813 5.7414 36.4813C16.2814 43.4413 29.5714 43.0413 41.6414 41.4113C44.5214 41.0213 47.4114 40.5213 50.1714 39.5913C52.7614 38.7113 55.5514 37.4413 57.3814 35.3713C58.2914 34.3413 58.8614 33.1113 59.3614 31.8513C59.9114 30.4613 60.4514 29.0513 60.9214 27.6313C61.8714 24.7713 62.4714 21.7913 62.1214 18.7713L62.1114 18.7613ZM60.7214 23.8513C60.1814 26.6013 59.1514 29.2913 58.0714 31.8813C57.5314 33.1813 56.8314 34.3613 55.7614 35.3113C54.7414 36.2113 53.5314 36.8913 52.3014 37.4813C49.8114 38.6713 47.0914 39.3413 44.3814 39.8213C38.4814 40.8613 32.3714 41.4513 26.3714 41.2413C20.7114 41.0413 14.9814 39.9813 9.8814 37.5013C8.8014 36.9813 7.7614 36.3913 6.7514 35.7413C6.7614 35.5613 6.6814 35.3813 6.4514 35.2713C2.0414 33.3613 -0.438602 28.1613 2.3214 23.9313C5.4414 19.1613 12.2414 21.5113 16.4714 18.5313C18.3214 17.2313 19.4314 15.1713 18.8914 12.9413C18.3314 10.6413 16.3314 8.56126 17.6814 6.15126C19.0114 3.77126 22.0414 3.03126 24.5314 2.42126C27.2814 1.75126 30.0814 1.34126 32.9114 1.21126C38.4614 0.951264 44.0814 1.76126 49.2314 3.84126C51.7014 4.84126 54.1114 6.16126 55.9814 8.07126C57.9514 10.0813 59.3114 12.7113 60.1614 15.3513C61.0614 18.1213 61.2914 21.0113 60.7214 23.8713V23.8513Z" fill="#232020"/>
<path d="M18.4707 22.1214C18.4107 22.0314 18.3207 21.9514 18.1707 21.9114C14.7007 20.9514 10.8807 22.1614 8.57074 24.9314C7.32074 26.4214 6.38074 28.5814 7.05074 30.5214C7.69074 32.3814 9.59074 33.7614 11.2207 34.7014C13.0907 35.7914 15.1707 36.5114 17.2607 37.0314C19.2007 37.5114 21.3007 37.7614 23.2707 37.2814C26.8007 36.4114 29.1407 32.9714 28.5507 29.3414C27.7707 24.5014 22.6707 22.9414 18.4607 22.1314L18.4707 22.1214ZM24.0007 35.8314C20.8207 37.1614 16.8607 35.9614 13.8407 34.7114C12.1907 34.0214 10.5907 33.1114 9.31074 31.8414C8.67074 31.2014 8.09074 30.4414 8.00074 29.5214C7.90074 28.5614 8.25074 27.5814 8.71074 26.7514C10.3107 23.8914 13.8607 22.2614 17.0807 22.8414C17.1507 22.9814 17.2907 23.0914 17.4807 23.1214C20.9607 23.7414 25.4807 24.6014 27.0507 28.2614C28.2707 31.1114 26.8407 34.6414 23.9907 35.8314H24.0007Z" fill="#232020"/>
<path d="M37.5547 25.1208C35.8747 24.8008 34.0247 24.8808 32.5247 25.7708C31.1947 26.5608 30.2947 27.9708 30.2947 29.5208C29.9547 30.7608 29.7247 32.0808 29.8447 33.3308C29.9947 34.8508 30.7947 36.1408 31.9747 37.0808C34.2947 38.9408 37.7147 39.4008 40.3647 38.0108C42.9647 36.6508 44.4347 33.7308 43.8047 30.8508C43.1447 27.8308 40.5047 25.6908 37.5447 25.1208H37.5547ZM40.2347 36.6408C38.1247 38.0008 35.3047 37.8008 33.2347 36.4508C32.0447 35.6808 31.1747 34.5008 31.0847 33.0608C31.0247 32.0508 31.1947 31.0108 31.4647 30.0108C31.5147 29.9308 31.5447 29.8208 31.5547 29.7008C31.6647 29.3108 31.7947 28.9208 31.9147 28.5408C31.9747 28.3808 31.9547 28.2308 31.8947 28.1108C32.7947 26.4608 35.2647 25.9808 37.0947 26.3008C39.4647 26.7208 41.6647 28.2208 42.4347 30.5808C43.1847 32.8908 42.2647 35.3208 40.2347 36.6308V36.6408Z" fill="#232020"/>
<path d="M51.0591 18.152C49.3791 17.832 47.5191 17.912 46.0191 18.802C44.6891 19.592 43.7791 21.002 43.7791 22.562C43.4391 23.812 43.2091 25.122 43.3291 26.382C43.4791 27.902 44.2791 29.192 45.4591 30.142C47.7791 32.002 51.2091 32.462 53.8791 31.072C56.4891 29.712 57.9591 26.782 57.3291 23.892C56.6691 20.872 54.0191 18.712 51.0591 18.142V18.152ZM53.7491 29.702C51.6291 31.072 48.8091 30.862 46.7291 29.512C45.5391 28.742 44.6691 27.562 44.5791 26.112C44.5191 25.102 44.6891 24.062 44.9591 23.062C45.0091 22.982 45.0391 22.872 45.0491 22.752C45.1591 22.362 45.2891 21.972 45.4091 21.592C45.4691 21.422 45.4491 21.282 45.3891 21.162C46.2891 19.502 48.7691 19.022 50.6091 19.352C52.9891 19.772 55.1891 21.272 55.9591 23.642C56.7091 25.952 55.7891 28.402 53.7491 29.712V29.702Z" fill="#232020"/>
<path d="M40.4305 15.3022C42.5505 17.0022 45.6705 17.4222 48.1005 16.1522C50.4805 14.9122 51.8205 12.2422 51.2405 9.61219C50.6405 6.85219 48.2305 4.89219 45.5305 4.38219C44.0005 4.09219 42.3105 4.16219 40.9405 4.98219C39.7305 5.70219 38.9005 6.99219 38.9005 8.41219C38.5905 9.55219 38.3805 10.7522 38.4905 11.8922C38.6305 13.2722 39.3605 14.4522 40.4305 15.3222V15.3022ZM39.9705 8.84219C40.0205 8.76219 40.0505 8.67219 40.0505 8.56219C40.1505 8.20219 40.2705 7.85219 40.3805 7.50219C40.4305 7.35219 40.4205 7.22219 40.3705 7.11219C41.1905 5.60219 43.4505 5.16219 45.1205 5.46219C47.2905 5.84219 49.3005 7.21219 49.9905 9.37219C50.6705 11.4822 49.8305 13.7022 47.9805 14.9022C46.0505 16.1422 43.4805 15.9622 41.5905 14.7322C40.5105 14.0222 39.7105 12.9522 39.6305 11.6322C39.5705 10.7122 39.7305 9.76219 39.9805 8.85219L39.9705 8.84219Z" fill="#232020"/>
<path d="M20.0357 20.5426C20.5457 21.3026 21.3957 21.6926 22.2257 22.0126C24.1457 22.7626 26.2357 23.1626 28.2957 23.0726C32.0557 22.9026 35.5457 20.9526 37.0357 17.3926C37.6857 15.8326 37.8857 14.0726 37.4157 12.4326C36.8657 10.5226 35.4357 9.04264 33.9057 7.86264C30.8857 5.52264 26.3357 4.07264 23.0757 6.85264C22.3057 7.50264 21.7357 8.40264 21.8057 9.44264C21.8757 10.4826 22.5057 11.3526 22.9257 12.2726C24.0157 14.6526 22.0957 16.8026 20.1257 17.9326C19.9057 18.0626 19.8357 18.2626 19.8457 18.4526C19.5257 19.1126 19.6257 19.9226 20.0357 20.5426ZM21.0057 18.7726C21.0057 18.7726 21.0157 18.7526 21.0257 18.7426C22.3157 17.9426 23.4657 16.8326 24.0657 15.4226C24.7157 13.8926 24.3757 12.5226 23.6357 11.1026C23.3057 10.4626 22.8357 9.73264 22.9857 8.98264C23.1657 8.08264 24.1157 7.42264 24.8857 7.04264C26.4657 6.27264 28.3057 6.35264 29.9357 6.92264C31.6357 7.51264 33.2057 8.62264 34.4757 9.87264C35.6957 11.0726 36.5257 12.5626 36.5357 14.3026C36.5457 17.4626 34.2657 20.2826 31.3557 21.3326C29.4557 22.0126 27.3757 22.0826 25.3957 21.7226C24.3757 21.5326 19.7357 20.5626 21.0157 18.7726H21.0057Z" fill="#232020"/>
</g>
<defs>
<clipPath id="clip0_1025_93323">
<rect width="62.22" height="42.41" fill="white"/>
</clipPath>
</defs>
</svg>
