<svg width="30" height="46" viewBox="0 0 30 46" fill="none" xmlns="http://www.w3.org/2000/svg">
<path d="M18.2272 35.8305C13.3148 28.0458 6.86155 19.4991 2.96345 11.1631C5.0056 9.808 11.087 5.67323 11.7019 5.64028C11.7019 5.64028 12.6931 7.08525 13.3206 8.17317C17.6658 15.7763 22.3926 23.4757 26.2901 31.3096C26.2901 31.3096 21.6177 34.6733 18.2272 35.8305Z" fill="#FFC40C"/>
<path d="M2.95656 11.1652C2.62804 10.6405 2.31011 10.105 2.00275 9.5589C1.35799 8.42027 1.7928 6.98396 2.93639 6.33184C4.44495 5.47731 5.91252 4.52355 7.33729 3.52778C8.34226 2.8239 9.7138 2.9856 10.5127 3.90885L11.6992 5.63394" fill="#F0494F"/>
<path d="M3.76603 12.4317C6.4666 10.4415 9.43524 8.81972 12.5744 7.63512" stroke="white" stroke-width="1.4" stroke-linecap="round" stroke-linejoin="round"/>
<path d="M6.74609 10.2822C11.5555 18.3072 16.3714 26.3301 21.1808 34.3551" stroke="white" stroke-width="1.4" stroke-linecap="round" stroke-linejoin="round"/>
<path d="M8.91211 9.79065C13.6633 17.6657 18.4186 25.5323 23.1698 33.4074" stroke="white" stroke-width="1.4" stroke-linecap="round" stroke-linejoin="round"/>
<path d="M18.3244 35.8889C21 37.0987 23.5978 38.4766 26.0943 40.0164C26.5949 37.0008 26.4501 33.8871 25.6783 30.9378" stroke="white" stroke-width="1.4" stroke-linecap="round" stroke-linejoin="round"/>
<path d="M26.8557 41.1434C26.4261 40.4267 26.5324 41.1759 26.1113 40.4634" stroke="white" stroke-width="1.4" stroke-linecap="round" stroke-linejoin="round"/>
</svg>
