<svg width="25" height="64" viewBox="0 0 25 64" fill="none" xmlns="http://www.w3.org/2000/svg">
<path d="M11.1998 51.1601C8.02983 37.7901 3.05983 22.6001 1.57983 8.94013C5.09983 8.01013 15.6298 5.10013 16.5098 5.35013C16.5098 5.35013 17.2098 7.87013 17.5698 9.71013C20.0298 22.5501 22.9798 35.7101 24.6998 48.6601C24.6998 48.6601 16.5198 51.1601 11.1998 51.1601Z" fill="#FFC40C"/>
<path d="M1.56989 8.93989C1.35989 8.03989 1.16989 7.12989 0.999894 6.20989C0.639894 4.28989 1.93989 2.46989 3.85989 2.09989C6.38989 1.61989 8.90989 0.979895 11.3899 0.259895C13.1399 -0.250105 14.9899 0.639894 15.6699 2.32989L16.5099 5.33989" fill="#F0494F"/>
<path d="M2.09985 11.1198C6.84985 9.60984 11.7999 8.74984 16.7799 8.58984" stroke="#23275B" stroke-width="1.4" stroke-linecap="round" stroke-linejoin="round"/>
<path d="M7.31995 9.52002C10.2299 23.18 13.1499 36.84 16.0599 50.5" stroke="#23275B" stroke-width="1.4" stroke-linecap="round" stroke-linejoin="round"/>
<path d="M10.5999 9.87012C13.4999 23.2901 16.4099 36.7001 19.3099 50.1201" stroke="#23275B" stroke-width="1.4" stroke-linecap="round" stroke-linejoin="round"/>
<path d="M11.3099 51.2898C14.4899 54.2898 17.4799 57.4898 20.2499 60.8698C22.3999 56.8498 23.6899 52.3798 24.0199 47.8398" stroke="#23275B" stroke-width="1.4" stroke-linecap="round" stroke-linejoin="round"/>
<path d="M20.7799 62.8298C20.5199 61.6098 20.3099 62.7198 20.0599 61.5098" stroke="#23275B" stroke-width="1.4" stroke-linecap="round" stroke-linejoin="round"/>
</svg>
