<svg width="12" height="73" viewBox="0 0 12 73" fill="none" xmlns="http://www.w3.org/2000/svg">
<path d="M9.02979 72.5397C9.35979 52.8297 12.4497 34.6697 10.7297 13.6697C7.03974 13.4997 3.04974 13.6197 3.04974 13.6197C2.76974 32.5197 1.49977 52.9397 0.509766 71.8197L9.02979 72.5397Z" fill="#857BBA"/>
<path d="M6.73975 13.9102C5.94975 33.0702 5.15975 52.2402 4.36975 71.4102" stroke="#23275B" stroke-width="1.4" stroke-linecap="round" stroke-linejoin="round"/>
<path d="M4.69971 5.39993C5.36971 3.82993 6.02971 2.25994 6.69971 0.689941C7.33971 2.42994 7.97968 3.90994 8.60968 5.65994" fill="#857BBA"/>
<path d="M3.09973 13.3201C3.82973 10.7501 4.41973 8.40006 5.09973 5.81006L8.25977 5.85007C9.30977 8.45007 9.90977 10.8701 10.7598 13.5401" stroke="#23275B" stroke-width="1.4" stroke-linecap="round" stroke-linejoin="round"/>
</svg>
