<svg width="49" height="53" viewBox="0 0 49 53" fill="none" xmlns="http://www.w3.org/2000/svg">
<path d="M30.5433 40.0028C31.1585 35.3053 30.9995 29.4672 33.1928 26.5572C36.2464 25.8467 40.107 24.7625 43.7835 23.5943C47.2002 22.5138 48.2878 18.2193 45.7723 15.6734C42.3356 12.19 37.7984 7.75274 33.8508 4.32477C31.2146 2.0389 27.1173 3.24051 26.1046 6.58391C24.5658 11.6737 23.4496 17.2409 22.9074 18.3269C20.5866 19.6621 15.9302 20.4562 12.1914 20.9043C9.98051 21.1719 9.01938 23.8502 10.5443 25.4764C15.1486 30.3858 21.31 37.1943 25.9497 41.6178C27.5723 43.1626 30.2522 42.2228 30.5499 40.0037L30.5433 40.0028Z" fill="#27B56E"/>
<path d="M13.3016 28.5415C10.7596 32.4951 1.79484 47.5703 1.79484 47.5703C1.79484 47.5703 17.5888 40.1214 21.6316 37.3005" stroke="#024C2B" stroke-width="2" stroke-linecap="round" stroke-linejoin="round"/>
<path d="M10.3594 24.5508C13.7624 28.7689 22.2814 37.626 25.9487 41.616" stroke="#024C2B" stroke-width="2" stroke-linecap="round" stroke-linejoin="round"/>
<path d="M31.7188 8.65234C34.6736 11.5971 37.8058 14.363 41.0899 16.9401" stroke="#024C2B" stroke-width="2" stroke-linecap="round" stroke-linejoin="round"/>
<path d="M22.2109 31.0742C23.7962 32.7015 25.3034 34.4128 26.7221 36.1867" stroke="#024C2B" stroke-width="2" stroke-linecap="round" stroke-linejoin="round"/>
</svg>
