<svg width="34" height="37" viewBox="0 0 34 37" fill="none" xmlns="http://www.w3.org/2000/svg">
<path d="M16.4447 36.4125C16.1189 36.5564 15.8396 36.5853 15.6069 36.4993C15.351 36.3606 15.0408 36.0256 14.6764 35.4944C11.3734 31.1009 8.49296 27.15 6.03515 23.6418C3.57735 20.1336 2.05778 17.7213 1.47645 16.4049C0.755606 14.7725 0.624283 13.2259 1.08248 11.765C1.54068 10.3042 2.55727 9.22601 4.13224 8.53051C5.76152 7.81103 7.24317 7.786 8.57718 8.45542C9.94224 9.0482 10.9736 10.1344 11.6712 11.7142C12.9501 14.6103 14.7122 22.2013 16.9574 34.4871C17.1046 35.1143 17.1432 35.5692 17.0733 35.8518C16.9801 36.0817 16.7706 36.2686 16.4447 36.4125ZM32.9005 29.1457C32.5746 29.2896 32.2954 29.3186 32.0627 29.2325C31.8067 29.0939 31.4966 28.7589 31.1322 28.2276C27.8989 23.9921 25.0417 20.0939 22.5607 16.533C20.1339 12.9482 18.6182 10.4712 18.0137 9.10213C17.2928 7.46976 17.1343 5.93514 17.5382 4.49827C17.9964 3.03743 19.013 1.95925 20.588 1.26375C22.2173 0.544274 23.6989 0.519243 25.0329 1.18866C26.398 1.78144 27.4293 2.86769 28.1269 4.44741C28.8012 5.97447 29.6186 8.85419 30.579 13.0866C31.5705 17.2423 32.5423 21.9416 33.4946 27.1844C33.5875 27.8355 33.5989 28.3024 33.529 28.585C33.4359 28.8149 33.2263 29.0018 32.9005 29.1457Z" fill="#B81E29"/>
</svg>
