<svg width="32" height="32" viewBox="0 0 32 32" fill="none" xmlns="http://www.w3.org/2000/svg">
<g clip-path="url(#clip0_1025_88428)">
<g clip-path="url(#clip1_1025_88428)">
<path d="M30.6654 14.1321L29.132 13.1988C28.1987 12.6655 27.8654 11.5321 28.2654 10.5321L28.932 8.86545C29.532 7.39878 28.3987 5.79878 26.7987 5.86545L24.9987 5.99878C23.932 6.06545 22.9987 5.39878 22.732 4.33212L22.2654 2.66545C21.8654 1.13212 19.9987 0.465451 18.7987 1.53212L17.3987 2.66545C16.9987 2.99878 16.4654 3.19878 15.9987 3.19878C15.532 3.19878 14.9987 3.06545 14.5987 2.66545L13.1987 1.46545C11.9987 0.465451 10.132 1.06545 9.73203 2.66545L9.33203 4.39878C9.06536 5.39878 8.13203 6.13212 7.06536 6.06545L5.26536 5.93212C3.66536 5.79878 2.46536 7.39878 3.13203 8.93212L3.7987 10.5988C4.1987 11.5988 3.86536 12.7321 2.93203 13.2655L1.33203 14.1321C-0.00130209 14.9988 -0.00130209 16.9988 1.33203 17.8654L2.86536 18.7988C3.7987 19.3321 4.13203 20.4655 3.73203 21.4655L3.06536 23.1321C2.46536 24.5988 3.5987 26.1988 5.1987 26.1321L6.9987 25.9988C8.06536 25.9321 8.9987 26.5988 9.26536 27.6654L9.66537 29.3988C10.0654 30.9321 11.932 31.5988 13.132 30.5321L14.532 29.3321C14.932 28.9988 15.4654 28.7988 15.932 28.7988C16.3987 28.7988 16.932 28.9988 17.332 29.3321L18.732 30.5321C19.932 31.5988 21.8654 30.9321 22.1987 29.3988L22.5987 27.6654C22.8654 26.6654 23.7987 25.9321 24.8654 25.9988L26.6654 26.1321C28.2654 26.2654 29.4654 24.6655 28.7987 23.1321L28.132 21.4655C27.732 20.4655 28.0654 19.3321 28.9987 18.7988L30.532 17.8654C31.9987 16.9988 31.9987 14.9988 30.6654 14.1321Z" fill="#B81E29"/>
</g>
<path fill-rule="evenodd" clip-rule="evenodd" d="M24.0607 9.93934C24.6464 10.5251 24.6464 11.4749 24.0607 12.0607L14.0607 22.0607C13.4749 22.6464 12.5251 22.6464 11.9393 22.0607L7.93934 18.0607C7.35355 17.4749 7.35355 16.5251 7.93934 15.9393C8.52513 15.3536 9.47487 15.3536 10.0607 15.9393L13 18.8787L21.9393 9.93934C22.5251 9.35355 23.4749 9.35355 24.0607 9.93934Z" fill="white"/>
</g>
<defs>
<clipPath id="clip0_1025_88428">
<rect width="32" height="32" fill="white"/>
</clipPath>
<clipPath id="clip1_1025_88428">
<rect width="32" height="32" fill="white"/>
</clipPath>
</defs>
</svg>
