<svg width="70" height="53" viewBox="0 0 70 53" fill="none" xmlns="http://www.w3.org/2000/svg">
<path d="M56.4424 48.0353C57.8466 41.9327 58.7235 34.5229 57.9135 29.3579C57.1034 24.1928 54.4021 18.5349 50.8089 14.7408C45.6294 9.2735 37.4629 7.23602 30.0398 8.47389C18.3411 10.4308 8.13652 21.6182 6.40472 33.3526C10.1379 35.0001 14.1925 35.693 18.1215 36.7907C19.9729 31.751 22.0375 27.4432 26.3644 24.2686C30.128 21.5083 35.5796 19.8162 39.3127 22.6161C40.9132 23.8173 43.8611 27.1529 44.7498 28.9457C47.1998 33.8605 46.8309 39.563 46.1362 45.0111C48.8241 46.5521 53.4031 47.4333 56.4424 48.0353Z" fill="#F0494F"/>
<path d="M62.5321 42.7084C46.4003 37.1949 30.2241 31.6684 13.5468 28.155C10.1599 27.4441 6.73799 26.8058 3.47155 25.6609C2.63494 28.1828 1.47555 31.4518 1.13117 34.0836C22.5411 40.2832 31.6992 44.3507 58.3264 51.3497C58.6796 51.4396 59.0917 51.4225 59.3879 51.2127C59.6476 51.0335 59.7617 50.715 59.8639 50.4138C60.827 47.6254 61.5708 45.4904 62.534 42.702L62.5321 42.7084Z" fill="#F0494F"/>
<path d="M3.86049 33.9663L4.68484 32.1447" stroke="#23275B" stroke-width="1.4" stroke-linecap="round" stroke-linejoin="round"/>
<path d="M7.3933 35.4642C7.71191 34.0256 8.03686 32.5889 8.35547 31.1504" stroke="#23275B" stroke-width="1.4" stroke-linecap="round" stroke-linejoin="round"/>
<path d="M10.7611 36.453C11.199 35.7603 11.5019 34.9865 11.6423 34.1789" stroke="#23275B" stroke-width="1.4" stroke-linecap="round" stroke-linejoin="round"/>
<path d="M15.1477 37.9681C15.4883 36.3842 16.0187 34.8352 16.7177 33.3703" stroke="#23275B" stroke-width="1.4" stroke-linecap="round" stroke-linejoin="round"/>
<path d="M19.095 39.3607L19.9023 36.6094" stroke="#23275B" stroke-width="1.4" stroke-linecap="round" stroke-linejoin="round"/>
<path d="M22.5493 40.1405L23.668 36.3281" stroke="#23275B" stroke-width="1.4" stroke-linecap="round" stroke-linejoin="round"/>
<path d="M25.6633 41.289L26.2227 39.3828" stroke="#23275B" stroke-width="1.4" stroke-linecap="round" stroke-linejoin="round"/>
<path d="M29.089 42.2879C29.3524 41.0609 29.614 39.8402 29.8711 38.6113" stroke="#23275B" stroke-width="1.4" stroke-linecap="round" stroke-linejoin="round"/>
<path d="M32.4992 43.0606L32.9336 41.5801" stroke="#23275B" stroke-width="1.4" stroke-linecap="round" stroke-linejoin="round"/>
<path d="M35.4724 44.6214C36.0071 43.2463 36.3758 41.8017 36.5781 40.3359" stroke="#23275B" stroke-width="1.4" stroke-linecap="round" stroke-linejoin="round"/>
<path d="M38.9003 45.4072C39.0169 44.7513 39.1334 44.0954 39.25 43.4395" stroke="#23275B" stroke-width="1.4" stroke-linecap="round" stroke-linejoin="round"/>
<path d="M42.1739 46.5956C42.592 44.7238 43.0038 42.8502 43.4219 40.9785" stroke="#23275B" stroke-width="1.4" stroke-linecap="round" stroke-linejoin="round"/>
<path d="M44.6644 47.0924L45.4102 44.5508" stroke="#23275B" stroke-width="1.4" stroke-linecap="round" stroke-linejoin="round"/>
<path d="M48.2816 47.9321C48.3303 46.9665 48.5554 46.0112 48.9337 45.1216" stroke="#23275B" stroke-width="1.4" stroke-linecap="round" stroke-linejoin="round"/>
<path d="M51.2805 48.7971C51.8498 47.2803 52.2405 45.6904 52.4375 44.0781" stroke="#23275B" stroke-width="1.4" stroke-linecap="round" stroke-linejoin="round"/>
<path d="M54.3454 50.1586C54.3361 49.0379 54.5051 47.9212 54.8519 46.8567" stroke="#23275B" stroke-width="1.4" stroke-linecap="round" stroke-linejoin="round"/>
<path d="M56.9568 51.3881C57.485 50.0111 57.8474 48.5647 58.0352 47.1016" stroke="#23275B" stroke-width="1.4" stroke-linecap="round" stroke-linejoin="round"/>
<path d="M38.0195 18.8633C37.8586 19.6235 37.7058 20.3792 37.5449 21.1394" stroke="#23275B" stroke-width="1.4" stroke-linecap="round" stroke-linejoin="round"/>
<path d="M39.7479 22.4752C40.1712 22.3027 40.5193 21.9632 40.7096 21.5497" stroke="#23275B" stroke-width="1.4" stroke-linecap="round" stroke-linejoin="round"/>
<path d="M42.336 24.9723C42.9682 24.3228 43.6981 23.764 44.4908 23.3203" stroke="#23275B" stroke-width="1.4" stroke-linecap="round" stroke-linejoin="round"/>
<path d="M44.3596 28.4666L45.84 27.5139" stroke="#23275B" stroke-width="1.4" stroke-linecap="round" stroke-linejoin="round"/>
<path d="M45.8131 30.6929C46.6109 30.6786 47.3978 30.5368 48.1529 30.2684" stroke="#23275B" stroke-width="1.4" stroke-linecap="round" stroke-linejoin="round"/>
<path d="M46.3567 34.0756C47.0784 34.1562 47.8019 34.2305 48.5235 34.3111" stroke="#23275B" stroke-width="1.4" stroke-linecap="round" stroke-linejoin="round"/>
<path d="M47.0322 37.042C47.594 37.2206 48.2053 37.2068 48.7643 37.0189" stroke="#23275B" stroke-width="1.4" stroke-linecap="round" stroke-linejoin="round"/>
<path d="M33.8516 19.5449C33.9086 19.9619 33.9657 20.3789 34.0164 20.7941" stroke="#23275B" stroke-width="1.4" stroke-linecap="round" stroke-linejoin="round"/>
<path d="M30.2812 18.4551C30.6675 19.3965 31.062 20.3335 31.4482 21.275" stroke="#23275B" stroke-width="1.4" stroke-linecap="round" stroke-linejoin="round"/>
<path d="M26.875 21.6367C27.1503 22.0626 27.432 22.4903 27.7073 22.9161" stroke="#23275B" stroke-width="1.4" stroke-linecap="round" stroke-linejoin="round"/>
<path d="M23.1953 22.4492C23.8726 23.2691 24.4886 24.133 25.0453 25.0348" stroke="#23275B" stroke-width="1.4" stroke-linecap="round" stroke-linejoin="round"/>
<path d="M21.4883 25.916C21.8536 26.2233 22.1546 26.6084 22.3672 27.0365" stroke="#23275B" stroke-width="1.4" stroke-linecap="round" stroke-linejoin="round"/>
<path d="M18.2587 29.2887C19.1852 29.4709 20.0771 29.7947 20.9044 30.2445" stroke="#23275B" stroke-width="1.4" stroke-linecap="round" stroke-linejoin="round"/>
</svg>
