<svg width="38" height="41" viewBox="0 0 38 41" fill="none" xmlns="http://www.w3.org/2000/svg">
<path d="M26.201 30.3356C19.1057 25.2101 10.3858 19.9561 3.98319 13.9877C5.29025 12.0751 9.14699 6.29178 9.67474 6.04618C9.67474 6.04618 11.0614 6.96961 12.0012 7.70672C18.5339 12.8722 25.4358 17.9881 31.6582 23.5144C31.6582 23.5144 28.7619 28.1224 26.201 30.3356Z" fill="#D6001C"/>
<path d="M3.97858 13.9907C3.50259 13.6443 3.03207 13.2847 2.567 12.912C1.59392 12.1363 1.46159 10.7182 2.23171 9.74115C3.24965 8.45727 4.19613 7.10043 5.09003 5.72167C5.72 4.74782 6.98128 4.40716 8.01259 4.93885L9.67078 6.04022" fill="#12326D"/>
<path d="M5.14177 14.821C6.79932 12.1171 8.82391 9.64332 11.1545 7.49444" stroke="#123985" stroke-width="1.4" stroke-linecap="round" stroke-linejoin="round"/>
<path d="M6.98828 11.8789C14.0792 17.2524 21.175 22.6218 28.2659 27.9953" stroke="white" stroke-width="1.4" stroke-linecap="round" stroke-linejoin="round"/>
<path d="M8.71289 10.6836C15.699 15.9456 22.6858 21.1986 29.672 26.4606" stroke="white" stroke-width="1.4" stroke-linecap="round" stroke-linejoin="round"/>
<path d="M26.3082 30.3504C29.0886 30.4735 31.8609 30.772 34.6023 31.2488C33.9627 28.4167 32.7217 25.7255 30.9894 23.3999" stroke="#123985" stroke-width="1.4" stroke-linecap="round" stroke-linejoin="round"/>
<path d="M35.6738 31.9734C35.0404 31.4936 35.4017 32.1159 34.7773 31.6367" stroke="#123985" stroke-width="1.4" stroke-linecap="round" stroke-linejoin="round"/>
</svg>
