<svg width="36" height="34" viewBox="0 0 36 34" fill="none" xmlns="http://www.w3.org/2000/svg">
<path d="M26.0217 6.40279C18.1575 1.90067 10.822 3.31666 10.7509 3.33935C10.7421 3.33935 10.7287 3.34842 10.7198 3.34842C10.5466 3.16235 10.4666 2.99443 10.4844 2.86735C10.6265 2.15935 13.91 1.77359 18.7484 2.75389C23.5913 3.74327 26.4793 5.39072 26.346 6.08964C26.3238 6.2031 26.2039 6.30749 26.0217 6.40279Z" fill="#12326D"/>
<path d="M25.6038 6.55868C24.3597 6.9036 21.645 6.92175 18.0861 6.20468C14.5672 5.48307 12.0969 4.42107 11.0483 3.63139C12.2924 3.44531 18.6993 2.71462 25.6038 6.55868Z" fill="#12326D"/>
<path d="M9.04901 30.8789C9.79544 31.3373 13.0877 33.13 17.1798 32.5354L17.0687 33.1073C16.7621 33.2434 15.6203 33.6201 12.9189 33.0982C10.2353 32.599 9.20452 31.7231 8.94238 31.4417L9.05346 30.8789H9.04901Z" fill="#12326D"/>
<path d="M14.7895 26.3043C14.7273 26.3452 14.5051 26.386 14.1586 26.3134C13.8209 26.2498 13.6299 26.1273 13.5854 26.0638L14.4741 21.5117C14.6696 21.5616 14.8606 21.6252 15.065 21.6706C15.2694 21.7114 15.4737 21.7341 15.6781 21.7523L14.7895 26.3043Z" fill="#12326D"/>
<path d="M15.8512 31.1067C15.7402 31.0886 15.638 31.1703 15.6157 31.2837C15.5935 31.3972 15.6691 31.5016 15.7801 31.5242C16.5532 31.6604 17.0642 31.4516 17.4241 31.2338V31.2565L17.2597 32.1006C12.8433 32.7996 9.3555 30.5893 9.12891 30.4441L9.2933 29.609C9.67096 27.7029 11.1683 26.2733 12.9855 26.0781C12.9855 26.4639 13.372 26.7952 14.0385 26.9314C14.7138 27.0766 15.1892 26.9223 15.3447 26.5547C15.6735 26.7407 15.9756 26.9722 16.2422 27.2309C16.0378 27.4397 15.6691 27.6983 15.0604 27.7301C14.9493 27.7301 14.856 27.8345 14.8649 27.948C14.8649 28.0614 14.9671 28.1567 15.0781 28.1431C15.7935 28.1113 16.2511 27.7982 16.5177 27.5486C16.611 27.662 16.6998 27.7664 16.7843 27.8935C16.6599 28.0523 16.2644 28.4971 15.4469 28.538C15.3358 28.538 15.2425 28.6423 15.2514 28.7558C15.2514 28.8693 15.3536 28.9646 15.4647 28.9555C16.2689 28.9147 16.7487 28.5289 16.9931 28.2793C17.0864 28.4472 17.1575 28.6242 17.2286 28.8103C17.2197 28.8193 17.2064 28.8193 17.1975 28.833C17.1442 28.9056 16.6865 29.4456 15.7579 29.4139C15.6468 29.4139 15.5536 29.4956 15.5447 29.6136C15.5447 29.7406 15.6246 29.8314 15.749 29.8314C16.5977 29.8632 17.1175 29.4865 17.3619 29.2596C17.4019 29.4139 17.4418 29.5818 17.4641 29.7588C17.4641 29.7588 17.4552 29.7588 17.4418 29.7679L16.2289 30.258C16.1356 30.258 16.0467 30.2489 15.9534 30.2353C15.8423 30.2263 15.7402 30.308 15.7313 30.4214C15.7224 30.5349 15.8024 30.6393 15.9134 30.6483C16.6776 30.7436 17.2108 30.4804 17.4952 30.2626C17.504 30.4078 17.4952 30.553 17.4863 30.6983C17.4774 30.6983 17.4641 30.6983 17.4552 30.7073L16.2511 31.1249C16.1267 31.1249 15.9979 31.1158 15.8512 31.0931V31.1067Z" fill="#D6001C"/>
<path d="M24.653 8.02067C17.011 8.3429 11.475 5.34299 11.4217 5.31122C11.3417 5.27038 11.2395 5.30215 11.1951 5.38384C11.1551 5.46553 11.1862 5.56992 11.2573 5.61076C11.3195 5.64253 16.9399 8.68328 24.6708 8.36105C24.7508 8.35197 24.8263 8.27936 24.8263 8.18405C24.8263 8.08875 24.7464 8.01613 24.653 8.01613V8.02067ZM20.6321 20.1474C19.3791 20.3017 18.1617 20.1383 18.144 20.1383C18.0329 20.1156 17.9307 20.2018 17.9218 20.3153C17.8996 20.4287 17.984 20.5331 18.0951 20.5422C18.1351 20.5513 18.7705 20.6466 19.5924 20.6375C18.224 21.1776 16.7178 21.3546 15.1849 21.0414C10.7907 20.1474 7.95164 15.6362 8.86246 10.9797L10.2709 3.75C11.3817 4.97084 14.6251 6.1463 17.9618 6.82252C21.2852 7.49875 24.733 7.68936 26.2125 6.99044L25.7016 9.60459C24.2843 9.91774 22.7425 9.69989 22.7248 9.69989C22.6137 9.68174 22.5115 9.76343 22.4982 9.87689C22.476 9.99035 22.5604 10.0947 22.6626 10.1038C22.7336 10.1129 24.1821 10.3217 25.6216 10.0403L25.4706 10.8436C24.0532 11.1567 22.5026 10.9389 22.4937 10.9389C22.3826 10.9162 22.2671 11.0024 22.2582 11.1159C22.236 11.2293 22.3205 11.3337 22.4315 11.3428C22.4937 11.3519 23.9422 11.5606 25.3773 11.2793L25.2218 12.0599C23.8044 12.373 22.2627 12.1552 22.2449 12.1552C22.1338 12.1325 22.0316 12.2187 22.0228 12.3322C22.0005 12.4456 22.085 12.55 22.196 12.5727C22.2582 12.5818 23.7067 12.7815 25.1418 12.5092L24.9996 13.2399C23.5823 13.553 22.0316 13.3352 22.0228 13.3352C21.9117 13.3125 21.8095 13.3987 21.7873 13.5122C21.7651 13.6256 21.8495 13.73 21.9606 13.7527C22.0228 13.7618 23.4801 13.9615 24.9063 13.6892L24.8041 14.2202C24.7952 14.2928 24.773 14.3563 24.7508 14.4199C23.3335 14.733 21.805 14.5152 21.7828 14.5152C21.6718 14.4925 21.5696 14.5787 21.5474 14.6922C21.5385 14.8056 21.6096 14.91 21.7206 14.9327C21.7917 14.9418 23.2179 15.1415 24.6397 14.8692C24.5686 15.1732 24.4664 15.4546 24.3642 15.736C22.9869 15.9947 21.5474 15.8086 21.5385 15.7995C21.4274 15.7905 21.3163 15.8631 21.303 15.9765C21.2808 16.09 21.3652 16.2035 21.4763 16.2171C21.5385 16.2262 22.8225 16.4168 24.1687 16.208C24.0577 16.4576 23.9333 16.6891 23.8 16.9251C22.4448 17.1747 21.0231 16.9795 21.0053 16.9795C20.8942 16.9569 20.792 17.0431 20.7831 17.1565C20.7609 17.27 20.8454 17.3744 20.9564 17.3971C21.0053 17.4062 22.2316 17.5741 23.529 17.3971C23.3868 17.624 23.2224 17.8464 23.058 18.0642C21.7117 18.2912 20.3433 18.1051 20.3344 18.1051C20.2233 18.0824 20.1211 18.1686 20.0989 18.2821C20.0767 18.3955 20.1611 18.4999 20.2722 18.509C20.3344 18.5181 21.4141 18.6769 22.627 18.5408C22.4138 18.7677 22.2005 18.9991 21.965 19.1988C20.641 19.4258 19.3036 19.2397 19.2947 19.2306C19.1837 19.2215 19.0681 19.3032 19.0592 19.4076C19.0415 19.5301 19.1215 19.6345 19.2325 19.6481C19.2814 19.6572 20.2233 19.7934 21.3252 19.7117C21.0986 19.8705 20.8765 20.0158 20.6321 20.161V20.1474Z" fill="#D6001C"/>
<path d="M26.9992 3.97662C26.7949 3.79962 26.5816 3.63171 26.355 3.4774C26.2617 3.40478 26.2439 3.27771 26.3017 3.18694C26.3639 3.09163 26.4972 3.05986 26.586 3.13702C26.8215 3.30494 27.0437 3.47286 27.2569 3.65893C27.3369 3.73155 27.3591 3.85409 27.2791 3.94939C27.2081 4.0447 27.0837 4.05378 26.9948 3.98117L26.9992 3.97662Z" fill="white"/>
<path d="M19.6237 0.566406C19.7481 0.575483 22.5205 0.870478 25.213 2.28647C25.3152 2.34093 25.3552 2.46347 25.3063 2.56786C25.2575 2.67224 25.133 2.71308 25.0308 2.66316C22.4006 1.27894 19.6148 0.983941 19.5926 0.983941C19.4815 0.974865 19.3882 0.870481 19.3971 0.75702C19.406 0.643559 19.5082 0.557327 19.6237 0.570942V0.566406Z" fill="white"/>
<path d="M19.1971 30.0756L18.5129 27.3344C18.4507 27.2391 18.4729 27.1075 18.5617 27.044C18.655 26.9713 18.775 27.0031 18.8461 27.0939C18.8994 27.1665 20.0813 28.8866 19.3881 31.8456C19.357 31.9591 19.2548 32.0317 19.1438 32.0045C19.0327 31.9818 18.9616 31.8683 18.9927 31.7549C19.1349 31.1422 19.1971 30.5794 19.1971 30.0802V30.0756Z" fill="white"/>
<path d="M12.1283 21.8652C12.2304 21.9196 12.2615 22.0422 12.2082 22.1465C12.1593 22.2509 12.0349 22.2918 11.9328 22.2282C11.6973 22.1012 11.484 21.9695 11.2796 21.8425C11.1863 21.7789 11.1552 21.6428 11.2174 21.552C11.2796 21.4476 11.4129 21.4249 11.5018 21.4885C11.6973 21.6155 11.9105 21.7381 12.1238 21.8652H12.1283Z" fill="white"/>
<path d="M11.4215 5.31011C11.4704 5.34188 17.0108 8.34179 24.6529 8.01956C24.7462 8.01956 24.8261 8.09217 24.8261 8.18748C24.8261 8.28278 24.7551 8.3554 24.6706 8.36448C16.9397 8.68671 11.3193 5.64596 11.2571 5.61419C11.186 5.57334 11.1549 5.46896 11.1949 5.38726C11.2349 5.30557 11.3371 5.2738 11.4215 5.31465V5.31011Z" fill="white"/>
<path d="M7.53852 16.6152C7.79178 17.2415 8.52933 19.0433 10.4354 20.6771C10.5287 20.7588 10.5376 20.8859 10.4665 20.9812C10.3954 21.0629 10.2621 21.0856 10.1688 20.9994C7.93396 19.0705 7.16975 16.8422 7.13865 16.7514C7.10755 16.6379 7.16086 16.5199 7.27194 16.4791C7.36524 16.4382 7.48521 16.4882 7.52519 16.5925L7.53409 16.6107L7.53852 16.6152Z" fill="white"/>
<path d="M32.9038 6.54943C30.2913 6.11374 26.8968 8.7188 26.4392 9.08188L25.4084 14.3419C25.3995 14.3828 25.3862 14.4372 25.3773 14.4781C25.8749 14.1014 26.5814 13.8427 27.4878 13.7383L27.7721 13.7065C29.4249 13.5069 31.4732 13.2709 33.2504 12.5629C34.1257 12.2089 34.9032 11.3329 35.2276 10.3345C35.4941 9.49034 35.423 8.67796 35.0143 8.01988C34.4944 7.19843 33.7924 6.6992 32.9038 6.54943ZM9.25351 5.64174C9.2313 5.60089 6.94757 1.37108 4.19288 0.703928C3.32648 0.49516 2.47786 0.68123 1.69589 1.244C1.07386 1.68422 0.69621 2.41037 0.634007 3.28629C0.554032 4.34829 0.940568 5.45566 1.6248 6.12281C2.99326 7.47527 4.79713 8.49642 6.24556 9.32241L6.49882 9.46765C7.33411 9.94872 7.91615 10.4888 8.2316 11.0606C8.24049 10.988 8.24049 10.9245 8.26271 10.8519L9.27127 5.65082C9.27127 5.65082 9.24906 5.65082 9.24906 5.64174H9.25351ZM14.7895 26.3052L15.6782 21.7532C15.4738 21.7305 15.2694 21.7123 15.065 21.6715C14.8606 21.6307 14.6696 21.5671 14.4741 21.5126L13.5855 26.0647C13.6255 26.1282 13.821 26.2508 14.1586 26.3143C14.5052 26.3869 14.7273 26.3461 14.7895 26.3052ZM12.9146 33.0947C15.6159 33.6167 16.7578 33.24 17.0644 33.1038L17.1755 32.532C13.0834 33.1265 9.79112 31.3338 9.04469 30.8754L8.93361 31.4382C9.2002 31.7196 10.231 32.5955 12.9101 33.0947H12.9146ZM15.0561 27.7303C15.6693 27.6985 16.0336 27.4398 16.238 27.2311C15.9714 26.9724 15.6648 26.7409 15.3405 26.5549C15.1894 26.9179 14.7096 27.0768 14.0342 26.9315C13.3722 26.7954 12.9812 26.4641 12.9812 26.0783C11.164 26.278 9.66671 27.7031 9.28905 29.6092L9.12466 30.4443C9.35126 30.5895 12.839 32.7997 17.2554 32.1008L17.4198 31.2567V31.234C17.0644 31.4518 16.5534 31.6606 15.7759 31.5244C15.6648 31.5017 15.5937 31.3974 15.6115 31.2839C15.6337 31.1704 15.7359 31.0888 15.847 31.1069C15.9892 31.1296 16.1225 31.1387 16.2469 31.1387L17.4509 30.7211C17.4509 30.7211 17.4731 30.7121 17.482 30.7121C17.4909 30.5668 17.5042 30.4216 17.4909 30.2764C17.2066 30.4942 16.6734 30.7574 15.9092 30.6621C15.7981 30.6531 15.7137 30.5487 15.727 30.4352C15.7359 30.3218 15.8381 30.2355 15.9492 30.2491C16.0425 30.2582 16.1313 30.2718 16.2247 30.2718L17.4376 29.7817L17.4598 29.7726C17.4376 29.5956 17.3976 29.4277 17.3576 29.2734C17.1133 29.5003 16.5934 29.877 15.7448 29.8452C15.6248 29.8452 15.5404 29.7499 15.5404 29.6274C15.5493 29.5139 15.6426 29.4277 15.7537 29.4277C16.6823 29.4595 17.1399 28.9194 17.1932 28.8468C17.2021 28.8377 17.2155 28.8377 17.2243 28.8241C17.1532 28.638 17.0822 28.461 16.9889 28.2931C16.7445 28.5427 16.2646 28.9285 15.4604 28.9693C15.3494 28.9784 15.2472 28.8876 15.2472 28.7696C15.2383 28.6561 15.3272 28.5518 15.4427 28.5518C16.2602 28.5109 16.6556 28.0616 16.78 27.9073C16.7001 27.7802 16.6068 27.6804 16.5134 27.5624C16.2469 27.812 15.7892 28.1252 15.0739 28.1569C14.9628 28.166 14.8606 28.0752 14.8606 27.9618C14.8517 27.8483 14.9406 27.7439 15.0561 27.7439V27.7303ZM17.9219 20.3145C17.9308 20.201 18.033 20.1148 18.144 20.1375C18.1663 20.1375 19.3792 20.3054 20.6321 20.1466C20.8765 20.0014 21.1031 19.8561 21.3253 19.6973C20.2234 19.779 19.2859 19.6474 19.2326 19.6337C19.1215 19.6247 19.0371 19.5203 19.0593 19.3932C19.0682 19.2888 19.1837 19.2071 19.2948 19.2162C19.3037 19.2253 20.641 19.4159 21.9651 19.1844C22.2005 18.9847 22.4138 18.7578 22.6271 18.5264C21.4141 18.6625 20.33 18.5037 20.2723 18.4946C20.1612 18.4855 20.0768 18.3811 20.099 18.2677C20.1212 18.1542 20.2234 18.068 20.3345 18.0907C20.3434 18.0907 21.7118 18.2768 23.058 18.0498C23.2224 17.832 23.3824 17.6096 23.529 17.3827C22.2317 17.5597 21.0098 17.3918 20.9565 17.3827C20.8454 17.3645 20.761 17.2556 20.7832 17.1421C20.7921 17.0287 20.8943 16.9424 21.0054 16.9651C21.0276 16.9651 22.4449 17.1648 23.8 16.9107C23.9333 16.6701 24.0533 16.4432 24.1688 16.1936C22.8226 16.4024 21.5385 16.2118 21.4763 16.2027C21.3652 16.1936 21.2808 16.0756 21.303 15.9621C21.3119 15.8487 21.4275 15.7761 21.5385 15.7851C21.5474 15.7942 22.987 15.9848 24.3643 15.7216C24.4665 15.4402 24.5687 15.1588 24.6398 14.8548C23.2225 15.1271 21.7918 14.9274 21.7207 14.9183C21.6096 14.8956 21.5385 14.7912 21.5474 14.6778C21.5696 14.5643 21.6674 14.4781 21.7829 14.5008C21.8051 14.5008 23.3335 14.7186 24.7509 14.4055C24.7731 14.3419 24.7908 14.2784 24.8042 14.2058L24.9064 13.6748C23.4801 13.9471 22.0184 13.7474 21.9606 13.7383C21.8495 13.7202 21.7651 13.6158 21.7873 13.4978C21.8096 13.3843 21.9073 13.2981 22.0228 13.3208C22.0317 13.3208 23.5823 13.5386 24.9997 13.2255L25.1418 12.4948C23.7023 12.7671 22.2539 12.5674 22.1961 12.5583C22.085 12.5402 22.0006 12.4312 22.0228 12.3178C22.0317 12.2043 22.1339 12.1181 22.245 12.1408C22.2672 12.1408 23.8045 12.3586 25.2218 12.0455L25.3773 11.2649C23.9378 11.5462 22.4893 11.3375 22.4316 11.3284C22.3205 11.3193 22.2361 11.2149 22.2583 11.1015C22.2672 10.988 22.3783 10.9018 22.4938 10.9245C22.5027 10.9245 24.0533 11.1423 25.4706 10.8292L25.6217 10.0259C24.1821 10.3073 22.7337 10.0985 22.6626 10.0894C22.5604 10.0803 22.4805 9.97595 22.4982 9.86249C22.5071 9.74903 22.6093 9.6628 22.7248 9.68549C22.747 9.68549 24.2843 9.90333 25.7017 9.59018L26.2126 6.97604C24.7331 7.67496 21.2853 7.48435 17.9619 6.80812C14.6252 6.1319 11.3817 4.9519 10.271 3.7356L8.86252 10.9653C7.95614 15.6218 10.7908 20.133 15.185 21.027C16.7134 21.3402 18.224 21.1632 19.5925 20.6231C18.7661 20.6322 18.1352 20.5414 18.0952 20.5278C17.9841 20.5187 17.8997 20.4143 17.9219 20.3009V20.3145ZM26.3459 6.09105C26.4792 5.39213 23.5912 3.74467 18.7483 2.7553C13.9143 1.77499 10.6309 2.16076 10.4842 2.86876C10.462 2.99583 10.5464 3.15922 10.7197 3.34983C10.7286 3.34983 10.7419 3.34076 10.7508 3.34076C10.8219 3.31807 18.1574 1.90207 26.0216 6.4042C26.2037 6.30889 26.3281 6.20905 26.3459 6.09105ZM15.4915 25.9195C17.4198 26.9089 18.4595 29.1508 18.0196 31.3792L17.6331 33.3807C17.6242 33.4624 17.5709 33.5259 17.5131 33.5803C17.3887 33.662 16.2158 34.3837 12.7991 33.7256C9.32904 33.0675 8.39156 31.7786 8.35157 31.7241C8.3027 31.6515 8.28048 31.5698 8.30269 31.4836L8.68924 29.4821C9.1291 27.2538 10.933 25.5836 13.0834 25.4202L13.8787 21.3266C10.5553 20.1057 8.28936 16.888 8.09387 13.2436C8.03167 13.3389 7.97391 13.4297 7.88949 13.5341C7.25858 14.3056 6.58324 14.3873 6.1256 14.3283C5.4236 14.2239 4.82823 13.6929 4.63718 13.2345C4.56609 13.0802 4.63718 12.8896 4.78824 12.817C4.95264 12.7535 5.13481 12.817 5.19701 12.9849C5.30809 13.2255 5.70795 13.6294 6.2189 13.702C6.64544 13.7655 7.05421 13.5658 7.42298 13.1302C7.79175 12.6809 7.93393 12.2452 7.86284 11.8186C7.75176 11.2059 7.17861 10.5886 6.20114 10.0259L5.94789 9.88064C4.46835 9.0365 2.62448 7.99719 1.19382 6.59028C0.376301 5.78698 -0.0813342 4.50713 0.0119697 3.25906C0.0919445 2.18345 0.571798 1.28938 1.336 0.735694C2.27348 0.0685436 3.2865 -0.149298 4.33506 0.100315C6.72097 0.672158 8.68036 3.50868 9.44456 4.75675L9.81333 2.88237C9.82221 2.84153 9.85332 2.80976 9.88442 2.77799V2.75984C10.1821 1.23039 14.6296 1.28939 18.8727 2.15623C23.1158 3.02307 27.2567 4.69775 26.9502 6.23174V6.2499C26.9502 6.29074 26.9813 6.33159 26.9679 6.37697L26.6125 8.17873C27.8343 7.30281 30.629 5.5419 33.006 5.93674C34.0679 6.11374 34.9254 6.70828 35.5341 7.68858C36.0451 8.51004 36.1339 9.5221 35.8096 10.5342C35.4319 11.7232 34.5122 12.7444 33.4725 13.1619C31.6242 13.9017 29.5271 14.1513 27.8432 14.351L27.5589 14.3828C26.4481 14.5189 25.6839 14.8638 25.3551 15.3948C25.1196 15.7488 25.0885 16.2163 25.2618 16.77C25.4351 17.3237 25.7328 17.655 26.1593 17.7684C26.6569 17.9046 27.1812 17.6868 27.3723 17.4961C27.4922 17.3827 27.6877 17.3827 27.7988 17.5188C27.9232 17.6459 27.9099 17.8411 27.7899 17.9545C27.4433 18.2994 26.6969 18.5581 26.0038 18.3811C25.555 18.2541 24.973 17.9137 24.6798 16.9515C24.6487 16.8698 24.6398 16.7836 24.6176 16.7019C24.351 17.2647 24.0355 17.7775 23.6801 18.2541C23.6712 18.2949 23.649 18.3176 23.6179 18.3357C23.3202 18.7306 22.987 19.0937 22.6271 19.4295C22.6271 19.4295 22.6182 19.4295 22.6182 19.4386C22.2627 19.7744 21.8851 20.083 21.4852 20.3553C21.4541 20.3962 21.4141 20.437 21.3519 20.4507C21.343 20.4597 21.3208 20.4597 21.3119 20.4597C19.8324 21.4173 18.0907 21.9075 16.2824 21.8122L15.4871 25.9285L15.4915 25.9195ZM18.0863 6.20451C21.6452 6.92158 24.3599 6.90343 25.6039 6.55851C18.6994 2.71445 12.2925 3.44514 11.0485 3.63122C12.1015 4.42544 14.5674 5.48744 18.0863 6.20451Z" fill="white"/>
</svg>
