<svg width="56" height="54" viewBox="0 0 56 54" fill="none" xmlns="http://www.w3.org/2000/svg">
<path d="M14.269 17.2891C21.9828 9.03919 31.2551 7.96233 31.3483 7.96246C31.3589 7.95914 31.3781 7.96484 31.3887 7.96151C31.5266 7.67734 31.5598 7.44949 31.4916 7.30637C31.0602 6.52514 27.0015 7.2995 21.5936 10.266C16.1837 13.2449 13.3488 16.2676 13.7663 17.0414C13.8348 17.1668 14.0165 17.245 14.269 17.2891Z" fill="#F7A438"/>
<path d="M14.8241 17.3155C16.4354 17.2564 19.6797 16.2617 23.6589 14.0844C27.5888 11.9167 30.1422 9.74035 31.1006 8.41713C29.5481 8.66349 21.6367 10.2005 14.8241 17.3155Z" fill="#F7A438"/>
<path d="M43.5652 39.7821C42.8445 40.6018 39.5811 43.947 34.4809 44.778L34.8249 45.4104C35.2409 45.4561 36.7421 45.4726 39.7708 43.8463C42.7867 42.2534 43.692 40.8352 43.9006 40.4055L43.5599 39.7838L43.5652 39.7821Z" fill="#F7A438"/>
<path d="M35.0268 36.5407C35.116 36.5655 35.3961 36.5305 35.7826 36.3152C36.1618 36.1139 36.3443 35.898 36.3738 35.8065L33.6302 30.774C33.4155 30.906 33.2111 31.0524 32.9842 31.1824C32.7555 31.3071 32.5202 31.4103 32.2831 31.5082L35.0268 36.5407Z" fill="#F7A438"/>
<path d="M35.5362 42.5953C35.6619 42.5324 35.814 42.5904 35.8825 42.7158C35.951 42.8412 35.8995 42.9925 35.7754 43.0608C34.9037 43.5107 34.2172 43.4559 33.7074 43.3338L33.7157 43.3606L34.2241 44.294C39.7498 43.4646 43.0919 39.5541 43.3084 39.2981L42.8034 38.3754C41.6479 36.2702 39.3333 35.1457 37.0939 35.5959C37.2366 36.0506 36.8981 36.5857 36.1536 36.9957C35.4019 37.4196 34.7779 37.4157 34.4564 37.0407C34.1331 37.383 33.8584 37.7689 33.6362 38.1736C33.9571 38.3432 34.4926 38.51 35.2304 38.3196C35.3628 38.278 35.5127 38.3662 35.5441 38.5032C35.5861 38.6369 35.4994 38.7875 35.3619 38.813C34.497 39.0433 33.8354 38.8456 33.4251 38.6512C33.3558 38.8198 33.2885 38.9761 33.2348 39.1575C33.4419 39.2981 34.078 39.6743 35.0682 39.4164C35.2006 39.3749 35.3505 39.463 35.3819 39.6C35.4239 39.7337 35.3373 39.8843 35.2014 39.9152C34.2272 40.1681 33.5122 39.893 33.1284 39.6903C33.0793 39.9231 33.06 40.1584 33.044 40.4043C33.058 40.4117 33.0739 40.4067 33.0895 40.4194C33.1799 40.485 33.9255 40.9502 35.0213 40.5652C35.1537 40.5236 35.2952 40.585 35.3495 40.7208C35.3965 40.8705 35.3347 41.0074 35.1863 41.054C34.186 41.4091 33.4266 41.1597 33.0512 40.9837C33.0606 41.1806 33.0751 41.3934 33.1141 41.6104C33.1141 41.6104 33.1246 41.607 33.1439 41.6128L34.7718 41.7364C34.8831 41.7015 34.9857 41.6575 35.092 41.6066C35.2211 41.5543 35.3732 41.6123 35.4257 41.7427C35.4783 41.8731 35.4215 42.0261 35.2924 42.0784C34.4163 42.4768 33.683 42.3661 33.2633 42.2158C33.3064 42.3903 33.3707 42.5581 33.4351 42.7259C33.4457 42.7226 33.4616 42.7176 33.4755 42.725L35.066 42.7664C35.2143 42.7199 35.3647 42.6609 35.5311 42.5793L35.5362 42.5953Z" fill="#F8CF4B"/>
<path d="M16.499 18.6796C25.7324 16.1989 31.2252 10.591 31.2771 10.5336C31.3573 10.4555 31.491 10.4547 31.5742 10.5343C31.6521 10.6156 31.6536 10.7503 31.5839 10.8251C31.5215 10.8858 25.9431 16.5734 16.6038 19.0874C16.505 19.1067 16.3881 19.0494 16.3528 18.937C16.3176 18.8247 16.3861 18.7092 16.4973 18.6743L16.499 18.6796ZM25.7804 31.4671C27.3318 31.18 28.7232 30.5318 28.7444 30.5251C28.8685 30.4568 29.0223 30.5202 29.0748 30.6506C29.1433 30.776 29.0812 30.9306 28.9521 30.9829C28.9078 31.0086 28.1853 31.3587 27.2016 31.6557C29.0335 31.78 30.8953 31.4248 32.6076 30.482C37.5175 27.7834 39.2348 21.4037 36.4261 16.2566L32.072 8.26274C31.1988 10.1174 27.7654 12.7169 24.036 14.7629C20.3226 16.8039 16.2811 18.3191 14.258 18.0491L15.8344 20.9389C17.6406 20.7775 19.3987 19.9436 19.4199 19.937C19.5457 19.874 19.6978 19.932 19.7557 20.0608C19.8241 20.1862 19.7621 20.3408 19.6435 20.3898C19.5621 20.4271 17.9119 21.2153 16.0909 21.4225L16.5682 22.3127C18.3744 22.1513 20.1432 21.3141 20.1538 21.3108C20.2779 21.2425 20.4475 21.3008 20.5001 21.4312C20.5686 21.5567 20.5065 21.7113 20.3774 21.7636C20.3066 21.7975 18.6563 22.5858 16.8407 22.7913L17.3149 23.6531C19.1211 23.4917 20.8793 22.6578 20.9005 22.6512C21.0245 22.5829 21.1783 22.6462 21.2309 22.7766C21.2993 22.9021 21.2373 23.0567 21.1132 23.125C21.0424 23.159 19.3888 23.9365 17.5765 24.1527L18.0163 24.9607C19.8225 24.7993 21.5913 23.9621 21.6019 23.9588C21.726 23.8905 21.8798 23.9538 21.9482 24.0793C22.0167 24.2047 21.9546 24.3593 21.8305 24.4276C21.7597 24.4616 20.0955 25.2424 18.2938 25.4554L18.6121 26.0429C18.6496 26.1252 18.6996 26.1918 18.7496 26.2583C20.5558 26.0969 22.298 25.268 22.3245 25.2597C22.4486 25.1914 22.6024 25.2548 22.6709 25.3802C22.7234 25.5106 22.6772 25.6602 22.5532 25.7286C22.4717 25.7659 20.8446 26.5351 19.0482 26.7463C19.2455 27.0781 19.4715 27.3715 19.6974 27.6649C21.4358 27.4542 23.0838 26.6961 23.0911 26.682C23.2202 26.6298 23.3795 26.6738 23.4374 26.8025C23.5059 26.9279 23.4472 27.0932 23.3197 27.1509C23.2489 27.1848 21.788 27.8901 20.1052 28.148C20.33 28.4006 20.564 28.6269 20.8103 28.8551C22.5188 28.6421 24.1423 27.8799 24.1635 27.8732C24.2875 27.8049 24.4413 27.8683 24.4939 27.9987C24.5623 28.1241 24.5003 28.2787 24.3762 28.347C24.3213 28.376 22.9209 29.033 21.3081 29.31C21.5616 29.5242 21.8399 29.7248 22.1166 29.92C23.8061 29.6835 25.3693 28.952 25.3799 28.9487C25.504 28.8803 25.6578 28.9437 25.7262 29.0691C25.7947 29.1945 25.7326 29.3492 25.6035 29.4014C25.5327 29.4354 24.3038 30.0268 22.8068 30.3203C23.1451 30.5079 23.4851 30.7009 23.8398 30.8481C25.5028 30.62 27.029 29.9001 27.0362 29.8861C27.1653 29.8338 27.3333 29.8868 27.3826 30.0065C27.4491 30.1443 27.3923 30.2973 27.2649 30.3549C27.2099 30.3839 26.1369 30.8969 24.7926 31.2131C25.1216 31.3155 25.4402 31.4035 25.7854 31.4832L25.7804 31.4671Z" fill="#F8CF4B"/>
<path d="M12.2051 14.7906C12.3834 14.5055 12.5757 14.2278 12.7888 13.9611C12.8732 13.8406 12.8474 13.6842 12.745 13.5988C12.6355 13.5098 12.4648 13.5222 12.3874 13.6464C12.1686 13.9325 11.9658 14.2135 11.7803 14.5127C11.7118 14.6282 11.7306 14.7809 11.8612 14.8633C11.9813 14.949 12.133 14.9132 12.2121 14.7943L12.2051 14.7906Z" fill="white"/>
<path d="M19.7408 8.01473C19.5958 8.07199 16.3983 9.45744 13.711 12.1342C13.6092 12.2366 13.6069 12.396 13.7038 12.5007C13.8007 12.6055 13.9642 12.607 14.0676 12.51C16.6925 9.89395 19.9058 8.50351 19.9323 8.49519C20.0614 8.44292 20.1341 8.28497 20.0815 8.15457C20.029 8.02417 19.8752 7.96078 19.7424 8.02007L19.7408 8.01473Z" fill="white"/>
<path d="M31.1648 42.6358L30.9669 39.1489C31.0058 39.0132 30.9306 38.8664 30.8011 38.8248C30.663 38.7742 30.5317 38.8565 30.4805 38.9901C30.4437 39.0956 29.6705 41.5653 31.5917 44.7934C31.6708 44.9155 31.8195 44.9629 31.9419 44.8892C32.066 44.8209 32.1088 44.6605 32.0297 44.5384C31.6335 43.8695 31.3512 43.2295 31.1665 42.6411L31.1648 42.6358Z" fill="white"/>
<path d="M36.5588 30.3113C36.457 30.4138 36.4653 30.5698 36.5675 30.6729C36.6644 30.7776 36.8279 30.7792 36.9262 30.6661C37.1601 30.4282 37.3657 30.1932 37.5625 29.9669C37.6503 29.8571 37.637 29.685 37.5292 29.6013C37.4164 29.5016 37.2491 29.5247 37.1666 29.6329C36.9804 29.8558 36.7714 30.0801 36.5641 30.3097L36.5588 30.3113Z" fill="white"/>
<path d="M31.2771 10.5328C31.2306 10.5885 25.7325 16.1981 16.4991 18.6789C16.3878 18.7138 16.3193 18.8293 16.3545 18.9416C16.3898 19.054 16.5014 19.1129 16.6055 19.092C25.9448 16.578 31.5232 10.8904 31.5856 10.8296C31.6553 10.7549 31.6538 10.6202 31.5759 10.5389C31.498 10.4576 31.3643 10.4584 31.2788 10.5381L31.2771 10.5328Z" fill="white"/>
<path d="M40.0902 22.4044C40.0199 23.2374 39.8067 25.637 38.1378 28.2761C38.0568 28.4074 38.0932 28.5605 38.2132 28.6462C38.3283 28.7158 38.4956 28.6927 38.575 28.5561C40.5269 25.4463 40.614 22.5338 40.6175 22.4152C40.6126 22.2699 40.5054 22.1507 40.3578 22.1442C40.2314 22.1309 40.1068 22.2347 40.0977 22.3727L40.0938 22.3974L40.0902 22.4044Z" fill="white"/>
<path d="M6.11484 20.0356C9.06946 18.5442 14.0815 20.3439 14.7616 20.6005L17.9367 26.4142C17.9624 26.459 17.9984 26.5182 18.0242 26.5631C17.2913 26.3053 16.3531 26.2649 15.2335 26.4811L14.8826 26.5501C12.8375 26.9334 10.3074 27.422 7.92595 27.2528C6.75111 27.1632 5.49978 26.4218 4.74361 25.3665C4.11342 24.4713 3.8977 23.4872 4.14178 22.5586C4.45789 21.3959 5.11046 20.5447 6.11484 20.0356ZM33.9854 10.1131C33.9968 10.0567 35.1558 4.21653 38.1944 2.39911C39.1504 1.82875 40.2314 1.7304 41.3722 2.10098C42.2769 2.387 42.9959 3.10149 43.3941 4.11057C43.8823 5.33231 43.8309 6.78216 43.2617 7.82459C42.1299 9.93083 40.3562 11.8096 38.9343 13.3253L38.686 13.5912C37.8677 14.4709 37.3734 15.3253 37.2087 16.1174C37.1712 16.0351 37.1477 15.9602 37.0943 15.883L33.9676 10.1305C33.9676 10.1305 33.9941 10.1222 33.9907 10.1115L33.9854 10.1131ZM35.0265 36.5395L32.2829 31.507C32.5183 31.4038 32.7553 31.3059 32.9839 31.1812C33.2126 31.0566 33.4169 30.9102 33.6299 30.7728L36.3736 35.8053C36.3494 35.8952 36.1616 36.1128 35.7824 36.314C35.3959 36.5293 35.1158 36.5644 35.0265 36.5395ZM39.7742 43.8399C36.7455 45.4661 35.2443 45.4496 34.8283 45.4039L34.4843 44.7715C39.5846 43.9405 42.848 40.5953 43.5686 39.7756L43.9093 40.3973C43.6954 40.8288 42.7901 42.2469 39.7795 43.8382L39.7742 43.8399ZM35.2357 38.3189C34.4927 38.511 33.9625 38.3424 33.6415 38.1729C33.8638 37.7682 34.1438 37.3806 34.4618 37.0399C34.7763 37.4113 35.4073 37.4189 36.159 36.9949C36.8982 36.5867 37.242 36.0498 37.0993 35.5952C39.3404 35.1503 41.6533 36.2695 42.8088 38.3747L43.3138 39.2974C43.0973 39.5534 39.7552 43.4639 34.2295 44.2932L33.7211 43.3599L33.7127 43.3331C34.2172 43.4568 34.9038 43.5116 35.7808 43.0601C35.9049 42.9918 35.951 42.8422 35.8879 42.7151C35.8194 42.5897 35.6673 42.5316 35.5416 42.5946C35.3804 42.6746 35.2248 42.7352 35.0764 42.7817L33.486 42.7403C33.486 42.7403 33.4561 42.7379 33.4455 42.7413C33.3812 42.5734 33.3116 42.4072 33.2737 42.2311C33.6935 42.3814 34.4267 42.4921 35.3029 42.0937C35.432 42.0414 35.494 41.8868 35.4362 41.758C35.3836 41.6276 35.2298 41.5643 35.1024 41.6219C34.9945 41.6675 34.8935 41.7168 34.7822 41.7518L33.1543 41.6281L33.1245 41.6257C33.0855 41.4088 33.0711 41.1959 33.0617 40.999C33.4371 41.175 34.1964 41.4244 35.1967 41.0693C35.3398 41.0244 35.4052 40.8805 35.3599 40.7361C35.3073 40.6057 35.1641 40.539 35.0317 40.5805C33.9359 40.9656 33.1904 40.5003 33.0999 40.4347C33.086 40.4273 33.0701 40.4323 33.0544 40.4196C33.0704 40.1737 33.0897 39.9385 33.1389 39.7056C33.5226 39.9083 34.2376 40.1834 35.2118 39.9305C35.3477 39.8996 35.436 39.7544 35.3923 39.6153C35.361 39.4783 35.2164 39.3885 35.0786 39.4318C34.0885 39.6896 33.4507 39.3081 33.2452 39.1728C33.2936 38.9931 33.3679 38.8405 33.4356 38.6665C33.8458 38.8609 34.5075 39.0587 35.3723 38.8284C35.5082 38.7975 35.5965 38.6522 35.5545 38.5185C35.5231 38.3815 35.3785 38.2917 35.2408 38.3349L35.2357 38.3189ZM29.0747 30.6513C29.0222 30.5209 28.8684 30.4575 28.7443 30.5258C28.7178 30.5341 27.3333 31.1861 25.7803 31.4678C25.4351 31.3881 25.1111 31.3018 24.7874 31.1977C26.1318 30.8815 27.2012 30.3755 27.2597 30.3395C27.3888 30.2872 27.4509 30.1326 27.3774 29.9911C27.3282 29.8714 27.1602 29.8184 27.0311 29.8707C27.0238 29.8847 25.4994 30.61 23.8347 30.8328C23.48 30.6855 23.1417 30.4979 22.8017 30.3049C24.2987 30.0114 25.5329 29.4184 25.5984 29.3861C25.7275 29.3338 25.7896 29.1792 25.7211 29.0538C25.6526 28.9283 25.4989 28.865 25.3748 28.9333C25.3642 28.9366 23.801 29.6682 22.1114 29.9046C21.8348 29.7094 21.5618 29.5072 21.3029 29.2946C22.9157 29.0176 24.3108 28.3623 24.371 28.3317C24.4968 28.2687 24.5572 28.1087 24.4887 27.9833C24.4362 27.8529 24.2824 27.7895 24.1583 27.8578C24.1318 27.8662 22.5153 28.632 20.8051 28.8397C20.5572 28.6061 20.3302 28.3836 20.1001 28.1326C21.7829 27.8748 23.2438 27.1695 23.3146 27.1355C23.4437 27.0832 23.5007 26.9125 23.4323 26.7871C23.3797 26.6567 23.2151 26.6144 23.0859 26.6667C23.0787 26.6807 21.4324 27.4442 19.6923 27.6495C19.4663 27.3561 19.2404 27.0627 19.0431 26.731C20.8342 26.5214 22.4666 25.7505 22.548 25.7132C22.6721 25.6449 22.7183 25.4952 22.6657 25.3648C22.5973 25.2394 22.4488 25.1744 22.3194 25.2444C22.2929 25.2527 20.5506 26.0815 18.7444 26.243C18.6944 26.1764 18.6497 26.1082 18.607 26.0276L18.2887 25.44C20.0904 25.2271 21.7599 24.4446 21.8254 24.4123C21.9511 24.3493 22.0132 24.1946 21.9431 24.0639C21.8746 23.9385 21.7261 23.8734 21.5968 23.9434C21.5862 23.9467 19.8174 24.7839 18.0112 24.9454L17.5714 24.1374C19.3889 23.9195 21.0425 23.142 21.1081 23.1096C21.2338 23.0467 21.2942 22.8867 21.2257 22.7613C21.1732 22.6309 21.0194 22.5675 20.8953 22.6358C20.8688 22.6441 19.116 23.4763 17.3098 23.6378L16.8356 22.7759C18.6565 22.5687 20.3067 21.7805 20.3723 21.7482C20.5014 21.6959 20.5634 21.5413 20.495 21.4159C20.4424 21.2855 20.278 21.2254 20.1487 21.2954C20.1381 21.2987 18.3693 22.1359 16.5631 22.2974L16.0858 21.4071C17.9067 21.1999 19.557 20.4117 19.6384 20.3744C19.7569 20.3254 19.8137 20.1725 19.7505 20.0454C19.6979 19.915 19.5442 19.8516 19.4148 19.9216C19.3883 19.9299 17.6354 20.7621 15.8292 20.9235L14.2529 18.0338C16.276 18.3037 20.3174 16.7885 24.0309 14.7475C27.7603 12.7015 31.192 10.0967 32.0668 8.24737L36.421 16.2412C39.2244 21.39 37.5124 27.768 32.6025 30.4666C30.8955 31.4078 29.0284 31.7646 27.1965 31.6403C28.1855 31.3417 28.9043 30.9985 28.947 30.9675C29.0761 30.9152 29.1382 30.7606 29.0697 30.6352L29.0747 30.6513ZM13.7665 17.0406C13.349 16.2667 16.1839 13.244 21.5938 10.2652C26.9965 7.30032 31.0551 6.52596 31.4918 7.30553C31.5653 7.44699 31.5251 7.67115 31.3889 7.96067C31.3784 7.964 31.3591 7.95829 31.3485 7.96162C31.2553 7.96148 21.983 9.03835 14.2692 17.2883C14.0167 17.2441 13.8314 17.173 13.7665 17.0406ZM34.0466 36.3476C32.1128 38.2355 31.7022 41.2671 33.0511 43.7288L34.2525 45.943C34.2933 46.036 34.3804 46.0909 34.4694 46.1335C34.648 46.1832 36.3139 46.5947 40.1453 44.5401C44.0404 42.4656 44.6817 40.5956 44.7092 40.5164C44.7406 40.4126 44.7369 40.308 44.6785 40.2146L43.4772 38.0004C42.1283 35.5387 39.3591 34.2454 36.734 34.8578L34.2712 30.3307C37.7832 27.6478 39.2954 23.0071 38.1804 18.6387C38.2899 18.7277 38.3923 18.8131 38.5316 18.9045C39.5695 19.5777 40.4051 19.4212 40.9291 19.1804C41.7277 18.7946 42.2414 17.9459 42.2997 17.3341C42.3274 17.1256 42.1721 16.9276 41.9651 16.8985C41.7455 16.8852 41.5517 17.0283 41.5397 17.2495C41.4962 17.5745 41.1687 18.2003 40.5862 18.4771C40.101 18.7117 39.5396 18.6293 38.9386 18.2538C38.3326 17.8623 38.0019 17.402 37.9288 16.8726C37.8347 16.1089 38.2899 15.1669 39.2475 14.1377L39.4958 13.8718C40.9481 12.3231 42.7627 10.4079 43.9486 8.21422C44.6264 6.96144 44.6988 5.2817 44.1259 3.84564C43.6326 2.60785 42.7296 1.73371 41.6133 1.36718C40.2485 0.931782 38.9597 1.05422 37.8015 1.7409C35.1675 3.30796 33.8799 7.38453 33.4302 9.14157L32.297 7.07045C32.2713 7.02563 32.2225 6.99983 32.1736 6.97403L32.1669 6.95264C31.2461 5.26144 25.9637 6.99573 21.2238 9.60565C16.484 12.2156 12.1649 15.7394 13.0979 17.4326L13.1046 17.454C13.1197 17.5021 13.0978 17.5619 13.1304 17.6104L14.2209 19.6009C12.4396 19.0259 8.45521 17.9966 5.76632 19.3517C4.56535 19.9578 3.76257 20.9795 3.39924 22.3627C3.09373 23.5222 3.36212 24.7482 4.12332 25.8197C5.01358 27.0798 6.4882 27.939 7.88261 28.042C10.3606 28.222 12.954 27.7313 15.0362 27.3363L15.3871 27.2673C16.7622 27.012 17.8012 27.1325 18.3898 27.6352C18.8016 27.9643 19.0116 28.5036 19.0097 29.2211C19.0079 29.9385 18.7754 30.4404 18.3087 30.7338C17.7656 31.0805 17.0597 31.02 16.7613 30.8669C16.5763 30.7781 16.3431 30.8512 16.261 31.0533C16.1597 31.2496 16.2477 31.4747 16.4328 31.5635C16.9737 31.8403 17.9596 31.8658 18.7208 31.3977C19.209 31.08 19.7772 30.4609 19.771 29.2172C19.7779 29.1093 19.7566 29.0043 19.7529 28.8997C20.279 29.4632 20.8449 29.9496 21.4451 30.3782C21.4708 30.423 21.5057 30.4414 21.5495 30.4512C22.0506 30.8051 22.5823 31.1083 23.1358 31.3694C23.1358 31.3694 23.1464 31.3661 23.1497 31.3768C23.6979 31.6396 24.2625 31.8619 24.8401 32.0332C24.8923 32.0697 24.9551 32.1029 25.0343 32.0956C25.0483 32.103 25.0748 32.0947 25.0854 32.0914C27.2041 32.6662 29.4627 32.592 31.5841 31.8028L34.0553 36.3566L34.0466 36.3476ZM23.6593 14.0826C19.68 16.2599 16.4357 17.2547 14.8244 17.3138C21.637 10.1987 29.5484 8.66174 31.1009 8.41538C30.1389 9.74562 27.5908 11.9203 23.6593 14.0826Z" fill="white"/>
</svg>
