<svg width="66" height="47" viewBox="0 0 66 47" fill="none" xmlns="http://www.w3.org/2000/svg">
<path d="M15.4471 43.5876C29.1651 33.4148 45.9389 19.574 59.4966 9.18364C58.4535 5.48106 52.9805 1.39645 52.9805 1.39645C39.7775 13.0683 23.2987 24.8814 9.87855 34.7705C8.62918 35.6887 7.24799 36.8971 6.05828 37.8899C8.09609 40.5273 10.0631 43.2176 11.9647 45.9595C13.1977 44.938 14.1612 44.5382 15.4471 43.5876Z" fill="#F58A8A"/>
<path d="M8.30285 36.4114C8.8517 37.0857 9.39669 37.7667 9.94554 38.441" stroke="#23275B" stroke-width="1.4" stroke-linecap="round" stroke-linejoin="round"/>
<path d="M10.5101 34.4482C11.0084 34.9548 11.5013 35.4628 11.9996 35.9693" stroke="#23275B" stroke-width="1.4" stroke-linecap="round" stroke-linejoin="round"/>
<path d="M13.0705 32.838C13.8606 33.8838 14.6506 34.9296 15.4353 35.9768" stroke="#23275B" stroke-width="1.4" stroke-linecap="round" stroke-linejoin="round"/>
<path d="M15.7516 31.0046C16.2306 31.6296 16.7163 32.2585 17.1953 32.8835" stroke="#23275B" stroke-width="1.4" stroke-linecap="round" stroke-linejoin="round"/>
<path d="M18.6183 28.3574C19.2918 29.1796 19.9638 29.9965 20.6373 30.8186" stroke="#23275B" stroke-width="1.4" stroke-linecap="round" stroke-linejoin="round"/>
<path d="M21.7847 26.1932C22.462 27.0086 23.1393 27.8241 23.8233 28.6434" stroke="#23275B" stroke-width="1.4" stroke-linecap="round" stroke-linejoin="round"/>
<path d="M24.5076 24.1102C25.0951 24.7174 25.6774 25.3261 26.2649 25.9334" stroke="#23275B" stroke-width="1.4" stroke-linecap="round" stroke-linejoin="round"/>
<path d="M27.7231 21.6058C28.7404 22.2736 29.5567 23.2273 30.0571 24.3338" stroke="#23275B" stroke-width="1.4" stroke-linecap="round" stroke-linejoin="round"/>
<path d="M30.3881 20.0922C30.9358 20.6988 31.4782 21.3068 32.0245 21.9081" stroke="#23275B" stroke-width="1.4" stroke-linecap="round" stroke-linejoin="round"/>
<path d="M33.167 17.8468C34.0617 18.8816 34.8635 19.9923 35.5694 21.1682" stroke="#23275B" stroke-width="1.4" stroke-linecap="round" stroke-linejoin="round"/>
<path d="M36.0347 15.7427C36.489 16.3177 36.9447 16.898 37.399 17.473" stroke="#23275B" stroke-width="1.4" stroke-linecap="round" stroke-linejoin="round"/>
<path d="M38.7031 13.1573C39.5726 14.0346 40.2984 15.0523 40.8559 16.1604" stroke="#23275B" stroke-width="1.4" stroke-linecap="round" stroke-linejoin="round"/>
<path d="M41.9065 10.9735C42.2962 11.4978 42.6912 12.0207 43.0809 12.545" stroke="#23275B" stroke-width="1.4" stroke-linecap="round" stroke-linejoin="round"/>
<path d="M44.4435 9.15617C45.1553 9.97369 45.8739 10.7951 46.5857 11.6126" stroke="#23275B" stroke-width="1.4" stroke-linecap="round" stroke-linejoin="round"/>
<path d="M47.005 6.77423C47.4507 7.23258 47.7971 7.7855 48.0262 8.38684" stroke="#23275B" stroke-width="1.4" stroke-linecap="round" stroke-linejoin="round"/>
<path d="M49.4145 4.42483C50.2107 5.28208 51.0068 6.13932 51.8029 6.99657" stroke="#23275B" stroke-width="1.4" stroke-linecap="round" stroke-linejoin="round"/>
<path d="M52.0078 2.22384C52.3323 3.05451 52.7992 3.82439 53.3865 4.49404" stroke="#23275B" stroke-width="1.4" stroke-linecap="round" stroke-linejoin="round"/>
</svg>
