<svg width="63" height="63" viewBox="0 0 63 63" fill="none" xmlns="http://www.w3.org/2000/svg">
<path d="M57.8905 23.9855C53.6648 20.2331 48.1757 16.3328 43.7345 14.7397C39.2933 13.1466 33.6435 12.8382 29.084 14.0425C22.513 15.7792 17.3661 21.3656 15.135 27.7802C11.6234 37.8923 16.0689 50.8145 24.6132 57.2629C27.5332 55.019 29.8361 52.1075 32.4054 49.4707C29.215 45.8239 26.6965 42.3251 26.0542 37.5247C25.4964 33.3497 26.5148 28.3 30.3475 26.5548C31.9913 25.8068 35.9085 24.9152 37.7128 24.987C42.6654 25.173 47.0221 27.9323 51.0365 30.8396C53.4198 29.3775 56.0988 26.1322 57.8905 23.9855Z" fill="#F0494F"/>
<path d="M56.3036 16.8557C44.9576 27.2467 33.582 37.6673 23.5841 49.3556C21.5557 51.7304 19.5696 54.1644 17.2497 56.2561C18.8851 58.0098 20.9726 60.3424 22.9079 61.7537C37.0809 47.4793 44.2646 41.986 61.328 23.9253C61.5519 23.6845 61.7167 23.3506 61.6787 23.0253C61.6491 22.7421 61.4463 22.5139 61.2519 22.3027C59.4602 20.3335 58.0911 18.8207 56.2994 16.8515L56.3036 16.8557Z" fill="#F0494F"/>
<path d="M23.9979 59.5447L22.9119 58.1038" stroke="#23275B" stroke-linecap="round" stroke-linejoin="round"/>
<path d="M26.7112 57.394C25.7097 56.5193 24.7124 55.6403 23.7109 54.7656" stroke="#23275B" stroke-linecap="round" stroke-linejoin="round"/>
<path d="M28.9493 55.1543C28.5901 54.5078 28.1084 53.9331 27.5294 53.4725" stroke="#23275B" stroke-linecap="round" stroke-linejoin="round"/>
<path d="M32.047 52.3353C30.9399 51.3803 29.9426 50.2901 29.0848 49.1027" stroke="#23275B" stroke-linecap="round" stroke-linejoin="round"/>
<path d="M34.861 49.8122L33.0312 47.9824" stroke="#23275B" stroke-linecap="round" stroke-linejoin="round"/>
<path d="M36.9729 47.4124L34.4375 44.877" stroke="#23275B" stroke-width="1.4" stroke-linecap="round" stroke-linejoin="round"/>
<path d="M39.2286 45.4435L37.9609 44.1758" stroke="#23275B" stroke-width="1.4" stroke-linecap="round" stroke-linejoin="round"/>
<path d="M41.5031 43.1612C40.6453 42.4217 39.7917 41.6864 38.9297 40.9512" stroke="#23275B" stroke-width="1.4" stroke-linecap="round" stroke-linejoin="round"/>
<path d="M43.5862 40.7951L42.6016 39.8105" stroke="#23275B" stroke-width="1.4" stroke-linecap="round" stroke-linejoin="round"/>
<path d="M46.1111 39.1165C45.2532 38.0981 44.2686 37.1811 43.1953 36.3867" stroke="#23275B" stroke-width="1.4" stroke-linecap="round" stroke-linejoin="round"/>
<path d="M48.2197 36.7435C47.7506 36.3674 47.2816 35.9913 46.8125 35.6152" stroke="#23275B" stroke-width="1.4" stroke-linecap="round" stroke-linejoin="round"/>
<path d="M50.5728 34.6627C49.2713 33.5218 47.9656 32.3851 46.6641 31.2441" stroke="#23275B" stroke-width="1.4" stroke-linecap="round" stroke-linejoin="round"/>
<path d="M52.0418 32.9051L50.3516 31.2148" stroke="#23275B" stroke-width="1.4" stroke-linecap="round" stroke-linejoin="round"/>
<path d="M54.2772 30.4031C53.5334 29.9467 52.8742 29.3551 52.3333 28.6706" stroke="#23275B" stroke-width="1.4" stroke-linecap="round" stroke-linejoin="round"/>
<path d="M56.2603 28.4052C55.3053 27.2981 54.2151 26.3009 53.0234 25.4473" stroke="#23275B" stroke-width="1.4" stroke-linecap="round" stroke-linejoin="round"/>
<path d="M58.6644 26.5671C57.7728 26.0896 56.9615 25.4727 56.2685 24.7374" stroke="#23275B" stroke-width="1.4" stroke-linecap="round" stroke-linejoin="round"/>
<path d="M60.7643 25.029C59.9023 24.0148 58.9135 23.1021 57.8359 22.3203" stroke="#23275B" stroke-width="1.4" stroke-linecap="round" stroke-linejoin="round"/>
<path d="M26.8125 25.9551C27.3449 26.4115 27.8774 26.8594 28.4098 27.3158" stroke="#23275B" stroke-width="1.4" stroke-linecap="round" stroke-linejoin="round"/>
<path d="M30.4192 26.1497C30.4657 25.7398 30.3473 25.3172 30.1023 24.9876" stroke="#23275B" stroke-width="1.4" stroke-linecap="round" stroke-linejoin="round"/>
<path d="M33.5159 25.1819C33.275 24.4002 33.1482 23.5804 33.1398 22.7606" stroke="#23275B" stroke-width="1.4" stroke-linecap="round" stroke-linejoin="round"/>
<path d="M37.1619 25.0877L37.0478 23.503" stroke="#23275B" stroke-width="1.4" stroke-linecap="round" stroke-linejoin="round"/>
<path d="M39.5553 24.903C39.8892 24.2649 40.1174 23.5804 40.2314 22.8662" stroke="#23275B" stroke-width="1.4" stroke-linecap="round" stroke-linejoin="round"/>
<path d="M42.4717 25.9326C42.8477 25.3959 43.2196 24.855 43.5957 24.3184" stroke="#23275B" stroke-width="1.4" stroke-linecap="round" stroke-linejoin="round"/>
<path d="M45.1066 26.6808C45.4912 26.3132 45.7447 25.823 45.8377 25.299" stroke="#23275B" stroke-width="1.4" stroke-linecap="round" stroke-linejoin="round"/>
<path d="M25.5469 29.5508C25.9018 29.686 26.2568 29.8212 26.6075 29.9607" stroke="#23275B" stroke-width="1.4" stroke-linecap="round" stroke-linejoin="round"/>
<path d="M23.1406 31.9082C24.0534 32.0096 24.9661 32.1026 25.8789 32.204" stroke="#23275B" stroke-width="1.4" stroke-linecap="round" stroke-linejoin="round"/>
<path d="M24.1875 35.9824C24.6439 35.9486 25.1045 35.9106 25.5609 35.8768" stroke="#23275B" stroke-width="1.4" stroke-linecap="round" stroke-linejoin="round"/>
<path d="M23.2344 39.248C24.1767 39.0663 25.1275 38.9522 26.0825 38.9015" stroke="#23275B" stroke-width="1.4" stroke-linecap="round" stroke-linejoin="round"/>
<path d="M25.2422 42.1016C25.6436 41.9452 26.0789 41.8734 26.5099 41.8903" stroke="#23275B" stroke-width="1.4" stroke-linecap="round" stroke-linejoin="round"/>
<path d="M26.5245 46.1143C27.0696 45.4593 27.7119 44.8931 28.426 44.4325" stroke="#23275B" stroke-width="1.4" stroke-linecap="round" stroke-linejoin="round"/>
</svg>
