<svg width="69" height="69" viewBox="0 0 69 69" fill="none" xmlns="http://www.w3.org/2000/svg">
<path d="M28.8161 3.23438V9.59534C26.009 10.227 23.3285 11.3278 20.8876 12.8513L16.4134 8.37481L8.37488 16.4134L12.8599 20.8983C11.3307 23.3346 10.2234 26.0114 9.58453 28.816H3.23438V40.184H9.59531C10.227 42.9911 11.3278 45.6716 12.8512 48.1125L8.37488 52.5866L16.4134 60.6252L20.8984 56.14C23.3347 57.6692 26.0115 58.7766 28.8161 59.4155V65.7658H40.1839V59.4047C42.9909 58.7736 45.6713 57.6735 48.1124 56.1508L52.5866 60.6252L60.6251 52.5866L56.1401 48.1017C57.6691 45.666 58.7764 42.99 59.4155 40.1861H65.7656V28.816H59.4047C58.773 26.0089 57.6722 23.3284 56.1488 20.8875L60.6251 16.4134L52.5866 8.37481L48.1016 12.86C45.6651 11.3316 42.9884 10.2249 40.1839 9.58665V3.23438H28.8161Z" fill="#F8D459"/>
<path d="M28.814 3.23438V9.59744C27.5906 9.88249 26.3899 10.2573 25.2217 10.7187L27.3563 12.8492C29.7969 11.3274 32.4766 10.228 35.2827 9.59744V3.23648L28.814 3.23438ZM16.4112 8.37692L8.37703 16.4134L12.862 20.8983C11.3323 23.3338 10.2243 26.0099 9.58453 28.8139H3.23438V40.1882H9.59747C10.2281 42.9943 11.3274 45.6741 12.8491 48.1146L8.37703 52.5908L16.4112 60.6252L19.6456 57.3908L14.8458 52.5908L19.3178 48.1146C17.7961 45.6741 16.6968 42.9943 16.0662 40.1882H9.70312V28.8184H16.0533C16.6928 26.0136 17.8009 23.3368 19.3308 20.9006L14.8458 16.4155L19.6456 11.6137L16.4112 8.37929V8.37692ZM52.5888 8.37692L50.26 10.7058C51.7622 11.2872 53.2061 12.0092 54.5725 12.8621L55.8232 11.6113L52.5888 8.37692ZM27.365 56.1379L25.2087 58.2942C26.3812 58.7562 27.5862 59.131 28.814 59.4155V65.7658H35.2827V59.4155C32.478 58.7759 29.8012 57.6678 27.365 56.1379ZM54.5812 56.1595C53.207 57.0054 51.7558 57.7195 50.2471 58.2921L52.5888 60.6339L55.8232 57.3995L54.5812 56.1595Z" fill="#FAA660"/>
<path d="M28.814 3.23438V9.59744C26.7913 10.0619 24.8327 10.7708 22.9813 11.7084L24.1241 12.8513C26.5639 11.329 29.2428 10.2289 32.0483 9.59744V3.23648L28.814 3.23438ZM16.4112 8.37692L8.37703 16.4134L12.862 20.8983C11.3323 23.3338 10.2243 26.0099 9.58453 28.8139H12.8189C13.4587 26.0099 14.5667 23.3338 16.0964 20.8983L11.6114 16.4134L18.0284 9.99411L16.4112 8.37692ZM52.5888 8.37692L49.266 11.6997C49.9736 12.0549 50.6644 12.4429 51.336 12.8621L54.2038 9.99411L52.5888 8.37692ZM3.23438 28.8139V40.1882H6.46875V28.8184H3.23438V28.8139ZM9.59747 40.1882C10.2281 42.9943 11.3274 45.6741 12.8491 48.1146L8.37703 52.5908L16.4112 60.6252L18.0284 59.008L11.6114 52.5908L16.0835 48.1146C14.5617 45.6741 13.4624 42.9943 12.8318 40.1882H9.59747ZM24.1306 56.14L22.9684 57.3045C24.8238 58.2438 26.7868 58.9534 28.814 59.4176V65.7679H32.0483V59.4176C29.2436 58.778 26.5668 57.6699 24.1306 56.14ZM51.3446 56.1616C50.6656 56.5748 49.9676 56.9562 49.2531 57.3045L52.5888 60.636L54.206 59.0188L51.3446 56.1616Z" fill="white"/>
<path d="M28.8161 3.23438V9.59534C26.009 10.227 23.3285 11.3278 20.8876 12.8513L16.4134 8.37481L8.37488 16.4134L12.8599 20.8983C11.3307 23.3346 10.2234 26.0114 9.58453 28.816H3.23438V40.184H9.59531C10.227 42.9911 11.3278 45.6716 12.8513 48.1125L8.37488 52.5866L16.4134 60.6252L20.8984 56.14C23.3347 57.6692 26.0115 58.7766 28.8161 59.4155V65.7658H40.1839V59.4047C42.9909 58.7736 45.6713 57.6735 48.1124 56.1508L52.5866 60.6252L60.6251 52.5866L56.1401 48.1017C57.6691 45.666 58.7764 42.99 59.4155 40.1861H65.7656V28.816H59.4047C58.773 26.0089 57.6722 23.3284 56.1488 20.8875L60.6251 16.4134L52.5866 8.37481L48.1016 12.86C45.6651 11.3316 42.9884 10.2249 40.1839 9.58665V3.23438H28.8161Z" stroke="black" stroke-linecap="round" stroke-linejoin="round"/>
<path d="M34.5002 48.5161C42.241 48.5161 48.5161 42.241 48.5161 34.5002C48.5161 26.7595 42.241 20.4844 34.5002 20.4844C26.7595 20.4844 20.4844 26.7595 20.4844 34.5002C20.4844 42.241 26.7595 48.5161 34.5002 48.5161Z" fill="#01D1FF"/>
<path d="M34.4922 20.4844C36.9524 20.4844 39.3693 21.1319 41.4999 22.3621C43.6305 23.5922 45.3998 25.3617 46.6299 27.4923C47.86 29.623 48.5077 32.0399 48.5077 34.5002C48.5077 36.9605 47.86 39.3775 46.6299 41.5081L34.4922 34.5002V20.4844Z" fill="#F4606E"/>
<path d="M34.4922 20.4844C36.9524 20.4844 39.3693 21.1319 41.4999 22.3621C43.6305 23.5922 45.3998 25.3617 46.6299 27.4923C47.86 29.623 48.5077 32.0399 48.5077 34.5002C48.5077 36.9605 47.86 39.3775 46.6299 41.5081L34.4922 34.5002V20.4844Z" stroke="black" stroke-width="1.00015" stroke-linecap="round" stroke-linejoin="round"/>
<path d="M34.5002 20.4844C30.783 20.4844 27.218 21.961 24.5895 24.5895C21.961 27.218 20.4844 30.783 20.4844 34.5002C20.4844 38.2174 21.961 41.7825 24.5895 44.4109C27.218 47.0394 30.783 48.5161 34.5002 48.5161C34.9491 48.5108 35.3975 48.484 35.8439 48.4357C32.3989 48.075 29.2095 46.4514 26.8909 43.8781C24.5722 41.3048 23.2886 37.964 23.2875 34.5002C23.2915 31.0183 24.5913 27.6626 26.9338 25.0865C29.2763 22.5105 32.4939 20.8985 35.9597 20.5647C35.475 20.5126 34.9878 20.4858 34.5002 20.4844Z" fill="white"/>
<path d="M34.4951 20.4844C33.5572 20.4854 32.6219 20.5806 31.7031 20.7684V34.5002L43.839 41.5081C42.7251 43.4304 41.1702 45.0603 39.3026 46.2635C37.4349 47.4667 35.308 48.2087 33.0972 48.4282C35.7803 48.6993 38.4846 48.1907 40.8857 46.9632C43.2869 45.7358 45.2831 43.8417 46.6346 41.5081L34.4951 34.5002V20.4844Z" fill="#00A5FF"/>
<path d="M34.4922 20.4844V20.7684C36.4356 21.1648 38.2727 21.9691 39.8821 23.1282C41.4916 24.2873 42.8367 25.7747 43.8286 27.4923C44.9351 29.4174 45.5683 31.5778 45.6762 33.7957C45.784 36.0135 45.3635 38.2252 44.449 40.2486L46.6318 41.5081C47.8619 39.3775 48.5096 36.9605 48.5096 34.5002C48.5096 32.0399 47.8619 29.623 46.6318 27.4923C45.4015 25.3614 43.6319 23.5919 41.501 22.3618C39.37 21.1316 36.9527 20.4841 34.4922 20.4844Z" fill="#F89963"/>
<path d="M34.4922 20.4844C36.9524 20.4844 39.3693 21.1319 41.4999 22.3621C43.6305 23.5922 45.3998 25.3617 46.6299 27.4923C47.86 29.623 48.5077 32.0399 48.5077 34.5002C48.5077 36.9605 47.86 39.3775 46.6299 41.5081L34.4922 34.5002V20.4844Z" stroke="black" stroke-width="1.00015" stroke-linecap="round" stroke-linejoin="round"/>
<path d="M29.0391 21.5869C30.7654 20.8563 32.6214 20.4814 34.4959 20.4844C37.5651 20.4852 40.5492 21.4932 42.99 23.3539C45.4307 25.2147 47.1932 27.8252 48.0068 30.7846C48.8204 33.7439 48.6402 36.8886 47.4937 39.7356C46.3472 42.5826 44.2979 44.9748 41.6605 46.5444C39.0231 48.1141 35.9433 48.7746 32.8942 48.4246C29.845 48.0746 26.995 46.7334 24.7818 44.607C22.5687 42.4806 21.1146 39.6864 20.643 36.6537C20.1714 33.621 20.7084 30.5173 22.1713 27.8192M24.5858 24.5899C24.9035 24.2722 25.2343 23.9713 25.58 23.6854" stroke="black" stroke-width="1.00015" stroke-linecap="round" stroke-linejoin="round"/>
<path d="M28.8161 3.23438V9.59521C26.009 10.2269 23.3285 11.3277 20.8876 12.8512L16.4134 8.37468L8.37488 16.4132L12.8599 20.8981C11.3307 23.3345 10.2234 26.0113 9.58455 28.8159H3.23438V40.1838H9.59531C10.227 42.991 11.3278 45.6715 12.8513 48.1124L8.37488 52.5865L16.4134 60.6251L20.8984 56.1399C23.3347 57.669 26.0115 58.7764 28.8161 59.4153V65.7656H40.1839V59.4045C42.9909 58.7735 45.6713 57.6734 48.1124 56.1507L52.5866 60.6251L60.6251 52.5865L56.1401 48.1016C57.6691 45.6659 58.7764 42.9898 59.4155 40.186H65.7656V28.8159H59.4047C58.773 26.0087 57.6722 23.3283 56.1487 20.8874L60.6251 16.4132L52.5866 8.37468L48.1016 12.8599C45.6651 11.3314 42.9884 10.2247 40.1839 9.58652V3.23438H28.8161Z" stroke="black" stroke-linecap="round" stroke-linejoin="round"/>
</svg>
