<svg width="65" height="66" viewBox="0 0 65 66" fill="none" xmlns="http://www.w3.org/2000/svg">
<path d="M64.72 17.66C45.13 15.16 26.07 13.71 6.48004 11.21C4.51004 27.38 0.420039 42.8 0.0400391 59.08C16.77 60.65 43.51 65.3 60.3 65.55C60.5 51.02 61.7901 31.9 64.7101 17.66H64.72Z" fill="#FBB156"/>
<path d="M30.3601 18.91C30.8001 13.15 31.5101 7.40996 32.4801 1.70996C35.3101 1.96996 38.7101 2.49998 41.5401 2.75998C40.9801 7.62998 41.0901 13.96 40.5301 18.83" stroke="#034865" stroke-width="2" stroke-linecap="round" stroke-linejoin="round"/>
<path d="M12.15 25.2798C20.87 26.7698 29.59 28.2598 38.3 29.7398" stroke="#C55927" stroke-width="2" stroke-linecap="round" stroke-linejoin="round"/>
<path d="M44.4301 29.9897C47.1601 30.5097 49.8901 31.0198 52.6201 31.5398" stroke="#C55927" stroke-width="2" stroke-linecap="round" stroke-linejoin="round"/>
<path d="M11.6101 34.8398C22.8301 36.4298 34.1101 37.6199 45.4101 38.3899" stroke="#C55927" stroke-width="2" stroke-linecap="round" stroke-linejoin="round"/>
<path d="M8.77002 45.4199C22.76 49.1399 37.08 51.6099 51.5 52.7699" stroke="#C55927" stroke-width="2" stroke-linecap="round" stroke-linejoin="round"/>
</svg>
