<svg width="69" height="69" viewBox="0 0 69 69" fill="none" xmlns="http://www.w3.org/2000/svg">
<path d="M47.6519 13.6348C44.7002 11.7519 41.3878 10.6347 37.8974 10.4638C37.1805 10.1536 36.2991 10.249 35.7219 10.824C35.3097 11.2387 34.8464 11.6111 34.4426 12.0282C34.2834 12.1994 34.1277 12.3897 33.9912 12.5766C33.9912 12.5766 33.9887 12.585 33.9863 12.5934C32.2328 13.3407 30.5478 14.3805 29.0157 15.456C24.7094 18.4682 20.8276 22.0135 17.4795 26.0603C16.8302 26.8502 17.0265 27.8519 18.0025 28.2382C19.9939 29.0313 21.7511 30.2823 23.2612 31.7875C23.6616 32.1864 24.4684 32.3142 24.881 31.8361C26.5944 29.8333 28.3756 27.8777 30.1175 25.9014C31.7641 24.0334 33.456 22.1967 35.3485 20.5733C38.5941 17.8037 42.7264 15.5393 47.0986 15.5513C48.124 15.5526 48.5262 14.1818 47.6602 13.6372L47.6519 13.6348Z" fill="#5EC4F0"/>
<path d="M47.0707 52.6187C47.6834 49.7573 48.3156 46.829 48.2612 43.8899C48.2098 41.0333 47.57 38.2947 46.5203 35.6536C45.406 32.8301 43.8584 30.2154 42.2085 27.6705C41.6475 26.7978 40.3771 26.425 39.5635 27.2485C37.8387 29.0119 36.5496 31.0847 35.7527 33.4291C35.6806 33.6439 35.6635 33.8568 35.6848 34.0627C35.36 34.3033 35.1715 34.7292 35.4284 35.1223C35.9362 35.8977 36.385 36.7193 36.7847 37.5537C36.8552 37.9013 36.9282 38.2404 36.9903 38.5854C37.086 39.0947 37.1793 39.6123 37.2666 40.119C37.3727 40.6857 37.5592 41.1944 37.7818 41.7045C37.8932 42.1911 38.1505 42.5208 38.4913 42.7207C39.5994 48.2567 38.6415 54.2123 35.5432 58.986C34.9116 59.9627 35.6758 61.1946 36.7775 61.2455C39.1352 61.3473 41.5651 61.3885 43.589 59.9671C46.0026 58.2696 46.4844 55.2972 47.0648 52.6079L47.0707 52.6187Z" fill="#5EC4F0"/>
<path d="M60.6751 29.7042C60.5844 28.6518 60.4363 27.6098 60.0641 26.62C59.8656 26.0897 59.6274 25.6021 59.3233 25.1226C59.2179 24.9555 59.091 24.8002 59.0182 24.6154C59.0122 24.6046 59.0147 24.5963 59.0088 24.5855C59.0142 24.5053 59.0254 24.436 59.0224 24.3534C59.1007 22.942 57.8787 22.3111 56.7031 22.0479C55.5025 21.7773 54.2701 21.6154 53.0381 21.5444C52.6817 21.5215 52.377 21.6318 52.1352 21.806C52.0934 21.7937 52.0517 21.7814 52.005 21.7859C51.9357 21.7746 51.9022 21.7648 51.8447 21.7752C51.652 21.7822 51.4446 21.8393 51.312 21.982C51.171 22.1222 51.0595 22.3164 51.0724 22.5199C51.0675 22.5366 51.0734 22.5474 51.0769 22.5666C51.0853 22.7234 51.1119 22.8493 51.1887 22.9898C51.2123 23.033 51.2384 23.0679 51.2729 23.1053C51.2956 23.2753 51.3591 23.4301 51.4732 23.5363L51.5219 23.5869C51.5219 23.5869 51.5302 23.5893 51.5386 23.5918C51.6366 23.9383 51.8413 24.2616 52.1964 24.4747C52.2357 24.4953 52.2775 24.5076 52.3144 24.5366C52.5108 24.8575 52.7047 25.1867 52.8902 25.5135C53.28 26.227 53.6265 26.9642 53.9239 27.7141C54.5009 29.1816 55.0398 30.8104 55.1769 32.3849C55.322 34.0252 55.6573 35.6668 55.8658 37.3076C56.1108 39.1951 56.2708 41.094 56.3841 42.9973C56.4347 43.7838 56.9144 44.4693 57.7344 44.5828C58.4768 44.6826 59.3102 44.2554 59.4941 43.4742C60.5693 39.0055 61.0899 34.2924 60.6942 29.7008L60.6751 29.7042Z" fill="#5EC4F0"/>
<path d="M38.4508 47.9294C38.409 47.0819 37.7529 46.6261 36.9409 46.7328C28.5464 47.8373 19.2017 45.9304 12.9849 40.1391C12.4645 39.6232 11.9632 39.1039 11.4585 38.5655C10.6016 37.5878 9.81834 36.5137 9.13627 35.3422C8.72487 34.6405 7.62462 35.2345 8.02276 35.9505C8.29788 36.467 8.60541 36.9657 8.92378 37.4586C8.11285 37.7472 7.48361 38.5611 7.76738 39.5431C8.47285 41.9652 9.21134 44.4605 10.5601 46.6083C12.0782 49.0147 14.2348 50.637 16.7844 51.8481C19.5164 53.1491 22.3667 54.1398 25.3299 54.746C28.2237 55.341 31.3638 55.8085 34.3125 55.4119C35.9941 55.1881 37.2094 54.5734 37.7815 52.8712C38.3119 51.311 38.5182 49.556 38.4366 47.9161L38.4508 47.9294Z" fill="#5EC4F0"/>
<path d="M34.4782 9.89783C30.2103 9.87103 25.9966 10.9586 22.1699 12.8315C18.3456 14.696 14.6284 17.3091 11.8638 20.574C11.8373 20.6025 11.825 20.6443 11.8069 20.6753C11.5171 21.0442 11.4855 21.6159 11.6848 22.0193C12.5639 23.757 13.6341 25.3692 14.9436 26.8156C15.4458 27.3624 16.3227 27.2203 16.7122 26.6356C21.0271 20.0673 27.7727 14.7751 34.8676 11.51C35.6563 11.1423 35.2918 9.90961 34.4674 9.90374L34.4782 9.89783Z" fill="#FDC831"/>
<path d="M53.8101 19.474C53.6202 19.2549 53.422 19.0333 53.2129 18.8176C53.3123 18.1387 52.61 17.624 52.1761 17.2152C51.7827 16.8547 51.4 16.4882 51.0065 16.1276C50.7782 15.9154 50.551 15.7307 50.255 15.6257C49.9089 15.506 49.6307 15.5877 49.3009 15.6907C49.0719 15.7597 48.8404 15.837 48.6089 15.9143C48.2958 15.8678 47.9668 15.8439 47.6282 15.8535C45.359 15.9139 43.0153 16.8784 40.997 17.8476C38.4588 19.0727 36.1425 20.717 34.0387 22.5962C33.761 22.6146 33.4779 22.7131 33.2047 22.9325C30.2115 25.3677 27.6704 28.335 25.7155 31.6559C25.5859 31.8811 25.5232 32.126 25.5263 32.3629C25.4772 32.5301 25.5083 32.7026 25.6126 32.8421C25.7583 33.2117 26.0589 33.5178 26.4802 33.6596C27.8756 34.1326 29.277 34.6164 30.6724 35.0894C30.8297 35.8527 31.8759 36.1234 32.5201 35.7224L33.1062 35.9216C33.7759 36.1453 34.57 35.6975 34.7495 35.0239C36.0697 30.0915 39.5033 25.9699 44.0972 23.7412C44.2545 23.6693 44.3797 23.5517 44.4824 23.4184C47.3418 22.46 50.3288 21.9022 53.2877 21.2544C54.1027 21.0759 54.3277 20.0616 53.8101 19.474Z" fill="#FDC831"/>
<path d="M55.3108 46.4398C55.42 45.0466 55.4516 43.6397 55.3981 42.2441C55.1801 36.3974 53.6756 30.5726 50.6964 25.5043C49.8854 24.1225 48.8352 23.0608 47.1045 23.2974C45.5439 23.5112 43.9344 24.201 42.4959 24.8955C42.3568 24.9364 42.2296 24.9989 42.1141 25.083C42.0625 25.1042 42.0084 25.1337 41.9568 25.1549C41.6507 25.3011 41.5373 25.5946 41.5591 25.8915C41.3948 26.4515 41.5038 27.1008 41.8993 27.5165C42.5122 28.1502 43.0554 28.8361 43.5769 29.5339C43.3031 31.1784 44.0922 32.7898 45.5815 33.3448C45.645 33.4996 45.7085 33.6544 45.7696 33.8176C45.8159 34.0309 45.8706 34.2467 45.9145 34.4684C45.9712 34.7392 46.1011 34.977 46.2684 35.1804C46.5993 36.0946 46.8978 37.0264 47.1712 37.9509C47.4481 38.8946 47.7058 39.8417 47.9335 40.7982C48.2416 42.9039 48.3761 45.0132 48.2197 47.1551C48.0174 49.8555 47.4768 52.502 46.7248 55.0956C46.2171 56.8258 48.7192 57.4874 49.3661 55.8706C49.7706 54.8636 50.856 54.1654 51.679 53.5263C52.6307 52.7888 53.5707 52.0297 54.2027 50.9896C55.0296 49.6255 55.1717 47.9968 55.3 46.4457L55.3108 46.4398Z" fill="#FDC831"/>
<path d="M37.4727 43.7476C37.2944 42.4062 37.1244 41.0673 36.9437 39.7342C36.7491 38.3245 36.0074 37.6348 34.6146 37.4621C32.3886 37.1902 30.2238 36.7093 28.0993 35.9679C25.1511 34.9394 22.3231 33.5013 19.7367 31.7347C18.6208 30.8353 17.5848 29.7869 16.5264 28.8772C15.3513 27.8697 14.1655 26.8681 12.9689 25.8724C12.2954 25.1664 11.6378 24.4378 11.0257 23.6773C10.6189 23.1766 9.8204 23.7321 10.0307 24.284C9.47229 24.3925 8.97656 24.7827 8.70613 25.4568C7.82559 27.6223 7.10693 30.0713 7.9534 32.3532C8.84566 34.7574 11.3072 36.5782 13.325 38.0236C16.5714 40.3561 20.0963 42.2347 23.8636 43.5035C24.0452 43.8745 24.3674 44.1688 24.7283 44.3927C25.0977 44.6191 25.4803 44.8313 25.881 45.0124C26.2818 45.1935 26.7784 45.3574 27.2104 45.1846C27.2703 45.1659 27.3268 45.128 27.3809 45.0985C27.4143 45.1083 27.4537 45.1289 27.4846 45.1471C28.1288 45.4269 28.7646 45.7042 29.4063 45.9924C29.4063 45.9924 29.4481 46.0046 29.541 46.0591C29.6782 46.1175 29.8046 46.1819 29.9418 46.2403C30.1207 46.3109 30.2736 46.3467 30.4698 46.3589C31.0391 46.3988 31.5959 46.1719 31.8832 45.657C31.9583 45.5247 32.0034 45.4018 32.0235 45.2715C33.371 45.4127 34.7273 45.493 36.0782 45.499C37.0594 45.4965 37.5775 44.659 37.4594 43.7619L37.4727 43.7476Z" fill="#FDC831"/>
<path d="M36.9298 57.7856C37.1218 56.6981 36.3311 55.6491 35.1505 55.929C32.1386 56.6339 29.1893 56.2587 26.205 55.6009C24.5934 55.246 22.9969 54.7775 21.4441 54.222C20.6732 53.9413 19.9047 53.6523 19.1204 53.3859C18.4591 53.1646 17.718 52.7202 17.0098 52.8755C16.7773 52.9253 16.7012 53.1844 16.7884 53.3824C17.0901 54.0247 17.9324 54.3717 18.5137 54.742C19.301 55.2454 20.108 55.6819 20.9366 56.1066C22.5318 56.9197 24.1618 57.7066 25.8798 58.2561C27.4413 58.7507 29.0869 59.0519 30.7554 59.1512C30.8624 59.7454 31.258 60.3154 31.8176 60.5432C32.0526 60.6394 32.2616 60.7007 32.5113 60.7467C33.1638 60.8746 33.8269 60.8423 34.4614 60.629C35.722 60.2 36.6966 59.1061 36.9381 57.7881L36.9298 57.7856Z" fill="#FDC831"/>
<path d="M60.822 23.8823C58.7047 18.259 54.4521 13.7248 49.2125 10.8529C44.5974 8.32757 39.3938 7.12746 34.1647 6.97295C22.623 5.59248 12.3535 15.2521 8.65503 25.6598C6.59648 31.4376 6.30554 37.8431 8.26817 43.6843C8.66414 44.8718 9.15497 46.0144 9.70966 47.094C9.68904 47.1334 9.65418 47.1594 9.63946 47.2096C9.55797 47.3945 9.7203 47.6146 9.91736 47.4999C12.043 51.4553 15.1931 54.7037 19.1597 57.0569C24.6478 60.3195 31.1352 62.559 37.5854 62.1095C43.2934 61.7146 48.5596 59.1748 52.7071 55.2808C60.9298 47.5534 64.8878 34.6528 60.8161 23.8715L60.822 23.8823ZM52.092 15.3018C54.0392 16.9263 55.7403 18.8325 57.0375 21.0016C57.0729 21.0664 57.1 21.1288 57.1354 21.1937C55.7701 20.8657 54.2831 20.8288 52.9425 20.8803C51.079 20.9508 49.2028 21.2808 47.4291 21.8497C43.8599 22.9993 40.6404 25.123 38.1912 27.9629C36.998 29.3376 35.9785 30.8632 35.189 32.5016C34.8331 33.2505 34.4182 34.0457 34.4876 34.8921C33.8907 34.6988 33.0177 34.7967 32.5944 34.7542C29.9363 34.5007 27.4276 33.5831 25.0658 32.3817C25.8342 31.6812 26.3634 30.62 26.9602 29.8237C27.8492 28.6503 28.8096 27.5431 29.8211 26.4782C31.8259 24.3794 34.0565 22.5011 36.4765 20.9054C38.8941 19.318 41.5002 17.9857 44.2209 17.0047C45.5838 16.5059 46.9771 16.0886 48.3961 15.7697C49.1535 15.6016 49.9252 15.4468 50.7009 15.402C51.1905 15.3732 51.6698 15.4412 52.1004 15.3043L52.092 15.3018ZM44.4274 10.8559C46.498 11.6269 48.4876 12.6737 50.32 13.9467C50.1224 13.9704 49.9248 13.9941 49.7439 14.0228C48.4841 14.1705 47.2445 14.4967 46.031 14.8578C43.7815 15.5322 41.5807 16.4116 39.4863 17.4855C35.2458 19.6546 31.3322 22.6277 28.1766 26.2044C27.3189 27.1783 26.504 28.192 25.7402 29.2479C25.1759 30.0264 24.412 30.928 24.1502 31.9133C22.9046 31.2391 21.6894 30.4922 20.515 29.73C19.3549 28.981 18.2179 28.1844 17.1388 27.314C17.211 27.2535 17.2882 27.1763 17.3751 27.0656C17.6698 26.68 17.936 26.2679 18.2223 25.8799C18.9424 24.911 19.6993 23.9711 20.5074 23.0735C21.9295 21.4754 23.4264 19.9629 25.0517 18.5697C28.3985 15.7026 32.1832 13.3544 36.2387 11.6304C37.2565 11.1937 38.2954 10.8086 39.3496 10.4643C39.6927 10.3471 40.5553 10.1917 40.9016 9.78497C42.0973 10.0723 43.2734 10.4265 44.4358 10.8583L44.4274 10.8559ZM17.7481 14.502C22.3422 10.2307 29.1412 8.53098 35.3029 8.94101C36.3363 9.0082 37.3633 9.12799 38.3864 9.29203C37.5106 9.61604 36.6894 10.0015 36.4014 10.1167C32.3803 11.7237 28.6216 13.9525 25.2555 16.6686C23.3673 18.1844 21.5952 19.8613 19.9967 21.689C19.1921 22.6058 18.4387 23.5649 17.7221 24.5529C17.3837 25.0255 17.0452 25.4982 16.7211 25.9841C16.5905 26.1817 16.4166 26.4031 16.3145 26.6273C15.9982 26.3439 15.6736 26.058 15.3706 25.7603C14.6067 24.9914 13.8983 24.1571 13.3245 23.2353C12.985 22.6908 12.7475 21.9222 12.3471 21.3689C13.7951 18.8162 15.6174 16.4731 17.7373 14.5079L17.7481 14.502ZM8.69002 32.8418C8.74369 32.1948 8.82244 31.5552 8.92871 30.9146C9.41501 27.9889 10.388 25.1061 11.7711 22.4345C11.8759 22.665 11.9916 22.8896 12.093 23.1009C12.5094 23.9402 13.0447 24.7146 13.6198 25.4462C14.7179 26.8397 16.0518 28.0481 17.4634 29.1159C20.7315 31.591 24.4247 33.8548 28.2929 35.2441C29.2369 35.5846 30.2016 35.8859 31.1922 36.0676C32.1303 36.243 33.3033 36.5146 34.2535 36.3395C34.456 36.299 34.6516 36.2203 34.8152 36.0958C35.0082 36.5519 35.2479 37.0035 35.4266 37.4463C36.399 39.8559 37.0283 42.3827 37.3283 44.9491C34.3996 45.2154 31.4341 45.4527 28.5016 45.0824C25.3694 44.6808 22.489 43.3908 19.7646 41.8469C17.4848 40.5516 15.2129 39.1677 13.0819 37.6437C12.0604 36.9173 11.0993 36.1088 10.2576 35.1718C9.86115 34.7287 9.49954 34.2594 9.18362 33.7582C8.99909 33.459 8.84701 33.142 8.6841 32.8309L8.69002 32.8418ZM12.324 47.961C12.1252 47.6485 11.9264 47.336 11.7408 47.0092C9.59569 43.275 8.55628 39.021 8.59981 34.758C8.77743 35.0189 8.96829 35.2656 9.14492 35.499C9.92964 36.5372 10.8746 37.4318 11.8774 38.2526C14.0449 40.0233 16.5018 41.4887 18.9183 42.9059C21.6756 44.5229 24.5999 45.8803 27.7803 46.3959C30.9714 46.9056 34.199 46.6726 37.403 46.3963C37.4197 46.4012 37.4413 46.3893 37.4605 46.3859C37.5067 47.1257 37.5445 47.863 37.5356 48.6048C37.5235 50.4714 37.3069 52.3233 36.8873 54.1247C36.4616 54.2449 36.0749 54.4492 35.6089 54.5213C34.9704 54.6244 34.3393 54.7025 33.6988 54.7506C32.3603 54.8571 31.0212 54.8727 29.6816 54.7973C26.9773 54.6393 24.2983 54.1164 21.7283 53.2533C19.1415 52.3854 16.6863 51.1929 14.4359 49.6429C13.6952 49.135 13.015 48.5451 12.3191 47.9777L12.324 47.961ZM34.6994 59.9101C31.301 59.7662 27.9233 58.9021 24.7641 57.6029C21.3472 56.1918 18.1645 54.3228 15.5463 51.8297C15.8202 52.0099 16.0916 52.1985 16.3788 52.3645C18.6582 53.7233 21.0843 54.7983 23.6385 55.5297C26.1844 56.2585 28.8608 56.6354 31.5134 56.6602C32.8343 56.6756 34.1512 56.5809 35.4602 56.4203C35.7045 56.3922 35.9871 56.3571 36.2722 56.3136C35.8541 57.5527 35.3358 58.7623 34.7078 59.9125L34.6994 59.9101ZM41.8155 59.0478C40.0107 59.5985 38.1793 59.869 36.3374 59.9277C39.1923 54.2201 39.5844 47.5629 38.0286 41.3871C37.6062 39.7018 37.0389 38.0465 36.3443 36.4537C36.1606 36.0276 35.8969 35.5962 35.7732 35.1514C35.5771 34.4584 35.854 33.886 36.1432 33.2718C36.5295 32.4501 36.9803 31.6564 37.4763 30.8942C38.3932 29.5019 39.4886 28.2438 40.7135 27.1325C42.1953 29.0743 43.1362 31.3748 43.9443 33.6636C44.6938 35.7809 45.3244 37.9631 45.6807 40.1829C46.4215 44.7123 46.6927 49.2947 45.8599 53.8345C45.6708 54.8502 45.4743 55.891 45.149 56.8758C45.0548 57.1659 44.9484 57.4978 44.9402 57.8041C43.9328 58.2983 42.8899 58.7276 41.813 59.0561L41.8155 59.0478ZM53.847 50.468C52.0512 52.7825 49.8325 54.8368 47.3383 56.4379C47.5677 55.4704 47.7638 54.493 47.9155 53.5117C48.5759 49.1573 48.4462 44.5257 47.4082 40.2358C46.2657 35.4977 44.6697 30.2634 41.4961 26.4453C42.8321 25.3576 44.3008 24.4359 45.8852 23.7388C47.1983 23.1619 48.5942 22.7363 50.0152 22.4724C49.8022 23.1361 50.7069 24.1369 51.0095 24.6524C51.6006 25.6701 52.1376 26.7173 52.6205 27.7941C53.5912 29.9309 54.3447 32.1582 54.8525 34.4497C55.3627 36.7327 55.6454 39.0489 55.667 41.3883C55.6766 42.5622 55.6203 43.744 55.5306 44.916C55.4438 46.0162 55.4121 47.2688 55.0696 48.3121C55.0206 48.4793 55.0207 48.6337 55.0591 48.7811C54.6721 49.3575 54.2709 49.9206 53.8578 50.4621L53.847 50.468ZM57.4736 41.4191C57.3324 38.8994 56.9543 36.3827 56.2979 33.9478C55.6475 31.5238 54.7646 29.1495 53.6223 26.917C53.0381 25.7832 52.4022 24.6707 51.675 23.6221C51.5874 23.4875 51.1155 22.7135 50.6753 22.3574C51.1221 22.2888 51.5664 22.2286 52.0142 22.1875C53.979 22.0196 55.8462 22.277 57.7718 22.3972C61.199 29.2492 60.6069 37.4545 57.4799 44.3986C57.5181 43.4021 57.5263 42.415 57.4628 41.425L57.4736 41.4191Z" fill="#0E1930"/>
</svg>
