<svg width="76" height="75" viewBox="0 0 76 75" fill="none" xmlns="http://www.w3.org/2000/svg">
<path d="M46.4472 61.8158C43.9861 62.6505 41.3928 63.0968 38.7992 63.138C18.9876 63.4408 4.25862 41.1436 16.3609 24.0189C25.1624 11.5652 45.2425 9.29183 56.467 19.7105C58.2342 21.349 59.7154 23.2849 60.8918 25.3935C62.954 29.1123 64.0595 33.3844 64.0639 37.6194C64.0889 48.5247 56.7249 58.3262 46.4545 61.8179L46.4472 61.8158Z" fill="white"/>
<path d="M51.8683 64.9155C54.6306 63.6767 57.172 61.9998 59.3798 59.9708C68.5833 51.4796 71.4551 37.5242 65.8651 25.7961C63.6979 21.2442 60.3391 17.1529 56.2317 14.0969C53.8968 12.3632 51.328 10.9661 48.597 10.0138C31.2825 3.97204 10.9615 15.6747 7.90879 33.1434C3.70484 57.161 30.8292 74.3819 51.8661 64.9228L51.8683 64.9155ZM46.6301 61.8692C44.169 62.7039 41.5756 63.1503 38.982 63.1915C19.1704 63.4943 4.44148 41.197 16.5438 24.0723C25.3453 11.6186 45.4253 9.34526 56.6499 19.7639C58.417 21.4024 59.8983 23.3383 61.0747 25.4469C63.1369 29.1657 64.2424 33.4378 64.2468 37.6728C64.2717 48.5781 56.9077 58.3796 46.6373 61.8713L46.6301 61.8692Z" fill="#F58A8A"/>
<path d="M44.2093 20.1482C44.6565 18.5161 45.1109 16.8861 45.5581 15.2539" stroke="#23275B" stroke-width="1.4" stroke-linecap="round" stroke-linejoin="round"/>
<path d="M54.2899 23.909L56.6982 21.9547" stroke="#23275B" stroke-width="1.4" stroke-linecap="round" stroke-linejoin="round"/>
<path d="M57.0751 32.3914C58.1458 31.9907 59.2916 31.7947 60.4327 31.8039" stroke="#23275B" stroke-width="1.4" stroke-linecap="round" stroke-linejoin="round"/>
<path d="M53.3908 41.3742C55.6802 41.9904 57.932 42.7623 60.1283 43.6689" stroke="#23275B" stroke-width="1.4" stroke-linecap="round" stroke-linejoin="round"/>
<path d="M51.4771 48.9785C52.0176 50.1141 52.5559 51.257 53.0964 52.3927" stroke="#23275B" stroke-width="1.4" stroke-linecap="round" stroke-linejoin="round"/>
<path d="M42.4863 54.3066C42.892 55.8475 43.3029 57.3978 43.7086 58.9387" stroke="#23275B" stroke-width="1.4" stroke-linecap="round" stroke-linejoin="round"/>
<path d="M32.8477 61.3032C33.7978 58.5795 34.7553 55.8579 35.7054 53.1342" stroke="#23275B" stroke-width="1.4" stroke-linecap="round" stroke-linejoin="round"/>
<path d="M21.7739 54.7033C23.3021 53.8808 24.8323 53.051 26.3605 52.2285" stroke="#23275B" stroke-width="1.4" stroke-linecap="round" stroke-linejoin="round"/>
<path d="M15.6516 44.7088C16.9722 44.2146 18.3884 43.9629 19.7945 43.9625" stroke="#23275B" stroke-width="1.4" stroke-linecap="round" stroke-linejoin="round"/>
<path d="M14.209 31.4336L20.9444 33.7357" stroke="#23275B" stroke-width="1.4" stroke-linecap="round" stroke-linejoin="round"/>
<path d="M24.6562 19.4082C25.2247 20.4487 26.0296 21.3601 26.993 22.0558" stroke="#23275B" stroke-width="1.4" stroke-linecap="round" stroke-linejoin="round"/>
<path d="M34.7104 15.543C35.0929 16.9737 35.4826 18.4067 35.865 19.8374" stroke="#23275B" stroke-width="1.4" stroke-linecap="round" stroke-linejoin="round"/>
<path d="M29.1529 49.1001C32.4596 46.2498 37.1139 40.7288 39.4966 37.0752C40.0355 36.2404 41.2233 29.8373 42.6182 25.0836" stroke="#23275B" stroke-width="1.4" stroke-linecap="round" stroke-linejoin="round"/>
<path d="M40.7842 26.109C41.257 25.5805 41.8495 25.1586 42.4996 24.8648C42.9002 25.6655 43.344 26.2643 43.7496 27.0744" stroke="#23275B" stroke-width="1.4" stroke-linecap="round" stroke-linejoin="round"/>
<path d="M28.8511 47.5566C28.7908 48.2221 28.7306 48.8875 28.6725 49.5456C29.4743 49.5744 30.2867 49.4315 31.0302 49.1175" stroke="#23275B" stroke-width="1.4" stroke-linecap="round" stroke-linejoin="round"/>
<path d="M30.6978 25.373C32.9267 29.4982 35.4415 33.4611 38.2362 37.228" stroke="#F0494F" stroke-width="1.4" stroke-linecap="round" stroke-linejoin="round"/>
<path d="M39.046 38.611C38.3617 38.6961 37.6702 38.1834 37.542 37.5104C37.4139 36.8373 37.8891 36.111 38.551 35.9398C39.1854 35.2125 40.0153 35.5513 40.4257 36.4264C40.8362 37.3014 40.0017 38.4942 39.046 38.611Z" fill="#23275B"/>
<path d="M67.2896 36.4531C67.5307 40.3684 67.0261 44.3348 65.8039 48.0669" stroke="#23275B" stroke-width="1.4" stroke-linecap="round" stroke-linejoin="round"/>
<path d="M9.40111 34.8526C9.47454 30.569 10.9967 26.3292 13.6652 22.9739" stroke="#23275B" stroke-width="1.4" stroke-linecap="round" stroke-linejoin="round"/>
<path d="M13.2573 26.4205C14.1059 24.2866 15.4755 22.3532 17.198 20.8411" stroke="#23275B" stroke-width="1.4" stroke-linecap="round" stroke-linejoin="round"/>
</svg>
