<svg xmlns="http://www.w3.org/2000/svg" width="4107" height="1012" viewBox="0 0 4107 1012" fill="none">
  <path
    d="M247.99 75.014L241.206 78.9864C91.8056 166.474 0 326.622 0 499.754V508.733C0 786.68 225.32 1012 503.267 1012H3614.2C3886.37 1012 4107 791.367 4107 519.201C4107 335.473 4004.79 167.001 3841.84 82.1309L3806.2 63.5699C3648.58 -18.5278 3461.3 -20.7818 3301.74 57.4983L3203.99 105.457C3058.53 176.818 2886.52 167.884 2749.24 81.8395C2603.03 -9.80154 2418.26 -13.5685 2268.43 72.0373L2250.47 82.3007C2100.26 168.128 1916.47 170.674 1763.94 89.0387L1720.41 65.7419C1566.08 -16.8555 1380.12 -14.2802 1228.14 72.5593L1210.75 82.4965C1061.85 167.571 878.636 165.657 731.553 77.4911C582.919 -11.6043 397.529 -12.5541 247.99 75.014Z"
    fill="#072446"
  />
</svg>
