<svg width="43" height="71" viewBox="0 0 43 71" fill="none" xmlns="http://www.w3.org/2000/svg">
<path d="M17.0584 55.1536C17.6866 55.4098 18.3493 55.7007 18.7152 56.2756C19.3158 57.2106 18.8257 58.5335 17.949 59.2123C17.0722 59.891 15.9263 60.0849 14.8356 60.265C12.5989 60.6252 10.3691 60.9853 8.13248 61.3455C6.15124 61.6641 4.10787 62.0104 2.43727 63.1186C0.766678 64.2267 -0.427591 66.3323 0.145382 68.2577C0.711451 70.1624 2.9205 71.2775 4.87413 70.9381C6.82776 70.5987 8.42932 69.0542 9.2163 67.2326C9.35436 66.9071 9.49243 66.5539 9.78927 66.3669C10.0723 66.1868 10.4313 66.2076 10.7626 66.2214C13.0959 66.3461 15.4431 66.2561 17.7626 65.9513C19.1294 65.7712 20.5101 65.5011 21.7043 64.8224C22.8986 64.1367 23.9065 62.9662 24.0377 61.5879C24.5761 55.7077 19.1156 55.202 19.2192 52.3831C19.2882 50.4715 25.3424 51.2473 23.5268 50.2984C21.5041 49.2387 18.9085 48.5461 17.8109 48.5669C16.4509 48.5876 14.3385 49.9936 14.2488 51.6074C14.1245 53.8792 15.3326 54.461 17.0515 55.1743L17.0584 55.1536Z" fill="#FFC40C"/>
<path d="M28.5374 47.0156C32.7899 34.701 37.4427 21.3545 40.8736 8.79055C36.1587 6.42876 31.0295 5.90931 25.8797 4.77344C21.6825 17.2542 19.0316 30.2822 15.8906 43.0677C20.4744 43.885 24.2712 45.1525 28.5374 47.0156Z" fill="#FFC40C"/>
<path d="M41.9989 5.1418C37.0976 3.18172 32.0789 1.20086 26.8048 1L25.7969 5.01714C31.071 5.21799 36.0897 7.19884 40.991 9.15892" stroke="#23275B" stroke-width="1.4" stroke-linecap="round" stroke-linejoin="round"/>
<path d="M38.8242 8.05864C39.1487 6.75654 39.48 5.45445 39.8045 4.15234" stroke="#23275B" stroke-width="1.4" stroke-linecap="round" stroke-linejoin="round"/>
<path d="M35.8555 6.87268C36.1454 5.7091 36.4423 4.53858 36.7322 3.375" stroke="#23275B" stroke-width="1.4" stroke-linecap="round" stroke-linejoin="round"/>
<path d="M31.8008 5.63514C32.1114 4.4023 32.4221 3.16946 32.7258 1.92969" stroke="#23275B" stroke-width="1.4" stroke-linecap="round" stroke-linejoin="round"/>
<path d="M28.5456 5.01215C28.4973 3.94553 28.7182 2.86507 29.1876 1.90234" stroke="#23275B" stroke-width="1.4" stroke-linecap="round" stroke-linejoin="round"/>
<path d="M25.6653 5.04297C21.551 17.3645 18.8311 30.1084 16.125 42.8247" stroke="#23275B" stroke-width="1.4" stroke-linecap="round" stroke-linejoin="round"/>
<path d="M41.9144 5.55859C40.0644 11.6951 38.2212 17.8247 36.3711 23.9612" stroke="#23275B" stroke-width="1.4" stroke-linecap="round" stroke-linejoin="round"/>
<path d="M15.9102 42.9102C17.56 43.1456 19.1064 43.8175 20.6596 44.4062C22.9101 45.265 25.2158 45.9576 27.556 46.4909" stroke="#23275B" stroke-width="1.4" stroke-linecap="round" stroke-linejoin="round"/>
<path d="M17.023 43.25C16.7054 44.7391 16.3879 46.2282 16.0703 47.7173C18.7212 48.7078 21.7931 49.6636 24.5061 50.467C25.0377 49.1164 25.7832 47.6134 26.1284 46.2074" stroke="#23275B" stroke-width="1.4" stroke-linecap="round" stroke-linejoin="round"/>
<path d="M16.7461 45.7344C19.4384 46.5863 22.1307 47.4451 24.8229 48.297" stroke="#23275B" stroke-width="1.4" stroke-linecap="round" stroke-linejoin="round"/>
<path d="M22.1445 45.9414C23.2353 46.357 24.3467 46.7171 25.4719 47.008" stroke="#23275B" stroke-width="1.4" stroke-linecap="round" stroke-linejoin="round"/>
<path d="M24.1672 32.7923C24.0153 33.852 23.8634 34.974 24.2914 35.9506C24.4226 36.2553 24.6297 36.5601 24.9472 36.6709C25.5685 36.8925 26.1622 36.2969 26.535 35.7497C29.4344 31.4694 30.7115 26.2887 31.4363 21.1634C31.6641 19.5566 31.5537 16.9247 29.2963 16.9454C27.8673 16.9593 27.5291 18.4484 27.1494 19.5704C25.6859 23.9131 24.823 28.2627 24.1672 32.7854V32.7923Z" stroke="#23275B" stroke-width="1.4" stroke-linecap="round" stroke-linejoin="round"/>
<path d="M28.7031 46.4622C29.9526 42.8052 31.1952 39.1413 32.4447 35.4844" stroke="#23275B" stroke-width="1.4" stroke-linecap="round" stroke-linejoin="round"/>
<path d="M22.0703 24.4435C22.6985 22.0402 23.3267 19.6299 23.9549 17.2266" stroke="#23275B" stroke-width="1.4" stroke-linecap="round" stroke-linejoin="round"/>
<path d="M33.4609 8.52344C35.0694 9.04982 36.6848 9.5762 38.2932 10.1026" stroke="#23275B" stroke-width="1.4" stroke-linecap="round" stroke-linejoin="round"/>
</svg>
