<svg width="64" height="116" viewBox="0 0 64 116" fill="none" xmlns="http://www.w3.org/2000/svg">
<path d="M-10 115.308C-8.55518 104.367 -1.06022 93.6736 9.7082 91.3049C20.4766 88.9362 33.0962 97.7342 32.2609 108.743C21.9666 111.54 12.1238 101.75 9.16641 91.5079C6.02844 80.6569 8.10534 67.9561 16.0519 59.9025C23.9984 51.8489 38.0402 49.9314 46.9123 56.9473C51.0435 60.2183 53.2559 67.6178 48.628 70.1444C45.9641 71.6107 42.6455 70.37 40.0042 68.8134C21.7408 58.0526 15.4875 31.1847 27.1138 13.4983C31.6063 6.66285 38.898 1.06815 47.0703 1.00048C55.2426 0.932799 63.4826 8.08405 62.5345 16.1828" stroke="#0E2C59" stroke-width="1.4" stroke-linecap="round" stroke-linejoin="round"/>
</svg>
