<svg width="258" height="267" viewBox="0 0 258 267" fill="none" xmlns="http://www.w3.org/2000/svg">
<path d="M1 240.29C13.7469 236.634 27.226 232.957 40.1021 236.226C52.9567 239.473 64.3687 252.398 60.9881 265.215C57.3492 268.634 51.7725 263.151 51.1696 258.183C49.4255 243.645 62.7753 231.516 76.4265 226.183C90.0778 220.849 105.301 219.409 117.854 211.86C136.652 200.527 145.393 177.968 149.721 156.462C154.049 134.957 155.406 112.398 165.052 92.6989C170.93 80.6774 181.007 69.4086 194.271 67.4946C207.535 65.5806 222.5 77.5161 219.421 90.5484C210.076 95.3441 198.707 83.5591 201.14 73.3441C203.551 63.129 214.705 57.086 225.213 56.5054C235.72 55.9247 245.905 59.4946 256.133 61.9462C279.172 67.5161 304.343 67.4516 325.638 57.0645C346.933 46.6989 363.34 24.6559 362.694 1" stroke="#1A245C" stroke-width="1.4" stroke-linecap="round" stroke-linejoin="round"/>
</svg>
