<svg width="243" height="176" viewBox="0 0 243 176" fill="none" xmlns="http://www.w3.org/2000/svg">
<path d="M-120 240.29C-107.253 236.634 -93.774 232.957 -80.8979 236.226C-68.0433 239.473 -56.6313 252.398 -60.0119 265.215C-63.6508 268.634 -69.2275 263.151 -69.8304 258.183C-71.5745 243.645 -58.2247 231.516 -44.5735 226.183C-30.9222 220.849 -15.699 219.409 -3.14589 211.86C15.6515 200.527 24.3935 177.968 28.7214 156.462C33.0493 134.957 34.4059 112.398 44.0522 92.6989C49.9304 80.6774 60.0075 69.4086 73.2712 67.4946C86.5349 65.5806 101.5 77.5161 98.4205 90.5484C89.0756 95.3441 77.7066 83.5591 80.1397 73.3441C82.5513 63.129 93.705 57.086 104.213 56.5054C114.72 55.9247 124.905 59.4946 135.133 61.9462C158.172 67.5161 183.343 67.4516 204.638 57.0645C225.933 46.6989 242.34 24.6559 241.694 1" stroke="#B81E29" stroke-width="1.4" stroke-linecap="round" stroke-linejoin="round"/>
</svg>
