<svg width="316" height="408" viewBox="0 0 316 408" fill="none" xmlns="http://www.w3.org/2000/svg">
<path d="M433.669 197.67C420.743 194.709 407.166 191.412 397.474 182.327C387.791 173.27 384.049 156.439 393.204 146.853C398.042 145.619 400.273 153.115 398.4 157.755C392.899 171.325 375.35 175.49 360.821 173.56C346.293 171.63 332.27 165.532 317.632 166.072C295.698 166.907 277.14 182.43 262.956 199.164C248.772 215.898 236.68 234.99 218.713 247.572C207.756 255.254 193.488 260.248 180.951 255.512C168.415 250.776 161.084 233.094 170.079 223.174C180.578 223.493 184.834 239.305 177.766 247.071C170.717 254.848 158.032 254.747 148.553 250.176C139.074 245.605 131.884 237.556 124.116 230.466C106.639 214.454 84.5733 202.343 60.9104 201.142C37.2579 199.922 12.2395 211.288 1.37004 232.309" stroke="#1A245C" stroke-width="1.4" stroke-linecap="round" stroke-linejoin="round"/>
</svg>
