<svg width="113" height="69" viewBox="0 0 113 69" fill="none" xmlns="http://www.w3.org/2000/svg">
<path d="M1.00098 40.9224C10.1398 34.7354 23.1116 33.2361 32.0347 39.7129C40.9578 46.1897 42.7625 61.4672 33.9779 68.1548C25.0493 62.3171 25.8309 48.4561 31.5231 39.4427C37.5506 29.8898 48.4247 23.0066 59.7233 23.598C71.0219 24.1893 81.7818 33.4128 82.4298 44.7052C82.7284 49.9662 78.6664 56.5347 73.7037 54.7532C70.8382 53.7357 69.5616 50.4308 68.9709 47.4224C64.8848 26.6221 80.8168 4.10193 101.761 1.04612C109.854 -0.135514 118.88 1.59956 124.358 7.66388C129.837 13.7282 129.964 24.638 123.28 29.3083" stroke="#0E2C59" stroke-width="1.4" stroke-linecap="round" stroke-linejoin="round"/>
</svg>
