<svg width="230" height="449" viewBox="0 0 230 449" fill="none" xmlns="http://www.w3.org/2000/svg">
<path d="M395.42 126.787C385.606 135.705 375.389 145.234 371.396 157.905C367.396 170.545 372.386 187.049 385.065 190.916C389.887 189.62 388.157 181.992 384.249 178.867C372.802 169.737 355.465 174.711 343.748 183.516C332.032 192.321 322.799 204.51 309.776 211.216C290.25 221.242 266.466 216.811 245.899 209.18C225.333 201.549 205.433 190.837 183.605 188.679C170.289 187.356 155.405 189.999 146.8 200.273C138.196 210.547 140.475 229.552 153.179 233.788C162.173 228.363 158.13 212.495 148.162 209.191C138.206 205.869 127.2 212.177 121.179 220.808C115.158 229.439 112.837 239.979 109.543 249.967C102.161 272.491 88.867 293.865 68.8318 306.512C48.8149 319.171 21.4374 321.531 1.65803 308.539" stroke="#0E2C59" stroke-width="1.4" stroke-linecap="round" stroke-linejoin="round"/>
</svg>
