<svg width="82" height="91" viewBox="0 0 82 91" fill="none" xmlns="http://www.w3.org/2000/svg">
<path d="M21.1767 74.8349C19.7198 74.1406 18.2559 73.4664 16.813 72.7451C14.5415 71.6109 12.2828 70.4457 10.0212 69.2927C9.89272 69.2261 9.76694 69.1608 9.63709 69.0969C9.12699 68.8493 8.62101 68.7509 8.20293 69.2555C7.85938 69.6689 7.96577 70.2951 8.5664 70.7675C9.20299 71.2688 9.8986 71.7153 10.62 72.0793C15.1972 74.3928 19.7856 76.6779 24.3768 78.9645C25.7769 79.6636 26.6832 79.1148 26.5436 77.5445C26.3372 75.2453 26.0212 72.9543 25.6849 70.6699C25.4535 69.0998 25.1083 67.546 24.8119 65.9832C24.7588 65.6992 24.7303 65.4074 24.6392 65.1378C24.4054 64.4625 23.9004 64.1526 23.3347 64.3002C22.7066 64.4634 22.5379 64.9914 22.6951 65.8013C23.196 68.3969 23.6522 71.0001 24.1179 73.6048C24.1473 73.7773 24.094 73.9651 24.0662 74.3132C23.395 73.9376 23.0995 73.3876 22.8317 72.8827C21.5109 70.3746 20.1397 67.8917 18.9647 65.3122C17.4478 61.9843 16.2317 58.5217 15.4607 54.9345C13.9475 47.8878 14.9084 41.2049 18.8678 35.0931C21.5833 30.9006 25.4424 28.2351 30.3078 27.0868C30.682 27.0006 31.0599 26.9334 31.4417 26.8784C31.5744 26.8583 31.7153 26.9075 32.0508 26.9483C31.9059 27.4305 31.7807 27.8682 31.646 28.3044C30.261 32.7804 30.4623 37.1971 32.3899 41.429C34.6424 46.3766 38.5212 49.2373 43.9899 49.6298C47.9238 49.9099 51.335 47.8395 52.9116 44.4411C53.6206 42.911 53.8007 41.2809 53.6625 39.6293C53.1959 34.1003 50.2725 30.1314 45.7185 27.276C43.1529 25.6678 40.292 24.8843 37.2901 24.5817C36.9572 24.5492 36.6273 24.4977 36.2989 24.4367C36.2181 24.4221 36.1496 24.325 35.9806 24.186C36.3631 23.704 36.7258 23.2014 37.1363 22.7442C39.7414 19.8315 43.0089 18.0901 46.7812 17.281C50.3435 16.5167 53.935 16.5336 57.5306 16.9357C64.0398 17.6663 69.8907 19.9601 74.8751 24.2837C76.0747 25.3234 77.2428 26.3911 77.9623 27.852C78.2217 28.3798 78.6184 28.7019 79.2324 28.4939C79.7283 28.3237 79.9807 27.6408 79.6193 27.0019C79.0812 26.049 78.4852 25.09 77.7403 24.2999C74.4476 20.82 70.5421 18.2463 66.0274 16.6766C60.6512 14.8034 55.0971 14.2025 49.4245 14.7267C44.8069 15.1553 40.5759 16.6259 37.1017 19.8194C35.8704 20.9485 34.8416 22.3161 33.812 23.6456C33.3988 24.1801 33.0311 24.5091 32.3327 24.6049C22.887 25.9071 17 31.4463 14.0554 40.3417C12.3121 45.6063 12.1944 50.9587 13.6026 56.3094C15.255 62.5837 17.6543 68.5445 21.0578 74.0756C21.1576 74.2368 21.286 74.3821 21.4008 74.534C21.3274 74.6361 21.2528 74.7342 21.1794 74.8363L21.1767 74.8349ZM33.4893 29.2883C33.7097 28.6606 33.8543 28.1987 34.0324 27.7508C34.4832 26.6202 34.5404 26.5884 35.7133 26.619C37.9916 26.6795 40.1841 27.1606 42.3019 27.9756C45.2002 29.0931 47.5509 30.9318 49.3056 33.494C50.8681 35.7718 51.7229 38.2877 51.5448 41.0987C51.3398 44.2889 49.3549 46.6479 46.2362 47.3038C45.3592 47.4883 44.4143 47.5485 43.5261 47.4536C39.7956 47.0431 36.9463 45.144 35.0449 41.9482C32.653 37.9303 32.3881 33.5968 33.4907 29.2856L33.4893 29.2883Z" fill="#D6001C"/>
</svg>
