<svg width="253" height="232" viewBox="0 0 253 232" fill="none" xmlns="http://www.w3.org/2000/svg">
<path d="M-31.6555 230.651C-35.5273 218.531 -30.1378 204.619 -20.2537 196.582C-10.3696 188.546 3.16136 185.967 15.7807 187.639C22.2971 188.498 28.9379 190.57 33.5895 195.202C38.241 199.833 40.2589 207.53 36.9368 213.185C30.5039 209.476 26.5199 202.261 25.7242 194.883C23.4698 173.824 44.9101 157.169 65.714 153.198C86.5442 149.242 108.175 153.264 129.125 149.922C163.78 144.399 193.948 117.057 202.803 83.1358C205.254 73.7295 206.128 63.4319 202.211 54.5518C198.293 45.6718 188.487 38.8593 178.985 40.9157C179.644 53.6077 194.541 61.9503 207.008 59.478C219.47 56.9849 229.068 46.7989 235.361 35.7617C241.655 24.7244 245.541 12.4398 251.861 1.41776" stroke="#1A245C" stroke-width="1.4" stroke-linecap="round" stroke-linejoin="round"/>
</svg>
