<svg width="60" height="55" viewBox="0 0 60 55" fill="none" xmlns="http://www.w3.org/2000/svg">
<path d="M52.5758 33.321C48.7644 30.0877 44.2967 28.0505 39.5381 26.2035C39.5349 26.7335 39.5206 27.0588 39.532 27.3839C39.7617 34.2587 33.5672 40.4184 26.6164 40.6037C22.698 40.7074 19.952 38.2882 19.5135 34.4022C19.165 31.3226 20.3034 28.7906 22.4979 26.7235C25.8686 23.5468 29.9785 22.5492 34.5143 22.8917C35.0318 22.9291 35.5482 22.9839 36.3125 23.0517C36.0079 22.4524 35.8055 22.0011 35.556 21.5751C33.9222 18.7999 31.6235 16.6497 29.0379 14.7946C26.083 12.6741 22.833 11.1966 19.2384 10.5534C16.2474 10.0188 13.3303 10.0825 10.6656 11.7662C10.1648 12.0831 9.66849 12.1626 9.26731 11.6488C8.83843 11.1011 9.13691 10.5954 9.58068 10.2969C10.2835 9.82229 11.0299 9.37458 11.8203 9.07421C14.5783 8.02436 17.438 8.00064 20.2854 8.63542C27.0581 10.1445 32.4808 13.779 36.599 19.3372C37.3865 20.4017 37.9492 21.6408 38.5291 22.8445C38.8131 23.4367 39.1065 23.8314 39.7776 24.0746C44.3864 25.7366 48.7907 27.8171 52.7595 30.7412C52.8237 30.7861 52.9306 30.7697 53.2563 30.8188C52.4589 29.3428 51.7285 27.9864 50.998 26.6301C50.796 26.2519 50.5629 25.8812 50.4178 25.4845C50.2585 25.0451 50.3196 24.5374 50.8109 24.4179C51.1557 24.3346 51.6364 24.4666 51.945 24.6714C52.2371 24.8683 52.3928 25.2761 52.59 25.6035C53.9704 27.8953 55.3449 30.1904 56.7194 32.4854C57.622 33.9949 57.3051 34.6846 55.5854 35.1372C52.3128 35.9985 49.0479 36.8908 45.7783 37.7688C45.548 37.8302 45.3231 37.9208 45.0885 37.9463C44.6252 37.9942 44.1458 37.8814 44.0684 37.3826C44.011 37.0181 44.1169 36.5198 44.346 36.2499C44.5964 35.9548 45.061 35.7947 45.4597 35.6762C47.1956 35.1584 48.9416 34.6732 50.6837 34.178C51.2741 34.0112 51.8636 33.8511 52.4548 33.6885C52.4929 33.5657 52.5335 33.4446 52.5716 33.3218L52.5758 33.321ZM37.1627 25.4978C34.9072 24.8832 32.7426 24.7586 30.5519 25.097C28.2918 25.4451 26.255 26.2884 24.4941 27.751C22.8644 29.1048 21.74 30.7499 21.5828 32.9292C21.3196 36.6053 23.6264 38.896 27.2848 38.4392C31.7064 37.8891 34.8024 35.4572 36.6439 31.452C37.5024 29.5881 37.6622 27.6258 37.1644 25.4954L37.1627 25.4978Z" fill="#D6001C"/>
</svg>
