<svg width="275" height="313" viewBox="0 0 275 313" fill="none" xmlns="http://www.w3.org/2000/svg">
<path d="M-84.0819 121.371C-77.2965 110.607 -63.1798 105.779 -50.6678 108.173C-38.1559 110.566 -27.4739 119.263 -20.633 129.999C-17.0967 135.539 -14.4091 141.955 -14.9605 148.496C-15.5118 155.037 -20.1045 161.535 -26.5706 162.631C-27.8718 155.321 -24.9135 147.628 -19.7778 142.271C-5.11009 126.993 21.435 132.685 37.8631 146.053C54.2964 159.451 65.138 178.595 81.1788 192.48C107.708 215.45 148.051 220.945 179.713 205.893C188.49 201.716 196.934 195.758 201.21 187.045C205.485 178.331 204.389 166.442 196.7 160.492C187.41 169.164 190.611 185.935 200.527 193.887C210.455 201.821 224.428 202.612 236.926 200.326C249.424 198.04 261.328 193.109 273.831 190.853" stroke="#1A245C" stroke-width="1.4" stroke-linecap="round" stroke-linejoin="round"/>
</svg>
