<svg width="257" height="267" viewBox="0 0 257 267" fill="none" xmlns="http://www.w3.org/2000/svg">
<path d="M-106 240.29C-93.2531 236.634 -79.774 232.957 -66.8979 236.226C-54.0433 239.473 -42.6313 252.398 -46.0119 265.215C-49.6508 268.634 -55.2275 263.151 -55.8304 258.183C-57.5745 243.645 -44.2247 231.516 -30.5735 226.183C-16.9222 220.849 -1.69903 219.409 10.8541 211.86C29.6515 200.527 38.3935 177.968 42.7214 156.462C47.0493 134.957 48.4059 112.398 58.0522 92.6989C63.9304 80.6774 74.0075 69.4086 87.2712 67.4946C100.535 65.5806 115.5 77.5161 112.421 90.5484C103.076 95.3441 91.7066 83.5591 94.1397 73.3441C96.5513 63.129 107.705 57.086 118.213 56.5054C128.72 55.9247 138.905 59.4946 149.133 61.9462C172.172 67.5161 197.343 67.4516 218.638 57.0645C239.933 46.6989 256.34 24.6559 255.694 1" stroke="#1A245C" stroke-width="1.4" stroke-linecap="round" stroke-linejoin="round"/>
</svg>
