<svg width="348" height="271" viewBox="0 0 348 271" fill="none" xmlns="http://www.w3.org/2000/svg">
<path d="M346.71 136.025C342.18 124.134 329.292 116.618 316.554 116.498C303.815 116.378 291.629 122.799 282.805 131.975C278.246 136.709 274.347 142.47 273.598 148.991C272.849 155.512 276.07 162.788 282.193 165.137C284.91 158.227 283.527 150.102 279.548 143.837C268.18 125.968 241.033 126.316 222.292 136.182C203.54 146.077 189.137 162.709 170.674 173.158C140.137 190.448 99.5032 187.882 71.4296 166.884C63.6487 161.058 56.5444 153.552 54.0703 144.167C51.5963 134.782 55.0148 123.342 63.7262 119.025C71.1247 129.358 64.6798 145.169 53.3912 151.01C42.094 156.831 28.2392 154.852 16.4369 150.147C4.63461 145.442 -6.06333 138.261 -17.8767 133.584" stroke="#1A245C" stroke-width="1.4" stroke-linecap="round" stroke-linejoin="round"/>
</svg>
