<svg width="284" height="151" viewBox="0 0 284 151" fill="none" xmlns="http://www.w3.org/2000/svg">
<path d="M-49.9708 149.043C-50.5737 136.333 -41.7671 124.29 -30.1399 119.086C-18.5126 113.882 -4.77518 114.892 6.98128 119.774C13.0533 122.29 18.9315 126.011 22.2259 131.688C25.5203 137.366 25.4773 145.323 20.8048 149.925C15.551 144.677 13.5701 136.677 14.7113 129.344C17.9841 108.419 43.0043 97.8817 64.1272 99.4301C85.2716 101 105.124 110.484 126.225 112.677C161.129 116.312 197.346 97.7097 214.679 67.2366C219.48 58.7849 222.99 49.0645 221.504 39.4731C220.019 29.8817 212.31 20.7634 202.599 20.2903C199.951 32.7204 212.181 44.6344 224.863 45.4731C237.546 46.2903 249.453 38.9355 258.389 29.9032C267.324 20.871 274.258 10.0108 283.215 1" stroke="white" stroke-width="1.4" stroke-linecap="round" stroke-linejoin="round"/>
</svg>
