<svg width="232" height="151" viewBox="0 0 232 151" fill="none" xmlns="http://www.w3.org/2000/svg">
<path d="M334.19 2.20701C334.792 14.9167 325.986 26.9597 314.359 32.164C302.731 37.3683 288.994 36.3575 277.237 31.4758C271.165 28.9597 265.287 25.2393 261.993 19.5618C258.698 13.8844 258.741 5.92743 263.414 1.32528C268.668 6.57259 270.649 14.5726 269.507 21.9059C266.235 42.8307 241.214 53.3683 220.092 51.8199C198.947 50.25 179.095 40.7661 157.993 38.5726C123.09 34.9382 86.8732 53.5403 69.54 84.0134C64.7384 92.4651 61.2286 102.185 62.7143 111.777C64.2001 121.368 71.9085 130.487 81.6194 130.96C84.2679 118.53 72.0377 106.616 59.3553 105.777C46.673 104.96 34.7658 112.315 25.8301 121.347C16.8943 130.379 9.96101 141.239 1.0037 150.25" stroke="#072445" stroke-width="1.4" stroke-linecap="round" stroke-linejoin="round"/>
</svg>
