<svg width="99" height="52" viewBox="0 0 99 52" fill="none" xmlns="http://www.w3.org/2000/svg">
<path d="M-18 16.0337C-9.12322 9.49205 4.17691 11.2626 12.6324 18.3443C21.0879 25.4261 25.1502 36.6788 25.7821 47.6616C19.7038 47.5415 15.8221 40.6399 15.8822 34.5784C16.0026 20.4749 31.1383 9.49207 45.1907 10.9924C59.2431 12.4628 70.8581 23.8356 75.8532 37.0389C77.0869 40.3097 77.9595 44.0307 76.5754 47.2115C75.1912 50.3923 70.6174 52.3128 68.0296 49.9422C67.3375 49.312 66.8861 48.4718 66.4949 47.6315C62.0114 38.0592 64.9603 26.2063 71.6104 17.9842C78.2604 9.76219 88.0399 4.6309 98 1" stroke="white" stroke-width="1.4" stroke-linecap="round" stroke-linejoin="round"/>
</svg>
