<svg width="235" height="151" viewBox="0 0 235 151" fill="none" xmlns="http://www.w3.org/2000/svg">
<path d="M334.186 1.88279C334.789 14.5925 325.982 26.6355 314.355 31.8398C302.727 37.0441 288.99 36.0333 277.234 31.1516C271.162 28.6355 265.283 24.915 261.989 19.2376C258.695 13.5602 258.738 5.60321 263.41 1.00106C268.664 6.24837 270.645 14.2484 269.504 21.5817C266.231 42.5064 241.211 53.0441 220.088 51.4957C198.943 49.9258 179.091 40.4419 157.989 38.2484C123.086 34.614 86.8693 53.2161 69.5361 83.6892C64.7344 92.1408 61.2247 101.861 62.7104 111.453C64.1962 121.044 71.9046 130.162 81.6155 130.635C84.264 118.205 72.0338 106.291 59.3514 105.453C46.6691 104.635 34.7619 111.99 25.8262 121.023C16.8904 130.055 9.9571 140.915 0.999797 149.926" stroke="#B81E29" stroke-width="1.4" stroke-linecap="round" stroke-linejoin="round"/>
</svg>
