<svg width="335" height="151" viewBox="0 0 335 151" fill="none" xmlns="http://www.w3.org/2000/svg">
<path d="M1.02919 149.043C0.426297 136.333 9.23288 124.29 20.8601 119.086C32.4874 113.882 46.2248 114.892 57.9813 119.774C64.0533 122.29 69.9315 126.011 73.2259 131.688C76.5203 137.366 76.4773 145.323 71.8048 149.925C66.551 144.677 64.5701 136.677 65.7113 129.344C68.9841 108.419 94.0043 97.8817 115.127 99.4301C136.272 101 156.124 110.484 177.225 112.677C212.129 116.312 248.346 97.7097 265.679 67.2366C270.48 58.7849 273.99 49.0645 272.504 39.4731C271.019 29.8817 263.31 20.7634 253.599 20.2903C250.951 32.7204 263.181 44.6344 275.863 45.4731C288.546 46.2903 300.453 38.9355 309.389 29.9032C318.324 20.871 325.258 10.0108 334.215 1" stroke="#1A245C" stroke-width="1.4" stroke-linecap="round" stroke-linejoin="round"/>
</svg>
